<?xml version="1.0" encoding="UTF-8"?><svg id="Layer_1" xmlns="http://www.w3.org/2000/svg" width="72" height="46" xmlns:xlink="http://www.w3.org/1999/xlink" viewBox="0 0 72 46"><defs><clipPath id="clippath"><path d="M14.33,1.59h4.32v19.47h-4.32V1.59ZM9.11,1.59H.76v19.47h4.32V4.58h.6l3.75,16.47h4.11L9.11,1.59ZM28.22,19.99c-.89-.99-1.33-2.29-1.33-3.91v-5.72c0-1.64.44-2.94,1.33-3.89.89-.95,2.11-1.43,3.66-1.43,1.04,0,1.91.19,2.59.58s1.2.91,1.55,1.58c.34.67.51,1.41.51,2.23v.27h4.32v-.13c0-2.59-.78-4.65-2.34-6.17-1.56-1.52-3.77-2.28-6.63-2.28s-5.17.8-6.85,2.41c-1.68,1.61-2.53,3.91-2.53,6.9v5.59c0,1.98.38,3.66,1.13,5.04h6.1c-.58-.25-1.09-.59-1.51-1.06ZM35.44,20.21c-.32.37-.74.64-1.22.85h6.64v-8.1h-9.84v3.72h5.52v.33c0,1.29-.37,2.35-1.1,3.19ZM58.55,16.09v.6c0,1.35-.38,2.48-1.15,3.37-.38.44-.85.77-1.42,1h5.94c.64-1.27.96-2.77.96-4.5v-.47h-4.32ZM53.89,1.13c-2.88,0-5.17.8-6.85,2.41-1.68,1.61-2.53,3.91-2.53,6.9v5.59c0,1.99.38,3.66,1.12,5.04h6.22c-.63-.24-1.17-.6-1.62-1.1-.89-.96-1.33-2.25-1.33-3.87v-5.72c0-1.64.44-2.94,1.33-3.89.89-.95,2.11-1.43,3.66-1.43s2.74.44,3.51,1.33c.77.89,1.15,2.02,1.15,3.39v.33h4.32v-.2c0-2.73-.78-4.87-2.34-6.43s-3.77-2.34-6.63-2.34Z" fill="none"/></clipPath><clipPath id="clippath-1"><path d="M14.33,72.33h4.32v19.47h-4.32v-19.47ZM9.11,72.33H.76v19.47h4.32v-16.47h.6l3.75,16.47h4.11l-4.44-19.47ZM28.22,90.73c-.89-.99-1.33-2.29-1.33-3.91v-5.72c0-1.64.44-2.94,1.33-3.89.89-.95,2.11-1.43,3.66-1.43,1.04,0,1.91.19,2.59.58s1.2.91,1.55,1.58c.34.67.51,1.41.51,2.23v.27h4.32v-.13c0-2.59-.78-4.65-2.34-6.17-1.56-1.52-3.77-2.28-6.63-2.28s-5.17.8-6.85,2.41c-1.68,1.61-2.53,3.91-2.53,6.9v5.59c0,1.98.38,3.66,1.13,5.04h6.1c-.58-.25-1.09-.59-1.51-1.06ZM35.44,90.95c-.32.37-.74.64-1.22.85h6.64v-8.1h-9.84v3.72h5.52v.33c0,1.29-.37,2.35-1.1,3.19ZM58.55,86.82v.6c0,1.35-.38,2.48-1.15,3.37-.38.44-.85.77-1.42,1h5.94c.64-1.27.96-2.77.96-4.5v-.47h-4.32ZM53.89,71.86c-2.88,0-5.17.8-6.85,2.41-1.68,1.61-2.53,3.91-2.53,6.9v5.59c0,1.99.38,3.66,1.12,5.04h6.22c-.63-.24-1.17-.6-1.62-1.1-.89-.96-1.33-2.25-1.33-3.87v-5.72c0-1.64.44-2.94,1.33-3.89.89-.95,2.11-1.43,3.66-1.43s2.74.44,3.51,1.33c.77.89,1.15,2.02,1.15,3.39v.33h4.32v-.2c0-2.73-.78-4.87-2.34-6.43s-3.77-2.34-6.63-2.34Z" fill="none"/></clipPath></defs><path d="M.76,34.12v-6.46h2.32l1.28,5.63h.17v-5.63h1.2v6.46h-2.32l-1.28-5.63h-.17v5.63H.76Z"/><path d="M9.07,34.25c-.46,0-.86-.1-1.21-.29s-.62-.47-.81-.82c-.19-.35-.29-.77-.29-1.25v-.11c0-.48.1-.9.29-1.25.19-.35.46-.63.8-.82.34-.19.75-.29,1.2-.29s.84.1,1.17.3c.33.2.59.48.78.83s.28.77.28,1.23v.4h-3.33c.01.31.13.57.35.77.22.2.49.3.81.3s.57-.07.72-.21c.15-.14.27-.3.35-.47l.95.5c-.09.16-.21.33-.37.52s-.38.35-.65.48-.62.2-1.03.2ZM7.95,31.3h2.14c-.03-.26-.13-.48-.32-.64-.19-.16-.43-.24-.73-.24s-.56.08-.75.24c-.19.16-.3.37-.34.64Z"/><path d="M11.61,34.12l1.66-2.31-1.64-2.27h1.35l1.04,1.52h.17l1.04-1.52h1.35l-1.64,2.27,1.66,2.31h-1.37l-1.04-1.54h-.17l-1.04,1.54h-1.37Z"/><path d="M19.23,34.12c-.3,0-.55-.09-.73-.28s-.28-.44-.28-.75v-2.58h-1.14v-.96h1.14v-1.42h1.16v1.42h1.26v.96h-1.26v2.38c0,.19.09.28.26.28h.89v.96h-1.29Z"/><path d="M26.23,34.25c-.44,0-.85-.1-1.21-.3-.36-.2-.65-.49-.86-.88s-.32-.85-.32-1.41v-1.55c0-.83.23-1.47.7-1.92.47-.45,1.1-.67,1.9-.67s1.41.21,1.84.63c.43.42.65.99.65,1.71v.04h-1.2v-.07c0-.23-.05-.43-.14-.62-.1-.19-.24-.33-.43-.44-.19-.11-.43-.16-.72-.16-.43,0-.77.13-1.02.4s-.37.62-.37,1.08v1.59c0,.45.12.81.37,1.08.25.27.59.41,1.03.41s.77-.12.97-.35c.2-.23.3-.53.3-.89v-.09h-1.53v-1.03h2.73v3.3h-1.13v-.62h-.17c-.04.1-.11.22-.21.33-.1.12-.24.22-.43.29-.19.08-.45.12-.78.12Z"/><path d="M32.23,34.25c-.46,0-.86-.1-1.21-.29s-.62-.47-.81-.82c-.19-.35-.29-.77-.29-1.25v-.11c0-.48.1-.9.29-1.25.19-.35.46-.63.8-.82.34-.19.75-.29,1.2-.29s.84.1,1.17.3c.33.2.59.48.78.83s.28.77.28,1.23v.4h-3.33c.01.31.13.57.35.77.22.2.49.3.81.3s.57-.07.72-.21c.15-.14.27-.3.35-.47l.95.5c-.09.16-.21.33-.37.52s-.38.35-.65.48-.62.2-1.03.2ZM31.12,31.3h2.14c-.03-.26-.13-.48-.32-.64-.19-.16-.43-.24-.73-.24s-.56.08-.75.24c-.19.16-.3.37-.34.64Z"/><path d="M35.47,34.12v-4.58h1.14v.6h.17c.07-.16.21-.31.42-.46.2-.14.51-.22.92-.22.36,0,.67.08.94.25.27.16.47.39.62.67.15.29.22.62.22,1v2.73h-1.16v-2.64c0-.34-.09-.6-.25-.78s-.41-.26-.72-.26c-.36,0-.63.12-.83.36-.2.24-.3.57-.3.99v2.33h-1.16Z"/><path d="M43.25,34.25c-.46,0-.86-.1-1.21-.29s-.62-.47-.81-.82c-.19-.35-.29-.77-.29-1.25v-.11c0-.48.1-.9.29-1.25.19-.35.46-.63.8-.82.34-.19.75-.29,1.2-.29s.84.1,1.17.3c.33.2.59.48.78.83s.28.77.28,1.23v.4h-3.33c.01.31.13.57.35.77.22.2.49.3.81.3s.57-.07.72-.21c.15-.14.27-.3.35-.47l.95.5c-.09.16-.21.33-.37.52s-.38.35-.65.48-.62.2-1.03.2ZM42.13,31.3h2.14c-.03-.26-.13-.48-.32-.64-.19-.16-.43-.24-.73-.24s-.56.08-.75.24c-.19.16-.3.37-.34.64Z"/><path d="M46.49,34.12v-4.58h1.14v.52h.17c.07-.18.18-.32.34-.41.16-.09.34-.13.55-.13h.55v1.03h-.57c-.3,0-.54.08-.73.24s-.29.4-.29.72v2.6h-1.16Z"/><path d="M51.45,34.25c-.33,0-.62-.06-.88-.17-.26-.11-.46-.28-.61-.5-.15-.22-.23-.48-.23-.8s.08-.58.23-.79c.15-.21.36-.37.63-.48.27-.11.57-.16.92-.16h1.26v-.26c0-.22-.07-.39-.2-.53-.14-.14-.35-.21-.65-.21s-.5.07-.65.2-.23.3-.28.51l-1.07-.36c.07-.23.19-.45.35-.64.16-.19.38-.35.66-.47.27-.12.61-.18,1-.18.6,0,1.08.15,1.43.45s.53.74.53,1.31v1.71c0,.19.09.28.26.28h.37v.96h-.78c-.23,0-.42-.06-.56-.17-.15-.11-.22-.26-.22-.44h0s-.18,0-.18,0c-.02.07-.08.17-.17.29-.09.12-.22.23-.41.32s-.44.14-.76.14ZM51.66,33.3c.33,0,.59-.09.8-.27.21-.18.31-.42.31-.72v-.09h-1.17c-.22,0-.38.05-.51.14s-.19.22-.19.39.07.3.19.41c.13.1.32.16.56.16Z"/><path d="M56.79,34.12c-.3,0-.55-.09-.73-.28s-.28-.44-.28-.75v-2.58h-1.14v-.96h1.14v-1.42h1.16v1.42h1.26v.96h-1.26v2.38c0,.19.09.28.26.28h.89v.96h-1.29Z"/><path d="M59.83,29c-.21,0-.39-.07-.53-.2-.15-.14-.22-.31-.22-.54s.07-.4.22-.53c.14-.14.32-.2.53-.2s.39.07.53.2c.14.14.21.31.21.53s-.07.4-.21.54c-.14.14-.32.2-.53.2ZM59.25,34.12v-4.58h1.16v4.58h-1.16Z"/><path d="M63.88,34.25c-.46,0-.86-.09-1.23-.28-.36-.19-.65-.45-.86-.8s-.31-.77-.31-1.27v-.15c0-.49.1-.91.31-1.27.21-.35.5-.62.86-.8.36-.19.77-.28,1.23-.28s.86.09,1.23.28c.36.18.65.45.86.8.21.35.31.77.31,1.27v.15c0,.49-.1.91-.31,1.27s-.5.62-.86.8c-.36.18-.77.28-1.23.28ZM63.88,33.21c.36,0,.65-.12.89-.35.23-.23.35-.56.35-.99v-.09c0-.43-.12-.76-.35-.99-.23-.23-.53-.35-.89-.35s-.65.12-.89.35c-.23.23-.35.56-.35.99v.09c0,.43.12.76.35.99.23.23.53.35.89.35Z"/><path d="M67.35,34.12v-4.58h1.14v.6h.17c.07-.16.21-.31.42-.46.2-.14.51-.22.92-.22.36,0,.67.08.94.25.27.16.47.39.62.67.15.29.22.62.22,1v2.73h-1.16v-2.64c0-.34-.09-.6-.25-.78s-.41-.26-.72-.26c-.36,0-.63.12-.83.36-.2.24-.3.57-.3.99v2.33h-1.16Z"/><path d="M3.22,43.48c-.8,0-1.43-.22-1.9-.67-.47-.45-.7-1.08-.7-1.92v-1.55c0-.83.23-1.47.7-1.92.47-.45,1.1-.67,1.9-.67s1.41.22,1.84.65.65,1.03.65,1.79v.06h-1.2v-.09c0-.38-.11-.7-.32-.94s-.54-.37-.97-.37-.77.13-1.02.4-.37.62-.37,1.08v1.59c0,.45.12.81.37,1.08s.59.4,1.02.4.76-.13.97-.37c.21-.25.32-.56.32-.94v-.17h1.2v.13c0,.76-.22,1.35-.65,1.79-.43.43-1.05.65-1.84.65Z"/><path d="M8.16,43.48c-.33,0-.62-.06-.88-.17-.26-.11-.46-.28-.61-.5-.15-.22-.23-.48-.23-.8s.08-.58.23-.79c.15-.21.36-.37.63-.48.27-.11.57-.16.92-.16h1.26v-.26c0-.22-.07-.39-.2-.53-.14-.14-.35-.21-.65-.21s-.5.07-.65.2-.23.3-.28.51l-1.07-.36c.07-.23.19-.45.35-.64.16-.19.38-.35.66-.47.27-.12.61-.18,1-.18.6,0,1.08.15,1.43.45s.53.74.53,1.31v1.71c0,.19.09.28.26.28h.37v.96h-.78c-.23,0-.42-.06-.56-.17-.15-.11-.22-.26-.22-.44h0s-.18,0-.18,0c-.02.07-.08.17-.17.29-.09.12-.22.23-.41.32s-.44.14-.76.14ZM8.37,42.54c.33,0,.59-.09.8-.27.21-.18.31-.42.31-.72v-.09h-1.17c-.22,0-.38.05-.51.14s-.19.22-.19.39.07.3.19.41c.13.1.32.16.56.16Z"/><path d="M12.08,43.35v-4.58h1.14v.52h.17c.07-.18.18-.32.34-.41.16-.09.34-.13.55-.13h.55v1.03h-.57c-.3,0-.54.08-.73.24s-.29.4-.29.72v2.6h-1.16Z"/><path d="M17.49,43.35c-.3,0-.55-.09-.73-.28s-.28-.44-.28-.75v-2.58h-1.14v-.96h1.14v-1.42h1.16v1.42h1.26v.96h-1.26v2.38c0,.19.09.28.26.28h.89v.96h-1.29Z"/><path d="M21.96,43.48c-.46,0-.86-.09-1.23-.28-.36-.19-.65-.45-.86-.8s-.31-.77-.31-1.27v-.15c0-.49.1-.91.31-1.27.21-.35.5-.62.86-.8.36-.19.77-.28,1.23-.28s.86.09,1.23.28c.36.18.65.45.86.8.21.35.31.77.31,1.27v.15c0,.49-.1.91-.31,1.27s-.5.62-.86.8c-.36.18-.77.28-1.23.28ZM21.96,42.44c.36,0,.65-.12.89-.35.23-.23.35-.56.35-.99v-.09c0-.43-.12-.76-.35-.99-.23-.23-.53-.35-.89-.35s-.65.12-.89.35c-.23.23-.35.56-.35.99v.09c0,.43.12.76.35.99.23.23.53.35.89.35Z"/><path d="M25.21,41.08v-.15c0-.48.1-.89.29-1.23.19-.34.44-.6.76-.78.32-.18.66-.27,1.04-.27.42,0,.74.07.95.22.22.15.37.3.47.46h.17v-.55h1.14v5.39c0,.31-.09.56-.28.75-.18.19-.43.28-.74.28h-3.07v-1.01h2.66c.17,0,.26-.09.26-.28v-1.19h-.17c-.06.1-.15.2-.26.3-.11.1-.26.19-.44.25-.18.07-.42.1-.7.1-.38,0-.72-.09-1.04-.27-.32-.18-.57-.44-.76-.79-.19-.34-.29-.75-.29-1.23ZM27.63,42.35c.36,0,.66-.11.89-.34.24-.23.36-.55.36-.96v-.09c0-.42-.12-.74-.36-.96-.24-.22-.54-.34-.9-.34s-.66.11-.9.34c-.24.23-.36.55-.36.96v.09c0,.41.12.73.36.96.24.23.54.34.9.34Z"/><path d="M31.32,43.35v-4.58h1.14v.52h.17c.07-.18.18-.32.34-.41.16-.09.34-.13.55-.13h.55v1.03h-.57c-.3,0-.54.08-.73.24s-.29.4-.29.72v2.6h-1.16Z"/><path d="M36.29,43.48c-.33,0-.62-.06-.88-.17-.26-.11-.46-.28-.61-.5-.15-.22-.23-.48-.23-.8s.08-.58.23-.79c.15-.21.36-.37.63-.48.27-.11.57-.16.92-.16h1.26v-.26c0-.22-.07-.39-.2-.53-.14-.14-.35-.21-.65-.21s-.5.07-.65.2-.23.3-.28.51l-1.07-.36c.07-.23.19-.45.35-.64.16-.19.38-.35.66-.47.27-.12.61-.18,1-.18.6,0,1.08.15,1.43.45s.53.74.53,1.31v1.71c0,.19.09.28.26.28h.37v.96h-.78c-.23,0-.42-.06-.56-.17-.15-.11-.22-.26-.22-.44h0s-.18,0-.18,0c-.02.07-.08.17-.17.29-.09.12-.22.23-.41.32s-.44.14-.76.14ZM36.49,42.54c.33,0,.59-.09.8-.27.21-.18.31-.42.31-.72v-.09h-1.17c-.22,0-.38.05-.51.14s-.19.22-.19.39.07.3.19.41c.13.1.32.16.56.16Z"/><path d="M40.2,45.19v-6.43h1.14v.55h.17c.1-.18.27-.34.49-.48.22-.14.54-.21.95-.21.37,0,.71.09,1.02.27.31.18.57.45.76.8.19.35.29.78.29,1.27v.15c0,.5-.1.92-.29,1.27-.19.35-.44.62-.76.8-.31.18-.66.27-1.02.27-.28,0-.51-.03-.7-.1-.19-.07-.34-.15-.45-.25-.11-.1-.2-.21-.27-.31h-.17v2.37h-1.16ZM42.6,42.46c.36,0,.66-.12.9-.35.24-.23.36-.57.36-1.01v-.09c0-.44-.12-.78-.36-1.01-.24-.23-.54-.35-.9-.35s-.66.12-.9.35c-.24.23-.36.57-.36,1.01v.09c0,.44.12.78.36,1.01.24.23.54.35.9.35Z"/><path d="M46.09,43.35v-6.46h1.16v2.45h.17c.05-.1.13-.2.23-.3.1-.1.24-.18.42-.24.18-.06.4-.1.67-.1.36,0,.67.08.94.25.27.16.47.39.62.67.15.29.22.62.22,1v2.73h-1.16v-2.64c0-.34-.09-.6-.25-.78s-.41-.26-.72-.26c-.36,0-.63.12-.83.36-.2.24-.3.57-.3.99v2.33h-1.16Z"/><path d="M53.86,43.48c-.46,0-.86-.1-1.21-.29s-.62-.47-.81-.82c-.19-.35-.29-.77-.29-1.25v-.11c0-.48.1-.9.29-1.25.19-.35.46-.63.8-.82.34-.19.75-.29,1.2-.29s.84.1,1.17.3c.33.2.59.48.78.83s.28.77.28,1.23v.4h-3.33c.01.31.13.57.35.77.22.2.49.3.81.3s.57-.07.72-.21c.15-.14.27-.3.35-.47l.95.5c-.09.16-.21.33-.37.52s-.38.35-.65.48-.62.2-1.03.2ZM52.75,40.53h2.14c-.03-.26-.13-.48-.32-.64-.19-.16-.43-.24-.73-.24s-.56.08-.75.24c-.19.16-.3.37-.34.64Z"/><path d="M57.1,43.35v-4.58h1.14v.52h.17c.07-.18.18-.32.34-.41.16-.09.34-.13.55-.13h.55v1.03h-.57c-.3,0-.54.08-.73.24s-.29.4-.29.72v2.6h-1.16Z"/><path d="M62.55,43.48c-.6,0-1.09-.13-1.47-.39s-.61-.63-.69-1.11l1.07-.28c.04.22.12.38.22.51.1.12.23.21.38.26.15.05.31.08.49.08.27,0,.47-.05.6-.14s.19-.21.19-.36-.06-.25-.18-.33-.32-.14-.59-.19l-.26-.05c-.32-.06-.61-.15-.88-.25-.26-.11-.48-.26-.64-.45-.16-.19-.24-.44-.24-.74,0-.45.17-.8.5-1.05.33-.24.77-.36,1.31-.36.51,0,.94.11,1.27.34s.56.53.67.9l-1.08.33c-.05-.23-.15-.4-.3-.5-.15-.1-.34-.15-.56-.15s-.39.04-.51.12c-.12.08-.18.18-.18.32,0,.15.06.26.19.33.12.07.29.12.5.16l.26.05c.34.06.66.14.94.25.28.1.5.25.66.43.16.19.25.44.25.76,0,.48-.17.85-.52,1.11s-.81.39-1.4.39Z"/><g clip-path="url(#clippath)"><line x1="-16.67" y1="20.64" x2="34.62" y2="-30.65" fill="none" stroke="#000" stroke-miterlimit="10" stroke-width="2.5"/><line x1="-14.57" y1="22.68" x2="36.72" y2="-28.61" fill="none" stroke="#000" stroke-miterlimit="10" stroke-width="2.45"/><line x1="-12.47" y1="24.71" x2="38.82" y2="-26.58" fill="none" stroke="#000" stroke-miterlimit="10" stroke-width="2.39"/><line x1="-10.37" y1="26.74" x2="40.92" y2="-24.55" fill="none" stroke="#000" stroke-miterlimit="10" stroke-width="2.34"/><line x1="-8.27" y1="28.78" x2="43.02" y2="-22.51" fill="none" stroke="#000" stroke-miterlimit="10" stroke-width="2.29"/><line x1="-6.17" y1="30.81" x2="45.12" y2="-20.48" fill="none" stroke="#000" stroke-miterlimit="10" stroke-width="2.24"/><line x1="-4.06" y1="32.85" x2="47.22" y2="-18.44" fill="none" stroke="#000" stroke-miterlimit="10" stroke-width="2.18"/><line x1="-1.96" y1="34.88" x2="49.33" y2="-16.41" fill="none" stroke="#000" stroke-miterlimit="10" stroke-width="2.13"/><line x1=".14" y1="36.91" x2="51.43" y2="-14.38" fill="none" stroke="#000" stroke-miterlimit="10" stroke-width="2.08"/><line x1="2.24" y1="38.95" x2="53.53" y2="-12.34" fill="none" stroke="#000" stroke-miterlimit="10" stroke-width="2.03"/><line x1="4.34" y1="40.98" x2="55.63" y2="-10.31" fill="none" stroke="#000" stroke-miterlimit="10" stroke-width="1.97"/><line x1="6.44" y1="43.01" x2="57.73" y2="-8.28" fill="none" stroke="#000" stroke-miterlimit="10" stroke-width="1.92"/><line x1="8.54" y1="45.05" x2="59.83" y2="-6.24" fill="none" stroke="#000" stroke-miterlimit="10" stroke-width="1.87"/><line x1="10.64" y1="47.08" x2="61.93" y2="-4.21" fill="none" stroke="#000" stroke-miterlimit="10" stroke-width="1.82"/><line x1="12.74" y1="49.12" x2="64.03" y2="-2.17" fill="none" stroke="#000" stroke-miterlimit="10" stroke-width="1.76"/><line x1="14.84" y1="51.15" x2="66.13" y2="-.14" fill="none" stroke="#000" stroke-miterlimit="10" stroke-width="1.71"/><line x1="16.94" y1="53.18" x2="68.23" y2="1.89" fill="none" stroke="#000" stroke-miterlimit="10" stroke-width="1.66"/><line x1="19.04" y1="55.22" x2="70.33" y2="3.93" fill="none" stroke="#000" stroke-miterlimit="10" stroke-width="1.61"/><line x1="21.14" y1="57.25" x2="72.43" y2="5.96" fill="none" stroke="#000" stroke-miterlimit="10" stroke-width="1.55"/><line x1="23.24" y1="59.28" x2="74.53" y2="7.99" fill="none" stroke="#000" stroke-miterlimit="10" stroke-width="1.5"/></g><g clip-path="url(#clippath-1)"><line x1="-16.67" y1="91.38" x2="34.62" y2="40.09" fill="none" stroke="#fff" stroke-miterlimit="10" stroke-width="2.5"/><line x1="-14.57" y1="93.41" x2="36.72" y2="42.12" fill="none" stroke="#fff" stroke-miterlimit="10" stroke-width="2.45"/><line x1="-12.47" y1="95.44" x2="38.82" y2="44.15" fill="none" stroke="#fff" stroke-miterlimit="10" stroke-width="2.39"/><line x1="-10.37" y1="97.48" x2="40.92" y2="46.19" fill="none" stroke="#fff" stroke-miterlimit="10" stroke-width="2.34"/></g></svg>