<?xml version="1.0" encoding="utf-8"?>
<!-- Generator: Adobe Illustrator 16.0.0, SVG Export Plug-In . SVG Version: 6.00 Build 0)  -->
<!DOCTYPE svg PUBLIC "-//W3C//DTD SVG 1.1//EN" "http://www.w3.org/Graphics/SVG/1.1/DTD/svg11.dtd">
<svg version="1.1" id="ICA_Logo" xmlns="http://www.w3.org/2000/svg" xmlns:xlink="http://www.w3.org/1999/xlink" x="0px" y="0px"
	 width="425.197px" height="396.85px" viewBox="0 14.174 425.197 396.85" enable-background="new 0 14.174 425.197 396.85"
	 xml:space="preserve">
<g>
	<path fill="#09447A" d="M336.737,137.188l-0.027-0.142h-0.297c-34.619-14.858-78.584-23.042-123.812-23.042
		c-45.225,0-89.191,8.184-123.811,23.042l-0.508,0.092v0.128c-43.24,18.688-68.037,45.915-68.037,74.721
		s24.797,56.033,68.037,74.723v0.216h0.501c34.623,14.861,78.59,23.046,123.817,23.046c106.064,0,192.354-43.955,192.354-97.983
		C404.956,183.135,380.092,155.879,336.737,137.188z M213.62,137.047V116.1c6.571,0.683,13.01,8.09,18.2,20.946H213.62z
		 M233.948,137.047c-3.846-9.732-8.436-16.67-13.359-20.229c11.406,2.222,22.141,9.18,31.183,20.229H233.948z M254.34,137.047
		c-6.989-8.901-15.202-15.505-23.941-19.285c14.943,2.923,29.027,9.542,40.994,19.285H254.34z M358,171.302
		c-9.068-12.134-22.43-23.249-38.717-32.219h16.854c20.49,8.841,37.332,19.97,48.773,32.219H358z M331.125,249.087
		c6.152-11.465,9.355-23.6,9.523-36.081h29.723c-0.213,12.504-4.338,24.641-12.264,36.081H331.125z M331.27,286.926
		c-18.277,7.37-39.332,13.032-61.557,16.579c16.617-3.896,31.965-9.456,45.752-16.579H331.27z M271.397,286.926
		c-11.965,9.745-26.051,16.364-40.996,19.288c8.737-3.779,16.95-10.384,23.941-19.288H271.397z M269.945,251.124
		c-3.784,12.876-9.505,24.538-16.563,33.766h-18.652c0.492-1.327,0.964-2.677,1.406-4.02c2.844-8.636,5.099-18.643,6.703-29.746
		H269.945L269.945,251.124z M275.413,213.006c-0.086,12.512-1.729,24.646-4.883,36.081h-27.396
		c1.55-11.424,2.355-23.559,2.398-36.081H275.413L275.413,213.006z M253.379,139.083c6.767,8.845,12.326,19.972,16.1,32.218
		l-26.867,0.002c-1.589-10.481-3.77-19.968-6.477-28.197c-0.444-1.35-0.918-2.7-1.407-4.021L253.379,139.083L253.379,139.083z
		 M271.599,171.302c-3.679-12.134-9.101-23.25-15.707-32.219h17.917c10.148,8.842,18.488,19.97,24.148,32.219H271.599z
		 M300.202,171.302c-5.467-12.133-13.519-23.248-23.332-32.219h17.56c13.565,8.839,24.718,19.967,32.286,32.219H300.202z
		 M298.655,251.124c-5.677,12.877-14.255,24.54-24.842,33.766h-17.919c6.89-9.354,12.468-21.005,16.161-33.766H298.655
		L298.655,251.124z M301.083,173.339h26.855c6.904,11.896,10.494,24.555,10.674,37.631h-29.723
		C308.76,197.917,306.135,185.262,301.083,173.339z M301.727,249.087c4.629-11.466,7.037-23.6,7.162-36.081h29.723
		c-0.172,12.506-3.465,24.643-9.789,36.081H301.727z M306.852,213.006c-0.127,12.502-2.588,24.639-7.318,36.081h-26.904
		c3.115-11.469,4.736-23.604,4.818-36.081H306.852L306.852,213.006z M277.448,210.969c-0.088-13.055-1.854-25.711-5.252-37.631
		h26.674c5.164,11.891,7.848,24.548,7.982,37.631H277.448z M300.875,251.124h26.771c-7.594,12.881-19.064,24.542-33.218,33.766
		h-17.56C287.105,275.534,295.391,263.883,300.875,251.124z M270.088,173.339c3.441,11.893,5.232,24.55,5.324,37.631H245.53
		c-0.045-13.084-0.927-25.74-2.621-37.631H270.088z M298.075,284.889c13.604-9.353,24.623-21.003,31.922-33.766h26.645
		c-9.51,12.877-23.875,24.54-41.598,33.766H298.075z M329.094,171.302c-7.268-12.134-17.975-23.25-31.023-32.219h16.967
		c16.988,8.841,30.951,19.969,40.434,32.219H329.094z M357,173.339c8.65,11.898,13.148,24.557,13.373,37.631h-29.725
		c-0.176-13.06-3.664-25.715-10.377-37.631H357z M251.773,286.926c-9.043,11.054-19.776,18.012-31.187,20.231
		c4.928-3.56,9.518-10.498,13.363-20.231H251.773z M291.204,286.926c-14.436,8.794-31.305,15.082-49.172,18.357
		c11.831-3.887,22.979-10.164,32.536-18.357H291.204z M311,286.926c-16.401,7.979-35.416,13.927-55.519,17.396
		c14.403-3.913,27.667-9.747,39.528-17.396H311z M336.147,284.889H319.29c16.984-9.354,30.732-21.006,39.832-33.766h27.203
		C374.846,264.001,357.518,275.664,336.147,284.889z M315.459,137.047c-13.785-7.122-29.131-12.679-45.748-16.576
		c22.219,3.546,43.271,9.208,61.549,16.576H315.459z M295.006,137.047c-11.855-7.645-25.119-13.479-39.527-17.394
		c20.104,3.469,39.116,9.418,55.518,17.394H295.006z M274.565,137.047c-9.557-8.191-20.699-14.468-32.529-18.354
		c17.862,3.274,34.728,9.563,49.162,18.354H274.565z M213.62,171.302v-32.219h18.996c3.338,8.845,6.084,19.97,7.948,32.219H213.62z
		 M213.62,210.969v-37.631h27.246c1.701,11.896,2.586,24.553,2.631,37.631H213.62z M213.62,249.087v-36.081h29.877
		c-0.043,12.502-0.854,24.639-2.412,36.081H213.62z M213.62,284.889v-33.766h27.176c-1.869,12.869-4.692,24.528-8.178,33.766H213.62
		z M213.62,307.876v-20.95h18.202C226.629,299.784,220.191,307.193,213.62,307.876z M402.897,213.006
		c-0.26,12.501-5.238,24.639-14.805,36.081h-27.561c7.676-11.464,11.67-23.597,11.877-36.081H402.897L402.897,213.006z
		 M402.897,210.969h-30.486c-0.217-13.061-4.57-25.715-12.943-37.631h27.287C397.196,185.237,402.625,197.896,402.897,210.969z
		 M211.582,286.926v20.95c-6.572-0.684-13.012-8.092-18.205-20.95H211.582z M191.247,286.926
		c3.847,9.733,8.438,16.673,13.365,20.231c-11.41-2.223-22.145-9.181-31.187-20.231H191.247z M170.854,286.926
		c6.993,8.903,15.207,15.508,23.947,19.288c-14.946-2.923-29.033-9.543-40.999-19.288H170.854z M66.08,251.124
		c9.1,12.759,22.848,24.409,39.833,33.766H89.056c-21.375-9.226-38.702-20.888-50.177-33.766H66.08L66.08,251.124z M64.668,249.087
		H37.107c-9.564-11.442-14.543-23.58-14.803-36.081H52.79C52.998,225.488,56.993,237.621,64.668,249.087z M40.292,171.302
		c11.441-12.25,28.283-23.378,48.771-32.219h16.854c-16.289,8.971-29.65,20.085-38.715,32.219H40.292z M153.806,137.047
		c11.966-9.744,26.051-16.363,40.995-19.285c-8.739,3.779-16.952,10.383-23.946,19.285H153.806z M155.716,171.303
		c3.775-12.25,9.335-23.376,16.101-32.219h18.65c-0.491,1.323-0.963,2.673-1.407,4.021c-2.707,8.224-4.885,17.709-6.475,28.197
		H155.716z M149.783,210.969c0.089-13.077,1.879-25.734,5.324-37.631h27.181c-1.695,11.89-2.577,24.544-2.621,37.631H149.783z
		 M171.814,284.889c-7.058-9.226-12.778-20.887-16.564-33.766h27.106c1.606,11.104,3.861,21.109,6.704,29.746
		c0.444,1.351,0.917,2.699,1.405,4.02H171.814z M84.548,213.006c0.167,12.479,3.37,24.614,9.523,36.081H67.092
		c-7.925-11.441-12.051-23.578-12.265-36.081H84.548L84.548,213.006z M94.925,173.339c-6.713,11.918-10.203,24.573-10.377,37.631
		H54.827c0.224-13.075,4.722-25.732,13.374-37.631H94.925z M124.999,171.302H98.482c7.57-12.25,18.72-23.378,32.289-32.219h17.56
		C138.518,148.053,130.465,159.17,124.999,171.302z M118.345,210.969c0.134-13.078,2.819-25.735,7.984-37.631H153
		c-3.399,11.92-5.167,24.576-5.254,37.631H118.345z M125.666,249.087c-4.731-11.439-7.193-23.575-7.322-36.081h29.402
		c0.084,12.479,1.706,24.614,4.822,36.081H125.666z M86.586,210.969c0.179-13.076,3.77-25.733,10.675-37.631h26.852
		c-5.051,11.918-7.675,24.573-7.805,37.631H86.586z M116.308,213.006c0.125,12.479,2.534,24.613,7.162,36.081H96.375
		c-6.326-11.439-9.619-23.576-9.79-36.081H116.308L116.308,213.006z M124.32,251.124c5.487,12.758,13.773,24.409,24.007,33.766
		h-17.562c-14.155-9.225-25.625-20.887-33.218-33.766H124.32L124.32,251.124z M153.14,251.124
		c3.693,12.758,9.271,24.409,16.163,33.766h-17.916c-10.585-9.223-19.166-20.885-24.844-33.766H153.14L153.14,251.124z
		 M127.242,171.302c5.662-12.252,14.001-23.379,24.148-32.219h17.915c-6.608,8.969-12.03,20.086-15.709,32.219H127.242z
		 M127.13,139.084c-13.052,8.971-23.76,20.086-31.027,32.219H69.731c9.482-12.25,23.444-23.379,40.431-32.219H127.13z
		 M95.202,251.124c7.293,12.758,18.311,24.408,31.922,33.766h-16.969c-17.721-9.225-32.086-20.888-41.596-33.766H95.202
		L95.202,251.124z M154.665,249.087c-3.154-11.438-4.796-23.572-4.882-36.081h29.884c0.042,12.522,0.847,24.657,2.396,36.081
		H154.665z M22.304,210.969c0.271-13.072,5.701-25.731,16.141-37.631h27.289c-8.374,11.918-12.727,24.572-12.944,37.631H22.304z
		 M191.248,137.047h-17.82c9.041-11.048,19.776-18.006,31.184-20.229C199.685,120.378,195.094,127.315,191.248,137.047z
		 M193.378,137.047c5.192-12.856,11.631-20.265,18.204-20.946v20.946H193.378z M134,137.047
		c14.436-8.791,31.303-15.079,49.167-18.354c-11.831,3.886-22.976,10.162-32.533,18.354H134z M114.206,137.047
		c16.399-7.975,35.41-13.923,55.508-17.392c-14.405,3.915-27.667,9.748-39.523,17.392H114.206z M93.94,137.047
		c18.278-7.369,39.329-13.03,61.548-16.576c-16.616,3.897-31.963,9.455-45.749,16.576H93.94z M109.735,286.926
		c13.787,7.123,29.134,12.683,45.751,16.579c-22.224-3.548-43.276-9.209-61.553-16.579H109.735z M130.188,286.926
		c11.859,7.646,25.123,13.479,39.528,17.396c-20.101-3.47-39.114-9.418-55.516-17.396H130.188z M150.631,286.926
		c9.557,8.193,20.705,14.472,32.539,18.357c-17.868-3.275-34.735-9.563-49.173-18.357H150.631z M211.582,251.124v33.766h-18.999
		c-3.485-9.231-6.31-20.893-8.18-33.766H211.582L211.582,251.124z M211.583,213.006v36.081h-27.468
		c-1.559-11.44-2.371-23.575-2.413-36.081H211.583L211.583,213.006z M211.583,173.339v37.631h-29.882
		c0.044-13.073,0.929-25.729,2.631-37.631H211.583z M211.583,139.084v32.219h-26.949c1.864-12.243,4.609-23.367,7.951-32.219
		H211.583z"/>
	<g>
		<path fill="#00457C" d="M154.15,278.006c-0.884-0.729-3.05-3.247-3.959-5.049c-0.408-0.809-2.275-5.303-2.864-6.369
			c-0.593-1.065-1.267-2.656-2.067-5.004c-0.775-2.281-0.629-5.942-1.303-7.229c-0.677-1.284-0.928-1.754-1.307-3.679
			c-0.382-1.927-1.35-10.861-2.064-12.743c-0.717-1.882-4.804-4.658-6.445-5.642c-1.642-0.985-4.003-6.548-4.426-7.529
			c-0.418-0.982-1.838-3.024-2.693-4.188c-1.438-1.951-0.717-5.987-0.382-7.355c0.469-1.907,2.977-4.116,3.385-5.173
			c0.677-1.747,0.87-4.275,0.156-5.391c-0.717-1.113-3.603-0.323-5.79-1.735c-2.035-1.311-2.312-5.459-5.754-6.772
			c-0.976-0.371-3.833-2.724-5.707-3.644c-1.7-0.833-5.772-1.435-6.916-3.146c-0.815-1.215-1.201-6.157-1.638-8.69
			c-0.295-1.688-1.168-6.758-2.1-6.758c-1.267,0,1.216,7.879-0.768,7.879c-3.138,0-0.848-9.081-1.198-10.719
			c-0.331-1.558-0.928-2.93-0.761-4.597c0.171-1.671,0.688-3.585,3.374-6.46c3.829-4.099,7.334-7.354,8.112-9.136
			c0.775-1.779,7.643-11.119,5.598-11.119c-2.042,0-8.229-0.734-11.049,0.447c-2.824,1.188-5.74,2.768-8.076,3.462
			c-2.337,0.688-5.743,1.798-5.743,1.241c0-0.973,4.346-1.719,5.837-2.577c1.947-1.121,1.853-1.784,3.698-3.163
			c1.852-1.383,8.895-3.94,11.021-4.646c2.627-0.877,9.903-3.402,12.043-3.796c2.144-0.394,5.739-1.55,7.785-1.184
			c2.467,0.438,6.409,1.184,7.69,1.184c1.267,0,4.087-0.691,4.866-0.691c1.951,0,3.792,2.515,4.964,2.569
			c1.118,0.047,3.309-0.267,4.444-0.354c1.925-0.156,6.016-0.786,6.667-1.511c0.655-0.729,2.504-1.937,3.334-1.813
			c0.833,0.119,0.837,4.108-0.535,4.286c-1.368,0.183-2.62,0.608-4.051,1.146c-1.426,0.547-5.237,2.479-6.547,2.847
			c-1.311,0.359-5.707,2.842-6.719,3.808c-1.012,0.968,1.947,2.963,2.981,3.997c1.427,1.431-0.826,4.75-0.109,4.774
			c0.837,0.028,2.999-3.654,3.727-4.179c0.826-0.593,3.814-2.507,4.523-3.472c0.717-0.969,4.142-4.914,6.3-4.662
			c0.615,0.068,1.048,1.419,1.798,2.082c0.601,0.535,2.49,0.088,2.49,1.113c0,1.026-1.372,3.064-0.404,3.606
			c0.542,0.307,1.295,1.375,1.609,2.118c0.342,0.797,0.345,1.783-5.416,3.988c-1.012,0.383-6.212-0.852-6.526,0.929
			c-0.134,0.742,1.922,0.16,2.573,0.813c0.896,0.896-2.184,4.123-3.377,3.879c-1.187-0.244-3.985,1.754-5.834,3.266
			c-1.845,1.51-8.214,7.13-10.18,9.004c-1.969,1.874-3.938,3.138-4.892,4.403c-0.954,1.274-1.791,7.166-3.96,7.406
			c-1.681,0.183-0.976-5.739-2.657-5.762c-2.158-0.021-8.375,0.634-9.812,1.445c-1.788,1.017-3.334,2.903-4.648,6.467
			c-1.307,3.571-1.307,7.253,1.314,7.557c2.62,0.302,3.213-0.304,3.931-1.691c0.713-1.392,1.197-2.242,3.461-2.302
			c2.26-0.063,0.896,1.146,0.237,1.934c-0.655,0.787-2.278,2.785-2.089,3.753c0.316,1.659,3.345,0.801,3.981,1.696
			c1.012,1.419-1.267,6.871,0.327,7.991c1.54,1.085,3.167-0.288,4.106,0.153c2.14,1.005,5.444-2.063,7.108-2.959
			c1.663-0.893,2.94,0.593,4.604,1.092c1.663,0.499,3.33,0.302,4.797,0.399c1.471,0.099,1.762,2.282,3.331,3.676
			c1.568,1.394,2.056,2.584,4.309,2.78c2.25,0.204,3.425,1.295,4.113,2.484c0.386,0.675,0.521,2.138,0.954,3.447
			c0.335,1.012,0.848,1.929,1.787,2.317c2.154,0.896,4.407,3.083,6.267,3.182c1.856,0.099,2.741-0.1,3.916,0.896
			c1.172,0.99,1.565,2.285,2.741,2.385c1.176,0.1,2.057,1.192,1.86,3.279c-0.197,2.086-2.154,3.181-2.446,4.573
			c-0.295,1.389-1.463,2.305-1.077,6.062c0.116,1.161-0.35,7.792-1.736,8.773c-1.391,0.986-3.414,0.771-5.012,2.353
			c-1.604,1.586-0.971,2.871-0.721,3.98c0.255,1.109-0.884,3.036-1.557,4.789c-0.674,1.751-1.347,3.805-1.856,4.443
			c-0.502,0.646-0.841,2.392-1.43,3.506c-0.59,1.108-1.602,1.747-2.613,1.791c-1.012,0.043-0.502,3.545-0.713,4.442
			c-0.211,0.898,0.211,1.925-0.255,2.479c-0.462,0.559,1.095,2.568,1.478,3.167c0.375,0.597-0.299,1.283-0.255,1.925
			c0.04,0.642,1.714,4.24,3.01,5.132c1.299,0.896-0.404,1.46-1.62,1.3C157.484,280.855,155.035,278.733,154.15,278.006z"/>
		<path fill="#00457C" d="M261.07,232.137c0.994-1.184,2.388-3.665,3.087-3.665c0.698,0,0.758,3.25,0.467,4.191
			c-0.289,0.949-2.271,5.795-2.793,7.27c-0.521,1.479-1.75,5.144-3.377,5.678c-1.631,0.531-1.922-0.415-1.922-2.482
			c0-2.069,0.873-3.544,1.166-4.139c0.29-0.59,0.174-2.069,0.174-3.368c0-1.301,0.578-2.126,1.049-2.126
			c0.467,0,1.338-0.176,1.572-0.415C260.722,232.846,261.07,232.137,261.07,232.137z"/>
		<path fill="#00457C" d="M201.329,131.631c0.848-0.021,1.864-0.651,2.446-0.116c0.582,0.53,0.641,0.942,0.175,1.532
			c-0.466,0.594-3.199,1.3-4.193,1.065c-0.99-0.235-1.339-2.423-0.757-2.66C199.583,131.216,200.747,131.646,201.329,131.631z"/>
		<path fill="#00457C" d="M167.802,148.667c0.408,0,1.416-0.016,1.565,0.778c0.087,0.471-0.418,3.028-0.964,2.613
			c-1.216-0.929-3.178-0.443-3.469-0.914C164.643,150.673,167.263,148.667,167.802,148.667z"/>
		<path fill="#00457C" d="M165.976,127.748c0.585-0.594,4.738-2.672,4.738-2.672s2.344,0.299,3.334,0.299
			c0.993,0,1.223,1.459,1.434,2.285c0.226,0.893,0.364,1.727-0.171,2.776c-0.437,0.866-1.75,1.184-2.5,1.939
			c-1.019,1.017-3.552,3.278-3.851,3.389c-1.398,0.502-1.791-1.893-2.398-2.257c-0.462-0.279-2.22-0.004-2.22-0.359
			c0-0.354,6.22-2.241,6.668-3.381c0.149-0.382-0.109-1.58-0.746-1.683C168.861,127.86,165.976,127.748,165.976,127.748z"/>
		<path fill="#00457C" d="M177.327,121.334c0.408-0.295,2.457-1.188,3.214-1.484c0.761-0.295,3.043-0.651,3.043-0.651
			s-1.052,1.129-1.696,1.248c-0.645,0.117-2.806,0.95-2.806,0.95L177.327,121.334z"/>
		<path fill="#00457C" d="M207.677,145.41c0.237-0.809,0.957-1.324,0.368-2.273c-0.582-0.95-2.344,0.236-2.639,0.771
			c-0.291,0.536-0.797,2.345-0.364,2.777C205.963,147.604,207.477,146.102,207.677,145.41z"/>
		<path fill="#00457C" d="M254.42,217.644c1.134-2.967,7.19-8.817,8.42-10.763c1.183-1.889,3.045-6.457,3.397-7.94
			c0.351-1.484,0.16-2.759-0.188-2.816c-0.354-0.059-1.805,0.562-3.736,1.092c-1.926,0.535-2.425,1.325-3.539,0.554
			c-1.109-0.771-1.48-1.038-1.193-1.449c0.293-0.415,0.528-0.523-0.291-1.356c-0.817-0.833-3.217-3.582-4.203-5.193
			c-0.332-0.542-1.586-1.67-2.049-2.74c-0.742-1.695-0.371-2.348-0.649-3.188c-0.8-2.424-1.634-2.057-2.199-3.293
			c-0.567-1.241-1.471-3.181-1.942-3.773c-0.467-0.59-0.865-1.285-1.22-1.878c-0.353-0.593,1.459-0.947,1.794-0.619
			c0.471,0.458,3.227,5.427,4.391,6.225c0.986,0.674,1.117,3.154,1.646,3.808c0.528,0.654,2.632,3.41,2.974,3.979
			c0.731,1.208,1.463,3.533,1.64,4.483c0.179,0.95,0.582,2.918,1.866,2.325c1.285-0.594,4.566-2.209,5.562-2.683
			c0.994-0.478,1.958-2.218,2.337-2.41c1.827-0.905,3.797-2.296,4.112-2.807c0.319-0.51,0.224-1.26,0.339-1.794
			c0.116-0.53,1.229-1.722,1.288-2.314c0.06-0.592-0.822-2.017-1.468-2.017c-0.641,0-1.813-0.179-2.396-1.725
			c-0.583-1.543-0.583-1.543-0.583-1.543s-0.76,0.713-1.108,1.427c-0.354,0.713-0.762,1.423-1.935,1.365
			c-1.168-0.059-1.614-1.325-1.901-1.85c-0.312-0.554-3.945-4.443-4.299-5.273c-0.351-0.833,0.473-0.594,0.938-1.013
			c0.467-0.415,1.465,1.013,1.813,1.484c0.352,0.478,3.104,2.406,3.582,2.661c0.866,0.458,1.803,0.188,2.506-0.051
			c0.7-0.233,1.336,0.292,1.449,0.647c0.121,0.355,0.305,1.02,1.473,1.313c1.168,0.298,3.234,0.562,4.35,0.262
			c1.109-0.299,2.643-0.251,3.607-0.084c1.014,0.176,3.053,2.396,3.643,3.095c0.986,1.168,1.738,3.023,2.268,2.903
			c0.524-0.12,0.932-0.239,0.993-1.248c0.06-1.008,0.99,0.299,0.99,0.893c0,0.595,0.59,3.086,1.176,4.57
			c0.578,1.485,2.923,6.298,3.624,7.538c0.699,1.249,1.17,2.975,1.697,3.805c0.523,0.83,0.818,0.957,1.346,0.897
			c0.525-0.059,0.867-1.492,1.285-2.383c0.434-0.921,0.41-2.49,0.41-3.086c0-0.598-0.734-2.975-0.178-4.277
			c0.439-1.021,3.385-4.191,4.178-5.144c0.99-1.189,0.395-2.092,1.098-2.623c0.697-0.535,0.928-0.237,1.801-0.474
			c0.881-0.24,1.35-0.906,1.699-0.845c0.35,0.063,1.23,1.78,1.584,2.314c0.35,0.535,1.635,1.248,2.51,2.313
			c0.883,1.074,0.963,3.498,1.449,3.698c0.416,0.175,1.449,0.019,1.625-0.575c0.174-0.593,0.529-1.021,0.941-0.371
			c0.406,0.655,1.658,3.246,2.014,4.139c0.35,0.893,1.152,6.676,1.637,7.836c0.498,1.208,4.434,7.992,5.311,7.469
			c0.795-0.478,0.367-3.116-0.395-4.378c-0.646-1.07-2.049-1.484-2.516-2.021c-0.471-0.534-1.336-1.152-1.73-3.799
			c-0.346-2.354-0.438-4.57,0.092-4.57c0.527,0,2.34,1.543,2.863,1.899c0.527,0.355,2.293,2.697,3.146,3.126
			c1.023,0.509,2.117-1.488,2.818-2.082c0.703-0.593,0.998-1.638,0.236-3.538c-0.76-1.899-2.922-3.92-4.035-4.87
			c-1.113-0.953-1.988-2.313-1.053-4.035c0.936-1.727,2.422-0.818,3.211-0.818c0.51,0,4.979-1.441,5.623-2.329
			c0.645-0.893,1.156-3.813,1.342-4.571c0.16-0.65,0-2.732-0.174-3.505c-0.176-0.771-0.762-1.365-1.289-2.078
			c-0.523-0.713-3.098-3.086-3.684-3.683c-0.586-0.591-1.99-0.233-1.99-1.009c0-0.771-4.641-6.511-4.119-7.027
			c0.957-0.957,3.563-0.012,4.186,0.316c1.164,0.615,4.432,3.269,5.025,3.86c0.914,0.914,1.986,3.443,2.572,3.326
			c0.586-0.12,1.336-0.549,1.512-1.025c0.174-0.475-0.256-1.077-1.252-2.086c-0.99-1.013-3.76-3.465-4.244-4.063
			c-1.041-1.281,1.703-1.587,1.703-3.306c0-1.726-2.166-6.237-6.08-9.324c-3.92-3.087-9.053-3.574-9.326-4.215
			c-0.186-0.43-1.5-2.879-2.084-3.771c-0.584-0.893,0.119-0.771,1.055-0.771c0.939,0,2.279,0.356,2.748,0
			c0.471-0.356,5.688-1.383,5.803-0.905c0.119,0.473,5.486,4.111,6.545,4.821c1.049,0.713,8.469,4.793,8.789,4.604
			c0.486-0.298-3.693-4.606-4.264-5.06c-0.529-0.426-4.164-1.779-5.049-2.431c-0.404-0.291-0.732-0.678-1.285-1.839
			c-0.494-1.041-1.014-3.833-1.773-4.188c-0.762-0.356-3.613-1.535-8.236-3.137c-4.621-1.602-9.861-2.429-13.928-2.429
			c-3.58,0-15.074-2.129-16.703-2.129c-3.09,0-17.314-1.97-24.771-2.959c-2.847-0.382-8.276,3.225-8.838,3.785
			c-1.072,1.073-5.451,1.146-9.14,1.899c-2.555,0.521-5.688,4.345-7.177,4.604c-1.267,0.219-0.896-1.667-3.569-4.148
			c-2.137-1.979-5.209-2.006-7.426-1.532c-0.69,0.148-2.356,0.91-2.807,1.48c-0.551,0.703-1.605,1.974-2.395,3.314
			c-0.508,0.863-1.061,1.198-1.525,1.672c-0.471,0.478-1.745,1.189-2.104,1.899c-0.186,0.378,0,2.438,0.174,3.031
			c0.178,0.594,1.17,0.758,1.639,0.699c0.466-0.06,0.55-0.435,1.02-0.965c0.471-0.535,0.993-0.709,1.401,0.182
			c0.411,0.893,1.729,3.644,2.194,3.644c0.469,0,1.515-1.51,1.76-2.376c0.225-0.782,0.699-1.66,1.054-2.018
			c0.351-0.355-0.933-0.737-1.165-1.332c-0.232-0.597-0.434-1.651,0.559-2.603c0.996-0.949,0.781-1.292,0.841-1.707
			c0.06-0.414,0.47-0.65,1.403-0.593c0.937,0.059,0.763,0.65,0.763,1.008c0,0.36-0.586,0.699-0.998,1.354
			c-0.406,0.651-0.468,3.745,0.998,3.745c1.459,0,1.118-0.542,1.366,0.157c0.328,0.917-0.827,2.245-1.08,2.82
			c-0.247,0.579,0.311,1.739-0.393,2.155c-0.699,0.418-3.068,0.542-3.889,0.724c-0.818,0.175-3.801,0.148-3.963-0.681
			c-0.148-0.775-0.088-0.83-0.088-1.543c0-0.709-1.26-0.063-1.26,0.178c0,0.232,0.299,1.181,0.355,1.533
			c0.061,0.355,0.191,0.681,0.02,0.917c-0.176,0.239-0.688,0.363-1.273,0.426c-0.584,0.06-1.264,0.271-1.672,0.805
			s-2.469,3.163-2.883,3.398c-0.408,0.236-1.271,0.104-1.916,0.338c-0.644,0.241,0.121,1.132-0.702,1.132
			c-0.819,0-1.871-0.183-1.871,0c0,0.179-0.058,0.893-0.058,0.893s2.22,0.531,2.278,0.83c0.058,0.295,0.644,1.365,0.644,2.194
			c0,0.833-0.255,1.743-0.779,1.803c-0.528,0.059-4.484-0.435-5.012-0.259c-0.524,0.182-1.052,0.717-1.052,0.717
			s-0.059,1.364-0.059,2.314s-0.469,1.842-0.582,2.193c-0.12,0.356,0.288,0.802,0.349,1.221c0.059,0.415-0.207,1.252,0.026,1.427
			c0.237,0.179,0.906-0.218,1.55,0.016c0.644,0.24,0.892,1.025,1.241,1.025c0.35,0,0.964-0.814,1.787-0.814
			c0.815,0,1.372,0.299,2.075-0.534c0.699-0.83,1.044-0.914,1.335-1.388c0.288-0.478,0.269-2.197,1.616-3.621
			c1.344-1.427,1.088-2.25,2.436-2.25c2.717,0,2.186-0.933,3.611-1.244c1.291-0.28,0.99,1.237,2.338,2.308
			c1.343,1.065,3.799,2.864,4.09,3.279c0.136,0.188,0.459,0.993-0.08,1.466c-0.645,0.572-1.943,0.227-2.125,0.579
			c-0.092,0.175,1.91,1.354,2.238,1.256c0.406-0.124,1.726-3.098,1.99-3.573c0.219-0.39-0.045-0.896-1.213-1.547
			c-1.172-0.654-1.607-0.989-2.285-1.551c-0.695-0.566-2.664-2.78-1.963-3.482c1.033-1.037,5.33,3.596,5.907,4.174
			c0.925,0.921,2.21,2.868,2.947,4.347c0.188,0.386,0.562,1.215,0.722,1.456c0.192,0.291,0.829,0.335,1.117-0.052
			c0.291-0.391,0.917-0.822,0.387-1.312c-0.531-0.483-0.707-0.898-1.029-1.536c-0.268-0.527-0.117-1.165,0.406-1.404
			c0.527-0.235,1.555,0.316,2.141,0.375c0.584,0.063,1.256-0.65,1.443-1.285c0.188-0.602-0.386-2.005-0.09-3.018
			c0.291-1.008,0.938-2.7,1.934-2.783c1.008-0.084,1.922,0.313,3.279,0.844c1.354,0.535,4.106,2.104,4.864,2.64
			c0.763,0.535,2.632,1.602,2.402,2.193c-0.236,0.598-1.078,0.71-2.425,0.77c-1.348,0.059-2.508-0.865-3.676-1.045
			c-1.168-0.178-2.517,0.399-2.979,0.626c-0.598,0.288-3.275,1.388-3.506,1.855c-0.207,0.434,0.105,2.246,0.588,2.727
			c0.65,0.651,2.826,1.07,3.883,1.189c1.053,0.117,4.311-0.61,4.6,0.635c0.291,1.248-0.058,3.52-0.289,4.586
			c-0.237,1.069,0.148,1.815-1.604,1.463c-1.754-0.356-2.229-0.028-2.553,0.143c-1.228,0.654-6.021-1.36-7.015-1.714
			c-0.992-0.356-2.846-0.521-2.666,0.43c0.174,0.95-0.022,1.707-0.373,1.947c-0.349,0.236,0-0.04-0.996-0.16
			c-0.994-0.12-3.92-1.766-4.854-2.162c-0.87-0.371-4.156-1.787-3.339-2.612c0.815-0.833,0.216-2.592-0.31-2.828
			c-0.526-0.235-2.308-0.021-2.308-0.021c-1.169,0-2.183-0.298-4.461,0.295c-2.282,0.594-3.217,1.308-4.389,1.723
			c-1.168,0.418-1.929,0.415-2.628,0.12c-0.706-0.299-0.353-0.771-0.997-0.714c-0.645,0.063-1.049,1.776-1.351,2.074
			c-0.36,0.356-0.924,0.219-1.627,0.87c-0.702,0.65-1.412,2.755-1.295,3.468c0.12,0.714-0.182,1.524-1.175,2.239
			c-0.994,0.709-1.748,0.494-2.213,1.204c-0.469,0.714-4.477,6.772-4.477,8.434c0,0.63,0.848,1.188,0.674,1.958
			c-0.179,0.771,0.739,1.934,0.152,3.298c-0.583,1.364-1.219,2.09-1.456,2.723c-0.149,0.4,0.382,2.465,0.771,3.371
			c0.334,0.771,1.467,1.834,2.169,2.899c0.703,1.066,1.551,3.414,1.9,3.857c1.069,1.356,4.447,3.808,4.796,3.924
			c0.354,0.119,2.992-1.631,4.812-0.937c1.562,0.589,3.425-1.065,4.655-1.241c1.226-0.184,3.432-0.782,4.076,0.167
			c0.639,0.95-0.063,2.125,1.517,2.125s2.463-0.989,3.185,0.227c1.479,2.497-0.099,4.861-0.332,5.87
			c-0.235,1.012,0.429,2.931,0.896,3.581c0.466,0.65,2.688,3.857,3.098,5.938c0.411,2.082,0.754,3.541,0.805,4.466
			c0.08,1.313-0.705,2.125-1.299,3.633c-0.562,1.424-1.082,3.577-1.082,5.2c0,1.436,2.242,5.256,2.424,6.197
			c0.193,1.046,0.291,4.069,0.352,5.372c0.063,1.308,0.786,2.11,1.311,3.003c0.527,0.889,0.898,2.397,1.229,3.476
			c0.354,1.146-0.422,2.581,0.515,3.487c0.717,0.694,4.176-0.143,5.27-0.247c0.886-0.085,3.35-0.802,4.755-2.345
			c1.399-1.544,3.61-4.379,3.981-5.244c0.369-0.882,0.516-2.505,1.219-3.211c0.729-0.725,2.988-2.057,2.813-3.542
			c-0.174-1.479-0.47-3.022-0.295-3.56c0.18-0.534,2.701-3.014,3.639-3.61c0.935-0.592,2.973-1.794,3.094-2.922
			c0.115-1.128-0.063-4.271,0.115-5.284c0.176-1.008-0.568-1.584-0.703-2.97C254.049,221.575,253.741,219.432,254.42,217.644z"/>
		<path fill="#00457C" d="M335.78,157.049c-0.563-0.673-1.23-2.452-0.994-2.692c0.35-0.351,5.072,2.07,4.971,2.277
			c-0.1,0.208-2.016,1.787-2.371,1.687C337.028,158.219,336.292,157.661,335.78,157.049z"/>
		<path fill="#00457C" d="M339.042,159.328c0.182-0.439,1.986,1.411,3.164,2.823c0.85,1.016,2.381,3.155,1.887,3.852
			c-0.518,0.713-6.971,3.49-7.684,2.891c-0.549-0.466,0.346-1.896,0.598-2.541c0.23-0.594,1.975-1.515,2.736-2.396
			c0.764-0.877,0.115-2.424-0.494-3.042C338.639,160.292,338.735,160.052,339.042,159.328z"/>
		<path fill="#00457C" d="M329.893,209.36c0.539-0.502,2-1.711,2.764-2.18c0.766-0.462,2.023-1.234,2.482-2.061
			c0.457-0.83,0.607-1.915,0.916-2.071c0.307-0.152,2.498,2.071,2.748,2.125c0.26,0.048-1.838,2.017-1.527,2.792
			c0.143,0.351,0.139,1.26,0.697,1.776c0.563,0.518,1.637,1.575,1.533,1.783c-0.102,0.208-2.023-0.647-2.127,0.387
			c-0.102,1.029,0.314,0.196,0.168,0.462c-0.41,0.757-2.002,3.629-2.59,3.989c-0.855,0.518-4.07,0.63-4.928-0.611
			c-0.74-1.073-1.723-2.926-1.771-4.063C328.209,210.55,329.893,209.36,329.893,209.36z"/>
		<path fill="#00457C" d="M313.749,204.844c0.205-0.562,2.063,0.346,2.793,1.072c0.826,0.83,3.664,4.418,4.014,4.826
			c0.441,0.521,4.068,4.099,4.52,4.928c0.291,0.546-0.32,3.29-1.15,3.829c-0.814,0.523-2.336-1.85-2.939-2.715
			c-0.723-1.05-1.42-2.92-1.867-3.757c-0.396-0.734-2.604-4.134-3.291-4.972C315.219,207.33,313.262,206.158,313.749,204.844z"/>
		<path fill="#00457C" d="M324.413,221.075c-0.043-0.39,0.74-1.021,1.121-1.084c0.838-0.132,2.449,0.985,3.16,1.236
			c0.672,0.24,1.674-0.439,2.623-0.076c1.021,0.39,2.32,1.249,2.883,1.405c0.557,0.151,4.139,0.283,4.139,0.283
			s0.174,0.382-0.063,0.665c-0.543,0.646-4.283,0.052-5.605-0.155c-1.324-0.208-5.535-0.675-7.082-1.445
			C325.083,221.651,324.458,221.429,324.413,221.075z"/>
		<path fill="#00457C" d="M321.52,256.922c-0.838-0.838,2.488-4.279,2.896-5.729c0.393-1.4,0.834-4.594,1.256-5.842
			c0.43-1.252,1.711-3.112,2.756-4.156c1.291-1.292,3.414-1.813,5.096-2.584c1.686-0.778,3.617-1.4,4.688-2.588
			c1.068-1.189,3.998-3.261,5.094-4.291c0.561-0.522,2.451,0.462,3.418,0.311c0.971-0.155,0.867-2.329,2.697-3.465
			c1.834-1.14,2.092-1.348,2.348-1.759c0.25-0.415,1.43,0.877,2.293,0.933c0.865,0.048,1.885-0.207,1.684,0.359
			c-0.203,0.567-1.121,1.859-1.684,2.688c-0.561,0.826-0.354,1.14,0.611,2.118c0.969,0.985,1.684,1.763,2.344,2.069
			c0.662,0.311,1.174-0.466,1.939-1.705c0.764-1.241,0.813-2.225,1.631-3.725c0.814-1.499,1.168-1.863,1.426-2.587
			c0.254-0.726,0.75-0.536,1.008,0.087c0.256,0.617-0.141,1.205-0.242,1.878c-0.104,0.67,0.713,2.018,1.018,2.481
			c0.307,0.466-0.406,1.396-0.354,2.225c0.051,0.829-0.563,2.795,0.203,3.672c0.764,0.881,1.068,0.933,1.119,1.344
			c0.053,0.414-0.51,1.914-0.051,2.278c0.459,0.359,0.104,1.758,0.256,2.531c0.152,0.779,0.459,1.09,0,2.225
			c-0.459,1.141-1.986,4.244-4.637,6.671c-2.65,2.437-7.287,5.537-8.051,6.211c-0.768,0.67-2.119,1.862-3.191,2.481
			c-1.072,0.621-4.986,0.645-5.701,0.693c-0.717,0.052-1.795-0.562-1.895-1.021c-0.105-0.467,1.752-4.997,1.752-5.359
			c0-0.36-2.313,1.382-2.467,1.538c-0.152,0.152-0.484-1.052-0.484-1.854c0-1.49-0.498-2.117-1.16-2.117s-5.303,0.825-7.432,1.867
			C328.758,256.24,322.458,257.857,321.52,256.922z"/>
		<path fill="#00457C" d="M340.172,267.218c-0.059-0.554,1.016-1.004,1.285-1.598c0.229-0.507,0.721-1.308,1.045-1.197
			c0.283,0.092,2.23,0.499,2.641,0.291c0.404-0.202,0.209,0.104-0.713,0.678c-0.709,0.439-1.775,2.126-2.082,2.277
			C342.043,267.825,340.227,267.684,340.172,267.218z"/>
		<path fill="#00457C" d="M297.174,199.384c0.355-0.051,1.225,1.656,1.529,2.381s0.514,1.704,0.055,2.173
			c-0.463,0.466-1.096,0.403-1.481-0.258C296.629,202.558,296.818,199.435,297.174,199.384z"/>
		<path fill="#00457C" d="M367.438,264.859c0.293-1.096,3.5-2.788,4.082-3.552c0.582-0.762,2.248-2.282,2.832-2.111
			c0.586,0.167,1.244,0.699,1.418,1.268c0.197,0.659-1.252,1.354-2.336,1.858c-1.08,0.511-3.246,1.271-4.162,2.115
			C368.352,265.285,367.188,265.787,367.438,264.859z"/>
		<path fill="#00457C" d="M149.67,300.978c0.266-0.796,1.54-1.466,3.025-1.403c1.485,0.058,5.142,0.393,6.092,0.335
			c0.95-0.059,6.176-1.117,7.126-1.117c0.95,0,2.842-0.013,3.85-0.013c1.008,0,3.935,0.316,4.764,0.316
			c0.829,0,4.761,0.06,5.084-0.837c0.404-1.116-6.169-4.015-6.715-5.316c-0.189-0.45,2.074-2.816,2.369-2.875
			c0.298-0.061,2.104,3.279,2.398,3.457c0.295,0.184,2.446,2.513,3.276,2.983c0.83,0.479,2.882,1.352,2.944,1.886
			c0.059,0.532-0.397,2.29-1.761,2.29c-1.365,0-1.751,0.287-1.311,1.049c0.451,0.778,6.162,2.864,8.178,3.221
			c2.016,0.355,3.414,0.459,4.72,0.279c1.307-0.178,3.349-1.164,4.211-1.534c1.43-0.615,3.129-2.811,5.015-2.837
			c2.563-0.034,1.875-1.55,2.191-2.331c0.309-0.763,0.91-1.791,1.383-2.09c0.473-0.296,2.435,0.563,2.908,0.563
			c0.477,0,10.932-1.435,11.908-1.184c1.364,0.36,1.969,1.351,3.569,1.467c1.601,0.121,2.617-0.063,3.446-1.251
			c0.834-1.188,3.438-1.521,4.535-1.089c1.498,0.601,7.196-1.475,8.799-2.01c1.603-0.531,3.885-1.146,4.646-0.69
			c1.158,0.69,4.448,1.121,5.074,1.312c0.934,0.275,0.898,0.746,1.376,1.04c0.474,0.299,1.571,0.938,3.174,0.041
			c1.216-0.687,3.015-0.97,4.259-1.445c1.248-0.473,4.67-0.818,5.146-0.818s-0.399-0.02,0.965-0.02s5.013,0.204,6.747-0.104
			c1.911-0.338,6.548,0.212,8.148,0.033c1.603-0.183,3.309-0.313,4.761-0.287c0.973,0.021,3.329,0.366,5.846,0.263
			c2.437-0.103,5.204,0.688,5.663,0.982c0.834,0.529,3.555,3.792,3.025,4.632c-0.785,1.253-11.059,2.825-14.272,3.343
			c-3.162,0.506-8.928,2.17-11.45,2.408c-2.494,0.239-8.764,1.559-13.238,1.946c-4.017,0.351-16.844,1.918-24.912,2.338
			c-8.069,0.415-24.154,1.419-26.469,1.36c-2.314-0.06-23.343-1.125-25.302-1.36c-1.958-0.235-9.579-0.896-12.778-1.213
			c-3.985-0.394-18.853-2.468-20.276-3.178C150.387,302.805,149.492,301.51,149.67,300.978z"/>
		<path fill="#00457C" d="M157.815,307.206"/>
		<path fill="#00457C" d="M357.375,268.062c1.652-1.071,3.896-1.754,5.303-2.584c1.412-0.826,3.275-1.227,3.762-1.227
			s0.586,0.535,0.242,0.925c-0.338,0.39-1.961,0.986-3.27,1.718c-1.314,0.729-3.117,1.838-4.285,2.238
			c-1.113,0.379-3.063,1.117-3.018,0.291C356.157,268.598,357.375,268.062,357.375,268.062z"/>
		<path fill="#00457C" d="M186.647,121.24c1.172-1.295,6.231-2.467,7.141-2.853c0.91-0.391,14.66-0.686,14.402,0.386
			c-0.28,1.165-2.73,3.279-3.632,4.415c-0.863,1.081-2.271,1.492-2.857,2.075c-0.666,0.669-1.165,2.468-2.726,3.242
			c-1.554,0.779-7.912,2.988-7.912,2.988c-2.984,1.427-6.1,4.152-7.396,5.707c-1.296,1.558-3.763,1.427-3.505-1.686
			c0.262-3.112,1.947-4.153,3.374-5.448c1.427-1.299,0.651-1.815,1.558-3.632C186.003,124.614,185.483,122.536,186.647,121.24z"/>
		<path fill="#00457C" d="M351.772,212.738c-0.268-0.782,3.105-1.551,3.201-0.283c0.104,1.268,0.699,4.455,1.379,3.967
			c0.686-0.483,1.381-1.786,2.549-1.786s2.332,0.483,3.895,1.164c1.555,0.685,4.273,2.687,5.053,4.146
			c0.777,1.46,2.637,4.906,2.439,5.492c-0.193,0.583-1.561,0.974-2.332,0.1c-0.779-0.877,0.291-1.563-1.854-2.632
			c-2.143-1.069-1.852,0.294-2.045,0.778c-0.189,0.486-2.045,1.463-3.018,0.486c-0.971-0.973-1.75-2.918-1.848-3.987
			c-0.1-1.07-1.166-1.46-2.143-1.656c-0.975-0.191-1.168-0.482-2.336-1.554c-1.168-1.073-1.559-1.173-2.041-1.656
			C352.188,214.826,351.866,213.031,351.772,212.738z"/>
		<path fill="#00457C" d="M339.805,211.93c-0.482,1.069-0.688,6.624-0.105,7.309c0.586,0.681,1.461,0.193,1.656-1.069
			c0.195-1.268,1.359-0.49,1.359-1.363c0-0.878-0.359-3.065-1.139-3.942C340.801,211.984,339.805,211.93,339.805,211.93z"/>
		<path fill="#00457C" d="M337.032,188.95c0.098-0.874,0.389-1.85,1.945-0.779c1.559,1.07,0.879,0,0.879,1.656
			c0,1.651-0.395,2.627,0.389,2.919c0.779,0.291,3.111,2.045,3.018,2.528c-0.102,0.483-0.68,1.656-1.754,0.681
			c-1.066-0.973-0.973-1.165-1.941-1.558c-0.979-0.391-2.242-1.851-2.242-2.238C337.323,191.774,337.032,188.95,337.032,188.95z"/>
		<path fill="#00457C" d="M345.45,199.588c-0.605-0.539-0.703,0.263-1.18,0.761c-0.408,0.43-0.986,0.378-1.525,0.513
			c-0.41,0.103-1.35,0.762-1.27,1.318c0.092,0.621,1.863-0.478,2.15-0.189c0.4,0.4,0.273,2.05,1.008,2.231
			c0.852,0.208,1.838-0.925,1.838-1.452c0-0.626-0.074-1.201-0.477-2.133C345.85,200.301,345.727,199.835,345.45,199.588z"/>
		<path fill="#00457C" d="M322.549,144.711c-1.303,0.215,2.701,2.429,4.285,3.792c1.633,1.409,6.176,5.687,7.031,4.83
			c0.564-0.566-2.777-3.437-3.211-3.78C329.065,148.274,323.864,144.493,322.549,144.711z"/>
		<path fill="#00457C" d="M133.03,182.228c2.304,1.096,7.953,3.737,7.05,4.92c-1.183,1.555-6.562-2.101-7.133-2.432
			c-2.228-1.284-5.012-0.949-5.63-1.994C126.559,181.453,130.938,181.234,133.03,182.228z"/>
	</g>
	<path fill="#00457C" d="M154.339,125.524c-0.746,0.27-4.597,1.229-4.112,2.354c0.302,0.699,3.778,0.65,4.404,0.718
		c1.139,0.119,2.599,0.229,3.468-0.703c1.019-1.092,0.288-2.308-0.975-2.795C156.163,124.73,154.339,125.524,154.339,125.524z"/>
	<path fill="#00457C" d="M210.723,140.54c-0.368-0.973-1.106-1.726-1.896-1.448c-0.647,0.229-0.83,1.604-0.619,2.23
		c0.419,1.238,1.285,1.077,1.591,2.333c0.273,1.11-1.605,2.672-0.921,4.288c0.368,0.87,5.383-0.567,5.078-1.496
		c-0.443-1.343-1.183-1.721-1.868-2.686C211.986,143.616,210.927,141.083,210.723,140.54z"/>
	<path fill="#00457C" d="M185.195,79.163c0.091,3.873-0.746,12.666,7.349,12.474c5.361-0.124,2.926-0.065,8.142-0.189
		c5.211-0.124,5.641-5.681,5.641-5.681l17.013-0.4c0.318,13.666-5.428,16.403-12.573,16.57c-7.148,0.171-16.294,0.386-29.102,0.688
		c-10.46,0.247-13.062-6.661-13.211-12.985c-0.044-1.938-0.237-10.075-0.237-10.075l-0.003-0.218c0,0-0.175-7.41-0.218-9.351
		c-0.153-6.322,2.122-13.343,12.582-13.591c12.804-0.306,21.95-0.517,29.098-0.688c7.147-0.167,13.021,2.294,13.341,15.959
		l-17.013,0.404c0,0-0.688-5.532-5.903-5.409c-5.212,0.12-2.777,0.065-8.138,0.192c-8.098,0.189-6.864,8.207-6.77,12.08"/>
	
		<rect x="132.446" y="60.448" transform="matrix(0.9894 -0.1454 0.1454 0.9894 -10.6497 21.4173)" fill="#00457C" width="17.496" height="46.234"/>
	<g>
		<g>
			<path fill="#00457C" d="M278.438,105.233l16.73,1.445L280.19,59.036l-12.234-1.06l-12.223-1.057l-22.936,44.37l16.732,1.444
				l3.436-7.216l23.322,2.018L278.438,105.233z M256.422,88.265l10.896-22.893l6.813,24.424L256.422,88.265z"/>
		</g>
	</g>
	<path fill="#00457C" d="M217.333,345.915c0.187,3.869-0.426,12.682,7.662,12.284c5.358-0.267,2.928-0.146,8.135-0.404
		c5.205-0.255,5.492-5.818,5.492-5.818l17-0.838c0.674,13.651-5,16.534-12.145,16.889c-7.145,0.354-16.28,0.802-29.074,1.435
		c-10.45,0.518-13.227-6.318-13.54-12.642c-0.094-1.937-0.495-10.066-0.495-10.066l-0.011-0.218c0,0-0.364-7.406-0.458-9.34
		c-0.313-6.317,1.78-13.396,12.229-13.913c12.791-0.631,21.93-1.077,29.072-1.432c7.143-0.354,13.071,1.955,13.745,15.613l-17,0.838
		c0,0-0.829-5.515-6.038-5.256c-5.207,0.259-2.777,0.139-8.131,0.398c-8.089,0.4-6.646,8.383-6.458,12.252"/>
	
		<rect x="273.442" y="318.127" transform="matrix(0.9903 -0.1387 0.1387 0.9903 -44.6076 42.4435)" fill="#00457C" width="17.494" height="46.226"/>
	<g>
		<path fill="#00457C" d="M174.928,365.856l16.731,1.415l-15.067-47.615l-12.233-1.036l-12.225-1.033l-22.853,44.409l16.734,1.416
			l3.421-7.221l23.331,1.975L174.928,365.856z M152.878,348.928l10.855-22.91l6.859,24.407L152.878,348.928z"/>
	</g>
</g>
</svg>
