<?xml version="1.0" encoding="UTF-8"?><svg id="Layer_1" xmlns="http://www.w3.org/2000/svg" width="25" height="25" xmlns:xlink="http://www.w3.org/1999/xlink" viewBox="0 0 25 25"><defs><clipPath id="clippath"><path d="M12.5,0C5.6,0,0,5.59,0,12.5c0,3.18,1.2,6.07,3.15,8.28h18.7c1.95-2.21,3.15-5.1,3.15-8.28C25,5.59,19.4,0,12.5,0Z" fill="none"/></clipPath></defs><g clip-path="url(#clippath)"><line x1="-6.81" y1="15.65" x2="17.41" y2="-8.57" fill="none" stroke="#000" stroke-miterlimit="10" stroke-width="2.5"/><line x1="-4.68" y1="17.74" x2="19.54" y2="-6.48" fill="none" stroke="#000" stroke-miterlimit="10" stroke-width="2.21"/><line x1="-2.54" y1="19.83" x2="21.68" y2="-4.39" fill="none" stroke="#000" stroke-miterlimit="10" stroke-width="1.93"/><line x1="-.41" y1="21.92" x2="23.81" y2="-2.31" fill="none" stroke="#000" stroke-miterlimit="10" stroke-width="1.64"/><line x1="1.73" y1="24" x2="25.95" y2="-.22" fill="none" stroke="#000" stroke-miterlimit="10" stroke-width="1.35"/><line x1="3.86" y1="26.09" x2="28.08" y2="1.87" fill="none" stroke="#000" stroke-miterlimit="10" stroke-width="1.06"/><line x1="6" y1="28.18" x2="30.22" y2="3.95" fill="none" stroke="#000" stroke-miterlimit="10" stroke-width=".78"/><line x1="8.13" y1="30.26" x2="32.35" y2="6.04" fill="none" stroke="#000" stroke-miterlimit="10" stroke-width=".49"/><line x1="10.27" y1="32.35" x2="34.49" y2="8.13" fill="none" stroke="#000" stroke-miterlimit="10" stroke-width=".2"/></g></svg>