<?xml version="1.0" encoding="UTF-8"?><svg id="Layer_1" xmlns="http://www.w3.org/2000/svg" width="25" height="25" xmlns:xlink="http://www.w3.org/1999/xlink" viewBox="0 0 25 25"><defs><clipPath id="clippath"><path d="M12.5,0C5.6,0,0,5.6,0,12.5c0,3.18,1.2,6.07,3.15,8.28h18.7c1.95-2.21,3.15-5.1,3.15-8.28C25,5.6,19.4,0,12.5,0Z" fill="none"/></clipPath></defs><g clip-path="url(#clippath)"><line x1="-6.56" y1="15.59" x2="17.34" y2="-8.31" fill="none" stroke="#fff" stroke-miterlimit="10" stroke-width="2.5"/><line x1="-4.45" y1="17.65" x2="19.45" y2="-6.26" fill="none" stroke="#fff" stroke-miterlimit="10" stroke-width="2.21"/><line x1="-2.34" y1="19.7" x2="21.56" y2="-4.2" fill="none" stroke="#fff" stroke-miterlimit="10" stroke-width="1.93"/><line x1="-.24" y1="21.76" x2="23.66" y2="-2.14" fill="none" stroke="#fff" stroke-miterlimit="10" stroke-width="1.64"/><line x1="1.87" y1="23.82" x2="25.77" y2="-.08" fill="none" stroke="#fff" stroke-miterlimit="10" stroke-width="1.35"/><line x1="3.98" y1="25.88" x2="27.88" y2="1.98" fill="none" stroke="#fff" stroke-miterlimit="10" stroke-width="1.06"/><line x1="6.08" y1="27.94" x2="29.98" y2="4.04" fill="none" stroke="#fff" stroke-miterlimit="10" stroke-width=".78"/><line x1="8.19" y1="30" x2="32.09" y2="6.1" fill="none" stroke="#fff" stroke-miterlimit="10" stroke-width=".49"/><line x1="10.3" y1="32.06" x2="34.2" y2="8.16" fill="none" stroke="#fff" stroke-miterlimit="10" stroke-width=".2"/></g></svg>