<?xml version="1.0" encoding="UTF-8"?><svg xmlns="http://www.w3.org/2000/svg" viewBox="0 0 1606.07 1817.87"><defs><style>.cls-1,.cls-2,.cls-3,.cls-4,.cls-5{fill:none;}.cls-2{stroke-width:9px;}.cls-2,.cls-3{stroke:#f3f7ff;}.cls-3{stroke-linejoin:round;stroke-width:10px;}.cls-4{stroke-width:3px;}.cls-4,.cls-5{stroke:blue;}.cls-6{fill:blue;}.cls-5{stroke-miterlimit:10;}.cls-7{fill:#fff;}</style></defs><g id="basic"><polygon class="cls-5" points="826.6 847.35 819.33 847.35 813.78 841.8 813.78 832.81 819.04 827.55 824.3 827.55 824.3 822.48 810.15 822.48 827.56 805.07 822.39 805.07 818.47 808.99 818.47 802.58 822.15 798.89 816.65 793.39 810.34 799.71 810.34 805.64 804.12 811.86 808.81 816.55 804.4 820.95 795.6 820.95 801.73 814.82 801.73 804.49 796.37 804.49 796.37 810.61 791.2 815.78 781.83 815.78 768.91 828.7 764.8 824.58 764.8 816.74 760.87 812.81 760.87 806.02 764.65 802.24 764.65 790.71 755.93 790.71 753.12 787.91 747.13 787.91 747.13 778.09 751.21 778.09 755.42 773.88 758.86 777.32 762.69 777.32 762.69 770.81 747.38 770.81 728.63 789.57 722.89 789.57 717.92 794.54 717.92 829.75 705.86 841.8 705.86 847.35 701.75 851.47 701.75 854.24 693.81 854.24 684.81 863.23 684.81 870.7 679.36 876.15 679.36 887.15 674.72 891.79 674.72 902.84 670.1 907.46 670.1 910.5 663.59 917.01 663.59 921.59 659.75 925.43 659.75 930.78 652.67 937.86 649.41 934.61 645.21 934.61 645.21 947.62 638.7 947.62 638.7 956.8 629.13 956.8 629.13 962.16 625.69 965.6 625.69 958.72 619.18 958.72 614.4 963.5 614.4 967.9 608.18 974.12 601.96 974.12 594.36 981.73 588.95 981.73 588.95 984.36 584.55 988.76 579.38 988.76 572.21 995.93 572.21 990.1 557.62 1004.69 557.62 1010.76 552.43 1015.95 552.43 1012.32 543.6 1003.49 541.88 1003.49 541.88 1011.53 546.09 1015.74 546.09 1019.95 538.63 1027.41 531.55 1027.41 520.93 1038.03 511.26 1038.03 511.26 1045.2 504.37 1052.09 496.34 1052.09 496.34 1055.44 496.34 1061.28 499.08 1061.28 499.08 1066.16 496.34 1066.16 492.13 1066.16 492.13 1061.28 485.24 1061.28 485.24 1068.55 463.04 1090.74 463.04 1094.57 470.7 1094.57 475.1 1098.97 475.1 1106.82 459.89 1122.03 463.62 1125.76 469.17 1125.76 463.52 1131.41 442.51 1131.41 442.51 1141.46 446.84 1137.12 456.03 1137.12 456.03 1140.11 451.24 1144.9 453.41 1147.06 459.09 1147.06 458.92 1152.23 452.33 1152.23 447.42 1157.14 474.72 1157.14 481.29 1150.57 487.15 1156.44 493.02 1150.57 495.45 1153 503.74 1144.7 503.74 1132.97 516.75 1132.97 521.21 1137.43 523.89 1137.43 527.14 1134.18 530.78 1137.82 523.64 1144.96 520.58 1141.9 518.15 1144.32 518.15 1147.77 509.54 1156.38 512.16 1158.99 512.16 1166.64 515.73 1163.07 523.64 1163.07 523.64 1177.87 526.7 1180.93 526.7 1186.29 530.91 1182.08 540.48 1182.08 543.86 1178.7 548.38 1178.7 548.38 1184.5 557.06 1184.5 563.82 1177.74 566.75 1177.74 566.75 1182.97 572.49 1177.23 576.45 1181.19 580.53 1181.19 585.89 1175.83 589.71 1175.83 589.71 1169.96 593.54 1166.13 595.71 1168.3 595.71 1172.51 602.66 1165.56 599.03 1161.92 599.03 1159.12 608.85 1159.12 608.85 1164.35 614.46 1158.74 614.46 1154.14 620.08 1148.53 623.14 1151.59 625.69 1149.04 625.69 1144.45 632.32 1137.82 638.9 1137.82 644.76 1131.95 648.05 1135.23 651.52 1135.23 651.52 1131.95 649.48 1129.91 649.48 1127.1 643.29 1127.1 639.94 1130.45 636.21 1130.45 633.1 1133.56 633.1 1124.8 637.43 1120.47 644.25 1120.47 646.41 1122.64 655.1 1122.64 659.21 1118.52 654.29 1113.61 648.75 1119.16 648.75 1103.56 652.28 1103.56 657.34 1098.51 654.37 1095.54 654.37 1078.69 650.84 1075.16 653.72 1072.28 656.21 1074.77 658.03 1072.95 653.91 1068.84 653.91 1059.55 659.32 1054.15 659.32 1047.12 655.73 1047.12 655.73 1044.06 659.25 1040.54 659.25 1037.17 663.61 1032.8 661.85 1031.04 659.75 1031.04 673.52 1017.27 673.52 1005.4 679.26 1005.4 688.45 996.22 697.63 996.22 707.58 986.27 712.56 991.24 715.81 987.99 715.81 979.38 725.95 979.38 738.58 992.01 738.58 1000.43 750.06 1000.43 750.1 1001.96 757.33 1001.96 761.73 997.56 761.73 987.42 746.62 987.42 746.62 979.38 738.2 979.38 741.83 975.75 741.83 969.41 732.84 969.41 728.82 973.43 723.27 973.43 723.27 967.13 734.37 956.04 734.37 950.68 744.7 950.68 752.17 943.22 752.17 935.37 756.86 930.68 756.86 921.98 761.73 921.98 761.73 914.32 772.55 903.51 772.55 895.95 774.94 895.95 774.94 890.21 780.87 884.28 786.8 884.28 793.79 877.3 803.26 877.3 803.26 870.7 809 864.96 815.12 864.96 824.5 855.58 831.19 855.58 831.19 851.94 826.6 847.35"/><polygon class="cls-5" points="488.68 1185.91 488.68 1195.47 485.37 1198.79 489.96 1203.38 486.9 1206.44 486.9 1213.59 493.28 1213.59 493.28 1225.58 495.45 1227.75 495.45 1233.74 503.74 1233.74 507.05 1230.43 512.16 1230.43 512.16 1220.48 515.98 1216.65 518.41 1219.07 523.89 1213.59 523.89 1210.02 531.29 1210.02 531.29 1203.38 525.42 1197.52 518.79 1197.52 518.79 1189.35 512.92 1189.35 512.92 1186.29 507.05 1180.42 501.57 1185.91 488.68 1185.91"/><polygon class="cls-5" points="799.05 786.12 799.05 801.05 804.21 795.88 809 795.88 812.73 792.15 812.73 787.27 807.47 787.27 807.47 791.86 804.02 791.86 804.02 786.12 799.05 786.12"/><polygon class="cls-5" points="834.61 812.87 836.55 810.93 836.55 808.51 831.38 808.51 822.77 817.12 828 817.12 832.2 812.93 834.67 812.93 834.61 812.87"/><polygon class="cls-5" points="808.61 684.23 808.61 701.16 821.43 713.98 829.66 713.98 839.04 723.36 839.04 728.14 842.48 728.14 849.08 734.75 849.08 738.48 865.44 738.48 865.44 786.12 861.14 790.43 861.14 804.49 842.34 823.29 842.34 831.47 848.8 831.47 848.8 822.29 854.54 822.29 854.54 836.64 859.7 831.47 868.31 831.47 868.31 852.14 874.92 845.53 882.67 845.53 888.26 839.94 895.87 839.94 914.17 821.64 914.17 812.81 922.27 812.81 922.27 801.05 936.05 787.27 936.05 780.38 948.54 767.9 948.54 760.29 956.07 752.76 956.07 741.35 963.86 733.56 963.86 728.72 968.04 724.54 959.01 724.54 959.01 720.7 950.59 712.28 950.59 720.3 943.32 727.57 938.92 723.17 938.92 712.65 942.17 712.65 951.17 703.65 959.39 703.65 967.06 695.98 967.06 690.45 980.26 677.25 990.39 677.25 990.39 673.61 994.22 673.61 999.58 678.97 1004.94 678.97 1004.94 698.49 1016.42 687 1016.42 682.41 1010.68 682.41 1010.68 677.44 1019.29 668.83 1019.29 662.13 1040.05 641.37 1033.45 634.77 1041.63 626.59 1041.63 604.34 1045.09 600.88 1052.94 593.03 1046.65 586.74 1041.67 591.71 1041.67 579.09 1021.39 579.09 1021.39 584.83 1018.33 587.89 1008.76 587.89 1002.07 594.58 1002.07 600.52 970.11 600.52 965.71 604.92 957.86 597.07 942.56 597.07 942.56 591.71 937.96 591.71 932.22 585.97 932.22 579.09 928.4 579.09 928.4 582.91 920.36 582.91 920.36 573.35 906.97 559.95 906.97 535.46 901.42 529.91 896.63 529.91 903.62 522.93 895.1 522.93 895.1 515.18 884.96 505.03 884.96 514.03 887.93 516.99 887.93 526.27 891.32 529.67 886.87 534.12 886.87 542.35 891.56 547.04 878.26 547.04 878.26 538.14 869.46 538.14 869.46 534.31 857.22 534.31 848.61 525.7 848.61 518.62 853.29 513.93 858.75 513.93 851.62 506.8 859.51 506.8 859.51 497.95 845.74 484.18 845.74 475.76 836.17 466.19 844.59 466.19 844.59 445.14 834.06 434.62 834.06 416.44 826.98 416.44 818.37 425.05 818.37 429.45 813.21 429.45 807.28 423.52 814.93 415.87 806.32 407.26 800 413.57 792.35 405.92 784.5 405.92 784.5 413.38 774.94 403.81 781.83 396.92 776.66 391.76 766.9 401.52 755.04 389.65 755.04 378.56 759.25 378.56 764.99 372.81 734.37 372.81 748.53 386.97 748.53 392.71 758.48 402.66 758.48 411.47 764.41 417.4 764.41 426.39 768.72 422.09 768.72 432.9 778 432.9 778 439.02 783.36 444.38 783.36 447.82 789.29 453.75 789.29 459.69 798.76 469.16 798.76 473.46 804.26 478.96 804.26 484.56 811.99 492.29 811.99 499.1 819.1 506.22 822.58 502.74 822.58 491.45 828.13 497 828.13 505.9 835.95 513.71 835.95 518.74 839.06 521.85 835.4 525.51 830.81 520.92 830.81 516.35 826.6 512.14 821.82 516.92 821.82 527.42 827.37 527.42 827.37 535.08 836.93 544.64 840.57 541.01 849.95 541.01 849.95 551.91 844.78 546.75 840.76 546.75 840.76 555.36 858.36 572.96 858.36 588.65 866.59 596.88 861.04 596.88 861.04 603.2 853.53 610.71 853.53 636.87 849.63 640.77 849.63 654.86 840.03 664.46 832.72 664.46 832.72 672.46 824.3 672.46 820.86 675.91 816.94 675.91 808.61 684.23"/><polygon class="cls-5" points="884.07 481.5 884.07 486.85 879.67 486.85 879.67 492.21 882.86 492.21 889.75 492.21 889.75 488.2 889.75 481.5 884.07 481.5"/><polygon class="cls-5" points="870.8 482.61 865.52 482.61 865.52 492.21 870.8 486.93 870.8 482.61"/><polygon class="cls-5" points="875.54 521.61 875.54 527.02 864.26 527.02 869.68 521.61 875.54 521.61"/><polygon class="cls-5" points="855.41 595.55 848.65 602.32 841.88 595.55 855.41 595.55"/><rect class="cls-1" x="245.18" y="372.81" width="1080" height="860.93"/></g><g id="labels"><path class="cls-3" d="M732.01,552.03h-4.72l-.62-4.05v-.05l-6.91.05-.62,4.05h-4.19l1.32-4.05,3.32-12.15.81-4.05h5.97l.81,4.05,3.51,12.15,1.32,4.05ZM725.59,544.23l-2.46-8.64-2.35,8.67,4.81-.03Z"/><path class="cls-3" d="M746.32,548.01l.27,4.02h-3.97l-.11-1.92c-1.01,1.49-2.48,2.24-4.4,2.24-1.28,0-2.28-.42-3-1.26-.72-.84-1.08-2.02-1.08-3.55v-7.67l-.27-4.05h4.32l-.27,4.05v6.94c0,.63.17,1.13.51,1.51.34.38.78.57,1.32.57,1.06,0,2.02-.66,2.89-1.97v-7.05l-.27-4.05h4.32l-.27,4.05v8.13Z"/><path class="cls-3" d="M750.99,550.35c-1.08-1.41-1.62-3.51-1.62-6.28s.56-4.82,1.69-6.32c1.12-1.49,2.79-2.24,5.01-2.24,1.22,0,2.17.09,2.85.28.67.19,1.33.53,1.96,1.01l-.59,3.38-.43.19c-.41-.41-.86-.71-1.35-.88-.49-.17-1.16-.26-2.03-.26-1.17,0-2,.37-2.48,1.12-.49.75-.73,1.98-.73,3.71,0,1.24.1,2.19.3,2.83s.55,1.11,1.07,1.38c.51.27,1.26.4,2.25.4.94,0,1.68-.09,2.24-.27.56-.18,1.05-.48,1.49-.89l.46.22-.84,3.32c-.7.56-1.33.93-1.88,1.12-.55.19-1.31.28-2.28.28-2.3,0-4-.71-5.08-2.12Z"/><path class="cls-3" d="M777.51,552.03h-4.94l-1.38-3.92-1.67-3.48-2.21,2.75v.59l.27,4.05h-4.32l.27-4.05v-13.64l-.27-3.92h4.32l-.27,3.92v8.42l2.27-3.02,2.21-3.92h5.21l-3.51,3.92-1.59,1.97,3.27,6.4,2.35,3.92Z"/><path class="cls-3" d="M779.37,547.98v-13.64l-.27-3.92h4.32l-.27,3.92v13.64l.27,4.05h-4.32l.27-4.05Z"/><path class="cls-3" d="M786.78,544.73c.5-.84,1.15-1.5,1.97-1.98.82-.49,1.71-.73,2.66-.73,1.66,0,2.94.24,3.86.73v-1.43c0-.68-.27-1.21-.82-1.59-.55-.38-1.32-.57-2.31-.57-1.06,0-2,.17-2.82.51-.82.34-1.44.86-1.88,1.54l-.3-.05.49-4c.61-.54,1.37-.96,2.28-1.26.91-.3,1.83-.45,2.77-.45,1.94,0,3.49.46,4.64,1.38s1.73,2.17,1.73,3.75v7.43l.27,4.02h-3.97l-.08-1.48c-.36.58-.92,1.04-1.69,1.39-.77.35-1.61.53-2.52.53-1.53,0-2.75-.44-3.66-1.32-.91-.88-1.36-2.09-1.36-3.62,0-1.03.25-1.96.74-2.79ZM790.4,548.7c.31.33.78.5,1.39.5.67,0,1.3-.13,1.9-.39.6-.26,1.13-.63,1.58-1.12v-1.84c-1.01-.49-2.14-.73-3.4-.73-.67,0-1.16.18-1.47.54-.31.36-.47.9-.47,1.62,0,.61.16,1.08.47,1.42Z"/><path class="cls-3" d="M811.12,547.98v-6.94c0-.59-.17-1.07-.5-1.42-.33-.35-.78-.53-1.34-.53-1.13,0-2.1.61-2.89,1.84v7.05l.27,4.05h-4.32l.27-4.05v-8.24l-.27-3.92h3.51l.54,1.97c.95-1.44,2.43-2.16,4.43-2.16,1.26,0,2.25.4,2.98,1.19.73.79,1.09,1.95,1.09,3.48v7.67l.27,4.05h-4.32l.27-4.05Z"/><path class="cls-3" d="M830.89,548.01l.27,4.02h-3.97l-.08-1.46c-.34.49-.85.89-1.53,1.2-.68.31-1.32.47-1.93.47-1.89,0-3.34-.72-4.36-2.15-1.02-1.43-1.53-3.5-1.53-6.2,0-2.86.47-4.98,1.42-6.35.94-1.37,2.34-2.05,4.2-2.05.74,0,1.43.08,2.08.24.65.16,1.2.39,1.65.67v-2.08l-.27-3.92h4.32l-.27,3.92v13.66ZM827.11,539.59c-.59-.23-1.48-.35-2.65-.35-.76,0-1.33.13-1.73.38-.4.25-.67.71-.84,1.36-.16.66-.24,1.63-.24,2.93s.08,2.2.23,2.86c.15.67.41,1.14.77,1.42.36.28.87.42,1.54.42.5,0,1.04-.08,1.61-.23.57-.15,1-.34,1.31-.55v-8.23Z"/><path class="cls-3" d="M760.6,973.11c-1.23-.73-2.13-1.87-2.7-3.42-.57-1.55-.85-3.59-.85-6.13,0-3.58.65-6.22,1.96-7.92,1.31-1.7,3.47-2.55,6.49-2.55,1.15,0,2.08.11,2.79.34.71.23,1.46.64,2.25,1.26l-.59,3.43-.54.24c-.47-.54-.99-.92-1.57-1.13-.58-.22-1.36-.32-2.35-.32-1.1,0-1.97.22-2.61.66-.64.44-1.1,1.14-1.38,2.09-.28.96-.42,2.26-.42,3.92,0,1.76.13,3.14.4,4.12.27.98.72,1.68,1.35,2.09.63.42,1.51.62,2.65.62s2.11-.12,2.86-.38c.76-.25,1.39-.65,1.89-1.19l.57.22-.81,3.16c-.65.68-1.34,1.19-2.07,1.51s-1.54.49-2.44.49c-2.03,0-3.67-.37-4.9-1.09Z"/><path class="cls-3" d="M781.89,969.72v-6.94c0-.59-.17-1.07-.5-1.42-.33-.35-.78-.53-1.34-.53-1.13,0-2.1.61-2.89,1.84v7.05l.27,4.05h-4.32l.27-4.05v-13.63l-.27-3.92h4.32l-.27,3.92v3.46c.95-1.44,2.43-2.16,4.43-2.16,1.26,0,2.25.4,2.98,1.19.73.79,1.09,1.95,1.09,3.48v7.67l.27,4.05h-4.32l.27-4.05Z"/><path class="cls-3" d="M799.14,957.76l-.62,3.32-.35.24c-.56-.36-1.36-.54-2.4-.54-.58,0-1.08.12-1.53.35-.44.23-.85.61-1.23,1.13v7.45l.27,4.05h-4.32l.27-4.05v-8.24l-.27-3.92h3.51l.46,1.7c.92-1.26,2.14-1.89,3.67-1.89,1.1,0,1.94.13,2.54.38Z"/><path class="cls-3" d="M801.32,955.5c-.48-.39-.72-.89-.72-1.5s.24-1.14.72-1.53c.48-.39,1.06-.58,1.74-.58s1.26.19,1.74.58.72.9.72,1.53-.24,1.11-.72,1.5c-.48.39-1.06.58-1.74.58s-1.27-.19-1.74-.58ZM801.14,969.72v-8.24l-.27-3.92h4.32l-.27,3.92v8.24l.27,4.05h-4.32l.27-4.05Z"/><path class="cls-3" d="M811.01,973.54c-.78-.33-1.57-.9-2.36-1.71l-.51-3.4.38-.11c.68.59,1.47,1.06,2.35,1.4s1.76.51,2.65.51,1.5-.08,1.85-.26.53-.47.53-.91c0-.4-.22-.73-.66-1-.44-.27-1.21-.57-2.31-.89-1.12-.32-1.99-.68-2.62-1.08-.63-.4-1.09-.89-1.38-1.5-.29-.6-.43-1.36-.43-2.28,0-1.64.49-2.9,1.47-3.78.98-.88,2.37-1.32,4.17-1.32,1.1,0,2.07.14,2.9.42.84.28,1.59.71,2.25,1.31l-.59,3.4-.4.11c-.29-.47-.81-.84-1.55-1.11-.75-.27-1.5-.41-2.25-.41-1.4,0-2.11.4-2.11,1.19,0,.45.19.8.58,1.05.39.25,1.14.53,2.25.84,1.58.43,2.74,1.03,3.47,1.8.73.77,1.09,1.8,1.09,3.09,0,1.66-.5,2.92-1.51,3.81-1.01.88-2.42,1.32-4.24,1.32-1.22,0-2.23-.17-3.01-.5Z"/><path class="cls-3" d="M822.17,958.65l1.73-1.08.81-3.38h2.97v3.38h4.27v3.65h-4.27v7.13c0,.63.14,1.12.42,1.46.28.34.69.51,1.23.51.58,0,1.1-.11,1.58-.32.48-.22.87-.51,1.17-.89l.57.27-.84,3.32c-.74.56-1.35.93-1.82,1.12-.48.19-1.06.28-1.74.28-1.04,0-1.88-.21-2.51-.63s-1.09-1.11-1.39-2.05c-.3-.95-.45-2.24-.45-3.87v-6.32h-1.73v-2.57Z"/><path class="cls-3" d="M836.05,972.08c-1.08-1.41-1.62-3.5-1.62-6.28s.56-4.82,1.69-6.32c1.12-1.49,2.79-2.24,5.01-2.24,1.22,0,2.17.09,2.85.28.67.19,1.33.53,1.96,1.01l-.59,3.38-.43.19c-.41-.41-.86-.71-1.35-.88-.49-.17-1.16-.26-2.03-.26-1.17,0-2,.37-2.48,1.12-.49.75-.73,1.99-.73,3.71,0,1.24.1,2.19.3,2.83.2.65.55,1.11,1.07,1.38.51.27,1.26.41,2.25.41.94,0,1.68-.09,2.24-.27.56-.18,1.05-.48,1.49-.89l.46.22-.84,3.32c-.7.56-1.33.93-1.88,1.12-.55.19-1.31.28-2.28.28-2.3,0-4-.71-5.08-2.12Z"/><path class="cls-3" d="M857.08,969.72v-6.94c0-.59-.17-1.07-.5-1.42-.33-.35-.78-.53-1.34-.53-1.13,0-2.1.61-2.89,1.84v7.05l.27,4.05h-4.32l.27-4.05v-13.63l-.27-3.92h4.32l-.27,3.92v3.46c.95-1.44,2.43-2.16,4.43-2.16,1.26,0,2.25.4,2.98,1.19.73.79,1.09,1.95,1.09,3.48v7.67l.27,4.05h-4.32l.27-4.05Z"/><path class="cls-3" d="M876.52,969.75l.27,4.02h-3.97l-.11-1.92c-1.01,1.49-2.48,2.24-4.4,2.24-1.28,0-2.28-.42-3-1.26-.72-.84-1.08-2.02-1.08-3.55v-7.67l-.27-4.05h4.32l-.27,4.05v6.94c0,.63.17,1.13.51,1.51.34.38.78.57,1.32.57,1.06,0,2.02-.66,2.89-1.97v-7.05l-.27-4.05h4.32l-.27,4.05v8.13Z"/><path class="cls-3" d="M890.18,957.76l-.62,3.32-.35.24c-.56-.36-1.36-.54-2.4-.54-.58,0-1.08.12-1.53.35-.44.23-.85.61-1.23,1.13v7.45l.27,4.05h-4.32l.27-4.05v-8.24l-.27-3.92h3.51l.46,1.7c.92-1.26,2.14-1.89,3.67-1.89,1.1,0,1.94.13,2.54.38Z"/><path class="cls-3" d="M893.02,972.08c-1.08-1.41-1.62-3.5-1.62-6.28s.56-4.82,1.69-6.32c1.12-1.49,2.79-2.24,5.01-2.24,1.22,0,2.17.09,2.85.28.67.19,1.33.53,1.96,1.01l-.59,3.38-.43.19c-.41-.41-.86-.71-1.35-.88-.49-.17-1.16-.26-2.03-.26-1.17,0-2,.37-2.48,1.12-.49.75-.73,1.99-.73,3.71,0,1.24.1,2.19.3,2.83.2.65.55,1.11,1.07,1.38.51.27,1.26.41,2.25.41.94,0,1.68-.09,2.24-.27.56-.18,1.05-.48,1.49-.89l.46.22-.84,3.32c-.7.56-1.33.93-1.88,1.12-.55.19-1.31.28-2.28.28-2.3,0-4-.71-5.08-2.12Z"/><path class="cls-3" d="M914.05,969.72v-6.94c0-.59-.17-1.07-.5-1.42-.33-.35-.78-.53-1.34-.53-1.13,0-2.1.61-2.89,1.84v7.05l.27,4.05h-4.32l.27-4.05v-13.63l-.27-3.92h4.32l-.27,3.92v3.46c.95-1.44,2.43-2.16,4.43-2.16,1.26,0,2.25.4,2.98,1.19.73.79,1.09,1.95,1.09,3.48v7.67l.27,4.05h-4.32l.27-4.05Z"/><path class="cls-3" d="M854.08,855.36l.08,4.05,1.86,12.77,3-16.82h4.78l2.86,17.01,1.94-12.96.08-4.05h4.35l-.92,4.05-2,12.26-.38,3.94h-6.35l-2.38-15.55-2.43,15.55h-6.1l-.41-4.05-2.02-12.15-.92-4.05h4.94Z"/><path class="cls-3" d="M889.91,871.89l-.59,3.73h-11.96l.27-4.05v-12.29l-.27-3.92h12.28l-.59,3.73h-7.53v4.24h6.86l-.59,3.73h-6.26v4.83h8.4Z"/><path class="cls-3" d="M907.54,871.89l-.59,3.73h-11.96l.27-4.05v-12.29l-.27-3.92h4.43l-.27,3.92v12.29l.03.32h8.37Z"/><path class="cls-3" d="M924.55,871.89l-.59,3.73h-11.96l.27-4.05v-12.29l-.27-3.92h4.43l-.27,3.92v12.29l.03.32h8.37Z"/><path class="cls-3" d="M929.27,871.56v-12.29l-.27-3.92h4.43l-.27,3.92v12.29l.27,4.05h-4.43l.27-4.05Z"/><path class="cls-3" d="M954,871.56l.27,4.05h-6.13l-5.16-15.98v11.93l.27,4.05h-3.89l.27-4.05v-12.29l-.27-3.92h6.16l5.13,15.9v-11.99l-.27-3.92h3.89l-.27,3.92v12.29Z"/><path class="cls-3" d="M961.58,857.48c1.31-1.7,3.47-2.55,6.49-2.55.97,0,1.96.17,2.96.5,1,.33,1.94.84,2.82,1.53l-.59,3.43-.54.24c-.49-.58-1.14-1.04-1.97-1.38-.83-.34-1.72-.51-2.67-.51-1.1,0-1.97.22-2.61.66-.64.44-1.1,1.14-1.38,2.09-.28.96-.42,2.26-.42,3.92,0,1.75.12,3.11.35,4.09.23.98.63,1.68,1.17,2.11.55.42,1.31.63,2.28.63,1.22,0,2.12-.35,2.67-1.05.56-.7.84-1.85.84-3.46h-3.89v-3.73h7.67v11.61h-2.16l-.68-2.02c-.47.72-1.14,1.31-2.02,1.77-.88.46-1.78.69-2.7.69-1.76,0-3.2-.37-4.31-1.11s-1.93-1.89-2.47-3.44-.81-3.59-.81-6.09c0-3.58.65-6.22,1.96-7.92Z"/><path class="cls-3" d="M993.26,859.2l-.3.08-2.43-.32h-2.48v12.61l.27,4.05h-4.43l.27-4.05v-12.61h-2.48l-2.43.32-.3-.08.59-3.83h13.12l.59,3.83Z"/><path class="cls-3" d="M999.01,873.33c-1.31-1.81-1.97-4.45-1.97-7.92s.65-6.04,1.96-7.82c1.31-1.77,3.28-2.66,5.93-2.66s4.62.89,5.93,2.66c1.31,1.77,1.96,4.38,1.96,7.82s-.66,6.12-1.97,7.92c-1.31,1.81-3.29,2.71-5.91,2.71s-4.6-.91-5.91-2.71ZM1007.21,871.6c.55-.42.95-1.12,1.19-2.11.24-.98.36-2.34.36-4.09s-.12-3.01-.36-3.97c-.24-.95-.64-1.64-1.2-2.07-.56-.42-1.31-.63-2.27-.63s-1.71.21-2.27.63c-.56.42-.96,1.11-1.2,2.07s-.36,2.28-.36,3.97.12,3.11.36,4.09c.24.98.64,1.68,1.19,2.11.55.42,1.31.63,2.28.63s1.73-.21,2.28-.63Z"/><path class="cls-3" d="M1032.79,871.56l.27,4.05h-6.13l-5.16-15.98v11.93l.27,4.05h-3.89l.27-4.05v-12.29l-.27-3.92h6.16l5.13,15.9v-11.99l-.27-3.92h3.89l-.27,3.92v12.29Z"/><path class="cls-3" d="M849.03,878.31v-1.35h185.65v1.35h-185.65Z"/><path class="cls-6" d="M732.01,552.03h-4.72l-.62-4.05v-.05l-6.91.05-.62,4.05h-4.19l1.32-4.05,3.32-12.15.81-4.05h5.97l.81,4.05,3.51,12.15,1.32,4.05ZM725.59,544.23l-2.46-8.64-2.35,8.67,4.81-.03Z"/><path class="cls-6" d="M746.32,548.01l.27,4.02h-3.97l-.11-1.92c-1.01,1.49-2.48,2.24-4.4,2.24-1.28,0-2.28-.42-3-1.26-.72-.84-1.08-2.02-1.08-3.55v-7.67l-.27-4.05h4.32l-.27,4.05v6.94c0,.63.17,1.13.51,1.51.34.38.78.57,1.32.57,1.06,0,2.02-.66,2.89-1.97v-7.05l-.27-4.05h4.32l-.27,4.05v8.13Z"/><path class="cls-6" d="M750.99,550.35c-1.08-1.41-1.62-3.51-1.62-6.28s.56-4.82,1.69-6.32c1.12-1.49,2.79-2.24,5.01-2.24,1.22,0,2.17.09,2.85.28.67.19,1.33.53,1.96,1.01l-.59,3.38-.43.19c-.41-.41-.86-.71-1.35-.88-.49-.17-1.16-.26-2.03-.26-1.17,0-2,.37-2.48,1.12-.49.75-.73,1.98-.73,3.71,0,1.24.1,2.19.3,2.83s.55,1.11,1.07,1.38c.51.27,1.26.4,2.25.4.94,0,1.68-.09,2.24-.27.56-.18,1.05-.48,1.49-.89l.46.22-.84,3.32c-.7.56-1.33.93-1.88,1.12-.55.19-1.31.28-2.28.28-2.3,0-4-.71-5.08-2.12Z"/><path class="cls-6" d="M777.51,552.03h-4.94l-1.38-3.92-1.67-3.48-2.21,2.75v.59l.27,4.05h-4.32l.27-4.05v-13.64l-.27-3.92h4.32l-.27,3.92v8.42l2.27-3.02,2.21-3.92h5.21l-3.51,3.92-1.59,1.97,3.27,6.4,2.35,3.92Z"/><path class="cls-6" d="M779.37,547.98v-13.64l-.27-3.92h4.32l-.27,3.92v13.64l.27,4.05h-4.32l.27-4.05Z"/><path class="cls-6" d="M786.78,544.73c.5-.84,1.15-1.5,1.97-1.98.82-.49,1.71-.73,2.66-.73,1.66,0,2.94.24,3.86.73v-1.43c0-.68-.27-1.21-.82-1.59-.55-.38-1.32-.57-2.31-.57-1.06,0-2,.17-2.82.51-.82.34-1.44.86-1.88,1.54l-.3-.05.49-4c.61-.54,1.37-.96,2.28-1.26.91-.3,1.83-.45,2.77-.45,1.94,0,3.49.46,4.64,1.38s1.73,2.17,1.73,3.75v7.43l.27,4.02h-3.97l-.08-1.48c-.36.58-.92,1.04-1.69,1.39-.77.35-1.61.53-2.52.53-1.53,0-2.75-.44-3.66-1.32-.91-.88-1.36-2.09-1.36-3.62,0-1.03.25-1.96.74-2.79ZM790.4,548.7c.31.33.78.5,1.39.5.67,0,1.3-.13,1.9-.39.6-.26,1.13-.63,1.58-1.12v-1.84c-1.01-.49-2.14-.73-3.4-.73-.67,0-1.16.18-1.47.54-.31.36-.47.9-.47,1.62,0,.61.16,1.08.47,1.42Z"/><path class="cls-6" d="M811.12,547.98v-6.94c0-.59-.17-1.07-.5-1.42-.33-.35-.78-.53-1.34-.53-1.13,0-2.1.61-2.89,1.84v7.05l.27,4.05h-4.32l.27-4.05v-8.24l-.27-3.92h3.51l.54,1.97c.95-1.44,2.43-2.16,4.43-2.16,1.26,0,2.25.4,2.98,1.19.73.79,1.09,1.95,1.09,3.48v7.67l.27,4.05h-4.32l.27-4.05Z"/><path class="cls-6" d="M830.89,548.01l.27,4.02h-3.97l-.08-1.46c-.34.49-.85.89-1.53,1.2-.68.31-1.32.47-1.93.47-1.89,0-3.34-.72-4.36-2.15-1.02-1.43-1.53-3.5-1.53-6.2,0-2.86.47-4.98,1.42-6.35.94-1.37,2.34-2.05,4.2-2.05.74,0,1.43.08,2.08.24.65.16,1.2.39,1.65.67v-2.08l-.27-3.92h4.32l-.27,3.92v13.66ZM827.11,539.59c-.59-.23-1.48-.35-2.65-.35-.76,0-1.33.13-1.73.38-.4.25-.67.71-.84,1.36-.16.66-.24,1.63-.24,2.93s.08,2.2.23,2.86c.15.67.41,1.14.77,1.42.36.28.87.42,1.54.42.5,0,1.04-.08,1.61-.23.57-.15,1-.34,1.31-.55v-8.23Z"/><path class="cls-6" d="M760.6,973.11c-1.23-.73-2.13-1.87-2.7-3.42-.57-1.55-.85-3.59-.85-6.13,0-3.58.65-6.22,1.96-7.92,1.31-1.7,3.47-2.55,6.49-2.55,1.15,0,2.08.11,2.79.34.71.23,1.46.64,2.25,1.26l-.59,3.43-.54.24c-.47-.54-.99-.92-1.57-1.13-.58-.22-1.36-.32-2.35-.32-1.1,0-1.97.22-2.61.66-.64.44-1.1,1.14-1.38,2.09-.28.96-.42,2.26-.42,3.92,0,1.76.13,3.14.4,4.12.27.98.72,1.68,1.35,2.09.63.42,1.51.62,2.65.62s2.11-.12,2.86-.38c.76-.25,1.39-.65,1.89-1.19l.57.22-.81,3.16c-.65.68-1.34,1.19-2.07,1.51s-1.54.49-2.44.49c-2.03,0-3.67-.37-4.9-1.09Z"/><path class="cls-6" d="M781.89,969.72v-6.94c0-.59-.17-1.07-.5-1.42-.33-.35-.78-.53-1.34-.53-1.13,0-2.1.61-2.89,1.84v7.05l.27,4.05h-4.32l.27-4.05v-13.63l-.27-3.92h4.32l-.27,3.92v3.46c.95-1.44,2.43-2.16,4.43-2.16,1.26,0,2.25.4,2.98,1.19.73.79,1.09,1.95,1.09,3.48v7.67l.27,4.05h-4.32l.27-4.05Z"/><path class="cls-6" d="M799.14,957.76l-.62,3.32-.35.24c-.56-.36-1.36-.54-2.4-.54-.58,0-1.08.12-1.53.35-.44.23-.85.61-1.23,1.13v7.45l.27,4.05h-4.32l.27-4.05v-8.24l-.27-3.92h3.51l.46,1.7c.92-1.26,2.14-1.89,3.67-1.89,1.1,0,1.94.13,2.54.38Z"/><path class="cls-6" d="M801.32,955.5c-.48-.39-.72-.89-.72-1.5s.24-1.14.72-1.53c.48-.39,1.06-.58,1.74-.58s1.26.19,1.74.58.72.9.72,1.53-.24,1.11-.72,1.5c-.48.39-1.06.58-1.74.58s-1.27-.19-1.74-.58ZM801.14,969.72v-8.24l-.27-3.92h4.32l-.27,3.92v8.24l.27,4.05h-4.32l.27-4.05Z"/><path class="cls-6" d="M811.01,973.54c-.78-.33-1.57-.9-2.36-1.71l-.51-3.4.38-.11c.68.59,1.47,1.06,2.35,1.4s1.76.51,2.65.51,1.5-.08,1.85-.26.53-.47.53-.91c0-.4-.22-.73-.66-1-.44-.27-1.21-.57-2.31-.89-1.12-.32-1.99-.68-2.62-1.08-.63-.4-1.09-.89-1.38-1.5-.29-.6-.43-1.36-.43-2.28,0-1.64.49-2.9,1.47-3.78.98-.88,2.37-1.32,4.17-1.32,1.1,0,2.07.14,2.9.42.84.28,1.59.71,2.25,1.31l-.59,3.4-.4.11c-.29-.47-.81-.84-1.55-1.11-.75-.27-1.5-.41-2.25-.41-1.4,0-2.11.4-2.11,1.19,0,.45.19.8.58,1.05.39.25,1.14.53,2.25.84,1.58.43,2.74,1.03,3.47,1.8.73.77,1.09,1.8,1.09,3.09,0,1.66-.5,2.92-1.51,3.81-1.01.88-2.42,1.32-4.24,1.32-1.22,0-2.23-.17-3.01-.5Z"/><path class="cls-6" d="M822.17,958.65l1.73-1.08.81-3.38h2.97v3.38h4.27v3.65h-4.27v7.13c0,.63.14,1.12.42,1.46.28.34.69.51,1.23.51.58,0,1.1-.11,1.58-.32.48-.22.87-.51,1.17-.89l.57.27-.84,3.32c-.74.56-1.35.93-1.82,1.12-.48.19-1.06.28-1.74.28-1.04,0-1.88-.21-2.51-.63s-1.09-1.11-1.39-2.05c-.3-.95-.45-2.24-.45-3.87v-6.32h-1.73v-2.57Z"/><path class="cls-6" d="M836.05,972.08c-1.08-1.41-1.62-3.5-1.62-6.28s.56-4.82,1.69-6.32c1.12-1.49,2.79-2.24,5.01-2.24,1.22,0,2.17.09,2.85.28.67.19,1.33.53,1.96,1.01l-.59,3.38-.43.19c-.41-.41-.86-.71-1.35-.88-.49-.17-1.16-.26-2.03-.26-1.17,0-2,.37-2.48,1.12-.49.75-.73,1.99-.73,3.71,0,1.24.1,2.19.3,2.83.2.65.55,1.11,1.07,1.38.51.27,1.26.41,2.25.41.94,0,1.68-.09,2.24-.27.56-.18,1.05-.48,1.49-.89l.46.22-.84,3.32c-.7.56-1.33.93-1.88,1.12-.55.19-1.31.28-2.28.28-2.3,0-4-.71-5.08-2.12Z"/><path class="cls-6" d="M857.08,969.72v-6.94c0-.59-.17-1.07-.5-1.42-.33-.35-.78-.53-1.34-.53-1.13,0-2.1.61-2.89,1.84v7.05l.27,4.05h-4.32l.27-4.05v-13.63l-.27-3.92h4.32l-.27,3.92v3.46c.95-1.44,2.43-2.16,4.43-2.16,1.26,0,2.25.4,2.98,1.19.73.79,1.09,1.95,1.09,3.48v7.67l.27,4.05h-4.32l.27-4.05Z"/><path class="cls-6" d="M876.52,969.75l.27,4.02h-3.97l-.11-1.92c-1.01,1.49-2.48,2.24-4.4,2.24-1.28,0-2.28-.42-3-1.26-.72-.84-1.08-2.02-1.08-3.55v-7.67l-.27-4.05h4.32l-.27,4.05v6.94c0,.63.17,1.13.51,1.51.34.38.78.57,1.32.57,1.06,0,2.02-.66,2.89-1.97v-7.05l-.27-4.05h4.32l-.27,4.05v8.13Z"/><path class="cls-6" d="M890.18,957.76l-.62,3.32-.35.24c-.56-.36-1.36-.54-2.4-.54-.58,0-1.08.12-1.53.35-.44.23-.85.61-1.23,1.13v7.45l.27,4.05h-4.32l.27-4.05v-8.24l-.27-3.92h3.51l.46,1.7c.92-1.26,2.14-1.89,3.67-1.89,1.1,0,1.94.13,2.54.38Z"/><path class="cls-6" d="M893.02,972.08c-1.08-1.41-1.62-3.5-1.62-6.28s.56-4.82,1.69-6.32c1.12-1.49,2.79-2.24,5.01-2.24,1.22,0,2.17.09,2.85.28.67.19,1.33.53,1.96,1.01l-.59,3.38-.43.19c-.41-.41-.86-.71-1.35-.88-.49-.17-1.16-.26-2.03-.26-1.17,0-2,.37-2.48,1.12-.49.75-.73,1.99-.73,3.71,0,1.24.1,2.19.3,2.83.2.65.55,1.11,1.07,1.38.51.27,1.26.41,2.25.41.94,0,1.68-.09,2.24-.27.56-.18,1.05-.48,1.49-.89l.46.22-.84,3.32c-.7.56-1.33.93-1.88,1.12-.55.19-1.31.28-2.28.28-2.3,0-4-.71-5.08-2.12Z"/><path class="cls-6" d="M914.05,969.72v-6.94c0-.59-.17-1.07-.5-1.42-.33-.35-.78-.53-1.34-.53-1.13,0-2.1.61-2.89,1.84v7.05l.27,4.05h-4.32l.27-4.05v-13.63l-.27-3.92h4.32l-.27,3.92v3.46c.95-1.44,2.43-2.16,4.43-2.16,1.26,0,2.25.4,2.98,1.19.73.79,1.09,1.95,1.09,3.48v7.67l.27,4.05h-4.32l.27-4.05Z"/><path class="cls-6" d="M854.08,855.36l.08,4.05,1.86,12.77,3-16.82h4.78l2.86,17.01,1.94-12.96.08-4.05h4.35l-.92,4.05-2,12.26-.38,3.94h-6.35l-2.38-15.55-2.43,15.55h-6.1l-.41-4.05-2.02-12.15-.92-4.05h4.94Z"/><path class="cls-6" d="M889.91,871.89l-.59,3.73h-11.96l.27-4.05v-12.29l-.27-3.92h12.28l-.59,3.73h-7.53v4.24h6.86l-.59,3.73h-6.26v4.83h8.4Z"/><path class="cls-6" d="M907.54,871.89l-.59,3.73h-11.96l.27-4.05v-12.29l-.27-3.92h4.43l-.27,3.92v12.29l.03.32h8.37Z"/><path class="cls-6" d="M924.55,871.89l-.59,3.73h-11.96l.27-4.05v-12.29l-.27-3.92h4.43l-.27,3.92v12.29l.03.32h8.37Z"/><path class="cls-6" d="M929.27,871.56v-12.29l-.27-3.92h4.43l-.27,3.92v12.29l.27,4.05h-4.43l.27-4.05Z"/><path class="cls-6" d="M954,871.56l.27,4.05h-6.13l-5.16-15.98v11.93l.27,4.05h-3.89l.27-4.05v-12.29l-.27-3.92h6.16l5.13,15.9v-11.99l-.27-3.92h3.89l-.27,3.92v12.29Z"/><path class="cls-6" d="M961.58,857.48c1.31-1.7,3.47-2.55,6.49-2.55.97,0,1.96.17,2.96.5,1,.33,1.94.84,2.82,1.53l-.59,3.43-.54.24c-.49-.58-1.14-1.04-1.97-1.38-.83-.34-1.72-.51-2.67-.51-1.1,0-1.97.22-2.61.66-.64.44-1.1,1.14-1.38,2.09-.28.96-.42,2.26-.42,3.92,0,1.75.12,3.11.35,4.09.23.98.63,1.68,1.17,2.11.55.42,1.31.63,2.28.63,1.22,0,2.12-.35,2.67-1.05.56-.7.84-1.85.84-3.46h-3.89v-3.73h7.67v11.61h-2.16l-.68-2.02c-.47.72-1.14,1.31-2.02,1.77-.88.46-1.78.69-2.7.69-1.76,0-3.2-.37-4.31-1.11s-1.93-1.89-2.47-3.44-.81-3.59-.81-6.09c0-3.58.65-6.22,1.96-7.92Z"/><path class="cls-6" d="M993.26,859.2l-.3.08-2.43-.32h-2.48v12.61l.27,4.05h-4.43l.27-4.05v-12.61h-2.48l-2.43.32-.3-.08.59-3.83h13.12l.59,3.83Z"/><path class="cls-6" d="M999.01,873.33c-1.31-1.81-1.97-4.45-1.97-7.92s.65-6.04,1.96-7.82c1.31-1.77,3.28-2.66,5.93-2.66s4.62.89,5.93,2.66c1.31,1.77,1.96,4.38,1.96,7.82s-.66,6.12-1.97,7.92c-1.31,1.81-3.29,2.71-5.91,2.71s-4.6-.91-5.91-2.71ZM1007.21,871.6c.55-.42.95-1.12,1.19-2.11.24-.98.36-2.34.36-4.09s-.12-3.01-.36-3.97c-.24-.95-.64-1.64-1.2-2.07-.56-.42-1.31-.63-2.27-.63s-1.71.21-2.27.63c-.56.42-.96,1.11-1.2,2.07s-.36,2.28-.36,3.97.12,3.11.36,4.09c.24.98.64,1.68,1.19,2.11.55.42,1.31.63,2.28.63s1.73-.21,2.28-.63Z"/><path class="cls-6" d="M1032.79,871.56l.27,4.05h-6.13l-5.16-15.98v11.93l.27,4.05h-3.89l.27-4.05v-12.29l-.27-3.92h6.16l5.13,15.9v-11.99l-.27-3.92h3.89l-.27,3.92v12.29Z"/><path class="cls-6" d="M849.03,878.31v-1.35h185.65v1.35h-185.65Z"/></g><g id="pois"><g id="Capital"><circle class="cls-2" cx="846.24" cy="825.99" r="4.78"/><circle class="cls-2" cx="846.24" cy="825.99" r="4.78"/><circle class="cls-2" cx="846.24" cy="825.99" r="4.78"/><circle class="cls-2" cx="846.24" cy="825.99" r="1.28"/></g><g id="Layer_10"><circle class="cls-2" cx="729.59" cy="973.77" r="4.78"/><circle class="cls-2" cx="846.82" cy="531.8" r="4.78"/><circle class="cls-2" cx="729.59" cy="973.77" r="4.78"/><circle class="cls-2" cx="846.82" cy="531.8" r="4.78"/><circle class="cls-2" cx="729.59" cy="973.77" r="4.78"/><circle class="cls-2" cx="846.82" cy="531.8" r="4.78"/></g><g id="Capital-2"><circle class="cls-7" cx="846.24" cy="825.99" r="4.78"/><circle class="cls-4" cx="846.24" cy="825.99" r="4.78"/><circle class="cls-6" cx="846.24" cy="825.99" r="1.28"/></g><g id="Layer_10-2"><circle class="cls-7" cx="729.59" cy="973.77" r="4.78"/><circle class="cls-7" cx="846.82" cy="531.8" r="4.78"/><circle class="cls-4" cx="729.59" cy="973.77" r="4.78"/><circle class="cls-4" cx="846.82" cy="531.8" r="4.78"/></g></g></svg>