<?xml version="1.0" encoding="UTF-8"?><svg id="Layer_11" xmlns="http://www.w3.org/2000/svg" xmlns:xlink="http://www.w3.org/1999/xlink" viewBox="0 0 960 457.46"><defs><style>.cls-1,.cls-2,.cls-3,.cls-4,.cls-5,.cls-6,.cls-7,.cls-8,.cls-9,.cls-10,.cls-11,.cls-12,.cls-13{fill:none;}.cls-2{stroke:#1d1d1b;}.cls-3{stroke:#0064ff;}.cls-3,.cls-4,.cls-14,.cls-15,.cls-5,.cls-16,.cls-17,.cls-6,.cls-7,.cls-18,.cls-19,.cls-9,.cls-10,.cls-11,.cls-13{stroke-miterlimit:10;}.cls-4,.cls-16,.cls-8,.cls-19,.cls-10,.cls-13{stroke:#b3b3b3;}.cls-20{fill:#0064ff;}.cls-21{fill:#e6e6e6;}.cls-22{fill:#e6e6e6;}.cls-14,.cls-15,.cls-6,.cls-18{stroke:#1a1a1a;}.cls-14,.cls-16,.cls-19,.cls-23{fill:#4d4d4d;}.cls-15{fill:#1a1a1a;}.cls-5{stroke-dasharray:1 2;}.cls-5,.cls-7,.cls-9{stroke:#e6e6e6;}.cls-24{fill:#ccc;}.cls-16,.cls-8,.cls-13{stroke-width:.75px;}.cls-25{fill:#b3b3b3;}.cls-17{stroke:#000;}.cls-17,.cls-26{fill:#fff;}.cls-27{fill:#666;}.cls-18,.cls-28{fill:#333;}.cls-29{opacity:.5;}.cls-30{fill:#f7f7f7;}.cls-8{stroke-dasharray:3 2;}.cls-31{fill:#f5f5f5;}.cls-19{stroke-width:2.5px;}.cls-9{stroke-width:1.25px;}.cls-10{stroke-width:2px;}.cls-11{stroke:#666;}.cls-12{stroke:#e20613;}</style><symbol id="appearance" viewBox="0 0 22.99 22.99"><circle class="cls-25" cx="11.49" cy="11.49" r="8.12"/><path class="cls-8" d="M11.5,22.61C5.36,22.61.38,17.63.38,11.49S5.36.38,11.5.38s11.12,4.99,11.12,11.12-4.99,11.12-11.12,11.12Z"/></symbol><symbol id="appearance-bottom-bar" viewBox="0 0 285.56 20.02"><rect class="cls-10" x="1" y="2" width="15.01" height="15.01"/><rect class="cls-25" x="34.94" y="3" width="13.01" height="13.01"/><path class="cls-23" d="M46.95,4v11.01h-11.01V4h11.01M48.95,2h-15.01v15.01h15.01V2h0Z"/><rect class="cls-4" x="33.94" y="2" width="15.01" height="15.01"/><use width="14.85" height="19.67" transform="translate(66.54 .35)" xlink:href="#fx-icon"/><use width="19" height="19" transform="translate(203.98)" xlink:href="#stop-icon"/><rect class="cls-4" x="238.19" y="1.72" width="15.62" height="15.62"/><use width="15.49" height="17.31" transform="translate(270.08 .18)" xlink:href="#trash-icon"/><line class="cls-4" x1="246" y1="6.57" x2="246" y2="12.48"/><line class="cls-4" x1="248.96" y1="9.53" x2="243.05" y2="9.53"/></symbol><symbol id="appearance-styles-nav" viewBox="0 0 49.94 111.88"><rect class="cls-14" x=".5" y="17.52" width="48.94" height="93.86"/><rect class="cls-28" x="4.97" y="27.81" width="40" height="31" rx="2" ry="2"/><rect class="cls-11" x="4.97" y="27.81" width="40" height="31" rx="2" ry="2"/><use width="22.99" height="22.99" transform="translate(13.48 31.81)" xlink:href="#appearance"/><rect class="cls-1" x="4.97" y="71.07" width="40" height="31"/><use width="23.75" height="24.62" transform="translate(13.1 74.7)" xlink:href="#styles"/><use width="27.88" height="3" transform="translate(11.03 21.59)" xlink:href="#drag-indicator"/><use width="49.94" height="18.02" xlink:href="#panel-top-bar"/></symbol><symbol id="drag-indicator" viewBox="0 0 27.88 3"><line class="cls-14" x1=".5" x2=".5" y2="3"/><line class="cls-14" x1="3.49" x2="3.49" y2="3"/><line class="cls-14" x1="6.47" x2="6.47" y2="3"/><line class="cls-14" x1="9.46" x2="9.46" y2="3"/><line class="cls-14" x1="12.45" x2="12.45" y2="3"/><line class="cls-14" x1="15.44" x2="15.44" y2="3"/><line class="cls-14" x1="18.42" x2="18.42" y2="3"/><line class="cls-14" x1="21.41" x2="21.41" y2="3"/><line class="cls-14" x1="24.4" x2="24.4" y2="3"/><line class="cls-14" x1="27.38" x2="27.38" y2="3"/></symbol><symbol id="eye" viewBox="0 0 20.96 12.42"><path class="cls-24" d="M10.48,0C4.69,0,0,6.21,0,6.21c0,0,4.69,6.21,10.48,6.21s10.48-6.21,10.48-6.21c0,0-4.69-6.21-10.48-6.21ZM10.48,11.02c-2.66,0-4.81-2.16-4.81-4.81S7.82,1.39,10.48,1.39s4.81,2.16,4.81,4.81-2.16,4.81-4.81,4.81Z"/><circle class="cls-24" cx="10.48" cy="6.21" r="2.63"/></symbol><symbol id="fx-icon" viewBox="0 0 14.85 19.67"><path class="cls-21" d="M.72,15.07l1.43-7.54H.98l.23-1.17h1.16l.08-.46c.21-1.21.65-2.33,1.43-3.04.55-.5,1.31-.77,2.07-.77.6,0,.99.12,1.2.23l-.32,1.2c-.23-.11-.54-.17-.87-.17-1.19,0-1.76,1.16-2.02,2.6l-.08.42h1.94l-.23,1.17h-1.94l-1.43,7.54H.72Z"/><path class="cls-21" d="M7.84,6.36l.85,1.9c.25.56.41.99.58,1.39h.05c.33-.48.53-.79.95-1.32l1.61-1.97h1.72l-3.67,4.24,2.06,4.47h-1.63l-.88-1.97c-.3-.65-.42-.98-.63-1.55h-.05c-.26.42-.52.82-.89,1.33l-1.76,2.19h-1.73l3.82-4.48-2.02-4.22h1.62Z"/><line class="cls-9" x1=".12" y1="6.88" x2="8.03" y2="6.88"/><polygon class="cls-21" points="12.52 15.07 14.85 15.07 13.68 16.65 12.52 15.07"/></symbol><symbol id="opacity-default" viewBox="0 0 120.99 19.67"><path class="cls-21" d="M67.22,3.1c.96-.16,2.1-.26,3.33-.26,2.25,0,3.85.53,4.92,1.52,1.08.98,1.72,2.39,1.72,4.34s-.62,3.6-1.75,4.72c-1.15,1.13-3.02,1.75-5.37,1.75-1.12,0-2.05-.04-2.85-.14V3.1ZM68.79,13.83c.4.06.98.07,1.58.07,3.36,0,5.17-1.86,5.17-5.14.02-2.87-1.6-4.67-4.91-4.67-.81,0-1.42.08-1.84.16v9.59Z"/><path class="cls-21" d="M80.12,11c.03,2.14,1.39,3.02,2.98,3.02,1.13,0,1.83-.2,2.41-.45l.28,1.12c-.55.25-1.52.56-2.91.56-2.68,0-4.28-1.78-4.28-4.39s1.55-4.7,4.1-4.7c2.84,0,3.58,2.49,3.58,4.1,0,.33-.02.57-.05.74h-6.11ZM84.75,9.86c.02-1-.41-2.56-2.18-2.56-1.62,0-2.3,1.46-2.43,2.56h4.62Z"/><path class="cls-21" d="M88.4,15.07v-7.51h-1.22v-1.2h1.22v-.42c0-1.23.28-2.34,1.01-3.05.59-.57,1.39-.8,2.12-.8.57,0,1.05.12,1.35.26l-.21,1.22c-.24-.11-.55-.2-1.02-.2-1.34,0-1.69,1.19-1.69,2.53v.47h2.1v1.2h-2.1v7.51h-1.58Z"/><path class="cls-21" d="M98.33,15.07l-.14-1.1h-.05c-.48.68-1.42,1.3-2.66,1.3-1.76,0-2.66-1.25-2.66-2.5,0-2.11,1.87-3.27,5.23-3.24v-.19c0-.71-.2-2.02-1.98-2.01-.81,0-1.66.24-2.27.65l-.36-1.05c.72-.47,1.78-.76,2.87-.76,2.66,0,3.31,1.82,3.31,3.56v3.26c0,.74.03,1.49.13,2.08h-1.43ZM98.09,10.62c-1.71-.04-3.68.27-3.68,1.96,0,1.04.68,1.52,1.48,1.52,1.15,0,1.87-.72,2.12-1.46.05-.17.08-.35.08-.5v-1.51Z"/><path class="cls-21" d="M109.46,12.68c0,.91.03,1.69.07,2.38h-1.4l-.08-1.42h-.04c-.4.7-1.32,1.62-2.88,1.62-1.36,0-3-.76-3-3.82v-5.09h1.58v4.81c0,1.66.52,2.79,1.95,2.79,1.06,0,1.8-.74,2.1-1.45.08-.23.14-.51.14-.81v-5.33h1.58v6.32Z"/><path class="cls-21" d="M112.1,2.28h1.58v12.78h-1.58V2.28Z"/><path class="cls-21" d="M118.25,3.85v2.51h2.28v1.2h-2.28v4.69c0,1.08.31,1.7,1.2,1.7.41,0,.71-.05.92-.11l.07,1.2c-.31.12-.8.22-1.41.22-.73,0-1.33-.24-1.71-.67-.44-.48-.61-1.25-.61-2.27v-4.75h-1.35v-1.2h1.35v-2.1l1.55-.41Z"/><line class="cls-5" x1=".76" y1="18.58" x2="63.34" y2="18.58"/><path class="cls-30" d="M11.74,8.88c0,4.16-2.54,6.39-5.63,6.39S.66,12.77.66,9.1,3.04,2.73,6.28,2.73s5.47,2.54,5.47,6.14ZM2.31,9.07c0,2.6,1.41,4.92,3.88,4.92s3.89-2.29,3.89-5.04c0-2.42-1.26-4.94-3.87-4.94s-3.9,2.41-3.9,5.06Z"/><path class="cls-30" d="M13.75,9.19c0-1.11-.03-2.01-.07-2.84h1.42l.09,1.48h.04c.63-1.06,1.68-1.68,3.09-1.68,2.11,0,3.7,1.78,3.7,4.42,0,3.14-1.92,4.69-3.96,4.69-1.16,0-2.17-.51-2.68-1.37h-.04v4.74h-1.57v-9.44ZM15.33,11.52c0,.22.02.44.07.64.28,1.11,1.24,1.86,2.37,1.86,1.68,0,2.65-1.38,2.65-3.37,0-1.74-.91-3.23-2.59-3.23-1.08,0-2.1.76-2.4,1.95-.05.2-.1.44-.1.64v1.51Z"/><path class="cls-30" d="M28.83,15.07l-.14-1.1h-.05c-.48.68-1.42,1.3-2.66,1.3-1.76,0-2.66-1.25-2.66-2.5,0-2.11,1.87-3.27,5.23-3.24v-.19c0-.71-.2-2.02-1.98-2.01-.81,0-1.66.24-2.27.65l-.36-1.05c.72-.47,1.78-.76,2.87-.76,2.66,0,3.31,1.82,3.31,3.56v3.26c0,.74.03,1.49.13,2.08h-1.43ZM28.58,10.62c-1.71-.04-3.68.27-3.68,1.96,0,1.04.68,1.52,1.48,1.52,1.15,0,1.87-.72,2.12-1.46.06-.17.08-.35.08-.5v-1.51Z"/><path class="cls-30" d="M38.88,14.75c-.42.2-1.33.5-2.5.5-2.63,0-4.35-1.79-4.35-4.45s1.83-4.64,4.68-4.64c.93,0,1.77.24,2.2.46l-.35,1.22c-.39-.21-.98-.42-1.85-.42-1.99,0-3.08,1.49-3.07,3.3,0,2.02,1.3,3.26,3.03,3.26.89,0,1.49-.22,1.94-.42l.27,1.19Z"/><path class="cls-30" d="M42.51,3.9c0,.54-.38.98-1.01.98-.57,0-.96-.45-.96-.98,0-.54.41-.99.99-.99s.97.43.98.99ZM40.74,15.07V6.36h1.58v8.71h-1.58Z"/><path class="cls-30" d="M46.85,3.85v2.51h2.28v1.2h-2.28v4.69c0,1.08.31,1.7,1.2,1.7.41,0,.71-.05.92-.11l.07,1.2c-.31.12-.8.22-1.42.22-.73,0-1.33-.24-1.71-.67-.44-.48-.61-1.25-.61-2.27v-4.75h-1.35v-1.2h1.35v-2.1l1.55-.41Z"/><path class="cls-30" d="M51.64,6.36l1.9,5.15c.21.58.42,1.26.56,1.78h.04c.16-.51.35-1.18.56-1.81l1.72-5.11h1.68l-2.38,6.2c-1.13,2.99-1.9,4.52-2.98,5.46-.78.68-1.55.95-1.94,1.02l-.39-1.32c.4-.13.91-.37,1.39-.77.43-.35.96-.96,1.32-1.76.08-.17.12-.28.12-.38,0-.09-.03-.21-.11-.41l-3.21-8.03h1.72Z"/><path class="cls-30" d="M59.61,7.78c0-.66.44-1.14,1.07-1.14s1.06.47,1.06,1.14c0,.63-.42,1.12-1.07,1.12s-1.07-.49-1.06-1.12ZM59.61,14.14c0-.66.44-1.14,1.07-1.14s1.06.47,1.06,1.14c0,.63-.42,1.12-1.07,1.12s-1.07-.49-1.06-1.12Z"/></symbol><symbol id="panel-top-bar" viewBox="0 0 49.94 18.02"><path class="cls-18" d="M5.83.5h38.27c2.94,0,5.33,2.39,5.33,5.33v11.68H.5V5.83C.5,2.89,2.89.5,5.83.5Z"/><polyline class="cls-4" points="36.41 6.38 39.13 9.1 36.59 11.64"/><polyline class="cls-4" points="40.74 6.38 43.46 9.1 40.92 11.64"/><line class="cls-4" x1="5.54" y1="5.35" x2="12.54" y2="12.35"/><line class="cls-4" x1="12.54" y1="5.35" x2="5.54" y2="12.35"/></symbol><symbol id="stop-icon" viewBox="0 0 19 19"><circle class="cls-10" cx="9.5" cy="9.5" r="8.5"/><line class="cls-10" x1="3.6" y1="3.6" x2="15.4" y2="15.4"/></symbol><symbol id="styles" viewBox="0 0 23.75 24.62"><rect class="cls-13" x="3.38" y=".38" width="20" height="20"/><rect class="cls-19" x="3.38" y="17.38" width="6" height="6"/><rect class="cls-16" x=".38" y="14.38" width="6" height="6"/></symbol><symbol id="trash-icon" viewBox="0 0 15.49 17.31"><path class="cls-4" d="M1.57,2.88h12.34v12.43c0,.83-.67,1.51-1.51,1.51H3.08c-.83,0-1.51-.67-1.51-1.51V2.88h0Z"/><line class="cls-4" y1="2.88" x2="15.49" y2="2.88"/><line class="cls-4" x1="4.59" y1="4.89" x2="4.59" y2="14.79"/><line class="cls-4" x1="7.74" y1="4.89" x2="7.74" y2="14.79"/><line class="cls-4" x1="10.89" y1="4.89" x2="10.89" y2="14.79"/><path class="cls-4" d="M5.95.5h3.58c.75,0,1.36.61,1.36,1.36v1.02h-6.3v-1.02c0-.75.61-1.36,1.36-1.36Z"/></symbol></defs><g class="cls-29"><rect class="cls-18" x="316.88" y="22.84" width="328.06" height="37.41"/><polygon class="cls-23" points="426.1 60.25 426.1 22.84 316.88 22.84 316.88 60.25 316.88 318.53 644.94 318.53 644.94 60.25 426.1 60.25"/><polygon class="cls-6" points="426.1 60.25 426.1 22.84 316.88 22.84 316.88 60.25 316.88 318.53 644.94 318.53 644.94 60.25 426.1 60.25"/><line class="cls-17" x1="359.6" y1="104.07" x2="359.6" y2="279.07"/><path class="cls-22" d="M328.31,44.08l-1.04,3.43h-2.29l3.89-12.14h2.82l3.94,12.14h-2.38l-1.1-3.43h-3.86ZM331.8,42.41l-.96-2.99c-.23-.75-.43-1.58-.62-2.28h-.04c-.18.71-.36,1.55-.58,2.27l-.94,3h3.13Z"/><path class="cls-22" d="M337.15,41.65c0-1.14-.03-2.08-.07-2.91h1.95l.11,1.35h.04c.64-.99,1.67-1.54,3.01-1.54,2.01,0,3.68,1.72,3.68,4.46,0,3.18-1.99,4.7-3.99,4.7-1.1,0-2.02-.46-2.46-1.17h-.04v4.54h-2.22v-9.43ZM339.37,43.84c0,.21.02.42.06.6.22.9,1,1.55,1.95,1.55,1.41,0,2.23-1.17,2.23-2.89,0-1.55-.75-2.81-2.18-2.81-.91,0-1.75.67-1.98,1.64-.05.18-.08.37-.08.56v1.35Z"/><path class="cls-22" d="M347.68,41.65c0-1.14-.03-2.08-.07-2.91h1.95l.11,1.35h.04c.64-.99,1.67-1.54,3-1.54,2.01,0,3.68,1.72,3.68,4.46,0,3.18-1.99,4.7-3.99,4.7-1.1,0-2.02-.46-2.46-1.17h-.04v4.54h-2.22v-9.43ZM349.9,43.84c0,.21.02.42.06.6.23.9,1.01,1.55,1.95,1.55,1.41,0,2.23-1.17,2.23-2.89,0-1.55-.75-2.81-2.18-2.81-.91,0-1.75.67-1.98,1.64-.05.18-.08.37-.08.56v1.35Z"/><path class="cls-22" d="M359.81,43.74c.06,1.59,1.29,2.28,2.71,2.28,1.02,0,1.75-.16,2.42-.41l.33,1.53c-.75.32-1.79.56-3.06.56-2.85,0-4.51-1.76-4.51-4.44,0-2.42,1.47-4.71,4.29-4.71s3.78,2.34,3.78,4.26c0,.41-.04.74-.08.93h-5.86ZM363.67,42.2c0-.81-.34-2.14-1.83-2.14-1.36,0-1.93,1.24-2.03,2.14h3.86Z"/><path class="cls-22" d="M372.47,47.51l-.15-.98h-.05c-.53.69-1.45,1.17-2.58,1.17-1.78,0-2.76-1.27-2.76-2.61,0-2.21,1.97-3.33,5.2-3.32v-.15c0-.58-.23-1.53-1.78-1.53-.86,0-1.76.28-2.36.65l-.44-1.44c.66-.4,1.8-.78,3.18-.78,2.81,0,3.61,1.77,3.61,3.7v3.16c0,.8.04,1.57.14,2.11h-2ZM372.18,43.22c-1.56-.02-3.06.31-3.06,1.64,0,.86.56,1.26,1.26,1.26.88,0,1.52-.57,1.73-1.21.05-.15.06-.33.06-.48v-1.21Z"/><path class="cls-22" d="M376.68,41.57c0-1.17-.02-2.04-.07-2.82h1.92l.08,1.67h.06c.43-1.23,1.45-1.86,2.4-1.86.22,0,.34,0,.52.05v2.09c-.19-.04-.38-.06-.65-.06-1.06,0-1.79.67-1.99,1.68-.04.2-.06.43-.06.67v4.55h-2.22v-5.95Z"/><path class="cls-22" d="M387.86,47.51l-.15-.98h-.05c-.53.69-1.45,1.17-2.58,1.17-1.78,0-2.76-1.27-2.76-2.61,0-2.21,1.97-3.33,5.2-3.32v-.15c0-.58-.23-1.53-1.78-1.53-.86,0-1.76.28-2.36.65l-.44-1.44c.66-.4,1.8-.78,3.18-.78,2.81,0,3.61,1.77,3.61,3.7v3.16c0,.8.04,1.57.14,2.11h-2ZM387.57,43.22c-1.56-.02-3.06.31-3.06,1.64,0,.86.56,1.26,1.26,1.26.88,0,1.52-.57,1.73-1.21.05-.15.06-.33.06-.48v-1.21Z"/><path class="cls-22" d="M392.07,41.35c0-1.01-.03-1.85-.07-2.61h1.94l.11,1.32h.05c.39-.68,1.34-1.51,2.79-1.51,1.53,0,3.12.98,3.12,3.76v5.21h-2.22v-4.95c0-1.26-.46-2.22-1.67-2.22-.88,0-1.49.62-1.72,1.3-.07.18-.1.45-.1.7v5.16h-2.22v-6.16Z"/><path class="cls-22" d="M408.8,47.25c-.46.22-1.37.45-2.47.45-2.75,0-4.52-1.76-4.52-4.48s1.79-4.66,4.88-4.66c.82,0,1.63.18,2.14.4l-.39,1.67c-.36-.17-.89-.34-1.68-.34-1.69,0-2.69,1.24-2.69,2.84,0,1.8,1.18,2.83,2.69,2.83.76,0,1.31-.16,1.74-.35l.3,1.65Z"/><path class="cls-22" d="M411.85,43.74c.06,1.59,1.29,2.28,2.71,2.28,1.02,0,1.75-.16,2.42-.41l.33,1.53c-.75.32-1.79.56-3.06.56-2.85,0-4.51-1.76-4.51-4.44,0-2.42,1.47-4.71,4.29-4.71s3.78,2.34,3.78,4.26c0,.41-.04.74-.08.93h-5.86ZM415.7,42.2c0-.81-.34-2.14-1.83-2.14-1.37,0-1.93,1.24-2.03,2.14h3.86Z"/><path class="cls-27" d="M449.08,46.96c-.78.28-2.29.68-3.91.68-2.05,0-3.61-.51-4.76-1.62-1.08-1.03-1.71-2.63-1.7-4.46,0-3.85,2.75-6.3,6.76-6.3,1.49,0,2.66.3,3.22.57l-.49,1.78c-.66-.29-1.47-.52-2.76-.52-2.58,0-4.41,1.53-4.41,4.35s1.7,4.39,4.21,4.39c.8,0,1.39-.1,1.68-.24v-3.03h-2.14v-1.74h4.29v6.14Z"/><path class="cls-27" d="M451.31,41.57c0-1.17-.02-2.04-.07-2.82h1.92l.08,1.67h.06c.43-1.23,1.45-1.86,2.4-1.86.22,0,.34,0,.52.05v2.09c-.19-.04-.38-.06-.65-.06-1.06,0-1.79.67-1.99,1.68-.04.2-.06.43-.06.67v4.55h-2.22v-5.95Z"/><path class="cls-27" d="M462.48,47.51l-.15-.98h-.05c-.53.69-1.45,1.17-2.58,1.17-1.78,0-2.76-1.27-2.76-2.61,0-2.21,1.97-3.33,5.2-3.32v-.15c0-.58-.23-1.53-1.78-1.53-.86,0-1.76.28-2.36.65l-.44-1.44c.66-.4,1.8-.78,3.18-.78,2.81,0,3.61,1.77,3.61,3.7v3.16c0,.8.04,1.57.14,2.11h-2ZM462.19,43.22c-1.56-.02-3.06.31-3.06,1.64,0,.86.56,1.26,1.26,1.26.88,0,1.52-.57,1.73-1.21.05-.15.06-.33.06-.48v-1.21Z"/><path class="cls-27" d="M466.69,41.65c0-1.14-.03-2.08-.07-2.91h1.95l.11,1.35h.04c.64-.99,1.67-1.54,3-1.54,2.01,0,3.68,1.72,3.68,4.46,0,3.18-1.99,4.7-3.99,4.7-1.1,0-2.02-.46-2.46-1.17h-.04v4.54h-2.22v-9.43ZM468.91,43.84c0,.21.02.42.06.6.23.9,1.01,1.55,1.95,1.55,1.41,0,2.23-1.17,2.23-2.89,0-1.55-.75-2.81-2.18-2.81-.91,0-1.75.67-1.98,1.64-.05.18-.08.37-.08.56v1.35Z"/><path class="cls-27" d="M477.23,34.73h2.22v5.21h.04c.28-.41.65-.75,1.1-1,.43-.24.96-.39,1.51-.39,1.49,0,3.06.99,3.06,3.8v5.16h-2.22v-4.92c0-1.27-.46-2.24-1.68-2.24-.87,0-1.47.58-1.72,1.24-.08.19-.1.43-.1.67v5.24h-2.22v-12.78Z"/><path class="cls-27" d="M489.87,36.29c0,.66-.48,1.2-1.26,1.2-.73,0-1.22-.53-1.21-1.2,0-.67.5-1.2,1.24-1.2s1.23.52,1.24,1.2ZM487.52,47.51v-8.77h2.22v8.77h-2.22Z"/><path class="cls-27" d="M498.56,47.25c-.46.22-1.37.45-2.47.45-2.75,0-4.52-1.76-4.52-4.48s1.79-4.66,4.88-4.66c.82,0,1.63.18,2.14.4l-.39,1.67c-.36-.17-.89-.34-1.68-.34-1.69,0-2.69,1.24-2.68,2.84,0,1.8,1.18,2.83,2.69,2.83.76,0,1.31-.16,1.74-.35l.3,1.65Z"/><path class="cls-27" d="M503.97,45.1c.71.41,1.8.77,2.93.77,1.42,0,2.21-.67,2.21-1.66,0-.92-.61-1.46-2.15-2.01-2-.71-3.29-1.79-3.29-3.53,0-1.99,1.66-3.48,4.29-3.48,1.32,0,2.28.28,2.91.6l-.53,1.79c-.44-.23-1.28-.58-2.42-.58-1.41,0-2,.75-2,1.46,0,.93.7,1.37,2.32,1.99,2.11.81,3.12,1.86,3.12,3.61,0,1.95-1.47,3.65-4.6,3.65-1.28,0-2.62-.37-3.28-.77l.49-1.83Z"/><path class="cls-27" d="M515.74,36.24v2.51h2.11v1.65h-2.11v3.87c0,1.07.29,1.62,1.13,1.62.38,0,.66-.04.86-.1l.04,1.69c-.33.12-.91.23-1.61.23-.82,0-1.49-.28-1.91-.72-.48-.5-.69-1.31-.69-2.46v-4.12h-1.25v-1.65h1.25v-1.99l2.17-.52Z"/><path class="cls-27" d="M521.04,38.75l1.58,4.7c.17.54.36,1.21.49,1.7h.05c.14-.49.3-1.15.46-1.72l1.37-4.68h2.36l-2.2,5.98c-1.2,3.27-2.02,4.73-3.05,5.63-.87.76-1.77,1.05-2.32,1.12l-.5-1.87c.37-.09.83-.29,1.28-.6.42-.28.91-.79,1.22-1.4.09-.15.14-.28.14-.39,0-.1-.02-.23-.12-.43l-3.22-8.05h2.44Z"/><path class="cls-27" d="M528.65,34.73h2.22v12.78h-2.22v-12.78Z"/><path class="cls-27" d="M534.84,43.74c.06,1.59,1.29,2.28,2.71,2.28,1.02,0,1.75-.16,2.42-.41l.33,1.53c-.75.32-1.79.56-3.06.56-2.85,0-4.51-1.76-4.51-4.44,0-2.42,1.47-4.71,4.29-4.71s3.78,2.34,3.78,4.26c0,.41-.04.74-.08.93h-5.86ZM538.69,42.2c0-.81-.34-2.14-1.83-2.14-1.36,0-1.93,1.24-2.03,2.14h3.86Z"/><path class="cls-27" d="M542.46,45.47c.49.3,1.44.64,2.24.64.97,0,1.41-.41,1.41-.98s-.36-.89-1.44-1.28c-1.72-.59-2.43-1.52-2.42-2.56,0-1.54,1.28-2.74,3.33-2.74.97,0,1.81.24,2.32.52l-.44,1.56c-.37-.21-1.08-.5-1.85-.5s-1.23.39-1.23.93.42.82,1.53,1.23c1.59.56,2.33,1.38,2.34,2.67,0,1.6-1.25,2.75-3.56,2.75-1.06,0-2.03-.25-2.67-.61l.45-1.61Z"/><rect class="cls-15" x="316.88" y="17.52" width="328.06" height="5.32"/><path class="cls-21" d="M372.76,82.43c.8-.14,1.9-.25,3.39-.25,1.62,0,2.8.34,3.57.99.72.59,1.19,1.55,1.19,2.69s-.36,2.1-1.03,2.75c-.89.88-2.26,1.31-3.84,1.31-.41,0-.79-.02-1.08-.09v4.58h-2.2v-11.98ZM374.96,88.09c.28.07.63.1,1.09.1,1.66,0,2.67-.83,2.67-2.25,0-1.34-.94-2.06-2.47-2.06-.61,0-1.05.05-1.28.11v4.1Z"/><path class="cls-21" d="M387.3,94.41l-.15-.98h-.05c-.53.69-1.45,1.17-2.58,1.17-1.78,0-2.76-1.27-2.76-2.61,0-2.21,1.97-3.33,5.2-3.32v-.14c0-.58-.23-1.53-1.78-1.53-.86,0-1.76.28-2.36.65l-.44-1.44c.66-.4,1.8-.78,3.18-.78,2.81,0,3.61,1.77,3.61,3.7v3.16c0,.8.04,1.57.14,2.11h-2ZM387.01,90.12c-1.56-.02-3.06.31-3.06,1.64,0,.86.56,1.26,1.26,1.26.88,0,1.52-.57,1.73-1.21.05-.15.06-.33.06-.48v-1.21Z"/><path class="cls-21" d="M393.94,83.14v2.51h2.11v1.65h-2.11v3.87c0,1.07.29,1.62,1.13,1.62.38,0,.66-.04.86-.1l.04,1.69c-.33.12-.91.23-1.61.23-.81,0-1.49-.28-1.9-.72-.48-.5-.69-1.31-.69-2.46v-4.12h-1.25v-1.65h1.25v-1.99l2.17-.53Z"/><path class="cls-21" d="M397.72,81.63h2.22v5.21h.04c.28-.41.65-.75,1.1-1,.43-.25.96-.39,1.51-.39,1.49,0,3.06.99,3.06,3.8v5.16h-2.22v-4.92c0-1.27-.46-2.24-1.68-2.24-.87,0-1.47.58-1.72,1.24-.07.19-.1.43-.1.67v5.24h-2.22v-12.78Z"/><path class="cls-31" d="M402.65,127.5c.7.44,1.72.79,2.8.79,1.6,0,2.55-.84,2.55-2.07,0-1.12-.66-1.79-2.3-2.4-1.98-.7-3.21-1.74-3.21-3.44,0-1.89,1.57-3.29,3.93-3.29,1.23,0,2.15.29,2.68.59l-.44,1.29c-.39-.23-1.2-.58-2.29-.58-1.67,0-2.3.99-2.3,1.81,0,1.13.74,1.68,2.41,2.33,2.06.81,3.09,1.8,3.09,3.58s-1.37,3.5-4.25,3.5c-1.17,0-2.45-.35-3.1-.79l.41-1.31Z"/><path class="cls-31" d="M413.53,118.2v2.51h2.28v1.2h-2.28v4.69c0,1.08.31,1.7,1.2,1.7.41,0,.71-.05.92-.11l.07,1.2c-.31.12-.8.22-1.41.22-.73,0-1.33-.24-1.71-.67-.44-.48-.61-1.25-.61-2.27v-4.75h-1.35v-1.2h1.35v-2.1l1.55-.41Z"/><path class="cls-31" d="M417.58,123.42c0-1.03-.03-1.9-.07-2.71h1.39l.06,1.71h.06c.41-1.17,1.37-1.91,2.42-1.91.17,0,.3.01.44.04v1.49c-.16-.03-.32-.05-.54-.05-1.12,0-1.91.84-2.12,2.03-.04.22-.06.48-.06.74v4.65h-1.58v-6Z"/><path class="cls-31" d="M431.17,124.98c0,3.22-2.24,4.64-4.33,4.64-2.36,0-4.19-1.72-4.19-4.49,0-2.91,1.92-4.62,4.32-4.62s4.19,1.82,4.19,4.47ZM424.27,125.08c0,1.91,1.09,3.35,2.64,3.35s2.65-1.42,2.65-3.39c0-1.47-.74-3.34-2.62-3.34s-2.67,1.73-2.67,3.38Z"/><path class="cls-31" d="M434.74,124.7h.04c.21-.31.51-.69.76-.99l2.57-3h1.9l-3.36,3.58,3.83,5.13h-1.93l-3-4.18-.81.91v3.28h-1.57v-12.78h1.57v8.07Z"/><path class="cls-31" d="M442.52,125.35c.03,2.14,1.39,3.02,2.98,3.02,1.13,0,1.83-.2,2.41-.45l.28,1.12c-.55.25-1.52.56-2.91.56-2.68,0-4.28-1.78-4.28-4.39s1.55-4.7,4.1-4.7c2.84,0,3.58,2.49,3.58,4.1,0,.33-.02.57-.05.74h-6.11ZM447.15,124.21c.02-1-.41-2.56-2.18-2.56-1.62,0-2.3,1.46-2.43,2.56h4.62Z"/><path class="cls-31" d="M450.28,122.13c0-.66.44-1.14,1.07-1.14s1.06.47,1.06,1.14c0,.63-.42,1.12-1.07,1.12s-1.07-.49-1.06-1.12ZM450.28,128.49c0-.66.44-1.14,1.07-1.14s1.06.47,1.06,1.14c0,.63-.42,1.12-1.07,1.12s-1.07-.49-1.06-1.12Z"/><path class="cls-21" d="M402.85,185.02h6.54v1.31h-4.96v4.04h4.58v1.3h-4.58v5.49h-1.58v-12.14Z"/><path class="cls-21" d="M412.87,185.98c0,.54-.38.98-1.01.98-.57,0-.96-.45-.96-.98,0-.54.4-.99.98-.99s.97.43.98.99ZM411.1,197.15v-8.71h1.58v8.71h-1.58Z"/><path class="cls-21" d="M415.32,184.37h1.58v12.78h-1.58v-12.78Z"/><path class="cls-21" d="M419.56,184.37h1.58v12.78h-1.58v-12.78Z"/><path class="cls-21" d="M423.44,189.87c0-.66.44-1.14,1.07-1.14s1.06.47,1.06,1.14c0,.63-.42,1.12-1.07,1.12s-1.07-.49-1.06-1.12ZM423.44,196.23c0-.66.44-1.14,1.07-1.14s1.06.47,1.06,1.14c0,.63-.42,1.12-1.07,1.12s-1.07-.49-1.06-1.12Z"/><rect class="cls-11" x="324.6" y="139.07" width="312.61" height="35"/><rect class="cls-11" x="324.6" y="174.07" width="312.61" height="35"/><rect class="cls-11" x="324.6" y="209.07" width="312.61" height="35"/><rect class="cls-11" x="324.6" y="244.07" width="312.61" height="35"/><use width="20.96" height="12.42" transform="translate(331.62 185.37)" xlink:href="#eye"/><use class="cls-29" width="20.96" height="12.42" transform="translate(331.62 255.69)" xlink:href="#eye"/><use width="20.96" height="12.42" transform="translate(331.62 116.6)" xlink:href="#eye"/><use class="cls-29" width="20.96" height="12.42" transform="translate(331.62 150.37)" xlink:href="#eye"/><use class="cls-29" width="20.96" height="12.42" transform="translate(331.62 220.71)" xlink:href="#eye"/><polyline class="cls-7" points="384.79 187.42 378.89 193.32 373.39 187.81"/><polyline class="cls-7" points="384.79 119.86 378.89 125.76 373.39 120.25"/><rect class="cls-14" x="316.88" y="311.32" width="328.06" height="7.21"/><line class="cls-6" x1="563.28" y1="22.84" x2="563.28" y2="60.25"/><rect class="cls-11" x="324.6" y="69.07" width="312.61" height="35"/><rect class="cls-11" x="324.6" y="104.07" width="312.61" height="35"/><line class="cls-5" x1="402.25" y1="132.93" x2="454.83" y2="132.93"/><use width="120.99" height="19.67" transform="translate(434.72 216.42)" xlink:href="#opacity-default"/><use width="120.99" height="19.67" transform="translate(434.72 148.7)" xlink:href="#opacity-default"/><use width="120.99" height="19.67" transform="translate(401.49 251.07)" xlink:href="#opacity-default"/><use width="27.88" height="3" transform="translate(466.97 311.32)" xlink:href="#drag-indicator"/><use width="49.94" height="111.88" transform="translate(267.44)" xlink:href="#appearance-styles-nav"/><polyline class="cls-11" points="593.2 47.24 587.31 41.35 592.81 35.84"/><polyline class="cls-11" points="587.48 47.24 581.59 41.35 587.09 35.84"/><line class="cls-11" x1="604.37" y1="32.9" x2="604.37" y2="50.19"/><line class="cls-11" x1="615.54" y1="36.48" x2="632.21" y2="36.48"/><line class="cls-11" x1="615.54" y1="41.54" x2="632.21" y2="41.54"/><line class="cls-11" x1="615.54" y1="46.61" x2="632.21" y2="46.61"/><rect class="cls-17" x="329.6" y="74.07" width="25" height="25"/><use width="285.56" height="20.02" transform="translate(334.95 286.9)" xlink:href="#appearance-bottom-bar"/><rect class="cls-20" x="471.63" y="111.07" width="21" height="21"/><path class="cls-26" d="M490.63,113.07v17h-17v-17h17M494.63,109.07h-25v25h25v-25h0Z"/><rect class="cls-2" x="469.63" y="109.07" width="25" height="25"/><rect class="cls-2" x="471.63" y="111.07" width="21" height="21"/><rect class="cls-26" x="471.63" y="181.07" width="21" height="21"/><path class="cls-26" d="M490.63,183.07v17h-17v-17h17M494.63,179.07h-25v25h25v-25h0Z"/><rect class="cls-2" x="469.63" y="179.07" width="25" height="25"/><rect class="cls-2" x="471.63" y="181.07" width="21" height="21"/><line class="cls-12" x1="490.3" y1="183.41" x2="473.97" y2="199.74"/><path class="cls-31" d="M521.27,119.19h-.04l-2.03,1.1-.3-1.2,2.56-1.36h1.34v11.7h-1.53v-10.23Z"/><path class="cls-31" d="M527.57,123.55c0-1.11-.03-2.02-.07-2.84h1.42l.09,1.48h.04c.63-1.06,1.68-1.68,3.09-1.68,2.11,0,3.7,1.78,3.7,4.42,0,3.14-1.92,4.68-3.96,4.68-1.17,0-2.17-.51-2.68-1.37h-.04v4.74h-1.57v-9.44ZM529.14,125.88c0,.22.02.44.07.64.29,1.11,1.25,1.86,2.37,1.86,1.68,0,2.65-1.38,2.65-3.37,0-1.74-.91-3.23-2.59-3.23-1.08,0-2.1.76-2.4,1.96-.05.2-.1.43-.1.64v1.51Z"/><path class="cls-31" d="M539.71,118.21v2.51h2.28v1.2h-2.28v4.69c0,1.08.31,1.7,1.2,1.7.41,0,.71-.05.92-.12l.07,1.2c-.31.12-.8.22-1.41.22-.73,0-1.33-.24-1.71-.67-.44-.48-.61-1.25-.61-2.27v-4.75h-1.35v-1.2h1.35v-2.1l1.55-.41Z"/></g><path class="cls-20" d="M160.46,388.96h-4.73l-.62-4.05v-.05l-6.91.05-.62,4.05h-4.19l1.32-4.05,3.32-12.15.81-4.05h5.97l.81,4.05,3.51,12.15,1.32,4.05ZM154.03,381.16l-2.46-8.64-2.35,8.67,4.81-.03Z"/><path class="cls-20" d="M175.09,384.94l.27,4.02h-3.97l-.08-1.46c-.34.49-.85.89-1.53,1.2-.67.32-1.32.47-1.93.47-1.89,0-3.34-.71-4.36-2.15-1.02-1.43-1.53-3.5-1.53-6.2,0-2.86.47-4.98,1.42-6.34.94-1.37,2.34-2.05,4.2-2.05.74,0,1.43.08,2.08.24s1.2.39,1.65.67v-2.08l-.27-3.92h4.32l-.27,3.92v13.66ZM171.31,376.52c-.59-.23-1.48-.35-2.65-.35-.76,0-1.33.13-1.73.38-.4.25-.68.71-.84,1.36-.16.66-.24,1.63-.24,2.93s.08,2.2.23,2.86c.15.67.41,1.14.77,1.42.36.28.87.42,1.54.42.5,0,1.04-.08,1.61-.23.57-.15,1-.34,1.31-.55v-8.24Z"/><path class="cls-20" d="M191.27,384.94l.27,4.02h-3.97l-.08-1.46c-.34.49-.85.89-1.53,1.2-.67.32-1.32.47-1.93.47-1.89,0-3.34-.71-4.36-2.15-1.02-1.43-1.53-3.5-1.53-6.2,0-2.86.47-4.98,1.42-6.34.94-1.37,2.34-2.05,4.2-2.05.74,0,1.43.08,2.08.24s1.2.39,1.65.67v-2.08l-.27-3.92h4.32l-.27,3.92v13.66ZM187.49,376.52c-.59-.23-1.48-.35-2.65-.35-.76,0-1.33.13-1.73.38-.4.25-.68.71-.84,1.36-.16.66-.24,1.63-.24,2.93s.08,2.2.23,2.86c.15.67.41,1.14.77,1.42.36.28.87.42,1.54.42.5,0,1.04-.08,1.61-.23.57-.15,1-.34,1.31-.55v-8.24Z"/><path class="cls-20" d="M238.98,425.74c-1.12-1.42-1.67-3.53-1.67-6.32s.59-4.81,1.77-6.29c1.18-1.48,2.91-2.21,5.2-2.21s3.92.57,5.01,1.7c1.09,1.13,1.72,2.92,1.9,5.37l-.73,2.83h-9.21c.07.88.24,1.56.51,2.02.27.47.66.79,1.17.97s1.23.27,2.15.27c1.21,0,2.28-.11,3.23-.32s1.59-.49,1.93-.84l.46.24-.84,3.29c-.68.52-1.46.89-2.32,1.09s-1.95.31-3.27.31c-2.41,0-4.18-.71-5.29-2.13ZM247.35,417.99c0-1.13-.24-1.98-.73-2.52-.49-.55-1.23-.82-2.24-.82-1.06,0-1.83.25-2.31.74s-.76,1.36-.85,2.61h6.13Z"/><path class="cls-20" d="M253.07,412.43l1.73-1.08c0-2.03.35-3.51,1.04-4.44.69-.93,1.79-1.39,3.31-1.39.99,0,1.82.09,2.48.28.67.19,1.21.49,1.62.9l-.43,2.7-.46.27c-.23-.22-.5-.37-.8-.46s-.73-.13-1.31-.13c-1.12,0-1.67.62-1.67,1.86v.41h4.27v3.65h-4.27v8.5l.27,4.05h-4.32l.27-4.05v-8.5h-1.73v-2.57Z"/><path class="cls-20" d="M264.71,412.43l1.73-1.08c0-2.03.35-3.51,1.04-4.44.69-.93,1.79-1.39,3.31-1.39.99,0,1.82.09,2.48.28.67.19,1.21.49,1.62.9l-.43,2.7-.46.27c-.23-.22-.5-.37-.8-.46s-.73-.13-1.31-.13c-1.12,0-1.67.62-1.67,1.86v.41h4.27v3.65h-4.27v8.5l.27,4.05h-4.32l.27-4.05v-8.5h-1.73v-2.57Z"/><path class="cls-20" d="M277.67,425.74c-1.12-1.42-1.67-3.53-1.67-6.32s.59-4.81,1.77-6.29c1.18-1.48,2.91-2.21,5.2-2.21s3.92.57,5.01,1.7c1.09,1.13,1.72,2.92,1.9,5.37l-.73,2.83h-9.21c.07.88.24,1.56.51,2.02.27.47.66.79,1.17.97s1.23.27,2.15.27c1.21,0,2.28-.11,3.23-.32s1.59-.49,1.93-.84l.46.24-.84,3.29c-.68.52-1.46.89-2.32,1.09s-1.95.31-3.27.31c-2.41,0-4.18-.71-5.29-2.13ZM286.04,417.99c0-1.13-.24-1.98-.73-2.52-.49-.55-1.23-.82-2.24-.82-1.06,0-1.83.25-2.31.74s-.76,1.36-.85,2.61h6.13Z"/><path class="cls-20" d="M293.57,425.87c-1.08-1.41-1.62-3.5-1.62-6.28s.56-4.82,1.69-6.32,2.79-2.24,5.01-2.24c1.22,0,2.17.09,2.85.28.67.19,1.33.53,1.96,1.01l-.59,3.38-.43.19c-.42-.41-.86-.71-1.35-.88-.49-.17-1.16-.26-2.02-.26-1.17,0-2,.37-2.48,1.12-.49.75-.73,1.98-.73,3.71,0,1.24.1,2.19.3,2.83.2.65.55,1.11,1.07,1.38.51.27,1.26.41,2.25.41.94,0,1.68-.09,2.24-.27.56-.18,1.05-.48,1.49-.89l.46.22-.84,3.32c-.7.56-1.33.93-1.88,1.12-.55.19-1.31.28-2.28.28-2.3,0-4-.71-5.08-2.12Z"/><path class="cls-20" d="M305.29,412.43l1.73-1.08.81-3.38h2.97v3.38h4.27v3.65h-4.27v7.13c0,.63.14,1.12.42,1.46s.69.51,1.23.51c.58,0,1.1-.11,1.58-.32.48-.22.87-.51,1.17-.89l.57.27-.84,3.32c-.74.56-1.35.93-1.82,1.12-.48.19-1.06.28-1.74.28-1.04,0-1.88-.21-2.51-.63s-1.09-1.11-1.39-2.05c-.3-.95-.45-2.24-.45-3.88v-6.32h-1.73v-2.57Z"/><path class="cls-20" d="M252.67,376.9v8.24l.27,4.05h-4.32l.27-4.05v-8.24l-.03-.27h-6.02v8.5l.27,4.05h-4.32l.27-4.05v-8.5h-1.73v-2.57l1.73-1.08c0-2.03.35-3.51,1.04-4.44.69-.93,1.79-1.39,3.31-1.39,1.71,0,2.9.14,3.56.43l-.49,3-.46.27c-.07.04-.14.05-.22.05-.14,0-.32-.03-.54-.08-.4-.07-.74-.11-1.03-.11-.45,0-.8.17-1.04.5-.24.33-.36.79-.36,1.36v.41h10.1l-.27,3.92ZM249.06,370.92c-.48-.39-.72-.89-.72-1.5s.24-1.14.72-1.53c.48-.39,1.06-.58,1.74-.58s1.26.19,1.74.58c.48.39.71.9.71,1.53s-.24,1.11-.71,1.5c-.48.39-1.06.58-1.74.58s-1.26-.19-1.74-.58Z"/><path class="cls-20" d="M256.42,385.13v-13.63l-.27-3.92h4.32l-.27,3.92v13.63l.27,4.05h-4.32l.27-4.05Z"/><path class="cls-20" d="M263.95,385.13v-13.63l-.27-3.92h4.32l-.27,3.92v13.63l.27,4.05h-4.32l.27-4.05Z"/><path class="cls-20" d="M240.34,349.69c-.78-.33-1.57-.9-2.36-1.71l-.51-3.4.38-.11c.68.59,1.47,1.06,2.35,1.4.88.34,1.76.51,2.65.51s1.5-.08,1.85-.26c.35-.17.53-.47.53-.9,0-.4-.22-.73-.66-1-.44-.27-1.21-.57-2.31-.89-1.12-.32-1.99-.68-2.62-1.08-.63-.4-1.09-.9-1.38-1.5-.29-.6-.43-1.36-.43-2.28,0-1.64.49-2.9,1.47-3.78.98-.88,2.37-1.32,4.17-1.32,1.1,0,2.07.14,2.9.42.84.28,1.59.72,2.25,1.31l-.59,3.4-.41.11c-.29-.47-.81-.84-1.55-1.11-.75-.27-1.5-.41-2.25-.41-1.4,0-2.11.4-2.11,1.19,0,.45.19.8.58,1.05s1.14.53,2.25.84c1.58.43,2.74,1.03,3.47,1.8.73.76,1.09,1.79,1.09,3.09,0,1.66-.5,2.93-1.51,3.81s-2.42,1.32-4.24,1.32c-1.22,0-2.23-.17-3.01-.5Z"/><path class="cls-20" d="M251.51,334.79l1.73-1.08.81-3.38h2.97v3.38h4.27v3.65h-4.27v7.13c0,.63.14,1.12.42,1.46s.69.51,1.23.51c.58,0,1.1-.11,1.58-.32.48-.22.87-.51,1.17-.89l.57.27-.84,3.32c-.74.56-1.35.93-1.82,1.12-.48.19-1.06.28-1.74.28-1.04,0-1.88-.21-2.51-.63s-1.09-1.11-1.39-2.05c-.3-.95-.45-2.24-.45-3.88v-6.32h-1.73v-2.57Z"/><path class="cls-20" d="M274.38,333.9l-.62,3.32-.35.24c-.56-.36-1.36-.54-2.4-.54-.58,0-1.08.12-1.53.35-.44.23-.85.61-1.23,1.13v7.45l.27,4.05h-4.32l.27-4.05v-8.24l-.27-3.92h3.51l.46,1.7c.92-1.26,2.14-1.89,3.67-1.89,1.1,0,1.94.13,2.54.38Z"/><path class="cls-20" d="M277.25,348.19c-1.11-1.44-1.66-3.57-1.66-6.4s.55-4.95,1.66-6.37c1.11-1.42,2.88-2.13,5.3-2.13s4.2.71,5.31,2.13c1.11,1.42,1.66,3.55,1.66,6.37s-.55,4.96-1.66,6.4c-1.11,1.44-2.88,2.16-5.31,2.16s-4.2-.72-5.3-2.16ZM284.48,346.2c.43-.28.73-.76.91-1.43.17-.67.26-1.66.26-2.96s-.08-2.28-.26-2.96c-.17-.67-.47-1.15-.91-1.43-.43-.28-1.07-.42-1.92-.42s-1.48.14-1.92.42c-.43.28-.73.76-.9,1.43s-.26,1.66-.26,2.96.08,2.28.26,2.96.47,1.15.9,1.43c.43.28,1.07.42,1.92.42s1.49-.14,1.92-.42Z"/><path class="cls-20" d="M306.56,349.91h-4.94l-1.38-3.92-1.67-3.48-2.21,2.75v.59l.27,4.05h-4.32l.27-4.05v-13.63l-.27-3.92h4.32l-.27,3.92v8.42l2.27-3.02,2.21-3.92h5.21l-3.51,3.92-1.59,1.97,3.27,6.4,2.35,3.92Z"/><path class="cls-20" d="M308.91,348.11c-1.12-1.42-1.67-3.53-1.67-6.32s.59-4.81,1.77-6.29c1.18-1.48,2.91-2.21,5.2-2.21s3.92.57,5.01,1.7c1.09,1.13,1.72,2.92,1.9,5.37l-.73,2.83h-9.21c.07.88.24,1.56.51,2.02.27.47.66.79,1.17.97s1.23.27,2.15.27c1.21,0,2.28-.11,3.23-.32s1.59-.49,1.93-.84l.46.24-.84,3.29c-.68.52-1.46.89-2.32,1.09s-1.95.31-3.27.31c-2.41,0-4.18-.71-5.29-2.13ZM317.28,340.36c0-1.13-.24-1.98-.73-2.52-.49-.55-1.23-.82-2.24-.82-1.06,0-1.83.25-2.31.74s-.76,1.36-.85,2.61h6.13Z"/><path class="cls-20" d="M614.98,371.19c1.27,1.67,1.9,4.18,1.9,7.55s-.64,5.95-1.92,7.65c-1.28,1.7-3.27,2.55-5.97,2.55h-6.97l.27-4.05v-12.29l-.27-3.92h6.97c2.72,0,4.71.83,5.98,2.5ZM611.26,384.58c.56-.42.96-1.1,1.2-2.04.24-.94.37-2.2.37-3.81s-.12-2.96-.37-3.86c-.24-.9-.64-1.53-1.19-1.9-.55-.37-1.31-.55-2.28-.55h-2.81v12.8h2.81c.95,0,1.71-.21,2.27-.63Z"/><path class="cls-20" d="M632,384.92l.27,4.02h-3.97l-.11-1.92c-1.01,1.49-2.47,2.24-4.4,2.24-1.28,0-2.28-.42-3-1.26-.72-.84-1.08-2.02-1.08-3.55v-7.67l-.27-4.05h4.32l-.27,4.05v6.94c0,.63.17,1.13.51,1.51s.78.57,1.32.57c1.06,0,2.03-.66,2.89-1.97v-7.05l-.27-4.05h4.32l-.27,4.05v8.13Z"/><path class="cls-20" d="M647.46,374.47c.95,1.37,1.42,3.48,1.42,6.34,0,2.7-.51,4.77-1.53,6.2-1.02,1.43-2.47,2.15-4.36,2.15-.61,0-1.26-.16-1.94-.49-.69-.32-1.19-.73-1.51-1.22v2.83l.27,4.05h-4.32l.27-4.05v-13.53l-.27-4.02h3.7l.13.76c.43-.34.99-.61,1.69-.8.69-.19,1.45-.28,2.25-.28,1.85,0,3.25.68,4.2,2.05ZM643.99,385.09c.36-.28.62-.75.77-1.42.15-.67.23-1.62.23-2.86s-.08-2.27-.24-2.93c-.16-.66-.44-1.11-.84-1.36s-.97-.38-1.73-.38c-1.17,0-2.05.12-2.64.35v8.24c.3.22.74.4,1.31.55s1.1.23,1.61.23c.67,0,1.18-.14,1.54-.42Z"/><path class="cls-20" d="M651.93,384.89v-13.63l-.27-3.92h4.32l-.27,3.92v13.63l.27,4.05h-4.32l.27-4.05Z"/><path class="cls-20" d="M659.58,370.68c-.48-.39-.72-.89-.72-1.5s.24-1.14.72-1.53c.48-.39,1.06-.58,1.74-.58s1.27.19,1.74.58c.48.39.71.9.71,1.53s-.24,1.11-.71,1.5c-.48.39-1.06.58-1.74.58s-1.26-.19-1.74-.58ZM659.4,384.89v-8.24l-.27-3.92h4.32l-.27,3.92v8.24l.27,4.05h-4.32l.27-4.05Z"/><path class="cls-20" d="M667.85,387.25c-1.08-1.41-1.62-3.5-1.62-6.28s.56-4.82,1.69-6.32,2.79-2.24,5.01-2.24c1.22,0,2.17.09,2.85.28.67.19,1.33.53,1.96,1.01l-.59,3.38-.43.19c-.42-.41-.87-.71-1.35-.88-.48-.17-1.16-.26-2.02-.26-1.17,0-2,.37-2.48,1.12-.49.75-.73,1.98-.73,3.71,0,1.24.1,2.19.3,2.83.2.65.55,1.11,1.07,1.38.51.27,1.26.41,2.25.41.94,0,1.68-.09,2.24-.27.56-.18,1.05-.48,1.49-.89l.46.22-.84,3.32c-.7.56-1.33.93-1.88,1.12-.55.19-1.31.28-2.28.28-2.3,0-4-.71-5.08-2.12Z"/><path class="cls-20" d="M680.26,381.64c.49-.84,1.15-1.5,1.97-1.98.82-.49,1.71-.73,2.66-.73,1.66,0,2.94.24,3.86.73v-1.43c0-.68-.27-1.21-.82-1.59-.55-.38-1.32-.57-2.31-.57-1.06,0-2,.17-2.82.51-.82.34-1.45.86-1.88,1.54l-.3-.05.49-4c.61-.54,1.37-.96,2.28-1.26s1.83-.45,2.77-.45c1.94,0,3.49.46,4.64,1.38s1.73,2.17,1.73,3.75v7.42l.27,4.02h-3.97l-.08-1.49c-.36.58-.92,1.04-1.69,1.39-.77.35-1.61.53-2.52.53-1.53,0-2.75-.44-3.66-1.32-.91-.88-1.37-2.09-1.37-3.62,0-1.03.25-1.96.74-2.79ZM683.88,385.61c.31.33.78.5,1.39.5.67,0,1.3-.13,1.9-.39.6-.26,1.13-.63,1.58-1.12v-1.84c-1.01-.49-2.14-.73-3.4-.73-.67,0-1.16.18-1.47.54-.31.36-.47.9-.47,1.62,0,.61.16,1.08.47,1.42Z"/><path class="cls-20" d="M695.29,373.82l1.73-1.08.81-3.38h2.97v3.38h4.27v3.65h-4.27v7.13c0,.63.14,1.12.42,1.46s.69.51,1.23.51c.58,0,1.1-.11,1.58-.32.48-.22.87-.51,1.17-.89l.57.27-.84,3.32c-.74.56-1.35.93-1.82,1.12-.48.19-1.06.28-1.74.28-1.04,0-1.88-.21-2.51-.63-.63-.42-1.09-1.11-1.39-2.05-.3-.95-.45-2.24-.45-3.88v-6.32h-1.73v-2.57Z"/><path class="cls-20" d="M709.22,387.13c-1.12-1.42-1.67-3.53-1.67-6.32s.59-4.81,1.77-6.29c1.18-1.48,2.91-2.21,5.2-2.21s3.92.57,5.01,1.7c1.09,1.13,1.72,2.92,1.9,5.37l-.73,2.83h-9.21c.07.88.24,1.56.51,2.02.27.47.66.79,1.17.97.51.18,1.23.27,2.15.27,1.21,0,2.28-.11,3.23-.32s1.59-.49,1.93-.84l.46.24-.84,3.29c-.68.52-1.46.89-2.32,1.09-.86.21-1.95.31-3.27.31-2.41,0-4.18-.71-5.29-2.13ZM717.59,379.38c0-1.13-.24-1.98-.73-2.52-.49-.55-1.23-.82-2.24-.82-1.06,0-1.83.25-2.31.74s-.76,1.36-.85,2.61h6.13Z"/><path class="cls-20" d="M650.18,333.02c1.27,1.67,1.9,4.18,1.9,7.55s-.64,5.95-1.92,7.65c-1.28,1.7-3.27,2.55-5.97,2.55h-6.97l.27-4.05v-12.29l-.27-3.92h6.97c2.72,0,4.71.83,5.98,2.5ZM646.46,346.41c.56-.42.96-1.1,1.2-2.04.24-.94.37-2.2.37-3.81s-.12-2.96-.37-3.86c-.24-.9-.64-1.53-1.19-1.9-.55-.37-1.31-.55-2.28-.55h-2.81v12.8h2.81c.95,0,1.71-.21,2.27-.63Z"/><path class="cls-20" d="M656.08,348.96c-1.12-1.42-1.67-3.53-1.67-6.32s.59-4.81,1.77-6.29c1.18-1.48,2.91-2.21,5.2-2.21s3.92.57,5.01,1.7c1.09,1.13,1.72,2.92,1.9,5.37l-.73,2.83h-9.21c.07.88.24,1.56.51,2.02.27.47.66.79,1.18.97.51.18,1.23.27,2.15.27,1.21,0,2.28-.11,3.23-.32s1.59-.49,1.93-.84l.46.24-.84,3.29c-.69.52-1.46.89-2.32,1.09-.87.21-1.95.31-3.27.31-2.41,0-4.18-.71-5.29-2.13ZM664.45,341.21c0-1.13-.24-1.98-.73-2.52-.49-.55-1.23-.82-2.24-.82-1.06,0-1.83.25-2.31.74s-.76,1.36-.85,2.61h6.13Z"/><path class="cls-20" d="M671.06,346.72v-13.63l-.27-3.92h4.32l-.27,3.92v13.63l.27,4.05h-4.32l.27-4.05Z"/><path class="cls-20" d="M679.57,348.96c-1.12-1.42-1.67-3.53-1.67-6.32s.59-4.81,1.77-6.29c1.18-1.48,2.91-2.21,5.2-2.21s3.92.57,5.01,1.7c1.09,1.13,1.72,2.92,1.9,5.37l-.73,2.83h-9.21c.07.88.24,1.56.51,2.02.27.47.66.79,1.17.97.51.18,1.23.27,2.15.27,1.21,0,2.28-.11,3.23-.32s1.59-.49,1.93-.84l.46.24-.84,3.29c-.68.52-1.46.89-2.32,1.09-.86.21-1.95.31-3.27.31-2.41,0-4.18-.71-5.29-2.13ZM687.94,341.21c0-1.13-.24-1.98-.73-2.52-.49-.55-1.23-.82-2.24-.82-1.06,0-1.83.25-2.31.74s-.76,1.36-.85,2.61h6.13Z"/><path class="cls-20" d="M693.74,335.65l1.73-1.08.81-3.38h2.97v3.38h4.27v3.65h-4.27v7.13c0,.63.14,1.12.42,1.46s.69.51,1.23.51c.58,0,1.1-.11,1.58-.32s.87-.51,1.17-.89l.57.27-.84,3.32c-.74.56-1.35.93-1.82,1.12-.48.19-1.06.28-1.74.28-1.04,0-1.88-.21-2.51-.63-.63-.42-1.09-1.11-1.39-2.05-.3-.95-.45-2.24-.45-3.88v-6.32h-1.73v-2.57Z"/><path class="cls-20" d="M707.67,348.96c-1.12-1.42-1.67-3.53-1.67-6.32s.59-4.81,1.77-6.29c1.18-1.48,2.91-2.21,5.2-2.21s3.92.57,5.01,1.7c1.09,1.13,1.72,2.92,1.9,5.37l-.73,2.83h-9.21c.07.88.24,1.56.51,2.02.27.47.66.79,1.18.97.51.18,1.23.27,2.15.27,1.21,0,2.28-.11,3.23-.32s1.59-.49,1.93-.84l.46.24-.84,3.29c-.69.52-1.46.89-2.32,1.09-.87.21-1.95.31-3.27.31-2.41,0-4.18-.71-5.29-2.13ZM716.04,341.21c0-1.13-.24-1.98-.73-2.52-.49-.55-1.23-.82-2.24-.82-1.06,0-1.83.25-2.31.74s-.76,1.36-.85,2.61h6.13Z"/><path class="cls-20" d="M678.03,37.53c.48.44.72.99.72,1.63,0,.7-.26,1.28-.78,1.73s-1.19.67-2,.67c-.86,0-1.55-.25-2.05-.74s-.76-1.15-.76-1.96c0-1.01.31-1.98.95-2.92.63-.94,1.42-1.57,2.38-1.92l.92,1-.05.14c-.74.41-1.12.96-1.13,1.65.74.04,1.35.27,1.82.72ZM684.37,37.51c.48.44.71.99.71,1.63,0,.7-.26,1.28-.78,1.73-.52.45-1.19.68-2,.68-.86,0-1.55-.25-2.05-.74s-.76-1.15-.76-1.96c0-1.01.32-1.98.95-2.92s1.42-1.58,2.38-1.92l.92,1-.05.13c-.74.41-1.12.96-1.13,1.65.74.04,1.35.28,1.82.72Z"/><path class="cls-20" d="M700.45,40.81l-.3.08-2.43-.32h-2.48v12.61l.27,4.05h-4.43l.27-4.05v-12.61h-2.48l-2.43.32-.3-.08.59-3.83h13.12l.59,3.83Z"/><path class="cls-20" d="M711.23,53.18v-6.94c0-.59-.17-1.07-.5-1.42-.33-.35-.78-.53-1.34-.53-1.13,0-2.1.61-2.89,1.84v7.05l.27,4.05h-4.32l.27-4.05v-13.63l-.27-3.92h4.32l-.27,3.92v3.46c.95-1.44,2.43-2.16,4.43-2.16,1.26,0,2.25.4,2.98,1.19.73.79,1.09,1.95,1.09,3.48v7.67l.27,4.05h-4.32l.27-4.05Z"/><path class="cls-20" d="M719.54,55.42c-1.12-1.42-1.67-3.53-1.67-6.32s.59-4.81,1.77-6.29c1.18-1.48,2.91-2.21,5.2-2.21s3.92.57,5.01,1.7c1.09,1.13,1.72,2.92,1.9,5.37l-.73,2.83h-9.21c.07.88.24,1.56.51,2.02.27.47.66.79,1.17.97s1.23.27,2.15.27c1.21,0,2.28-.11,3.23-.32s1.59-.49,1.93-.84l.46.24-.84,3.29c-.68.52-1.46.89-2.32,1.09s-1.95.31-3.27.31c-2.41,0-4.18-.71-5.29-2.13ZM727.91,47.67c0-1.13-.24-1.98-.73-2.52-.49-.55-1.23-.82-2.24-.82-1.06,0-1.83.25-2.31.74s-.76,1.36-.85,2.61h6.13Z"/><path class="cls-20" d="M741.09,55.54c-1.08-1.41-1.62-3.5-1.62-6.28s.56-4.82,1.69-6.32,2.79-2.24,5.01-2.24c1.22,0,2.17.09,2.85.28.67.19,1.33.53,1.96,1.01l-.59,3.38-.43.19c-.42-.41-.86-.71-1.35-.88-.49-.17-1.16-.26-2.02-.26-1.17,0-2,.37-2.48,1.12-.49.75-.73,1.98-.73,3.71,0,1.24.1,2.19.3,2.83.2.65.55,1.11,1.07,1.38.51.27,1.26.41,2.25.41.94,0,1.68-.09,2.24-.27.56-.18,1.05-.48,1.49-.89l.46.22-.84,3.32c-.7.56-1.33.93-1.88,1.12-.55.19-1.31.28-2.28.28-2.3,0-4-.71-5.08-2.12Z"/><path class="cls-20" d="M765.71,53.21l.27,4.02h-3.97l-.11-1.92c-1.01,1.49-2.47,2.24-4.4,2.24-1.28,0-2.28-.42-3-1.26-.72-.84-1.08-2.02-1.08-3.55v-7.67l-.27-4.05h4.32l-.27,4.05v6.94c0,.63.17,1.13.51,1.51.34.38.78.57,1.32.57,1.06,0,2.03-.66,2.89-1.97v-7.05l-.27-4.05h4.32l-.27,4.05v8.13Z"/><path class="cls-20" d="M779.37,41.22l-.62,3.32-.35.24c-.56-.36-1.36-.54-2.4-.54-.58,0-1.08.12-1.53.35-.44.23-.85.61-1.23,1.13v7.45l.27,4.05h-4.32l.27-4.05v-8.24l-.27-3.92h3.51l.46,1.7c.92-1.26,2.14-1.89,3.67-1.89,1.1,0,1.94.13,2.54.38Z"/><path class="cls-20" d="M791.33,41.22l-.62,3.32-.35.24c-.56-.36-1.36-.54-2.4-.54-.58,0-1.08.12-1.53.35-.44.23-.85.61-1.23,1.13v7.45l.27,4.05h-4.32l.27-4.05v-8.24l-.27-3.92h3.51l.46,1.7c.92-1.26,2.14-1.89,3.67-1.89,1.1,0,1.94.13,2.54.38Z"/><path class="cls-20" d="M794.22,55.42c-1.12-1.42-1.67-3.53-1.67-6.32s.59-4.81,1.77-6.29c1.18-1.48,2.91-2.21,5.2-2.21s3.92.57,5.01,1.7c1.09,1.13,1.72,2.92,1.9,5.37l-.73,2.83h-9.21c.07.88.24,1.56.51,2.02.27.47.66.79,1.17.97s1.23.27,2.15.27c1.21,0,2.28-.11,3.23-.32s1.59-.49,1.93-.84l.46.24-.84,3.29c-.68.52-1.46.89-2.32,1.09s-1.95.31-3.27.31c-2.41,0-4.18-.71-5.29-2.13ZM802.59,47.67c0-1.13-.24-1.98-.73-2.52-.49-.55-1.23-.82-2.24-.82-1.06,0-1.83.25-2.31.74s-.76,1.36-.85,2.61h6.13Z"/><path class="cls-20" d="M817.71,53.18v-6.94c0-.59-.17-1.07-.5-1.42-.33-.35-.78-.53-1.34-.53-1.13,0-2.1.61-2.89,1.84v7.05l.27,4.05h-4.32l.27-4.05v-8.24l-.27-3.92h3.51l.54,1.97c.95-1.44,2.43-2.16,4.43-2.16,1.26,0,2.25.4,2.98,1.19.73.79,1.09,1.95,1.09,3.48v7.67l.27,4.05h-4.32l.27-4.05Z"/><path class="cls-20" d="M824.25,42.11l1.73-1.08.81-3.38h2.97v3.38h4.27v3.65h-4.27v7.13c0,.63.14,1.12.42,1.46s.69.51,1.23.51c.58,0,1.1-.11,1.58-.32.48-.22.87-.51,1.17-.89l.57.27-.84,3.32c-.74.56-1.35.93-1.82,1.12-.48.19-1.06.28-1.74.28-1.04,0-1.88-.21-2.51-.63s-1.09-1.11-1.39-2.05c-.3-.95-.45-2.24-.45-3.88v-6.32h-1.73v-2.57Z"/><path class="cls-20" d="M845.19,57c-.78-.33-1.57-.9-2.36-1.71l-.51-3.4.38-.11c.68.59,1.47,1.06,2.35,1.4.88.34,1.76.51,2.65.51s1.5-.08,1.85-.26c.35-.17.53-.47.53-.9,0-.4-.22-.73-.66-1-.44-.27-1.21-.57-2.31-.89-1.12-.32-1.99-.68-2.62-1.08-.63-.4-1.09-.9-1.38-1.5-.29-.6-.43-1.36-.43-2.28,0-1.64.49-2.9,1.47-3.78.98-.88,2.37-1.32,4.17-1.32,1.1,0,2.07.14,2.9.42.84.28,1.59.72,2.25,1.31l-.59,3.4-.41.11c-.29-.47-.81-.84-1.55-1.11-.75-.27-1.5-.41-2.25-.41-1.4,0-2.11.4-2.11,1.19,0,.45.19.8.58,1.05s1.14.53,2.25.84c1.58.43,2.74,1.03,3.47,1.8.73.76,1.09,1.79,1.09,3.09,0,1.66-.5,2.93-1.51,3.81s-2.42,1.32-4.24,1.32c-1.22,0-2.23-.17-3.01-.5Z"/><path class="cls-20" d="M858.13,55.42c-1.12-1.42-1.67-3.53-1.67-6.32s.59-4.81,1.77-6.29c1.18-1.48,2.91-2.21,5.2-2.21s3.92.57,5.01,1.7c1.09,1.13,1.72,2.92,1.9,5.37l-.73,2.83h-9.21c.07.88.24,1.56.51,2.02.27.47.66.79,1.17.97s1.23.27,2.15.27c1.21,0,2.28-.11,3.23-.32s1.59-.49,1.93-.84l.46.24-.84,3.29c-.68.52-1.46.89-2.32,1.09s-1.95.31-3.27.31c-2.41,0-4.18-.71-5.29-2.13ZM866.5,47.67c0-1.13-.24-1.98-.73-2.52-.49-.55-1.23-.82-2.24-.82-1.06,0-1.83.25-2.31.74s-.76,1.36-.85,2.61h6.13Z"/><path class="cls-20" d="M873.11,53.18v-13.63l-.27-3.92h4.32l-.27,3.92v13.63l.27,4.05h-4.32l.27-4.05Z"/><path class="cls-20" d="M881.62,55.42c-1.12-1.42-1.67-3.53-1.67-6.32s.59-4.81,1.77-6.29c1.18-1.48,2.91-2.21,5.2-2.21s3.92.57,5.01,1.7c1.09,1.13,1.72,2.92,1.9,5.37l-.73,2.83h-9.21c.07.88.24,1.56.51,2.02.27.47.66.79,1.17.97s1.23.27,2.15.27c1.21,0,2.28-.11,3.23-.32s1.59-.49,1.93-.84l.46.24-.84,3.29c-.68.52-1.46.89-2.32,1.09s-1.95.31-3.27.31c-2.41,0-4.18-.71-5.29-2.13ZM889.99,47.67c0-1.13-.24-1.98-.73-2.52-.49-.55-1.23-.82-2.24-.82-1.06,0-1.83.25-2.31.74s-.76,1.36-.85,2.61h6.13Z"/><path class="cls-20" d="M897.52,55.54c-1.08-1.41-1.62-3.5-1.62-6.28s.56-4.82,1.69-6.32,2.79-2.24,5.01-2.24c1.22,0,2.17.09,2.85.28.67.19,1.33.53,1.96,1.01l-.59,3.38-.43.19c-.42-.41-.86-.71-1.35-.88-.49-.17-1.16-.26-2.02-.26-1.17,0-2,.37-2.48,1.12-.49.75-.73,1.98-.73,3.71,0,1.24.1,2.19.3,2.83.2.65.55,1.11,1.07,1.38.51.27,1.26.41,2.25.41.94,0,1.68-.09,2.24-.27.56-.18,1.05-.48,1.49-.89l.46.22-.84,3.32c-.7.56-1.33.93-1.88,1.12-.55.19-1.31.28-2.28.28-2.3,0-4-.71-5.08-2.12Z"/><path class="cls-20" d="M909.24,42.11l1.73-1.08.81-3.38h2.97v3.38h4.27v3.65h-4.27v7.13c0,.63.14,1.12.42,1.46s.69.51,1.23.51c.58,0,1.1-.11,1.58-.32.48-.22.87-.51,1.17-.89l.57.27-.84,3.32c-.74.56-1.35.93-1.82,1.12-.48.19-1.06.28-1.74.28-1.04,0-1.88-.21-2.51-.63s-1.09-1.11-1.39-2.05c-.3-.95-.45-2.24-.45-3.88v-6.32h-1.73v-2.57Z"/><path class="cls-20" d="M922.32,38.96c-.48-.39-.72-.89-.72-1.5s.24-1.14.72-1.53c.48-.39,1.06-.58,1.74-.58s1.26.19,1.74.58c.48.39.72.9.72,1.53s-.24,1.11-.72,1.5c-.48.39-1.06.58-1.74.58s-1.26-.19-1.74-.58ZM922.15,53.18v-8.24l-.27-3.92h4.32l-.27,3.92v8.24l.27,4.05h-4.32l.27-4.05Z"/><path class="cls-20" d="M930.64,55.5c-1.11-1.44-1.66-3.57-1.66-6.4s.55-4.95,1.66-6.37c1.11-1.42,2.88-2.13,5.3-2.13s4.2.71,5.31,2.13c1.11,1.42,1.66,3.55,1.66,6.37s-.55,4.96-1.66,6.4c-1.11,1.44-2.88,2.16-5.31,2.16s-4.2-.72-5.3-2.16ZM937.86,53.52c.43-.28.73-.76.91-1.43.17-.67.26-1.66.26-2.96s-.08-2.28-.26-2.96c-.17-.67-.47-1.15-.91-1.43-.43-.28-1.07-.42-1.92-.42s-1.48.14-1.92.42c-.43.28-.73.76-.9,1.43s-.26,1.66-.26,2.96.08,2.28.26,2.96.47,1.15.9,1.43c.43.28,1.07.42,1.92.42s1.49-.14,1.92-.42Z"/><path class="cls-20" d="M954.47,53.18v-6.94c0-.59-.17-1.07-.5-1.42-.33-.35-.78-.53-1.34-.53-1.13,0-2.1.61-2.89,1.84v7.05l.27,4.05h-4.32l.27-4.05v-8.24l-.27-3.92h3.51l.54,1.97c.95-1.44,2.43-2.16,4.43-2.16,1.26,0,2.25.4,2.98,1.19.73.79,1.09,1.95,1.09,3.48v7.67l.27,4.05h-4.32l.27-4.05Z"/><path class="cls-20" d="M674.49,71.36c-.48-.39-.72-.89-.72-1.5s.24-1.14.72-1.53c.48-.39,1.06-.58,1.74-.58s1.26.19,1.74.58c.48.39.72.9.72,1.53s-.24,1.11-.72,1.5c-.48.39-1.06.58-1.74.58s-1.26-.19-1.74-.58ZM674.32,85.58v-8.24l-.27-3.92h4.32l-.27,3.92v8.24l.27,4.05h-4.32l.27-4.05Z"/><path class="cls-20" d="M684.19,89.4c-.78-.33-1.57-.9-2.36-1.71l-.51-3.4.38-.11c.68.59,1.47,1.06,2.35,1.4.88.34,1.76.51,2.65.51s1.5-.08,1.85-.26c.35-.17.53-.47.53-.9,0-.4-.22-.73-.66-1-.44-.27-1.21-.57-2.31-.89-1.12-.32-1.99-.68-2.62-1.08-.63-.4-1.09-.9-1.38-1.5-.29-.6-.43-1.36-.43-2.28,0-1.64.49-2.9,1.47-3.78.98-.88,2.37-1.32,4.17-1.32,1.1,0,2.07.14,2.9.42.84.28,1.59.72,2.25,1.31l-.59,3.4-.41.11c-.29-.47-.81-.84-1.55-1.11-.75-.27-1.5-.41-2.25-.41-1.4,0-2.11.4-2.11,1.19,0,.45.19.8.58,1.05s1.14.53,2.25.84c1.58.43,2.74,1.03,3.47,1.8.73.76,1.09,1.79,1.09,3.09,0,1.66-.5,2.93-1.51,3.81s-2.42,1.32-4.24,1.32c-1.22,0-2.23-.17-3.01-.5Z"/><path class="cls-20" d="M701.68,82.33c.49-.84,1.15-1.5,1.97-1.98s1.71-.73,2.66-.73c1.66,0,2.94.24,3.86.73v-1.43c0-.68-.27-1.21-.82-1.59-.55-.38-1.32-.57-2.31-.57-1.06,0-2,.17-2.82.51-.82.34-1.45.86-1.88,1.54l-.3-.05.49-4c.61-.54,1.37-.96,2.28-1.26.91-.3,1.83-.45,2.77-.45,1.94,0,3.49.46,4.64,1.38s1.73,2.17,1.73,3.75v7.42l.27,4.02h-3.97l-.08-1.49c-.36.58-.92,1.04-1.69,1.39-.77.35-1.61.53-2.52.53-1.53,0-2.75-.44-3.66-1.32-.91-.88-1.36-2.09-1.36-3.62,0-1.03.25-1.96.74-2.79ZM705.3,86.29c.31.33.78.5,1.39.5.67,0,1.3-.13,1.9-.39.6-.26,1.13-.63,1.58-1.12v-1.84c-1.01-.49-2.14-.73-3.4-.73-.67,0-1.16.18-1.47.54-.32.36-.47.9-.47,1.62,0,.61.16,1.08.47,1.42Z"/><path class="cls-20" d="M734.86,75.16c.94,1.37,1.42,3.48,1.42,6.34,0,2.7-.51,4.77-1.53,6.2-1.02,1.43-2.47,2.15-4.36,2.15-.61,0-1.26-.16-1.94-.49-.68-.32-1.19-.73-1.51-1.22v2.83l.27,4.05h-4.32l.27-4.05v-13.53l-.27-4.02h3.7l.14.76c.43-.34.99-.61,1.69-.8.69-.19,1.44-.28,2.25-.28,1.85,0,3.25.68,4.2,2.05ZM731.39,85.78c.36-.28.62-.75.77-1.42.15-.67.23-1.62.23-2.86s-.08-2.27-.24-2.93c-.16-.66-.44-1.11-.84-1.36-.4-.25-.97-.38-1.73-.38-1.17,0-2.05.12-2.65.35v8.24c.31.22.74.4,1.31.55.57.15,1.1.23,1.61.23.67,0,1.18-.14,1.54-.42Z"/><path class="cls-20" d="M739.21,82.33c.49-.84,1.15-1.5,1.97-1.98s1.71-.73,2.66-.73c1.66,0,2.94.24,3.86.73v-1.43c0-.68-.27-1.21-.82-1.59-.55-.38-1.32-.57-2.31-.57-1.06,0-2,.17-2.82.51-.82.34-1.45.86-1.88,1.54l-.3-.05.49-4c.61-.54,1.37-.96,2.28-1.26.91-.3,1.83-.45,2.77-.45,1.94,0,3.49.46,4.64,1.38s1.73,2.17,1.73,3.75v7.42l.27,4.02h-3.97l-.08-1.49c-.36.58-.92,1.04-1.69,1.39-.77.35-1.61.53-2.52.53-1.53,0-2.75-.44-3.66-1.32-.91-.88-1.36-2.09-1.36-3.62,0-1.03.25-1.96.74-2.79ZM742.83,86.29c.31.33.78.5,1.39.5.67,0,1.3-.13,1.9-.39.6-.26,1.13-.63,1.58-1.12v-1.84c-1.01-.49-2.14-.73-3.4-.73-.67,0-1.16.18-1.47.54-.32.36-.47.9-.47,1.62,0,.61.16,1.08.47,1.42Z"/><path class="cls-20" d="M754.24,74.51l1.73-1.08.81-3.38h2.97v3.38h4.27v3.65h-4.27v7.13c0,.63.14,1.12.42,1.46s.69.51,1.23.51c.58,0,1.1-.11,1.58-.32.48-.22.87-.51,1.17-.89l.57.27-.84,3.32c-.74.56-1.35.93-1.82,1.12-.48.19-1.06.28-1.74.28-1.04,0-1.88-.21-2.51-.63s-1.09-1.11-1.39-2.05c-.3-.95-.45-2.24-.45-3.88v-6.32h-1.73v-2.57Z"/><path class="cls-20" d="M775.7,85.58v-6.94c0-.59-.17-1.07-.5-1.42-.33-.35-.78-.53-1.34-.53-1.13,0-2.1.61-2.89,1.84v7.05l.27,4.05h-4.32l.27-4.05v-13.63l-.27-3.92h4.32l-.27,3.92v3.46c.95-1.44,2.43-2.16,4.43-2.16,1.26,0,2.25.4,2.98,1.19.73.79,1.09,1.95,1.09,3.48v7.67l.27,4.05h-4.32l.27-4.05Z"/><path class="cls-20" d="M783.11,89.25c-.53-.43-.8-1-.8-1.7s.26-1.27.8-1.71c.53-.44,1.18-.66,1.96-.66s1.43.22,1.96.66c.53.44.8,1.01.8,1.71s-.27,1.27-.8,1.7-1.18.65-1.96.65-1.43-.22-1.96-.65Z"/><path class="cls-20" d="M794.46,67.58c.5.5.76,1.15.76,1.96,0,1.01-.32,1.98-.95,2.92s-1.42,1.58-2.38,1.92l-.92-1,.05-.13c.74-.41,1.12-.96,1.13-1.65-.74-.04-1.35-.27-1.82-.72-.48-.44-.72-.99-.72-1.63,0-.7.26-1.28.78-1.73.52-.45,1.19-.67,2-.67.86,0,1.55.25,2.05.74ZM800.81,67.58c.5.5.76,1.15.76,1.96,0,1.01-.31,1.98-.94,2.92-.63.94-1.42,1.58-2.38,1.92l-.92-1,.05-.13c.74-.41,1.12-.96,1.13-1.65-.74-.04-1.35-.27-1.82-.72-.48-.44-.72-.99-.72-1.63,0-.7.26-1.28.78-1.73.52-.45,1.19-.67,2-.67.86,0,1.55.25,2.05.74Z"/><path class="cls-20" d="M15.76,156.05c.48.44.72.99.72,1.63,0,.7-.26,1.28-.78,1.73s-1.19.67-2,.67c-.86,0-1.55-.25-2.05-.74s-.76-1.15-.76-1.96c0-1.01.31-1.98.95-2.92.63-.94,1.42-1.57,2.38-1.92l.92,1-.05.14c-.74.41-1.12.96-1.13,1.65.74.04,1.35.27,1.82.72ZM22.1,156.03c.48.44.71.99.71,1.63,0,.7-.26,1.28-.78,1.73-.52.45-1.19.68-2,.68-.86,0-1.55-.25-2.05-.74s-.76-1.15-.76-1.96c0-1.01.32-1.98.95-2.92s1.42-1.58,2.38-1.92l.92,1-.05.13c-.74.41-1.12.96-1.13,1.65.74.04,1.35.28,1.82.72Z"/><path class="cls-20" d="M38.18,159.33l-.3.08-2.43-.32h-2.48v12.61l.27,4.05h-4.43l.27-4.05v-12.61h-2.48l-2.43.32-.3-.08.59-3.83h13.12l.59,3.83Z"/><path class="cls-20" d="M48.95,171.7v-6.94c0-.59-.17-1.07-.5-1.42-.33-.35-.78-.53-1.34-.53-1.13,0-2.1.61-2.89,1.84v7.05l.27,4.05h-4.32l.27-4.05v-13.63l-.27-3.92h4.32l-.27,3.92v3.46c.95-1.44,2.43-2.16,4.43-2.16,1.26,0,2.25.4,2.98,1.19.73.79,1.09,1.95,1.09,3.48v7.67l.27,4.05h-4.32l.27-4.05Z"/><path class="cls-20" d="M57.27,173.94c-1.12-1.42-1.67-3.53-1.67-6.32s.59-4.81,1.77-6.29c1.18-1.48,2.91-2.21,5.2-2.21s3.92.57,5.01,1.7c1.09,1.13,1.72,2.92,1.9,5.37l-.73,2.83h-9.21c.07.88.24,1.56.51,2.02.27.47.66.79,1.17.97s1.23.27,2.15.27c1.21,0,2.28-.11,3.23-.32s1.59-.49,1.93-.84l.46.24-.84,3.29c-.68.52-1.46.89-2.32,1.09s-1.95.31-3.27.31c-2.41,0-4.18-.71-5.29-2.13ZM65.64,166.19c0-1.13-.24-1.98-.73-2.52-.49-.55-1.23-.82-2.24-.82-1.06,0-1.83.25-2.31.74s-.76,1.36-.85,2.61h6.13Z"/><path class="cls-20" d="M89.6,161.28c.94,1.37,1.42,3.48,1.42,6.34,0,2.7-.51,4.77-1.53,6.2-1.02,1.43-2.47,2.15-4.36,2.15-.61,0-1.26-.16-1.94-.49-.68-.32-1.19-.73-1.51-1.22v2.83l.27,4.05h-4.32l.27-4.05v-13.53l-.27-4.02h3.7l.14.76c.43-.34.99-.61,1.69-.8.69-.19,1.44-.28,2.25-.28,1.85,0,3.25.68,4.2,2.05ZM86.13,171.9c.36-.28.62-.75.77-1.42.15-.67.23-1.62.23-2.86s-.08-2.27-.24-2.93c-.16-.66-.44-1.11-.84-1.36-.4-.25-.97-.38-1.73-.38-1.17,0-2.05.12-2.65.35v8.24c.31.22.74.4,1.31.55.57.15,1.1.23,1.61.23.67,0,1.18-.14,1.54-.42Z"/><path class="cls-20" d="M93.95,168.45c.49-.84,1.15-1.5,1.97-1.98s1.71-.73,2.66-.73c1.66,0,2.94.24,3.86.73v-1.43c0-.68-.27-1.21-.82-1.59-.55-.38-1.32-.57-2.31-.57-1.06,0-2,.17-2.82.51-.82.34-1.45.86-1.88,1.54l-.3-.05.49-4c.61-.54,1.37-.96,2.28-1.26.91-.3,1.83-.45,2.77-.45,1.94,0,3.49.46,4.64,1.38s1.73,2.17,1.73,3.75v7.42l.27,4.02h-3.97l-.08-1.49c-.36.58-.92,1.04-1.69,1.39-.77.35-1.61.53-2.52.53-1.53,0-2.75-.44-3.66-1.32-.91-.88-1.36-2.09-1.36-3.62,0-1.03.25-1.96.74-2.79ZM97.57,172.41c.31.33.78.5,1.39.5.67,0,1.3-.13,1.9-.39.6-.26,1.13-.63,1.58-1.12v-1.84c-1.01-.49-2.14-.73-3.4-.73-.67,0-1.16.18-1.47.54-.32.36-.47.9-.47,1.62,0,.61.16,1.08.47,1.42Z"/><path class="cls-20" d="M108.97,160.63l1.73-1.08.81-3.38h2.97v3.38h4.27v3.65h-4.27v7.13c0,.63.14,1.12.42,1.46s.69.51,1.23.51c.58,0,1.1-.11,1.58-.32.48-.22.87-.51,1.17-.89l.57.27-.84,3.32c-.74.56-1.35.93-1.82,1.12-.48.19-1.06.28-1.74.28-1.04,0-1.88-.21-2.51-.63s-1.09-1.11-1.39-2.05c-.3-.95-.45-2.24-.45-3.88v-6.32h-1.73v-2.57Z"/><path class="cls-20" d="M130.44,171.7v-6.94c0-.59-.17-1.07-.5-1.42-.33-.35-.78-.53-1.34-.53-1.13,0-2.1.61-2.89,1.84v7.05l.27,4.05h-4.32l.27-4.05v-13.63l-.27-3.92h4.32l-.27,3.92v3.46c.95-1.44,2.43-2.16,4.43-2.16,1.26,0,2.25.4,2.98,1.19.73.79,1.09,1.95,1.09,3.48v7.67l.27,4.05h-4.32l.27-4.05Z"/><path class="cls-20" d="M151.93,171.7v-6.94c0-.59-.17-1.07-.5-1.42-.33-.35-.78-.53-1.34-.53-1.13,0-2.1.61-2.89,1.84v7.05l.27,4.05h-4.32l.27-4.05v-13.63l-.27-3.92h4.32l-.27,3.92v3.46c.95-1.44,2.43-2.16,4.43-2.16,1.26,0,2.25.4,2.98,1.19.73.79,1.09,1.95,1.09,3.48v7.67l.27,4.05h-4.32l.27-4.05Z"/><path class="cls-20" d="M159.15,168.45c.49-.84,1.15-1.5,1.97-1.98s1.71-.73,2.66-.73c1.66,0,2.94.24,3.86.73v-1.43c0-.68-.27-1.21-.82-1.59-.55-.38-1.32-.57-2.31-.57-1.06,0-2,.17-2.82.51-.82.34-1.45.86-1.88,1.54l-.3-.05.49-4c.61-.54,1.37-.96,2.28-1.26.91-.3,1.83-.45,2.77-.45,1.94,0,3.49.46,4.64,1.38s1.73,2.17,1.73,3.75v7.42l.27,4.02h-3.97l-.08-1.49c-.36.58-.92,1.04-1.69,1.39-.77.35-1.61.53-2.52.53-1.53,0-2.75-.44-3.66-1.32-.91-.88-1.36-2.09-1.36-3.62,0-1.03.25-1.96.74-2.79ZM162.77,172.41c.31.33.78.5,1.39.5.67,0,1.3-.13,1.9-.39.6-.26,1.13-.63,1.58-1.12v-1.84c-1.01-.49-2.14-.73-3.4-.73-.67,0-1.16.18-1.47.54-.32.36-.47.9-.47,1.62,0,.61.16,1.08.47,1.42Z"/><path class="cls-20" d="M177.32,175.52c-.78-.33-1.57-.9-2.36-1.71l-.51-3.4.38-.11c.68.59,1.47,1.06,2.35,1.4.88.34,1.76.51,2.65.51s1.5-.08,1.85-.26c.35-.17.53-.47.53-.9,0-.4-.22-.73-.66-1-.44-.27-1.21-.57-2.31-.89-1.12-.32-1.99-.68-2.62-1.08-.63-.4-1.09-.9-1.38-1.5-.29-.6-.43-1.36-.43-2.28,0-1.64.49-2.9,1.47-3.78.98-.88,2.37-1.32,4.17-1.32,1.1,0,2.07.14,2.9.42.84.28,1.59.72,2.25,1.31l-.59,3.4-.41.11c-.29-.47-.81-.84-1.55-1.11-.75-.27-1.5-.41-2.25-.41-1.4,0-2.11.4-2.11,1.19,0,.45.19.8.58,1.05s1.14.53,2.25.84c1.58.43,2.74,1.03,3.47,1.8.73.76,1.09,1.79,1.09,3.09,0,1.66-.5,2.93-1.51,3.81s-2.42,1.32-4.24,1.32c-1.22,0-2.23-.17-3.01-.5Z"/><path class="cls-20" d="M194.82,168.45c.49-.84,1.15-1.5,1.97-1.98s1.71-.73,2.66-.73c1.66,0,2.94.24,3.86.73v-1.43c0-.68-.27-1.21-.82-1.59-.55-.38-1.32-.57-2.31-.57-1.06,0-2,.17-2.82.51-.82.34-1.45.86-1.88,1.54l-.3-.05.49-4c.61-.54,1.37-.96,2.28-1.26.91-.3,1.83-.45,2.77-.45,1.94,0,3.49.46,4.64,1.38s1.73,2.17,1.73,3.75v7.42l.27,4.02h-3.97l-.08-1.49c-.36.58-.92,1.04-1.69,1.39-.77.35-1.61.53-2.52.53-1.53,0-2.75-.44-3.66-1.32-.91-.88-1.36-2.09-1.36-3.62,0-1.03.25-1.96.74-2.79ZM198.44,172.41c.31.33.78.5,1.39.5.67,0,1.3-.13,1.9-.39.6-.26,1.13-.63,1.58-1.12v-1.84c-1.01-.49-2.14-.73-3.4-.73-.67,0-1.16.18-1.47.54-.32.36-.47.9-.47,1.62,0,.61.16,1.08.47,1.42Z"/><path class="cls-20" d="M228,161.28c.94,1.37,1.42,3.48,1.42,6.34,0,2.7-.51,4.77-1.53,6.2-1.02,1.43-2.47,2.15-4.36,2.15-.61,0-1.26-.16-1.93-.47-.67-.31-1.18-.71-1.53-1.2l-.08,1.46h-3.97l.27-4.02v-13.66l-.27-3.92h4.32l-.27,3.92v2.08c.45-.29,1-.51,1.65-.67.65-.16,1.34-.24,2.08-.24,1.85,0,3.25.68,4.2,2.05ZM224.53,171.9c.36-.28.62-.75.77-1.42.15-.67.23-1.62.23-2.86s-.08-2.27-.24-2.93c-.16-.66-.44-1.11-.84-1.36-.4-.25-.97-.38-1.73-.38-1.17,0-2.05.12-2.65.35v8.24c.31.22.74.4,1.31.55.57.15,1.1.23,1.61.23.67,0,1.18-.14,1.54-.42Z"/><path class="cls-20" d="M232.47,171.7v-13.63l-.27-3.92h4.32l-.27,3.92v13.63l.27,4.05h-4.32l.27-4.05Z"/><path class="cls-20" d="M252.1,171.73l.27,4.02h-3.97l-.11-1.92c-1.01,1.49-2.47,2.24-4.4,2.24-1.28,0-2.28-.42-3-1.26-.72-.84-1.08-2.02-1.08-3.55v-7.67l-.27-4.05h4.32l-.27,4.05v6.94c0,.63.17,1.13.51,1.51.34.38.78.57,1.32.57,1.06,0,2.03-.66,2.89-1.97v-7.05l-.27-4.05h4.32l-.27,4.05v8.13Z"/><path class="cls-20" d="M256.82,173.94c-1.12-1.42-1.67-3.53-1.67-6.32s.59-4.81,1.77-6.29c1.18-1.48,2.91-2.21,5.2-2.21s3.92.57,5.01,1.7c1.09,1.13,1.72,2.92,1.9,5.37l-.73,2.83h-9.21c.07.88.24,1.56.51,2.02.27.47.66.79,1.17.97s1.23.27,2.15.27c1.21,0,2.28-.11,3.23-.32s1.59-.49,1.93-.84l.46.24-.84,3.29c-.68.52-1.46.89-2.32,1.09s-1.95.31-3.27.31c-2.41,0-4.18-.71-5.29-2.13ZM265.19,166.19c0-1.13-.24-1.98-.73-2.52-.49-.55-1.23-.82-2.24-.82-1.06,0-1.83.25-2.31.74s-.76,1.36-.85,2.61h6.13Z"/><path class="cls-20" d="M14.44,207.92c-.78-.33-1.57-.9-2.36-1.71l-.51-3.4.38-.11c.68.59,1.47,1.06,2.35,1.4.88.34,1.76.51,2.65.51s1.5-.08,1.85-.26c.35-.17.53-.47.53-.9,0-.4-.22-.73-.66-1-.44-.27-1.21-.57-2.31-.89-1.12-.32-1.99-.68-2.62-1.08-.63-.4-1.09-.9-1.38-1.5-.29-.6-.43-1.36-.43-2.28,0-1.64.49-2.9,1.47-3.78.98-.88,2.37-1.32,4.17-1.32,1.1,0,2.07.14,2.9.42.84.28,1.59.72,2.25,1.31l-.59,3.4-.41.11c-.29-.47-.81-.84-1.55-1.11-.75-.27-1.5-.41-2.25-.41-1.4,0-2.11.4-2.11,1.19,0,.45.19.8.58,1.05s1.14.53,2.25.84c1.58.43,2.74,1.03,3.47,1.8.73.76,1.09,1.79,1.09,3.09,0,1.66-.5,2.93-1.51,3.81s-2.42,1.32-4.24,1.32c-1.22,0-2.23-.17-3.01-.5Z"/><path class="cls-20" d="M25.6,193.03l1.73-1.08.81-3.38h2.97v3.38h4.27v3.65h-4.27v7.13c0,.63.14,1.12.42,1.46s.69.51,1.23.51c.58,0,1.1-.11,1.58-.32.48-.22.87-.51,1.17-.89l.57.27-.84,3.32c-.74.56-1.35.93-1.82,1.12-.48.19-1.06.28-1.74.28-1.04,0-1.88-.21-2.51-.63s-1.09-1.11-1.39-2.05c-.3-.95-.45-2.24-.45-3.88v-6.32h-1.73v-2.57Z"/><path class="cls-20" d="M48.47,192.14l-.62,3.32-.35.24c-.56-.36-1.36-.54-2.4-.54-.58,0-1.08.12-1.53.35-.44.23-.85.61-1.23,1.13v7.45l.27,4.05h-4.32l.27-4.05v-8.24l-.27-3.92h3.51l.46,1.7c.92-1.26,2.14-1.89,3.67-1.89,1.1,0,1.94.13,2.54.38Z"/><path class="cls-20" d="M51.34,206.42c-1.11-1.44-1.66-3.57-1.66-6.4s.55-4.95,1.66-6.37c1.11-1.42,2.88-2.13,5.3-2.13s4.2.71,5.31,2.13c1.11,1.42,1.66,3.55,1.66,6.37s-.55,4.96-1.66,6.4c-1.11,1.44-2.88,2.16-5.31,2.16s-4.2-.72-5.3-2.16ZM58.57,204.44c.43-.28.73-.76.91-1.43.17-.67.26-1.66.26-2.96s-.08-2.28-.26-2.96c-.17-.67-.47-1.15-.91-1.43-.43-.28-1.07-.42-1.92-.42s-1.48.14-1.92.42c-.43.28-.73.76-.9,1.43s-.26,1.66-.26,2.96.08,2.28.26,2.96.47,1.15.9,1.43c.43.28,1.07.42,1.92.42s1.49-.14,1.92-.42Z"/><path class="cls-20" d="M80.65,208.15h-4.94l-1.38-3.92-1.67-3.48-2.21,2.75v.59l.27,4.05h-4.32l.27-4.05v-13.63l-.27-3.92h4.32l-.27,3.92v8.42l2.27-3.02,2.21-3.92h5.21l-3.51,3.92-1.59,1.97,3.27,6.4,2.35,3.92Z"/><path class="cls-20" d="M83,206.34c-1.12-1.42-1.67-3.53-1.67-6.32s.59-4.81,1.77-6.29c1.18-1.48,2.91-2.21,5.2-2.21s3.92.57,5.01,1.7c1.09,1.13,1.72,2.92,1.9,5.37l-.73,2.83h-9.21c.07.88.24,1.56.51,2.02.27.47.66.79,1.17.97s1.23.27,2.15.27c1.21,0,2.28-.11,3.23-.32s1.59-.49,1.93-.84l.46.24-.84,3.29c-.68.52-1.46.89-2.32,1.09s-1.95.31-3.27.31c-2.41,0-4.18-.71-5.29-2.13ZM91.37,198.59c0-1.13-.24-1.98-.73-2.52-.49-.55-1.23-.82-2.24-.82-1.06,0-1.83.25-2.31.74s-.76,1.36-.85,2.61h6.13Z"/><path class="cls-20" d="M104.59,206.42c-1.11-1.44-1.66-3.57-1.66-6.4s.55-4.95,1.66-6.37c1.11-1.42,2.88-2.13,5.3-2.13s4.2.71,5.31,2.13c1.11,1.42,1.66,3.55,1.66,6.37s-.55,4.96-1.66,6.4c-1.11,1.44-2.88,2.16-5.31,2.16s-4.2-.72-5.3-2.16ZM111.81,204.44c.43-.28.73-.76.91-1.43.17-.67.26-1.66.26-2.96s-.08-2.28-.26-2.96c-.17-.67-.47-1.15-.91-1.43-.43-.28-1.07-.42-1.92-.42s-1.48.14-1.92.42c-.43.28-.73.76-.9,1.43s-.26,1.66-.26,2.96.08,2.28.26,2.96.47,1.15.9,1.43c.43.28,1.07.42,1.92.42s1.49-.14,1.92-.42Z"/><path class="cls-20" d="M119.1,193.03l1.73-1.08c0-2.03.35-3.51,1.04-4.44.69-.93,1.79-1.39,3.31-1.39.99,0,1.82.09,2.48.28.67.19,1.21.49,1.62.9l-.43,2.7-.46.27c-.23-.22-.5-.37-.8-.46s-.73-.13-1.31-.13c-1.12,0-1.67.62-1.67,1.86v.41h4.27v3.65h-4.27v8.5l.27,4.05h-4.32l.27-4.05v-8.5h-1.73v-2.57Z"/><path class="cls-20" d="M136.3,192.14l4.94-4.24h2.97v16.2l.27,4.05h-4.32l.27-4.05v-10.75l-4.18,2.75-.41-.19.46-3.78Z"/><path class="cls-20" d="M159.8,193.68c.94,1.37,1.42,3.48,1.42,6.34,0,2.7-.51,4.77-1.53,6.2-1.02,1.43-2.47,2.15-4.36,2.15-.61,0-1.26-.16-1.94-.49-.68-.32-1.19-.73-1.51-1.22v2.83l.27,4.05h-4.32l.27-4.05v-13.53l-.27-4.02h3.7l.14.76c.43-.34.99-.61,1.69-.8.69-.19,1.44-.28,2.25-.28,1.85,0,3.25.68,4.2,2.05ZM156.33,204.3c.36-.28.62-.75.77-1.42.15-.67.23-1.62.23-2.86s-.08-2.27-.24-2.93c-.16-.66-.44-1.11-.84-1.36-.4-.25-.97-.38-1.73-.38-1.17,0-2.05.12-2.65.35v8.24c.31.22.74.4,1.31.55.57.15,1.1.23,1.61.23.67,0,1.18-.14,1.54-.42Z"/><path class="cls-20" d="M163.46,193.03l1.73-1.08.81-3.38h2.97v3.38h4.27v3.65h-4.27v7.13c0,.63.14,1.12.42,1.46s.69.51,1.23.51c.58,0,1.1-.11,1.58-.32.48-.22.87-.51,1.17-.89l.57.27-.84,3.32c-.74.56-1.35.93-1.82,1.12-.48.19-1.06.28-1.74.28-1.04,0-1.88-.21-2.51-.63s-1.09-1.11-1.39-2.05c-.3-.95-.45-2.24-.45-3.88v-6.32h-1.73v-2.57Z"/><path class="cls-20" d="M203.91,191.95l-1.35,3.92-2.43,12.29h-6.05l-1.97-11.72-1.97,11.72h-6.05l-2.4-12.29-1.38-3.92h4.75l2.08,13.58,1.92-9.67.62-3.92h4.86l.59,3.92,1.94,9.69,2.08-13.61h4.75Z"/><path class="cls-20" d="M206.03,189.88c-.48-.39-.72-.89-.72-1.5s.24-1.14.72-1.53c.48-.39,1.06-.58,1.74-.58s1.26.19,1.74.58c.48.39.72.9.72,1.53s-.24,1.11-.72,1.5c-.48.39-1.06.58-1.74.58s-1.26-.19-1.74-.58ZM205.85,204.1v-8.24l-.27-3.92h4.32l-.27,3.92v8.24l.27,4.05h-4.32l.27-4.05Z"/><path class="cls-20" d="M225.8,204.13l.27,4.02h-3.97l-.08-1.46c-.34.49-.85.89-1.53,1.2-.67.32-1.32.47-1.93.47-1.89,0-3.34-.71-4.36-2.15-1.02-1.43-1.53-3.5-1.53-6.2,0-2.86.47-4.98,1.42-6.34.94-1.37,2.34-2.05,4.2-2.05.74,0,1.43.08,2.08.24s1.2.39,1.65.67v-2.08l-.27-3.92h4.32l-.27,3.92v13.66ZM222.02,195.7c-.59-.23-1.48-.35-2.65-.35-.76,0-1.33.13-1.73.38-.4.25-.68.71-.84,1.36-.16.66-.24,1.63-.24,2.93s.08,2.2.23,2.86c.15.67.41,1.14.77,1.42.36.28.87.42,1.54.42.5,0,1.04-.08,1.61-.23.57-.15,1-.34,1.31-.55v-8.24Z"/><path class="cls-20" d="M228.75,193.03l1.73-1.08.81-3.38h2.97v3.38h4.27v3.65h-4.27v7.13c0,.63.14,1.12.42,1.46s.69.51,1.23.51c.58,0,1.1-.11,1.58-.32.48-.22.87-.51,1.17-.89l.57.27-.84,3.32c-.74.56-1.35.93-1.82,1.12-.48.19-1.06.28-1.74.28-1.04,0-1.88-.21-2.51-.63s-1.09-1.11-1.39-2.05c-.3-.95-.45-2.24-.45-3.88v-6.32h-1.73v-2.57Z"/><path class="cls-20" d="M250.21,204.1v-6.94c0-.59-.17-1.07-.5-1.42-.33-.35-.78-.53-1.34-.53-1.13,0-2.1.61-2.89,1.84v7.05l.27,4.05h-4.32l.27-4.05v-13.63l-.27-3.92h4.32l-.27,3.92v3.46c.95-1.44,2.43-2.16,4.43-2.16,1.26,0,2.25.4,2.98,1.19.73.79,1.09,1.95,1.09,3.48v7.67l.27,4.05h-4.32l.27-4.05Z"/><path class="cls-20" d="M257.62,207.77c-.53-.43-.8-1-.8-1.7s.26-1.27.8-1.71c.53-.44,1.18-.66,1.96-.66s1.43.22,1.96.66c.53.44.8,1.01.8,1.71s-.27,1.27-.8,1.7-1.18.65-1.96.65-1.43-.22-1.96-.65Z"/><path class="cls-20" d="M268.98,186.1c.5.5.76,1.15.76,1.96,0,1.01-.32,1.98-.95,2.92s-1.42,1.58-2.38,1.92l-.92-1,.05-.13c.74-.41,1.12-.96,1.13-1.65-.74-.04-1.35-.27-1.82-.72-.48-.44-.72-.99-.72-1.63,0-.7.26-1.28.78-1.73.52-.45,1.19-.67,2-.67.86,0,1.55.25,2.05.74ZM275.32,186.1c.5.5.76,1.15.76,1.96,0,1.01-.31,1.98-.94,2.92-.63.94-1.42,1.58-2.38,1.92l-.92-1,.05-.13c.74-.41,1.12-.96,1.13-1.65-.74-.04-1.35-.27-1.82-.72-.48-.44-.72-.99-.72-1.63,0-.7.26-1.28.78-1.73.52-.45,1.19-.67,2-.67.86,0,1.55.25,2.05.74Z"/><path class="cls-20" d="M678.03,180.99c.48.44.72.99.72,1.63,0,.7-.26,1.28-.78,1.73s-1.19.67-2,.67c-.86,0-1.55-.25-2.05-.74s-.76-1.15-.76-1.96c0-1.01.31-1.98.95-2.92.63-.94,1.42-1.57,2.38-1.92l.92,1-.05.14c-.74.41-1.12.96-1.13,1.65.74.04,1.35.27,1.82.72ZM684.37,180.96c.48.44.71.99.71,1.63,0,.7-.26,1.28-.78,1.73-.52.45-1.19.68-2,.68-.86,0-1.55-.25-2.05-.74s-.76-1.15-.76-1.96c0-1.01.32-1.98.95-2.92s1.42-1.58,2.38-1.92l.92,1-.05.13c-.74.41-1.12.96-1.13,1.65.74.04,1.35.28,1.82.72Z"/><path class="cls-20" d="M700.45,184.27l-.3.08-2.43-.32h-2.48v12.61l.27,4.05h-4.43l.27-4.05v-12.61h-2.48l-2.43.32-.3-.08.59-3.83h13.12l.59,3.83Z"/><path class="cls-20" d="M711.23,196.64v-6.94c0-.59-.17-1.07-.5-1.42-.33-.35-.78-.53-1.34-.53-1.13,0-2.1.61-2.89,1.84v7.05l.27,4.05h-4.32l.27-4.05v-13.63l-.27-3.92h4.32l-.27,3.92v3.46c.95-1.44,2.43-2.16,4.43-2.16,1.26,0,2.25.4,2.98,1.19.73.79,1.09,1.95,1.09,3.48v7.67l.27,4.05h-4.32l.27-4.05Z"/><path class="cls-20" d="M719.54,198.88c-1.12-1.42-1.67-3.53-1.67-6.32s.59-4.81,1.77-6.29c1.18-1.48,2.91-2.21,5.2-2.21s3.92.57,5.01,1.7c1.09,1.13,1.72,2.92,1.9,5.37l-.73,2.83h-9.21c.07.88.24,1.56.51,2.02.27.47.66.79,1.17.97s1.23.27,2.15.27c1.21,0,2.28-.11,3.23-.32s1.59-.49,1.93-.84l.46.24-.84,3.29c-.68.52-1.46.89-2.32,1.09s-1.95.31-3.27.31c-2.41,0-4.18-.71-5.29-2.13ZM727.91,191.13c0-1.13-.24-1.98-.73-2.52-.49-.55-1.23-.82-2.24-.82-1.06,0-1.83.25-2.31.74s-.76,1.36-.85,2.61h6.13Z"/><path class="cls-20" d="M751.87,186.21c.94,1.37,1.42,3.48,1.42,6.34,0,2.7-.51,4.77-1.53,6.2-1.02,1.43-2.47,2.15-4.36,2.15-.61,0-1.26-.16-1.94-.49-.68-.32-1.19-.73-1.51-1.22v2.83l.27,4.05h-4.32l.27-4.05v-13.53l-.27-4.02h3.7l.14.76c.43-.34.99-.61,1.69-.8.69-.19,1.44-.28,2.25-.28,1.85,0,3.25.68,4.2,2.05ZM748.4,196.84c.36-.28.62-.75.77-1.42.15-.67.23-1.62.23-2.86s-.08-2.27-.24-2.93c-.16-.66-.44-1.11-.84-1.36-.4-.25-.97-.38-1.73-.38-1.17,0-2.05.12-2.65.35v8.24c.31.22.74.4,1.31.55.57.15,1.1.23,1.61.23.67,0,1.18-.14,1.54-.42Z"/><path class="cls-20" d="M756.22,193.38c.49-.84,1.15-1.5,1.97-1.98s1.71-.73,2.66-.73c1.66,0,2.94.24,3.86.73v-1.43c0-.68-.27-1.21-.82-1.59-.55-.38-1.32-.57-2.31-.57-1.06,0-2,.17-2.82.51-.82.34-1.45.86-1.88,1.54l-.3-.05.49-4c.61-.54,1.37-.96,2.28-1.26.91-.3,1.83-.45,2.77-.45,1.94,0,3.49.46,4.64,1.38s1.73,2.17,1.73,3.75v7.42l.27,4.02h-3.97l-.08-1.49c-.36.58-.92,1.04-1.69,1.39-.77.35-1.61.53-2.52.53-1.53,0-2.75-.44-3.66-1.32-.91-.88-1.36-2.09-1.36-3.62,0-1.03.25-1.96.74-2.79ZM759.84,197.35c.31.33.78.5,1.39.5.67,0,1.3-.13,1.9-.39.6-.26,1.13-.63,1.58-1.12v-1.84c-1.01-.49-2.14-.73-3.4-.73-.67,0-1.16.18-1.47.54-.32.36-.47.9-.47,1.62,0,.61.16,1.08.47,1.42Z"/><path class="cls-20" d="M771.25,185.57l1.73-1.08.81-3.38h2.97v3.38h4.27v3.65h-4.27v7.13c0,.63.14,1.12.42,1.46s.69.51,1.23.51c.58,0,1.1-.11,1.58-.32.48-.22.87-.51,1.17-.89l.57.27-.84,3.32c-.74.56-1.35.93-1.82,1.12-.48.19-1.06.28-1.74.28-1.04,0-1.88-.21-2.51-.63s-1.09-1.11-1.39-2.05c-.3-.95-.45-2.24-.45-3.88v-6.32h-1.73v-2.57Z"/><path class="cls-20" d="M792.71,196.64v-6.94c0-.59-.17-1.07-.5-1.42-.33-.35-.78-.53-1.34-.53-1.13,0-2.1.61-2.89,1.84v7.05l.27,4.05h-4.32l.27-4.05v-13.63l-.27-3.92h4.32l-.27,3.92v3.46c.95-1.44,2.43-2.16,4.43-2.16,1.26,0,2.25.4,2.98,1.19.73.79,1.09,1.95,1.09,3.48v7.67l.27,4.05h-4.32l.27-4.05Z"/><path class="cls-20" d="M814.2,196.64v-6.94c0-.59-.17-1.07-.5-1.42-.33-.35-.78-.53-1.34-.53-1.13,0-2.1.61-2.89,1.84v7.05l.27,4.05h-4.32l.27-4.05v-13.63l-.27-3.92h4.32l-.27,3.92v3.46c.95-1.44,2.43-2.16,4.43-2.16,1.26,0,2.25.4,2.98,1.19.73.79,1.09,1.95,1.09,3.48v7.67l.27,4.05h-4.32l.27-4.05Z"/><path class="cls-20" d="M821.42,193.38c.49-.84,1.15-1.5,1.97-1.98s1.71-.73,2.66-.73c1.66,0,2.94.24,3.86.73v-1.43c0-.68-.27-1.21-.82-1.59-.55-.38-1.32-.57-2.31-.57-1.06,0-2,.17-2.82.51-.82.34-1.45.86-1.88,1.54l-.3-.05.49-4c.61-.54,1.37-.96,2.28-1.26.91-.3,1.83-.45,2.77-.45,1.94,0,3.49.46,4.64,1.38s1.73,2.17,1.73,3.75v7.42l.27,4.02h-3.97l-.08-1.49c-.36.58-.92,1.04-1.69,1.39-.77.35-1.61.53-2.52.53-1.53,0-2.75-.44-3.66-1.32-.91-.88-1.36-2.09-1.36-3.62,0-1.03.25-1.96.74-2.79ZM825.04,197.35c.31.33.78.5,1.39.5.67,0,1.3-.13,1.9-.39.6-.26,1.13-.63,1.58-1.12v-1.84c-1.01-.49-2.14-.73-3.4-.73-.67,0-1.16.18-1.47.54-.32.36-.47.9-.47,1.62,0,.61.16,1.08.47,1.42Z"/><path class="cls-20" d="M839.6,200.46c-.78-.33-1.57-.9-2.36-1.71l-.51-3.4.38-.11c.68.59,1.47,1.06,2.35,1.4.88.34,1.76.51,2.65.51s1.5-.08,1.85-.26c.35-.17.53-.47.53-.9,0-.4-.22-.73-.66-1-.44-.27-1.21-.57-2.31-.89-1.12-.32-1.99-.68-2.62-1.08-.63-.4-1.09-.9-1.38-1.5-.29-.6-.43-1.36-.43-2.28,0-1.64.49-2.9,1.47-3.78.98-.88,2.37-1.32,4.17-1.32,1.1,0,2.07.14,2.9.42.84.28,1.59.72,2.25,1.31l-.59,3.4-.41.11c-.29-.47-.81-.84-1.55-1.11-.75-.27-1.5-.41-2.25-.41-1.4,0-2.11.4-2.11,1.19,0,.45.19.8.58,1.05s1.14.53,2.25.84c1.58.43,2.74,1.03,3.47,1.8.73.76,1.09,1.79,1.09,3.09,0,1.66-.5,2.93-1.51,3.81s-2.42,1.32-4.24,1.32c-1.22,0-2.23-.17-3.01-.5Z"/><path class="cls-20" d="M865.72,196.64v-6.94c0-.59-.17-1.07-.5-1.42-.33-.35-.78-.53-1.34-.53-1.13,0-2.1.61-2.89,1.84v7.05l.27,4.05h-4.32l.27-4.05v-8.24l-.27-3.92h3.51l.54,1.97c.95-1.44,2.43-2.16,4.43-2.16,1.26,0,2.25.4,2.98,1.19.73.79,1.09,1.95,1.09,3.48v7.67l.27,4.05h-4.32l.27-4.05Z"/><path class="cls-20" d="M874.02,198.96c-1.11-1.44-1.66-3.57-1.66-6.4s.55-4.95,1.66-6.37c1.11-1.42,2.88-2.13,5.3-2.13s4.2.71,5.31,2.13c1.11,1.42,1.66,3.55,1.66,6.37s-.55,4.96-1.66,6.4c-1.11,1.44-2.88,2.16-5.31,2.16s-4.2-.72-5.3-2.16ZM881.24,196.97c.43-.28.73-.76.91-1.43.17-.67.26-1.66.26-2.96s-.08-2.28-.26-2.96c-.17-.67-.47-1.15-.91-1.43-.43-.28-1.07-.42-1.92-.42s-1.48.14-1.92.42c-.43.28-.73.76-.9,1.43s-.26,1.66-.26,2.96.08,2.28.26,2.96.47,1.15.9,1.43c.43.28,1.07.42,1.92.42s1.49-.14,1.92-.42Z"/><path class="cls-20" d="M909.65,188.4v8.24l.27,4.05h-4.32l.27-4.05v-8.24l-.03-.27h-6.02v8.5l.27,4.05h-4.32l.27-4.05v-8.5h-1.73v-2.57l1.73-1.08c0-2.03.35-3.51,1.04-4.44.69-.93,1.79-1.39,3.31-1.39,1.71,0,2.9.14,3.56.43l-.49,3-.46.27c-.07.04-.14.05-.22.05-.14,0-.32-.03-.54-.08-.4-.07-.74-.11-1.03-.11-.45,0-.8.17-1.04.5-.24.33-.36.79-.36,1.36v.41h10.1l-.27,3.92ZM906.04,182.42c-.48-.39-.72-.89-.72-1.5s.24-1.14.72-1.53c.48-.39,1.06-.58,1.74-.58s1.26.19,1.74.58c.48.39.71.9.71,1.53s-.24,1.11-.71,1.5c-.48.39-1.06.58-1.74.58s-1.26-.19-1.74-.58Z"/><path class="cls-20" d="M913.4,196.64v-13.63l-.27-3.92h4.32l-.27,3.92v13.63l.27,4.05h-4.32l.27-4.05Z"/><path class="cls-20" d="M920.93,196.64v-13.63l-.27-3.92h4.32l-.27,3.92v13.63l.27,4.05h-4.32l.27-4.05Z"/><path class="cls-20" d="M928.53,200.31c-.53-.43-.8-1-.8-1.7s.26-1.27.8-1.71c.53-.44,1.18-.66,1.96-.66s1.43.22,1.96.66c.53.44.8,1.01.8,1.71s-.27,1.27-.8,1.7-1.18.65-1.96.65-1.43-.22-1.96-.65Z"/><path class="cls-20" d="M939.88,178.64c.5.5.76,1.15.76,1.96,0,1.01-.32,1.98-.95,2.92s-1.42,1.58-2.38,1.92l-.92-1,.05-.13c.74-.41,1.12-.96,1.13-1.65-.74-.04-1.35-.27-1.82-.72-.48-.44-.72-.99-.72-1.63,0-.7.26-1.28.78-1.73.52-.45,1.19-.67,2-.67.86,0,1.55.25,2.05.74ZM946.23,178.64c.5.5.76,1.15.76,1.96,0,1.01-.31,1.98-.94,2.92-.63.94-1.42,1.58-2.38,1.92l-.92-1,.05-.13c.74-.41,1.12-.96,1.13-1.65-.74-.04-1.35-.27-1.82-.72-.48-.44-.72-.99-.72-1.63,0-.7.26-1.28.78-1.73.52-.45,1.19-.67,2-.67.86,0,1.55.25,2.05.74Z"/><path class="cls-20" d="M439.69,449.06c-1.23-.73-2.13-1.87-2.7-3.42-.57-1.55-.85-3.59-.85-6.13,0-3.58.65-6.22,1.96-7.92,1.3-1.7,3.47-2.55,6.49-2.55,1.15,0,2.08.11,2.79.34.71.23,1.46.64,2.25,1.26l-.59,3.43-.54.24c-.47-.54-.99-.92-1.57-1.13s-1.36-.32-2.35-.32c-1.1,0-1.97.22-2.61.66-.64.44-1.1,1.14-1.38,2.09s-.42,2.26-.42,3.92c0,1.76.13,3.14.41,4.12.27.98.72,1.68,1.35,2.09s1.51.62,2.65.62,2.11-.13,2.86-.38,1.39-.65,1.89-1.19l.57.22-.81,3.16c-.65.68-1.34,1.19-2.07,1.51-.73.32-1.54.49-2.44.49-2.03,0-3.67-.36-4.9-1.09Z"/><path class="cls-20" d="M452.47,445.67v-13.63l-.27-3.92h4.32l-.27,3.92v13.63l.27,4.05h-4.32l.27-4.05Z"/><path class="cls-20" d="M460.97,447.91c-1.12-1.42-1.67-3.53-1.67-6.32s.59-4.81,1.77-6.29c1.18-1.48,2.91-2.21,5.2-2.21s3.92.57,5.01,1.7c1.09,1.13,1.72,2.92,1.9,5.37l-.73,2.83h-9.21c.07.88.24,1.56.51,2.02.27.47.66.79,1.17.97s1.23.27,2.15.27c1.21,0,2.28-.11,3.23-.32s1.59-.49,1.93-.84l.46.24-.84,3.29c-.68.52-1.46.89-2.32,1.09s-1.95.31-3.27.31c-2.41,0-4.18-.71-5.29-2.13ZM469.34,440.16c0-1.13-.24-1.98-.73-2.52-.49-.55-1.23-.82-2.24-.82-1.06,0-1.83.25-2.31.74s-.76,1.36-.85,2.61h6.13Z"/><path class="cls-20" d="M475.84,442.41c.49-.84,1.15-1.5,1.97-1.98s1.71-.73,2.66-.73c1.66,0,2.94.24,3.86.73v-1.43c0-.68-.27-1.21-.82-1.59-.55-.38-1.32-.57-2.31-.57-1.06,0-2,.17-2.82.51-.82.34-1.45.86-1.88,1.54l-.3-.05.49-4c.61-.54,1.37-.96,2.28-1.26.91-.3,1.83-.45,2.77-.45,1.94,0,3.49.46,4.64,1.38s1.73,2.17,1.73,3.75v7.42l.27,4.02h-3.97l-.08-1.49c-.36.58-.92,1.04-1.69,1.39-.77.35-1.61.53-2.52.53-1.53,0-2.75-.44-3.66-1.32-.91-.88-1.36-2.09-1.36-3.62,0-1.03.25-1.96.74-2.79ZM479.46,446.38c.31.33.78.5,1.39.5.67,0,1.3-.13,1.9-.39.6-.26,1.13-.63,1.58-1.12v-1.84c-1.01-.49-2.14-.73-3.4-.73-.67,0-1.16.18-1.47.54-.32.36-.47.9-.47,1.62,0,.61.16,1.08.47,1.42Z"/><path class="cls-20" d="M501.58,433.71l-.62,3.32-.35.24c-.56-.36-1.36-.54-2.4-.54-.58,0-1.08.12-1.53.35-.44.23-.85.61-1.23,1.13v7.45l.27,4.05h-4.32l.27-4.05v-8.24l-.27-3.92h3.51l.46,1.7c.92-1.26,2.14-1.89,3.67-1.89,1.1,0,1.94.13,2.54.38Z"/><path class="cls-20" d="M524.8,449.72h-4.73l-.62-4.05v-.05l-6.91.05-.62,4.05h-4.19l1.32-4.05,3.32-12.15.81-4.05h5.97l.81,4.05,3.51,12.15,1.32,4.05ZM518.37,441.92l-2.46-8.64-2.35,8.67,4.81-.03Z"/><path class="cls-20" d="M538.72,435.25c.94,1.37,1.42,3.48,1.42,6.34,0,2.7-.51,4.77-1.53,6.2-1.02,1.43-2.47,2.15-4.36,2.15-.61,0-1.26-.16-1.94-.49-.68-.32-1.19-.73-1.51-1.22v2.83l.27,4.05h-4.32l.27-4.05v-13.53l-.27-4.02h3.7l.14.76c.43-.34.99-.61,1.69-.8.69-.19,1.44-.28,2.25-.28,1.85,0,3.25.68,4.2,2.05ZM535.25,445.87c.36-.28.62-.75.77-1.42.15-.67.23-1.62.23-2.86s-.08-2.27-.24-2.93c-.16-.66-.44-1.11-.84-1.36-.4-.25-.97-.38-1.73-.38-1.17,0-2.05.12-2.65.35v8.24c.31.22.74.4,1.31.55.57.15,1.1.23,1.61.23.67,0,1.18-.14,1.54-.42Z"/><path class="cls-20" d="M554.89,435.25c.94,1.37,1.42,3.48,1.42,6.34,0,2.7-.51,4.77-1.53,6.2-1.02,1.43-2.47,2.15-4.36,2.15-.61,0-1.26-.16-1.94-.49-.68-.32-1.19-.73-1.51-1.22v2.83l.27,4.05h-4.32l.27-4.05v-13.53l-.27-4.02h3.7l.14.76c.43-.34.99-.61,1.69-.8.69-.19,1.44-.28,2.25-.28,1.85,0,3.25.68,4.2,2.05ZM551.42,445.87c.36-.28.62-.75.77-1.42.15-.67.23-1.62.23-2.86s-.08-2.27-.24-2.93c-.16-.66-.44-1.11-.84-1.36-.4-.25-.97-.38-1.73-.38-1.17,0-2.05.12-2.65.35v8.24c.31.22.74.4,1.31.55.57.15,1.1.23,1.61.23.67,0,1.18-.14,1.54-.42Z"/><path class="cls-20" d="M560.33,447.91c-1.12-1.42-1.67-3.53-1.67-6.32s.59-4.81,1.77-6.29c1.18-1.48,2.91-2.21,5.2-2.21s3.92.57,5.01,1.7c1.09,1.13,1.72,2.92,1.9,5.37l-.73,2.83h-9.21c.07.88.24,1.56.51,2.02.27.47.66.79,1.17.97s1.23.27,2.15.27c1.21,0,2.28-.11,3.23-.32s1.59-.49,1.93-.84l.46.24-.84,3.29c-.68.52-1.46.89-2.32,1.09s-1.95.31-3.27.31c-2.41,0-4.18-.71-5.29-2.13ZM568.7,440.16c0-1.13-.24-1.98-.73-2.52-.49-.55-1.23-.82-2.24-.82-1.06,0-1.83.25-2.31.74s-.76,1.36-.85,2.61h6.13Z"/><path class="cls-20" d="M575.2,442.41c.49-.84,1.15-1.5,1.97-1.98s1.71-.73,2.66-.73c1.66,0,2.94.24,3.86.73v-1.43c0-.68-.27-1.21-.82-1.59-.55-.38-1.32-.57-2.31-.57-1.06,0-2,.17-2.82.51-.82.34-1.45.86-1.88,1.54l-.3-.05.49-4c.61-.54,1.37-.96,2.28-1.26.91-.3,1.83-.45,2.77-.45,1.94,0,3.49.46,4.64,1.38s1.73,2.17,1.73,3.75v7.42l.27,4.02h-3.97l-.08-1.49c-.36.58-.92,1.04-1.69,1.39-.77.35-1.61.53-2.52.53-1.53,0-2.75-.44-3.66-1.32-.91-.88-1.36-2.09-1.36-3.62,0-1.03.25-1.96.74-2.79ZM578.81,446.38c.31.33.78.5,1.39.5.67,0,1.3-.13,1.9-.39.6-.26,1.13-.63,1.58-1.12v-1.84c-1.01-.49-2.14-.73-3.4-.73-.67,0-1.16.18-1.47.54-.32.36-.47.9-.47,1.62,0,.61.16,1.08.47,1.42Z"/><path class="cls-20" d="M600.94,433.71l-.62,3.32-.35.24c-.56-.36-1.36-.54-2.4-.54-.58,0-1.08.12-1.53.35-.44.23-.85.61-1.23,1.13v7.45l.27,4.05h-4.32l.27-4.05v-8.24l-.27-3.92h3.51l.46,1.7c.92-1.26,2.14-1.89,3.67-1.89,1.1,0,1.94.13,2.54.38Z"/><path class="cls-20" d="M602.65,442.41c.49-.84,1.15-1.5,1.97-1.98s1.71-.73,2.66-.73c1.66,0,2.94.24,3.86.73v-1.43c0-.68-.27-1.21-.82-1.59-.55-.38-1.32-.57-2.31-.57-1.06,0-2,.17-2.82.51-.82.34-1.45.86-1.88,1.54l-.3-.05.49-4c.61-.54,1.37-.96,2.28-1.26.91-.3,1.83-.45,2.77-.45,1.94,0,3.49.46,4.64,1.38s1.73,2.17,1.73,3.75v7.42l.27,4.02h-3.97l-.08-1.49c-.36.58-.92,1.04-1.69,1.39-.77.35-1.61.53-2.52.53-1.53,0-2.75-.44-3.66-1.32-.91-.88-1.36-2.09-1.36-3.62,0-1.03.25-1.96.74-2.79ZM606.27,446.38c.31.33.78.5,1.39.5.67,0,1.3-.13,1.9-.39.6-.26,1.13-.63,1.58-1.12v-1.84c-1.01-.49-2.14-.73-3.4-.73-.67,0-1.16.18-1.47.54-.32.36-.47.9-.47,1.62,0,.61.16,1.08.47,1.42Z"/><path class="cls-20" d="M627,445.67v-6.94c0-.59-.17-1.07-.5-1.42-.33-.35-.78-.53-1.34-.53-1.13,0-2.1.61-2.89,1.84v7.05l.27,4.05h-4.32l.27-4.05v-8.24l-.27-3.92h3.51l.54,1.97c.95-1.44,2.43-2.16,4.43-2.16,1.26,0,2.25.4,2.98,1.19.73.79,1.09,1.95,1.09,3.48v7.67l.27,4.05h-4.32l.27-4.05Z"/><path class="cls-20" d="M635.26,448.03c-1.08-1.41-1.62-3.5-1.62-6.28s.56-4.82,1.69-6.32,2.79-2.24,5.01-2.24c1.22,0,2.17.09,2.85.28.67.19,1.33.53,1.96,1.01l-.59,3.38-.43.19c-.42-.41-.86-.71-1.35-.88-.49-.17-1.16-.26-2.02-.26-1.17,0-2,.37-2.48,1.12-.49.75-.73,1.98-.73,3.71,0,1.24.1,2.19.3,2.83.2.65.55,1.11,1.07,1.38.51.27,1.26.41,2.25.41.94,0,1.68-.09,2.24-.27.56-.18,1.05-.48,1.49-.89l.46.22-.84,3.32c-.7.56-1.33.93-1.88,1.12-.55.19-1.31.28-2.28.28-2.3,0-4-.71-5.08-2.12Z"/><path class="cls-20" d="M648.76,447.91c-1.12-1.42-1.67-3.53-1.67-6.32s.59-4.81,1.77-6.29c1.18-1.48,2.91-2.21,5.2-2.21s3.92.57,5.01,1.7c1.09,1.13,1.72,2.92,1.9,5.37l-.73,2.83h-9.21c.07.88.24,1.56.51,2.02.27.47.66.79,1.17.97s1.23.27,2.15.27c1.21,0,2.28-.11,3.23-.32s1.59-.49,1.93-.84l.46.24-.84,3.29c-.68.52-1.46.89-2.32,1.09s-1.95.31-3.27.31c-2.41,0-4.18-.71-5.29-2.13ZM657.13,440.16c0-1.13-.24-1.98-.73-2.52-.49-.55-1.23-.82-2.24-.82-1.06,0-1.83.25-2.31.74s-.76,1.36-.85,2.61h6.13Z"/><path class="cls-3" d="M200.3,381.31h13.43v-33.08c0-3.31,2.69-6,6-6h11.73"/><path class="cls-3" d="M229.17,420.39h-9.43c-3.31,0-6-2.69-6-6v-33.08"/><line class="cls-3" x1="217.04" y1="381.31" x2="231.63" y2="381.31"/><path class="cls-3" d="M328.31,338.99h9.14c3.31,0,6-2.69,6-6v-24.56"/><path class="cls-3" d="M274.84,381.31h95.56c3.31,0,6-2.69,6-6v-66.88"/><path class="cls-3" d="M335.33,420.39h68.01c3.31,0,6-2.69,6-6v-105.96"/><line class="cls-3" x1="548.43" y1="308.43" x2="548.43" y2="422.41"/><path class="cls-3" d="M580.95,308.43v65.84c0,3.31,2.69,6,6,6h8.67"/><path class="cls-3" d="M612.77,308.43v27.93c0,3.31,2.69,6,6,6h10.87"/><path class="cls-20" d="M770.86,371.35c-1.11-.44-2.07-1.08-2.88-1.9l-.57-3.81.38-.11c1.01.86,2.02,1.53,3.05,1.98,1.03.46,2.02.69,2.97.69,1.13,0,2.01-.18,2.63-.53.62-.35.93-.85.93-1.5,0-.61-.29-1.11-.88-1.5s-1.63-.81-3.15-1.26c-1.42-.41-2.54-.87-3.35-1.38-.81-.5-1.4-1.13-1.75-1.89-.36-.76-.54-1.74-.54-2.94,0-1.89.62-3.37,1.85-4.43,1.23-1.06,2.86-1.59,4.87-1.59,1.22,0,2.4.19,3.54.57s2.05.88,2.75,1.51l-.59,3.65-.41.11c-.38-.59-1.03-1.08-1.96-1.46-.93-.38-1.92-.57-2.98-.57-.97,0-1.72.17-2.24.51-.52.34-.78.85-.78,1.51s.26,1.21.77,1.58c.51.37,1.44.74,2.79,1.12,1.55.43,2.75.9,3.62,1.39s1.49,1.11,1.89,1.85c.4.74.59,1.68.59,2.83,0,1.96-.65,3.49-1.94,4.58-1.3,1.09-3.01,1.63-5.16,1.63-1.21,0-2.36-.22-3.47-.66Z"/><path class="cls-20" d="M785.21,369.9c-1.12-1.42-1.67-3.53-1.67-6.32s.59-4.82,1.77-6.29,2.91-2.21,5.2-2.21,3.92.57,5.01,1.7c1.09,1.13,1.72,2.93,1.9,5.37l-.73,2.84h-9.21c.07.88.24,1.56.51,2.02.27.47.66.79,1.17.97s1.23.27,2.15.27c1.21,0,2.28-.11,3.23-.32s1.59-.49,1.93-.84l.46.24-.84,3.29c-.68.52-1.46.89-2.32,1.09s-1.95.31-3.27.31c-2.41,0-4.18-.71-5.29-2.13ZM793.58,362.15c0-1.13-.24-1.97-.73-2.52-.49-.55-1.23-.82-2.24-.82-1.06,0-1.83.25-2.31.74-.48.5-.76,1.36-.85,2.61h6.13Z"/><path class="cls-20" d="M800.2,367.66v-13.64l-.27-3.92h4.32l-.27,3.92v13.64l.27,4.05h-4.32l.27-4.05Z"/><path class="cls-20" d="M808.7,369.9c-1.12-1.42-1.67-3.53-1.67-6.32s.59-4.82,1.77-6.29,2.91-2.21,5.2-2.21,3.92.57,5.01,1.7c1.09,1.13,1.72,2.93,1.9,5.37l-.73,2.84h-9.21c.07.88.24,1.56.51,2.02.27.47.66.79,1.17.97s1.23.27,2.15.27c1.21,0,2.28-.11,3.23-.32s1.59-.49,1.93-.84l.46.24-.84,3.29c-.68.52-1.46.89-2.32,1.09s-1.95.31-3.27.31c-2.41,0-4.18-.71-5.29-2.13ZM817.07,362.15c0-1.13-.24-1.97-.73-2.52-.49-.55-1.23-.82-2.24-.82-1.06,0-1.83.25-2.31.74-.48.5-.76,1.36-.85,2.61h6.13Z"/><path class="cls-20" d="M824.61,370.02c-1.08-1.41-1.62-3.5-1.62-6.28s.56-4.82,1.69-6.32,2.79-2.24,5.01-2.24c1.22,0,2.17.09,2.85.28.67.19,1.33.53,1.96,1.01l-.59,3.38-.43.19c-.42-.41-.86-.71-1.35-.88-.49-.17-1.16-.26-2.02-.26-1.17,0-2,.37-2.48,1.12s-.73,1.98-.73,3.71c0,1.24.1,2.19.3,2.83.2.65.55,1.11,1.07,1.38.51.27,1.26.41,2.25.41.94,0,1.68-.09,2.24-.27.56-.18,1.05-.48,1.49-.89l.46.22-.84,3.32c-.7.56-1.33.93-1.88,1.12-.55.19-1.31.28-2.28.28-2.3,0-4-.71-5.08-2.12Z"/><path class="cls-20" d="M836.32,356.59l1.73-1.08.81-3.38h2.97v3.38h4.27v3.64h-4.27v7.13c0,.63.14,1.12.42,1.46s.69.51,1.23.51c.58,0,1.1-.11,1.58-.32.48-.22.87-.51,1.17-.89l.57.27-.84,3.32c-.74.56-1.35.93-1.82,1.12-.48.19-1.06.28-1.74.28-1.04,0-1.88-.21-2.51-.63s-1.09-1.11-1.39-2.05c-.3-.95-.45-2.24-.45-3.88v-6.32h-1.73v-2.56Z"/><path class="cls-20" d="M850.26,369.9c-1.12-1.42-1.67-3.53-1.67-6.32s.59-4.82,1.77-6.29,2.91-2.21,5.2-2.21,3.92.57,5.01,1.7c1.09,1.13,1.72,2.93,1.9,5.37l-.73,2.84h-9.21c.07.88.24,1.56.51,2.02.27.47.66.79,1.17.97s1.23.27,2.15.27c1.21,0,2.28-.11,3.23-.32s1.59-.49,1.93-.84l.46.24-.84,3.29c-.68.52-1.46.89-2.32,1.09s-1.95.31-3.27.31c-2.41,0-4.18-.71-5.29-2.13ZM858.63,362.15c0-1.13-.24-1.97-.73-2.52-.49-.55-1.23-.82-2.24-.82-1.06,0-1.83.25-2.31.74-.48.5-.76,1.36-.85,2.61h6.13Z"/><path class="cls-20" d="M877.66,367.69l.27,4.02h-3.97l-.08-1.46c-.34.49-.85.89-1.53,1.2-.67.32-1.32.47-1.93.47-1.89,0-3.34-.71-4.36-2.15-1.02-1.43-1.53-3.5-1.53-6.2,0-2.86.47-4.98,1.42-6.35.94-1.37,2.34-2.05,4.2-2.05.74,0,1.43.08,2.08.24s1.2.39,1.65.67v-2.08l-.27-3.92h4.32l-.27,3.92v13.66ZM873.88,359.26c-.59-.23-1.48-.35-2.65-.35-.76,0-1.33.13-1.73.38-.4.25-.68.71-.84,1.36-.16.66-.24,1.63-.24,2.93s.08,2.2.23,2.86c.15.67.41,1.14.77,1.42.36.28.87.42,1.54.42.5,0,1.04-.08,1.61-.23.57-.15,1-.34,1.31-.55v-8.24Z"/><path class="cls-20" d="M887.19,367.66v-12.29l-.27-3.92h4.43l-.27,3.92v12.29l.27,4.05h-4.43l.27-4.05Z"/><path class="cls-20" d="M894.16,356.59l1.73-1.08.81-3.38h2.97v3.38h4.27v3.64h-4.27v7.13c0,.63.14,1.12.42,1.46s.69.51,1.23.51c.58,0,1.1-.11,1.58-.32.48-.22.87-.51,1.17-.89l.57.27-.84,3.32c-.74.56-1.35.93-1.82,1.12-.48.19-1.06.28-1.74.28-1.04,0-1.88-.21-2.51-.63s-1.09-1.11-1.39-2.05c-.3-.95-.45-2.24-.45-3.88v-6.32h-1.73v-2.56Z"/><path class="cls-20" d="M908.09,369.9c-1.12-1.42-1.67-3.53-1.67-6.32s.59-4.82,1.77-6.29,2.91-2.21,5.2-2.21,3.92.57,5.01,1.7c1.09,1.13,1.72,2.93,1.9,5.37l-.73,2.84h-9.21c.07.88.24,1.56.51,2.02.27.47.66.79,1.17.97s1.23.27,2.15.27c1.21,0,2.28-.11,3.23-.32s1.59-.49,1.93-.84l.46.24-.84,3.29c-.68.52-1.46.89-2.32,1.09s-1.95.31-3.27.31c-2.41,0-4.18-.71-5.29-2.13ZM916.46,362.15c0-1.13-.24-1.97-.73-2.52-.49-.55-1.23-.82-2.24-.82-1.06,0-1.83.25-2.31.74-.48.5-.76,1.36-.85,2.61h6.13Z"/><path class="cls-20" d="M939,367.66v-6.94c0-.59-.17-1.07-.5-1.42-.33-.35-.78-.53-1.34-.53-.9,0-1.68.38-2.35,1.13v7.75l.27,4.05h-4.32l.27-4.05v-6.94c0-.59-.17-1.07-.5-1.42-.33-.35-.78-.53-1.34-.53-.9,0-1.68.38-2.35,1.13v7.75l.27,4.05h-4.32l.27-4.05v-8.24l-.27-3.92h3.51l.43,1.62c.99-1.21,2.32-1.81,4-1.81.86,0,1.61.19,2.24.57s1.1.94,1.4,1.67c1.01-1.49,2.45-2.24,4.32-2.24,1.26,0,2.25.4,2.98,1.19.73.79,1.09,1.95,1.09,3.48v7.67l.27,4.05h-4.32l.27-4.05Z"/><path class="cls-3" d="M730.02,342.36h9.54c3.31,0,6,2.69,6,6v25.92c0,3.31-2.69,6-6,6h-9.52"/><line class="cls-3" x1="745.57" y1="361.31" x2="758.98" y2="361.31"/><path class="cls-3" d="M624.55,87.77h19.55c3.31,0,6-2.69,6-6v-11.45c0-3.31,2.69-6,6-6h8.52"/><path class="cls-3" d="M282.41,180.27h15.21c3.31,0,6-2.69,6-6v-45.47c0-3.31,2.69-6,6-6h17.62"/><line class="cls-3" x1="624.21" y1="191.57" x2="664.61" y2="191.57"/></svg>