<?xml version="1.0" encoding="UTF-8"?><svg id="Layer_11" xmlns="http://www.w3.org/2000/svg" xmlns:xlink="http://www.w3.org/1999/xlink" viewBox="0 0 960 319.28"><defs><style>.cls-1,.cls-2,.cls-3,.cls-4,.cls-5,.cls-6,.cls-7,.cls-8,.cls-9,.cls-10,.cls-11,.cls-12{fill:none;}.cls-2{stroke:#1d1d1b;}.cls-3,.cls-13,.cls-14,.cls-4,.cls-15,.cls-16,.cls-5,.cls-6,.cls-17,.cls-18,.cls-8,.cls-9,.cls-10,.cls-12{stroke-miterlimit:10;}.cls-3,.cls-15,.cls-7,.cls-18,.cls-9,.cls-12{stroke:#b3b3b3;}.cls-19{fill:#0064ff;}.cls-20{fill:#e6e6e6;}.cls-21{fill:#e6e6e6;}.cls-13,.cls-14,.cls-5,.cls-17{stroke:#1a1a1a;}.cls-13,.cls-15,.cls-18,.cls-22{fill:#4d4d4d;}.cls-14{fill:#1a1a1a;}.cls-4{stroke-dasharray:1 2;}.cls-4,.cls-6,.cls-8{stroke:#e6e6e6;}.cls-23{fill:#ccc;}.cls-15,.cls-7,.cls-12{stroke-width:.75px;}.cls-24{fill:#b3b3b3;}.cls-16{stroke:#000;}.cls-16,.cls-25{fill:#fff;}.cls-26{fill:#666;}.cls-17,.cls-27{fill:#333;}.cls-28{opacity:.5;}.cls-29{fill:#f7f7f7;}.cls-7{stroke-dasharray:3 2;}.cls-30{fill:#f5f5f5;}.cls-18{stroke-width:2.5px;}.cls-8{stroke-width:1.25px;}.cls-9{stroke-width:2px;}.cls-10{stroke:#666;}.cls-11{stroke:#e20613;}</style><symbol id="appearance" viewBox="0 0 22.99 22.99"><circle class="cls-24" cx="11.49" cy="11.49" r="8.12"/><path class="cls-7" d="M11.5,22.61C5.36,22.61.38,17.63.38,11.49S5.36.38,11.5.38s11.12,4.99,11.12,11.12-4.99,11.12-11.12,11.12Z"/></symbol><symbol id="appearance-bottom-bar" viewBox="0 0 285.56 20.02"><rect class="cls-9" x="1" y="2" width="15.01" height="15.01"/><rect class="cls-24" x="34.94" y="3" width="13.01" height="13.01"/><path class="cls-22" d="M46.95,4v11.01h-11.01V4h11.01M48.95,2h-15.01v15.01h15.01V2h0Z"/><rect class="cls-3" x="33.94" y="2" width="15.01" height="15.01"/><use width="14.85" height="19.67" transform="translate(66.54 .35)" xlink:href="#fx-icon"/><use width="19" height="19" transform="translate(203.98)" xlink:href="#stop-icon"/><rect class="cls-3" x="238.19" y="1.72" width="15.62" height="15.62"/><use width="15.49" height="17.31" transform="translate(270.08 .18)" xlink:href="#trash-icon"/><line class="cls-3" x1="246" y1="6.57" x2="246" y2="12.48"/><line class="cls-3" x1="248.96" y1="9.53" x2="243.05" y2="9.53"/></symbol><symbol id="appearance-styles-nav" viewBox="0 0 49.94 111.88"><rect class="cls-13" x=".5" y="17.52" width="48.94" height="93.86"/><rect class="cls-27" x="4.97" y="27.81" width="40" height="31" rx="2" ry="2"/><rect class="cls-10" x="4.97" y="27.81" width="40" height="31" rx="2" ry="2"/><use width="22.99" height="22.99" transform="translate(13.48 31.81)" xlink:href="#appearance"/><rect class="cls-1" x="4.97" y="71.07" width="40" height="31"/><use width="23.75" height="24.62" transform="translate(13.1 74.7)" xlink:href="#styles"/><use width="27.88" height="3" transform="translate(11.03 21.59)" xlink:href="#drag-indicator"/><use width="49.94" height="18.02" xlink:href="#panel-top-bar"/></symbol><symbol id="drag-indicator" viewBox="0 0 27.88 3"><line class="cls-13" x1=".5" x2=".5" y2="3"/><line class="cls-13" x1="3.49" x2="3.49" y2="3"/><line class="cls-13" x1="6.47" x2="6.47" y2="3"/><line class="cls-13" x1="9.46" x2="9.46" y2="3"/><line class="cls-13" x1="12.45" x2="12.45" y2="3"/><line class="cls-13" x1="15.44" x2="15.44" y2="3"/><line class="cls-13" x1="18.42" x2="18.42" y2="3"/><line class="cls-13" x1="21.41" x2="21.41" y2="3"/><line class="cls-13" x1="24.4" x2="24.4" y2="3"/><line class="cls-13" x1="27.38" x2="27.38" y2="3"/></symbol><symbol id="eye" viewBox="0 0 20.96 12.42"><path class="cls-23" d="M10.48,0C4.69,0,0,6.21,0,6.21c0,0,4.69,6.21,10.48,6.21s10.48-6.21,10.48-6.21c0,0-4.69-6.21-10.48-6.21ZM10.48,11.02c-2.66,0-4.81-2.16-4.81-4.81S7.82,1.39,10.48,1.39s4.81,2.16,4.81,4.81-2.16,4.81-4.81,4.81Z"/><circle class="cls-23" cx="10.48" cy="6.21" r="2.63"/></symbol><symbol id="fx-icon" viewBox="0 0 14.85 19.67"><path class="cls-20" d="M.72,15.07l1.43-7.54H.98l.23-1.17h1.16l.08-.46c.21-1.21.65-2.33,1.43-3.04.55-.5,1.31-.77,2.07-.77.6,0,.99.12,1.2.23l-.32,1.2c-.23-.11-.54-.17-.87-.17-1.19,0-1.76,1.16-2.02,2.6l-.08.42h1.94l-.23,1.17h-1.94l-1.43,7.54H.72Z"/><path class="cls-20" d="M7.84,6.36l.85,1.9c.25.56.41.99.58,1.39h.05c.33-.48.53-.79.95-1.32l1.61-1.97h1.72l-3.67,4.24,2.06,4.47h-1.63l-.88-1.97c-.3-.65-.42-.98-.63-1.55h-.05c-.26.42-.52.82-.89,1.33l-1.76,2.19h-1.73l3.82-4.48-2.02-4.22h1.62Z"/><line class="cls-8" x1=".12" y1="6.88" x2="8.03" y2="6.88"/><polygon class="cls-20" points="12.52 15.07 14.85 15.07 13.68 16.65 12.52 15.07"/></symbol><symbol id="opacity-default" viewBox="0 0 120.99 19.67"><path class="cls-20" d="M67.22,3.1c.96-.16,2.1-.26,3.33-.26,2.25,0,3.85.53,4.92,1.52,1.08.98,1.72,2.39,1.72,4.34s-.62,3.6-1.75,4.72c-1.15,1.13-3.02,1.75-5.37,1.75-1.12,0-2.05-.04-2.85-.14V3.1ZM68.79,13.83c.4.06.98.07,1.58.07,3.36,0,5.17-1.86,5.17-5.14.02-2.87-1.6-4.67-4.91-4.67-.81,0-1.42.08-1.84.16v9.59Z"/><path class="cls-20" d="M80.12,11c.03,2.14,1.39,3.02,2.98,3.02,1.13,0,1.83-.2,2.41-.45l.28,1.12c-.55.25-1.52.56-2.91.56-2.68,0-4.28-1.78-4.28-4.39s1.55-4.7,4.1-4.7c2.84,0,3.58,2.49,3.58,4.1,0,.33-.02.57-.05.74h-6.11ZM84.75,9.86c.02-1-.41-2.56-2.18-2.56-1.62,0-2.3,1.46-2.43,2.56h4.62Z"/><path class="cls-20" d="M88.4,15.07v-7.51h-1.22v-1.2h1.22v-.42c0-1.23.28-2.34,1.01-3.05.59-.57,1.39-.8,2.12-.8.57,0,1.05.12,1.35.26l-.21,1.22c-.24-.11-.55-.2-1.02-.2-1.34,0-1.69,1.19-1.69,2.53v.47h2.1v1.2h-2.1v7.51h-1.58Z"/><path class="cls-20" d="M98.33,15.07l-.14-1.1h-.05c-.48.68-1.42,1.3-2.66,1.3-1.76,0-2.66-1.25-2.66-2.5,0-2.11,1.87-3.27,5.23-3.24v-.19c0-.71-.2-2.02-1.98-2.01-.81,0-1.66.24-2.27.65l-.36-1.05c.72-.47,1.78-.76,2.87-.76,2.66,0,3.31,1.82,3.31,3.56v3.26c0,.74.03,1.49.13,2.08h-1.43ZM98.09,10.62c-1.71-.04-3.68.27-3.68,1.96,0,1.04.68,1.52,1.48,1.52,1.15,0,1.87-.72,2.12-1.46.05-.17.08-.35.08-.5v-1.51Z"/><path class="cls-20" d="M109.46,12.68c0,.91.03,1.69.07,2.38h-1.4l-.08-1.42h-.04c-.4.7-1.32,1.62-2.88,1.62-1.36,0-3-.76-3-3.82v-5.09h1.58v4.81c0,1.66.52,2.79,1.95,2.79,1.06,0,1.8-.74,2.1-1.45.08-.23.14-.51.14-.81v-5.33h1.58v6.32Z"/><path class="cls-20" d="M112.1,2.28h1.58v12.78h-1.58V2.28Z"/><path class="cls-20" d="M118.25,3.85v2.51h2.28v1.2h-2.28v4.69c0,1.08.31,1.7,1.2,1.7.41,0,.71-.05.92-.11l.07,1.2c-.31.12-.8.22-1.41.22-.73,0-1.33-.24-1.71-.67-.44-.48-.61-1.25-.61-2.27v-4.75h-1.35v-1.2h1.35v-2.1l1.55-.41Z"/><line class="cls-4" x1=".76" y1="18.58" x2="63.34" y2="18.58"/><path class="cls-29" d="M11.74,8.88c0,4.16-2.54,6.39-5.63,6.39S.66,12.77.66,9.1,3.04,2.73,6.28,2.73s5.47,2.54,5.47,6.14ZM2.31,9.07c0,2.6,1.41,4.92,3.88,4.92s3.89-2.29,3.89-5.04c0-2.42-1.26-4.94-3.87-4.94s-3.9,2.41-3.9,5.06Z"/><path class="cls-29" d="M13.75,9.19c0-1.11-.03-2.01-.07-2.84h1.42l.09,1.48h.04c.63-1.06,1.68-1.68,3.09-1.68,2.11,0,3.7,1.78,3.7,4.42,0,3.14-1.92,4.69-3.96,4.69-1.16,0-2.17-.51-2.68-1.37h-.04v4.74h-1.57v-9.44ZM15.33,11.52c0,.22.02.44.07.64.28,1.11,1.24,1.86,2.37,1.86,1.68,0,2.65-1.38,2.65-3.37,0-1.74-.91-3.23-2.59-3.23-1.08,0-2.1.76-2.4,1.95-.05.2-.1.44-.1.64v1.51Z"/><path class="cls-29" d="M28.83,15.07l-.14-1.1h-.05c-.48.68-1.42,1.3-2.66,1.3-1.76,0-2.66-1.25-2.66-2.5,0-2.11,1.87-3.27,5.23-3.24v-.19c0-.71-.2-2.02-1.98-2.01-.81,0-1.66.24-2.27.65l-.36-1.05c.72-.47,1.78-.76,2.87-.76,2.66,0,3.31,1.82,3.31,3.56v3.26c0,.74.03,1.49.13,2.08h-1.43ZM28.58,10.62c-1.71-.04-3.68.27-3.68,1.96,0,1.04.68,1.52,1.48,1.52,1.15,0,1.87-.72,2.12-1.46.06-.17.08-.35.08-.5v-1.51Z"/><path class="cls-29" d="M38.88,14.75c-.42.2-1.33.5-2.5.5-2.63,0-4.35-1.79-4.35-4.45s1.83-4.64,4.68-4.64c.93,0,1.77.24,2.2.46l-.35,1.22c-.39-.21-.98-.42-1.85-.42-1.99,0-3.08,1.49-3.07,3.3,0,2.02,1.3,3.26,3.03,3.26.89,0,1.49-.22,1.94-.42l.27,1.19Z"/><path class="cls-29" d="M42.51,3.9c0,.54-.38.98-1.01.98-.57,0-.96-.45-.96-.98,0-.54.41-.99.99-.99s.97.43.98.99ZM40.74,15.07V6.36h1.58v8.71h-1.58Z"/><path class="cls-29" d="M46.85,3.85v2.51h2.28v1.2h-2.28v4.69c0,1.08.31,1.7,1.2,1.7.41,0,.71-.05.92-.11l.07,1.2c-.31.12-.8.22-1.42.22-.73,0-1.33-.24-1.71-.67-.44-.48-.61-1.25-.61-2.27v-4.75h-1.35v-1.2h1.35v-2.1l1.55-.41Z"/><path class="cls-29" d="M51.64,6.36l1.9,5.15c.21.58.42,1.26.56,1.78h.04c.16-.51.35-1.18.56-1.81l1.72-5.11h1.68l-2.38,6.2c-1.13,2.99-1.9,4.52-2.98,5.46-.78.68-1.55.95-1.94,1.02l-.39-1.32c.4-.13.91-.37,1.39-.77.43-.35.96-.96,1.32-1.76.08-.17.12-.28.12-.38,0-.09-.03-.21-.11-.41l-3.21-8.03h1.72Z"/><path class="cls-29" d="M59.61,7.78c0-.66.44-1.14,1.07-1.14s1.06.47,1.06,1.14c0,.63-.42,1.12-1.07,1.12s-1.07-.49-1.06-1.12ZM59.61,14.14c0-.66.44-1.14,1.07-1.14s1.06.47,1.06,1.14c0,.63-.42,1.12-1.07,1.12s-1.07-.49-1.06-1.12Z"/></symbol><symbol id="panel-top-bar" viewBox="0 0 49.94 18.02"><path class="cls-17" d="M5.83.5h38.27c2.94,0,5.33,2.39,5.33,5.33v11.68H.5V5.83C.5,2.89,2.89.5,5.83.5Z"/><polyline class="cls-3" points="36.41 6.38 39.13 9.1 36.59 11.64"/><polyline class="cls-3" points="40.74 6.38 43.46 9.1 40.92 11.64"/><line class="cls-3" x1="5.54" y1="5.35" x2="12.54" y2="12.35"/><line class="cls-3" x1="12.54" y1="5.35" x2="5.54" y2="12.35"/></symbol><symbol id="stop-icon" viewBox="0 0 19 19"><circle class="cls-9" cx="9.5" cy="9.5" r="8.5"/><line class="cls-9" x1="3.6" y1="3.6" x2="15.4" y2="15.4"/></symbol><symbol id="styles" viewBox="0 0 23.75 24.62"><rect class="cls-12" x="3.38" y=".38" width="20" height="20"/><rect class="cls-18" x="3.38" y="17.38" width="6" height="6"/><rect class="cls-15" x=".38" y="14.38" width="6" height="6"/></symbol><symbol id="trash-icon" viewBox="0 0 15.49 17.31"><path class="cls-3" d="M1.57,2.88h12.34v12.43c0,.83-.67,1.51-1.51,1.51H3.08c-.83,0-1.51-.67-1.51-1.51V2.88h0Z"/><line class="cls-3" y1="2.88" x2="15.49" y2="2.88"/><line class="cls-3" x1="4.59" y1="4.89" x2="4.59" y2="14.79"/><line class="cls-3" x1="7.74" y1="4.89" x2="7.74" y2="14.79"/><line class="cls-3" x1="10.89" y1="4.89" x2="10.89" y2="14.79"/><path class="cls-3" d="M5.95.5h3.58c.75,0,1.36.61,1.36,1.36v1.02h-6.3v-1.02c0-.75.61-1.36,1.36-1.36Z"/></symbol></defs><rect class="cls-17" x="317.41" y="22.84" width="328.06" height="37.41"/><polygon class="cls-22" points="426.63 60.25 426.63 22.84 317.41 22.84 317.41 60.25 317.41 318.53 645.47 318.53 645.47 60.25 426.63 60.25"/><polygon class="cls-5" points="426.63 60.25 426.63 22.84 317.41 22.84 317.41 60.25 317.41 318.53 645.47 318.53 645.47 60.25 426.63 60.25"/><line class="cls-16" x1="360.13" y1="104.07" x2="360.13" y2="279.07"/><path class="cls-21" d="M328.83,44.08l-1.04,3.43h-2.29l3.89-12.14h2.82l3.94,12.14h-2.38l-1.1-3.43h-3.86ZM332.32,42.41l-.96-2.99c-.23-.75-.43-1.58-.62-2.28h-.04c-.18.71-.36,1.55-.58,2.27l-.94,3h3.13Z"/><path class="cls-21" d="M337.68,41.65c0-1.14-.03-2.08-.07-2.91h1.95l.11,1.35h.04c.64-.99,1.67-1.54,3-1.54,2.01,0,3.68,1.72,3.68,4.46,0,3.18-1.99,4.7-3.99,4.7-1.1,0-2.02-.46-2.46-1.17h-.04v4.54h-2.21v-9.43ZM339.9,43.84c0,.21.02.42.06.6.23.9,1,1.55,1.95,1.55,1.41,0,2.23-1.17,2.23-2.89,0-1.55-.75-2.81-2.18-2.81-.91,0-1.75.67-1.98,1.64-.05.18-.08.37-.08.56v1.35Z"/><path class="cls-21" d="M348.21,41.65c0-1.14-.03-2.08-.07-2.91h1.95l.11,1.35h.04c.64-.99,1.67-1.54,3-1.54,2.01,0,3.68,1.72,3.68,4.46,0,3.18-1.99,4.7-3.99,4.7-1.1,0-2.02-.46-2.46-1.17h-.04v4.54h-2.22v-9.43ZM350.43,43.84c0,.21.02.42.06.6.23.9,1.01,1.55,1.95,1.55,1.41,0,2.23-1.17,2.23-2.89,0-1.55-.75-2.81-2.18-2.81-.91,0-1.75.67-1.98,1.64-.05.18-.08.37-.08.56v1.35Z"/><path class="cls-21" d="M360.34,43.74c.06,1.59,1.29,2.28,2.71,2.28,1.02,0,1.75-.16,2.42-.41l.33,1.53c-.75.32-1.79.56-3.06.56-2.85,0-4.51-1.76-4.51-4.44,0-2.42,1.47-4.71,4.29-4.71s3.78,2.34,3.78,4.26c0,.41-.04.74-.08.93h-5.86ZM364.19,42.2c0-.81-.34-2.14-1.83-2.14-1.36,0-1.93,1.24-2.03,2.14h3.86Z"/><path class="cls-21" d="M373,47.51l-.15-.98h-.05c-.53.69-1.45,1.17-2.58,1.17-1.78,0-2.76-1.27-2.76-2.61,0-2.21,1.97-3.33,5.2-3.32v-.15c0-.58-.23-1.53-1.78-1.53-.86,0-1.76.28-2.36.65l-.44-1.44c.66-.4,1.8-.78,3.18-.78,2.81,0,3.61,1.77,3.61,3.7v3.16c0,.8.04,1.57.14,2.11h-2ZM372.71,43.22c-1.56-.02-3.06.31-3.06,1.64,0,.86.56,1.26,1.26,1.26.88,0,1.52-.57,1.73-1.21.05-.15.06-.33.06-.48v-1.21Z"/><path class="cls-21" d="M377.21,41.57c0-1.17-.02-2.04-.07-2.82h1.92l.08,1.67h.06c.43-1.23,1.45-1.86,2.4-1.86.22,0,.34,0,.52.05v2.09c-.19-.04-.38-.06-.65-.06-1.06,0-1.79.67-1.99,1.68-.04.2-.06.43-.06.67v4.55h-2.22v-5.95Z"/><path class="cls-21" d="M388.39,47.51l-.15-.98h-.05c-.53.69-1.45,1.17-2.58,1.17-1.78,0-2.76-1.27-2.76-2.61,0-2.21,1.97-3.33,5.2-3.32v-.15c0-.58-.23-1.53-1.78-1.53-.86,0-1.76.28-2.36.65l-.44-1.44c.66-.4,1.8-.78,3.18-.78,2.81,0,3.61,1.77,3.61,3.7v3.16c0,.8.04,1.57.14,2.11h-2ZM388.1,43.22c-1.56-.02-3.06.31-3.06,1.64,0,.86.56,1.26,1.26,1.26.88,0,1.52-.57,1.73-1.21.05-.15.06-.33.06-.48v-1.21Z"/><path class="cls-21" d="M392.6,41.35c0-1.01-.03-1.85-.07-2.61h1.94l.11,1.32h.05c.39-.68,1.34-1.51,2.79-1.51,1.53,0,3.12.98,3.12,3.76v5.21h-2.22v-4.95c0-1.26-.46-2.22-1.67-2.22-.88,0-1.49.62-1.72,1.3-.07.18-.1.45-.1.7v5.16h-2.22v-6.16Z"/><path class="cls-21" d="M409.33,47.25c-.46.22-1.37.45-2.47.45-2.75,0-4.52-1.76-4.52-4.48s1.79-4.66,4.88-4.66c.82,0,1.63.18,2.14.4l-.39,1.67c-.36-.17-.89-.34-1.68-.34-1.69,0-2.69,1.24-2.68,2.84,0,1.8,1.18,2.83,2.69,2.83.76,0,1.31-.16,1.74-.35l.3,1.65Z"/><path class="cls-21" d="M412.38,43.74c.06,1.59,1.29,2.28,2.71,2.28,1.02,0,1.75-.16,2.42-.41l.33,1.53c-.75.32-1.79.56-3.06.56-2.85,0-4.51-1.76-4.51-4.44,0-2.42,1.47-4.71,4.29-4.71s3.78,2.34,3.78,4.26c0,.41-.04.74-.08.93h-5.86ZM416.23,42.2c0-.81-.34-2.14-1.83-2.14-1.36,0-1.93,1.24-2.03,2.14h3.86Z"/><path class="cls-26" d="M449.6,46.96c-.78.28-2.29.68-3.91.68-2.05,0-3.61-.51-4.76-1.62-1.08-1.03-1.71-2.63-1.7-4.46,0-3.85,2.75-6.3,6.76-6.3,1.49,0,2.66.3,3.22.57l-.49,1.78c-.66-.29-1.47-.52-2.76-.52-2.58,0-4.41,1.53-4.41,4.35s1.7,4.39,4.21,4.39c.8,0,1.39-.1,1.68-.24v-3.03h-2.14v-1.74h4.29v6.14Z"/><path class="cls-26" d="M451.83,41.57c0-1.17-.02-2.04-.07-2.82h1.92l.08,1.67h.06c.43-1.23,1.45-1.86,2.4-1.86.22,0,.34,0,.52.05v2.09c-.19-.04-.38-.06-.65-.06-1.06,0-1.79.67-1.99,1.68-.04.2-.06.43-.06.67v4.55h-2.22v-5.95Z"/><path class="cls-26" d="M463.01,47.51l-.15-.98h-.05c-.53.69-1.45,1.17-2.58,1.17-1.78,0-2.76-1.27-2.76-2.61,0-2.21,1.97-3.33,5.2-3.32v-.15c0-.58-.23-1.53-1.78-1.53-.86,0-1.76.28-2.36.65l-.44-1.44c.66-.4,1.8-.78,3.18-.78,2.81,0,3.61,1.77,3.61,3.7v3.16c0,.8.04,1.57.14,2.11h-2ZM462.72,43.22c-1.56-.02-3.06.31-3.06,1.64,0,.86.56,1.26,1.26,1.26.88,0,1.52-.57,1.73-1.21.05-.15.06-.33.06-.48v-1.21Z"/><path class="cls-26" d="M467.22,41.65c0-1.14-.03-2.08-.07-2.91h1.95l.11,1.35h.04c.64-.99,1.66-1.54,3-1.54,2.01,0,3.68,1.72,3.68,4.46,0,3.18-1.99,4.7-3.99,4.7-1.1,0-2.02-.46-2.46-1.17h-.04v4.54h-2.21v-9.43ZM469.44,43.84c0,.21.02.42.06.6.23.9,1.01,1.55,1.95,1.55,1.41,0,2.23-1.17,2.23-2.89,0-1.55-.75-2.81-2.18-2.81-.91,0-1.75.67-1.98,1.64-.05.18-.08.37-.08.56v1.35Z"/><path class="cls-26" d="M477.76,34.73h2.22v5.21h.04c.28-.41.65-.75,1.1-1,.43-.24.96-.39,1.51-.39,1.49,0,3.06.99,3.06,3.8v5.16h-2.22v-4.92c0-1.27-.46-2.24-1.69-2.24-.87,0-1.47.58-1.72,1.24-.07.19-.1.43-.1.67v5.24h-2.22v-12.78Z"/><path class="cls-26" d="M490.4,36.29c0,.66-.48,1.2-1.26,1.2-.74,0-1.22-.53-1.21-1.2,0-.68.5-1.2,1.24-1.2s1.23.52,1.24,1.2ZM488.05,47.51v-8.77h2.22v8.77h-2.22Z"/><path class="cls-26" d="M499.09,47.25c-.46.22-1.37.45-2.47.45-2.75,0-4.52-1.76-4.52-4.48s1.79-4.66,4.88-4.66c.82,0,1.63.18,2.14.4l-.39,1.67c-.36-.17-.89-.34-1.68-.34-1.69,0-2.69,1.24-2.68,2.84,0,1.8,1.18,2.83,2.69,2.83.76,0,1.31-.16,1.74-.35l.3,1.65Z"/><path class="cls-26" d="M504.5,45.1c.71.41,1.8.77,2.93.77,1.41,0,2.21-.66,2.21-1.66,0-.92-.61-1.46-2.15-2.01-2-.71-3.29-1.79-3.29-3.53,0-1.99,1.66-3.48,4.29-3.48,1.32,0,2.28.28,2.91.6l-.53,1.79c-.44-.23-1.28-.58-2.42-.58-1.41,0-2,.75-2,1.46,0,.93.7,1.37,2.32,1.99,2.11.81,3.12,1.86,3.12,3.61,0,1.95-1.47,3.65-4.6,3.65-1.28,0-2.62-.37-3.28-.77l.49-1.84Z"/><path class="cls-26" d="M516.27,36.24v2.51h2.11v1.65h-2.11v3.87c0,1.07.29,1.62,1.13,1.62.38,0,.66-.04.86-.1l.04,1.69c-.33.12-.91.23-1.61.23-.81,0-1.49-.28-1.9-.72-.48-.5-.69-1.31-.69-2.46v-4.12h-1.25v-1.65h1.25v-1.99l2.17-.52Z"/><path class="cls-26" d="M521.56,38.75l1.58,4.7c.17.54.37,1.21.49,1.7h.05c.14-.49.3-1.15.46-1.72l1.37-4.68h2.36l-2.2,5.98c-1.2,3.27-2.02,4.73-3.05,5.64-.87.76-1.77,1.05-2.32,1.12l-.5-1.87c.37-.09.84-.29,1.28-.6.42-.28.91-.79,1.22-1.4.09-.15.14-.28.14-.39,0-.1-.03-.23-.12-.43l-3.22-8.05h2.44Z"/><path class="cls-26" d="M529.18,34.73h2.22v12.78h-2.22v-12.78Z"/><path class="cls-26" d="M535.37,43.74c.06,1.59,1.29,2.28,2.71,2.28,1.02,0,1.75-.16,2.42-.41l.33,1.53c-.75.32-1.79.56-3.06.56-2.85,0-4.51-1.76-4.51-4.44,0-2.42,1.47-4.71,4.29-4.71s3.78,2.34,3.78,4.26c0,.41-.04.74-.08.93h-5.86ZM539.22,42.2c0-.81-.34-2.14-1.83-2.14-1.36,0-1.93,1.24-2.03,2.14h3.86Z"/><path class="cls-26" d="M542.99,45.47c.49.3,1.44.64,2.24.64.98,0,1.41-.41,1.41-.98s-.36-.9-1.44-1.28c-1.72-.59-2.43-1.52-2.42-2.56,0-1.54,1.28-2.74,3.33-2.74.97,0,1.81.24,2.33.52l-.44,1.56c-.37-.21-1.08-.5-1.85-.5s-1.23.39-1.23.93.42.82,1.53,1.23c1.59.56,2.33,1.38,2.34,2.67,0,1.6-1.25,2.75-3.56,2.75-1.06,0-2.03-.25-2.67-.61l.45-1.61Z"/><rect class="cls-14" x="317.41" y="17.52" width="328.06" height="5.32"/><path class="cls-20" d="M373.29,82.43c.8-.14,1.9-.25,3.39-.25,1.62,0,2.8.34,3.57.99.72.59,1.19,1.55,1.19,2.69s-.36,2.1-1.03,2.75c-.89.88-2.26,1.31-3.84,1.31-.41,0-.79-.02-1.09-.09v4.58h-2.2v-11.98ZM375.49,88.09c.28.07.63.1,1.09.1,1.66,0,2.67-.83,2.67-2.25,0-1.34-.94-2.06-2.47-2.06-.61,0-1.05.05-1.28.11v4.1Z"/><path class="cls-20" d="M387.83,94.41l-.15-.98h-.05c-.53.69-1.45,1.17-2.58,1.17-1.78,0-2.76-1.27-2.76-2.61,0-2.21,1.97-3.33,5.2-3.32v-.15c0-.58-.23-1.53-1.78-1.53-.86,0-1.76.28-2.36.65l-.44-1.44c.66-.4,1.8-.78,3.18-.78,2.81,0,3.61,1.77,3.61,3.7v3.16c0,.8.04,1.57.14,2.11h-2ZM387.53,90.12c-1.56-.02-3.06.31-3.06,1.64,0,.86.56,1.26,1.26,1.26.88,0,1.52-.57,1.73-1.21.05-.15.06-.33.06-.48v-1.21Z"/><path class="cls-20" d="M394.47,83.14v2.51h2.11v1.65h-2.11v3.87c0,1.07.29,1.62,1.13,1.62.38,0,.66-.04.86-.1l.04,1.69c-.33.12-.91.23-1.61.23-.81,0-1.49-.28-1.9-.72-.48-.5-.69-1.31-.69-2.46v-4.12h-1.25v-1.65h1.25v-1.99l2.17-.52Z"/><path class="cls-20" d="M398.25,81.63h2.22v5.21h.04c.28-.41.65-.75,1.1-1,.43-.24.96-.39,1.51-.39,1.49,0,3.06.99,3.06,3.8v5.16h-2.22v-4.92c0-1.27-.46-2.24-1.68-2.24-.87,0-1.47.58-1.72,1.24-.08.19-.1.43-.1.67v5.24h-2.22v-12.78Z"/><path class="cls-30" d="M403.18,127.51c.7.44,1.72.79,2.8.79,1.6,0,2.55-.84,2.55-2.07,0-1.12-.66-1.79-2.3-2.4-1.98-.7-3.21-1.74-3.21-3.44,0-1.89,1.57-3.29,3.93-3.29,1.23,0,2.15.29,2.68.59l-.44,1.29c-.39-.23-1.2-.58-2.29-.58-1.67,0-2.3.99-2.3,1.81,0,1.13.74,1.68,2.41,2.33,2.06.81,3.09,1.8,3.09,3.57s-1.37,3.5-4.25,3.5c-1.17,0-2.45-.35-3.1-.79l.41-1.31Z"/><path class="cls-30" d="M414.06,118.2v2.51h2.28v1.2h-2.28v4.69c0,1.08.31,1.7,1.2,1.7.41,0,.71-.05.92-.11l.07,1.2c-.31.12-.8.22-1.42.22-.73,0-1.33-.24-1.71-.67-.44-.48-.61-1.25-.61-2.27v-4.75h-1.35v-1.2h1.35v-2.1l1.55-.41Z"/><path class="cls-30" d="M418.11,123.42c0-1.03-.03-1.9-.07-2.71h1.39l.06,1.71h.06c.41-1.17,1.37-1.91,2.42-1.91.17,0,.3.01.44.04v1.49c-.16-.03-.32-.05-.54-.05-1.12,0-1.9.84-2.12,2.03-.04.22-.06.48-.06.74v4.65h-1.58v-6Z"/><path class="cls-30" d="M431.7,124.98c0,3.22-2.24,4.64-4.33,4.64-2.36,0-4.19-1.72-4.19-4.49,0-2.91,1.92-4.62,4.32-4.62s4.19,1.82,4.19,4.47ZM424.8,125.08c0,1.91,1.09,3.35,2.64,3.35s2.65-1.42,2.65-3.4c0-1.47-.74-3.34-2.62-3.34s-2.67,1.73-2.67,3.38Z"/><path class="cls-30" d="M435.27,124.7h.04c.21-.31.51-.69.76-.99l2.57-3h1.9l-3.36,3.58,3.83,5.13h-1.93l-3-4.19-.81.91v3.28h-1.57v-12.78h1.57v8.07Z"/><path class="cls-30" d="M443.05,125.35c.03,2.14,1.39,3.02,2.98,3.02,1.13,0,1.83-.2,2.41-.45l.28,1.12c-.55.25-1.52.56-2.91.56-2.68,0-4.28-1.78-4.28-4.39s1.55-4.7,4.1-4.7c2.84,0,3.58,2.49,3.58,4.1,0,.33-.02.57-.05.74h-6.11ZM447.68,124.21c.02-1-.41-2.56-2.18-2.56-1.62,0-2.3,1.46-2.43,2.56h4.62Z"/><path class="cls-30" d="M450.81,122.13c0-.66.44-1.14,1.07-1.14s1.05.47,1.06,1.14c0,.63-.42,1.12-1.07,1.12s-1.07-.49-1.06-1.12ZM450.81,128.49c0-.66.44-1.14,1.07-1.14s1.05.47,1.06,1.14c0,.63-.42,1.12-1.07,1.12s-1.07-.49-1.06-1.12Z"/><path class="cls-30" d="M521.46,119.18h-.04l-2.03,1.1-.3-1.2,2.56-1.36h1.34v11.7h-1.53v-10.23Z"/><path class="cls-30" d="M527.76,123.54c0-1.11-.03-2.01-.07-2.84h1.42l.09,1.48h.04c.63-1.06,1.68-1.68,3.09-1.68,2.11,0,3.7,1.78,3.7,4.42,0,3.14-1.92,4.69-3.96,4.69-1.17,0-2.17-.51-2.68-1.37h-.04v4.74h-1.57v-9.44ZM529.33,125.87c0,.22.02.44.07.64.28,1.11,1.24,1.86,2.37,1.86,1.68,0,2.65-1.38,2.65-3.37,0-1.74-.91-3.23-2.59-3.23-1.08,0-2.1.76-2.4,1.95-.05.2-.1.44-.1.64v1.51Z"/><path class="cls-30" d="M539.9,118.2v2.51h2.28v1.2h-2.28v4.69c0,1.08.31,1.7,1.2,1.7.41,0,.71-.05.92-.11l.07,1.2c-.31.12-.8.22-1.41.22-.73,0-1.33-.24-1.71-.67-.44-.48-.62-1.25-.62-2.27v-4.75h-1.35v-1.2h1.35v-2.1l1.55-.41Z"/><path class="cls-20" d="M403.38,185.02h6.54v1.31h-4.96v4.04h4.58v1.3h-4.58v5.49h-1.58v-12.14Z"/><path class="cls-20" d="M413.4,185.98c0,.54-.38.98-1.01.98-.57,0-.96-.45-.96-.98,0-.54.4-.99.98-.99s.97.43.98.99ZM411.63,197.15v-8.71h1.58v8.71h-1.58Z"/><path class="cls-20" d="M415.85,184.37h1.58v12.78h-1.58v-12.78Z"/><path class="cls-20" d="M420.09,184.37h1.57v12.78h-1.57v-12.78Z"/><path class="cls-20" d="M423.97,189.87c0-.66.44-1.14,1.07-1.14s1.05.47,1.06,1.14c0,.63-.42,1.12-1.07,1.12s-1.07-.49-1.06-1.12ZM423.97,196.23c0-.66.44-1.14,1.07-1.14s1.05.47,1.06,1.14c0,.63-.42,1.12-1.07,1.12s-1.07-.49-1.06-1.12Z"/><rect class="cls-10" x="325.13" y="139.07" width="312.61" height="35"/><rect class="cls-10" x="325.13" y="174.07" width="312.61" height="35"/><rect class="cls-10" x="325.13" y="209.07" width="312.61" height="35"/><rect class="cls-10" x="325.13" y="244.07" width="312.61" height="35"/><use width="20.96" height="12.42" transform="translate(332.15 185.37)" xlink:href="#eye"/><use class="cls-28" width="20.96" height="12.42" transform="translate(332.15 255.69)" xlink:href="#eye"/><use width="20.96" height="12.42" transform="translate(332.15 116.6)" xlink:href="#eye"/><use class="cls-28" width="20.96" height="12.42" transform="translate(332.15 150.37)" xlink:href="#eye"/><use class="cls-28" width="20.96" height="12.42" transform="translate(332.15 220.71)" xlink:href="#eye"/><polyline class="cls-6" points="385.31 187.42 379.42 193.32 373.91 187.81"/><polyline class="cls-6" points="385.31 119.86 379.42 125.76 373.91 120.25"/><rect class="cls-13" x="317.41" y="311.32" width="328.06" height="7.21"/><line class="cls-5" x1="563.81" y1="22.84" x2="563.81" y2="60.25"/><rect class="cls-10" x="325.13" y="69.07" width="312.61" height="35"/><rect class="cls-10" x="325.13" y="104.07" width="312.61" height="35"/><line class="cls-4" x1="402.77" y1="132.93" x2="455.36" y2="132.93"/><use width="120.99" height="19.67" transform="translate(435.25 216.42)" xlink:href="#opacity-default"/><use width="120.99" height="19.67" transform="translate(435.25 148.7)" xlink:href="#opacity-default"/><use width="120.99" height="19.67" transform="translate(402.02 251.07)" xlink:href="#opacity-default"/><use width="27.88" height="3" transform="translate(467.5 311.32)" xlink:href="#drag-indicator"/><use width="49.94" height="111.88" transform="translate(267.97)" xlink:href="#appearance-styles-nav"/><polyline class="cls-10" points="593.73 47.24 587.83 41.35 593.34 35.84"/><polyline class="cls-10" points="588.01 47.24 582.12 41.35 587.62 35.84"/><line class="cls-10" x1="604.9" y1="32.9" x2="604.9" y2="50.19"/><line class="cls-10" x1="616.07" y1="36.48" x2="632.74" y2="36.48"/><line class="cls-10" x1="616.07" y1="41.54" x2="632.74" y2="41.54"/><line class="cls-10" x1="616.07" y1="46.61" x2="632.74" y2="46.61"/><rect class="cls-16" x="330.13" y="74.07" width="25" height="25"/><use width="285.56" height="20.02" transform="translate(335.48 286.9)" xlink:href="#appearance-bottom-bar"/><rect class="cls-19" x="472.16" y="111.07" width="21" height="21"/><path class="cls-25" d="M491.16,113.07v17h-17v-17h17M495.16,109.07h-25v25h25v-25h0Z"/><rect class="cls-2" x="470.16" y="109.07" width="25" height="25"/><rect class="cls-2" x="472.16" y="111.07" width="21" height="21"/><rect class="cls-25" x="472.16" y="181.07" width="21" height="21"/><path class="cls-25" d="M491.16,183.07v17h-17v-17h17M495.16,179.07h-25v25h25v-25h0Z"/><rect class="cls-2" x="470.16" y="179.07" width="25" height="25"/><rect class="cls-2" x="472.16" y="181.07" width="21" height="21"/><line class="cls-11" x1="490.83" y1="183.41" x2="474.5" y2="199.74"/></svg>