<?xml version="1.0" encoding="UTF-8"?><svg id="UI" xmlns="http://www.w3.org/2000/svg" xmlns:xlink="http://www.w3.org/1999/xlink" viewBox="0 0 960 242.35"><defs><style>.cls-1,.cls-2,.cls-3,.cls-4,.cls-5,.cls-6{fill:none;}.cls-7{fill:#ff7bac;}.cls-8{fill:#e6e6e6;}.cls-9,.cls-10{fill:#e6e6e6;}.cls-11,.cls-12,.cls-10,.cls-13,.cls-2,.cls-3,.cls-4,.cls-5,.cls-14,.cls-15,.cls-6{stroke-miterlimit:10;}.cls-11,.cls-12,.cls-3,.cls-14{stroke:#1a1a1a;}.cls-11,.cls-16{fill:#4d4d4d;}.cls-12{fill:#1a1a1a;}.cls-10,.cls-13,.cls-6{stroke:#666;}.cls-17{fill:#ccc;}.cls-13{fill:#486b80;}.cls-2{stroke:#b3b3b3;}.cls-18{fill:#3fa9f5;}.cls-19{fill:#7ac943;}.cls-4{stroke:#e6e6e6;}.cls-5{stroke:#000;}.cls-14{fill:#333;}.cls-15{fill:#f2f2f2;stroke:#1a1a1a;}.cls-20{fill:#ff1d25;}</style><symbol id="eye" viewBox="0 0 20.96 12.42"><path class="cls-17" d="M10.48,0C4.69,0,0,6.21,0,6.21c0,0,4.69,6.21,10.48,6.21s10.48-6.21,10.48-6.21c0,0-4.69-6.21-10.48-6.21ZM10.48,11.02c-2.66,0-4.81-2.16-4.81-4.81S7.82,1.39,10.48,1.39s4.81,2.16,4.81,4.81-2.16,4.81-4.81,4.81Z"/><circle class="cls-17" cx="10.48" cy="6.21" r="2.63"/></symbol><symbol id="selection" viewBox="0 0 16 16"><circle class="cls-2" cx="8" cy="8" r="7.5"/></symbol></defs><g id="resources"><polygon class="cls-5" points="565.14 22.94 567.08 21 567.08 18.58 561.91 18.58 553.3 27.19 558.53 27.19 562.73 22.99 565.2 22.99 565.14 22.94"/><rect class="cls-14" x="278.55" y="6.11" width="407.86" height="37.41"/><polygon class="cls-16" points="351.52 43.53 351.52 6.11 278.55 6.11 278.55 43.53 278.55 241.74 686.41 241.74 686.41 43.53 351.52 43.53"/><polygon class="cls-3" points="351.52 43.53 351.52 6.11 278.55 6.11 278.55 43.53 278.55 241.74 686.41 241.74 686.41 43.53 351.52 43.53"/><path class="cls-9" d="M287.54,20.4h2.22v10.28h4.99v1.86h-7.21v-12.14Z"/><path class="cls-9" d="M301.31,32.54l-.15-.98h-.05c-.53.69-1.45,1.17-2.58,1.17-1.78,0-2.76-1.27-2.76-2.61,0-2.21,1.97-3.33,5.2-3.32v-.15c0-.58-.23-1.53-1.78-1.53-.86,0-1.76.28-2.36.65l-.44-1.44c.66-.4,1.8-.78,3.18-.78,2.81,0,3.61,1.77,3.61,3.7v3.16c0,.8.04,1.57.14,2.11h-2ZM301.01,28.24c-1.56-.02-3.06.31-3.06,1.64,0,.86.56,1.26,1.26,1.26.88,0,1.52-.57,1.73-1.21.05-.15.06-.33.06-.48v-1.21Z"/><path class="cls-9" d="M306.73,23.77l1.58,4.7c.17.54.36,1.21.49,1.7h.05c.14-.49.3-1.15.46-1.72l1.37-4.68h2.36l-2.2,5.98c-1.2,3.27-2.02,4.73-3.05,5.64-.87.76-1.77,1.05-2.32,1.12l-.5-1.87c.37-.09.83-.29,1.28-.6.42-.28.91-.79,1.22-1.4.09-.15.14-.28.14-.39,0-.1-.02-.23-.12-.43l-3.22-8.05h2.44Z"/><path class="cls-9" d="M315.67,28.77c.06,1.59,1.29,2.28,2.71,2.28,1.02,0,1.75-.16,2.42-.41l.33,1.53c-.75.32-1.79.56-3.06.56-2.85,0-4.51-1.76-4.51-4.44,0-2.42,1.47-4.71,4.29-4.71s3.78,2.34,3.78,4.26c0,.41-.04.74-.08.93h-5.86ZM319.52,27.22c0-.81-.34-2.14-1.83-2.14-1.36,0-1.93,1.24-2.03,2.14h3.86Z"/><path class="cls-9" d="M323.39,26.59c0-1.17-.02-2.04-.07-2.82h1.92l.08,1.67h.06c.43-1.23,1.45-1.86,2.4-1.86.22,0,.34,0,.52.05v2.09c-.19-.04-.38-.06-.65-.06-1.06,0-1.79.67-1.99,1.68-.04.2-.06.43-.06.67v4.55h-2.22v-5.95Z"/><path class="cls-9" d="M329.7,30.5c.49.3,1.44.64,2.24.64.98,0,1.41-.41,1.41-.98s-.36-.9-1.44-1.28c-1.72-.59-2.43-1.52-2.42-2.56,0-1.54,1.28-2.74,3.33-2.74.97,0,1.81.24,2.33.52l-.44,1.56c-.37-.21-1.08-.5-1.85-.5s-1.23.39-1.23.93.42.82,1.53,1.23c1.6.56,2.33,1.38,2.34,2.67,0,1.6-1.25,2.75-3.56,2.75-1.06,0-2.03-.25-2.67-.61l.45-1.61Z"/><rect class="cls-12" x="278.55" y=".79" width="407.86" height="5.32"/><rect class="cls-6" x="286.27" y="52.35" width="392.42" height="35"/><rect class="cls-6" x="286.27" y="52.35" width="35" height="35"/><rect class="cls-6" x="321.27" y="52.35" width="35" height="35"/><rect class="cls-6" x="356.27" y="52.35" width="9.49" height="35"/><rect class="cls-15" x="402.67" y="58.53" width="24" height="24"/><use width="20.96" height="12.42" transform="translate(293.29 63.64)" xlink:href="#eye"/><rect class="cls-18" x="359.02" y="55.35" width="4" height="29"/><polyline class="cls-4" points="377.94 64.83 383.83 70.73 378.33 76.23"/><path class="cls-8" d="M438.56,100.7c.76-.13,1.75-.24,3.02-.24,1.54,0,2.68.36,3.4,1.01.66.58,1.07,1.46,1.07,2.54s-.33,1.97-.94,2.6c-.84.89-2.18,1.33-3.71,1.33-.48,0-.91-.02-1.27-.11v4.87h-1.57v-11.99ZM440.13,106.54c.35.1.79.14,1.3.14,1.9,0,3.05-.93,3.05-2.59s-1.15-2.39-2.87-2.39c-.69,0-1.21.06-1.48.12v4.72Z"/><path class="cls-8" d="M458.52,106.5c0,4.16-2.54,6.39-5.63,6.39s-5.46-2.49-5.46-6.16,2.38-6.37,5.62-6.37,5.47,2.54,5.47,6.14ZM449.09,106.69c0,2.6,1.41,4.92,3.88,4.92s3.89-2.29,3.89-5.04c0-2.42-1.26-4.94-3.87-4.94s-3.9,2.41-3.9,5.06Z"/><path class="cls-8" d="M462.12,100.55v12.14h-1.58v-12.14h1.58Z"/><path class="cls-8" d="M464.54,111.08c.48.3,1.31.62,2.1.62,1.16,0,1.69-.57,1.69-1.3s-.46-1.16-1.62-1.59c-1.57-.57-2.32-1.43-2.31-2.47,0-1.4,1.14-2.55,3.01-2.55.89,0,1.65.24,2.13.54l-.39,1.15c-.33-.21-.97-.51-1.79-.51-.93,0-1.44.54-1.44,1.2,0,.72.51,1.04,1.65,1.48,1.5.56,2.28,1.32,2.28,2.62,0,1.54-1.2,2.62-3.26,2.62-.95,0-1.83-.25-2.45-.61l.38-1.19Z"/><rect class="cls-6" x="286.27" y="87.35" width="392.42" height="35"/><rect class="cls-6" x="286.27" y="87.35" width="35" height="35"/><rect class="cls-6" x="321.27" y="87.35" width="35" height="35"/><rect class="cls-6" x="356.27" y="87.35" width="9.49" height="35"/><rect class="cls-15" x="402.67" y="93.53" width="24" height="24"/><use width="20.96" height="12.42" transform="translate(293.29 98.64)" xlink:href="#eye"/><rect class="cls-19" x="359.02" y="90.35" width="4" height="29"/><polyline class="cls-4" points="377.94 99.83 383.83 105.73 378.33 111.23"/><path class="cls-8" d="M438.56,147.69v-12.14h1.72l3.89,6.13c.89,1.42,1.59,2.7,2.17,3.95l.04-.02c-.14-1.62-.17-3.1-.17-4.98v-5.09h1.48v12.14h-1.59l-3.86-6.15c-.84-1.36-1.65-2.74-2.26-4.06l-.05.02c.09,1.54.12,3,.12,5.01v5.19h-1.48Z"/><path class="cls-8" d="M458.21,143.25c0,3.22-2.24,4.64-4.33,4.64-2.36,0-4.19-1.72-4.19-4.49,0-2.91,1.92-4.62,4.32-4.62s4.19,1.82,4.19,4.47ZM451.3,143.35c0,1.91,1.09,3.35,2.64,3.35s2.65-1.42,2.65-3.4c0-1.47-.74-3.34-2.62-3.34s-2.67,1.73-2.67,3.38Z"/><path class="cls-8" d="M460.21,141.69c0-1.03-.03-1.9-.07-2.71h1.39l.06,1.71h.06c.41-1.17,1.37-1.91,2.42-1.91.17,0,.3.01.44.04v1.49c-.16-.03-.32-.05-.54-.05-1.12,0-1.9.84-2.12,2.03-.04.22-.06.48-.06.74v4.65h-1.58v-6Z"/><path class="cls-8" d="M468.43,136.47v2.51h2.28v1.2h-2.28v4.69c0,1.08.31,1.7,1.2,1.7.41,0,.71-.05.92-.11l.07,1.2c-.31.12-.8.22-1.41.22-.73,0-1.33-.24-1.71-.67-.44-.48-.61-1.25-.61-2.27v-4.75h-1.35v-1.2h1.35v-2.1l1.55-.41Z"/><path class="cls-8" d="M472.48,134.9h1.58v5.44h.04c.26-.45.66-.84,1.14-1.12.46-.27,1.02-.44,1.62-.44,1.17,0,3.04.72,3.04,3.72v5.19h-1.58v-5.01c0-1.41-.53-2.59-2.01-2.59-1.04,0-1.83.72-2.14,1.58-.08.22-.11.46-.11.75v5.26h-1.58v-12.78Z"/><path class="cls-8" d="M487.3,147.69l-.14-1.1h-.05c-.48.68-1.42,1.3-2.66,1.3-1.76,0-2.66-1.25-2.66-2.5,0-2.11,1.87-3.27,5.23-3.24v-.19c0-.71-.2-2.02-1.98-2.01-.81,0-1.66.24-2.27.65l-.36-1.05c.72-.47,1.78-.76,2.87-.76,2.66,0,3.31,1.82,3.31,3.56v3.26c0,.74.03,1.49.13,2.08h-1.43ZM487.05,143.24c-1.71-.04-3.68.27-3.68,1.96,0,1.04.68,1.52,1.48,1.52,1.15,0,1.87-.72,2.12-1.46.05-.17.08-.35.08-.5v-1.51Z"/><path class="cls-8" d="M491.15,141.69c0-1.03-.03-1.9-.07-2.71h1.39l.06,1.71h.06c.41-1.17,1.37-1.91,2.42-1.91.17,0,.3.01.44.04v1.49c-.16-.03-.32-.05-.54-.05-1.12,0-1.91.84-2.12,2.03-.04.22-.06.48-.06.74v4.65h-1.58v-6Z"/><path class="cls-8" d="M497.1,141.69c0-1.03-.03-1.9-.07-2.71h1.39l.06,1.71h.06c.41-1.17,1.37-1.91,2.42-1.91.17,0,.3.01.44.04v1.49c-.16-.03-.32-.05-.54-.05-1.12,0-1.91.84-2.12,2.03-.04.22-.06.48-.06.74v4.65h-1.58v-6Z"/><path class="cls-8" d="M510.7,143.25c0,3.22-2.24,4.64-4.33,4.64-2.36,0-4.19-1.72-4.19-4.49,0-2.91,1.92-4.62,4.32-4.62s4.19,1.82,4.19,4.47ZM503.79,143.35c0,1.91,1.09,3.35,2.64,3.35s2.65-1.42,2.65-3.4c0-1.47-.74-3.34-2.62-3.34s-2.67,1.73-2.67,3.38Z"/><path class="cls-8" d="M513.19,138.98l1.17,4.42c.25.97.47,1.88.65,2.78h.04c.19-.88.48-1.82.78-2.77l1.42-4.43h1.33l1.35,4.35c.31,1.03.57,1.96.77,2.84h.04c.16-.88.39-1.8.68-2.83l1.24-4.37h1.56l-2.81,8.71h-1.44l-1.32-4.16c-.31-.98-.56-1.85-.77-2.87h-.04c-.22,1.05-.49,1.95-.8,2.88l-1.4,4.14h-1.45l-2.62-8.71h1.61Z"/><rect class="cls-6" x="286.27" y="122.35" width="392.42" height="35"/><rect class="cls-6" x="286.27" y="122.35" width="35" height="35"/><rect class="cls-6" x="321.27" y="122.35" width="35" height="35"/><rect class="cls-6" x="356.27" y="122.35" width="9.49" height="35"/><rect class="cls-15" x="402.67" y="128.53" width="24" height="24"/><use width="20.96" height="12.42" transform="translate(293.29 133.64)" xlink:href="#eye"/><rect class="cls-20" x="359.02" y="125.35" width="4" height="29"/><polyline class="cls-4" points="377.94 134.83 383.83 140.73 378.33 146.23"/><rect class="cls-13" x="286.27" y="157.35" width="392.42" height="35"/><rect class="cls-6" x="286.27" y="157.35" width="35" height="35"/><rect class="cls-6" x="321.27" y="157.35" width="35" height="35"/><rect class="cls-6" x="356.27" y="157.35" width="9.49" height="35"/><rect class="cls-15" x="402.67" y="163.53" width="24" height="24"/><use width="20.96" height="12.42" transform="translate(293.29 168.64)" xlink:href="#eye"/><rect class="cls-7" x="359.02" y="160.35" width="4" height="29"/><polyline class="cls-4" points="377.94 169.83 383.83 175.73 378.33 181.23"/><path class="cls-8" d="M438.56,65.55h1.58v10.81h5.19v1.32h-6.76v-12.14Z"/><path class="cls-8" d="M451.84,77.69l-.14-1.1h-.05c-.48.68-1.42,1.3-2.66,1.3-1.76,0-2.66-1.25-2.66-2.5,0-2.11,1.87-3.27,5.23-3.24v-.19c0-.71-.2-2.02-1.98-2.01-.81,0-1.66.24-2.27.65l-.36-1.05c.72-.47,1.78-.76,2.87-.76,2.66,0,3.31,1.82,3.31,3.56v3.26c0,.74.03,1.49.13,2.08h-1.43ZM451.59,73.24c-1.71-.04-3.68.27-3.68,1.96,0,1.04.68,1.52,1.48,1.52,1.15,0,1.87-.72,2.12-1.46.05-.17.08-.35.08-.5v-1.51Z"/><path class="cls-8" d="M455.61,77.69c.04-.6.07-1.47.07-2.25v-10.54h1.57v5.47h.04c.56-.98,1.56-1.6,2.97-1.6,2.16,0,3.68,1.8,3.68,4.43,0,3.12-1.98,4.67-3.92,4.67-1.26,0-2.26-.49-2.92-1.63h-.04l-.08,1.43h-1.37ZM457.26,74.2c0,.19.02.39.07.57.3,1.1,1.23,1.85,2.38,1.85,1.67,0,2.64-1.35,2.64-3.35,0-1.75-.9-3.25-2.6-3.25-1.07,0-2.08.75-2.4,1.95-.05.19-.09.41-.09.66v1.56Z"/><path class="cls-8" d="M466.83,73.62c.03,2.14,1.39,3.02,2.98,3.02,1.13,0,1.83-.2,2.41-.45l.28,1.12c-.55.25-1.52.56-2.91.56-2.68,0-4.28-1.78-4.28-4.39s1.55-4.7,4.1-4.7c2.84,0,3.58,2.49,3.58,4.1,0,.33-.02.57-.05.74h-6.11ZM471.47,72.48c.02-1-.41-2.56-2.18-2.56-1.62,0-2.3,1.46-2.43,2.56h4.62Z"/><path class="cls-8" d="M474.97,64.9h1.58v12.78h-1.58v-12.78Z"/><path class="cls-8" d="M478.99,76.08c.48.3,1.31.62,2.1.62,1.16,0,1.69-.57,1.69-1.3s-.46-1.16-1.62-1.59c-1.57-.57-2.32-1.43-2.31-2.47,0-1.4,1.14-2.55,3.01-2.55.89,0,1.65.24,2.13.54l-.39,1.15c-.33-.21-.97-.51-1.79-.51-.93,0-1.44.54-1.44,1.2,0,.72.51,1.04,1.65,1.48,1.5.56,2.28,1.32,2.28,2.62,0,1.54-1.2,2.62-3.26,2.62-.95,0-1.83-.25-2.45-.61l.38-1.19Z"/><rect class="cls-11" x="278.55" y="234.53" width="407.86" height="7.21"/><line class="cls-11" x1="469.22" y1="234.53" x2="469.22" y2="238.9"/><line class="cls-11" x1="472.16" y1="234.53" x2="472.16" y2="238.9"/><line class="cls-11" x1="475.11" y1="234.53" x2="475.11" y2="238.9"/><line class="cls-11" x1="478.06" y1="234.53" x2="478.06" y2="238.9"/><line class="cls-11" x1="481.01" y1="234.53" x2="481.01" y2="238.9"/><line class="cls-11" x1="483.95" y1="234.53" x2="483.95" y2="238.9"/><line class="cls-11" x1="486.9" y1="234.53" x2="486.9" y2="238.9"/><line class="cls-11" x1="489.85" y1="234.53" x2="489.85" y2="238.9"/><line class="cls-11" x1="492.8" y1="234.53" x2="492.8" y2="238.9"/><line class="cls-11" x1="495.74" y1="234.53" x2="495.74" y2="238.9"/><path class="cls-8" d="M438.56,170.72c.69-.15,1.78-.26,2.86-.26,1.57,0,2.58.27,3.33.88.63.48,1.01,1.2,1.01,2.15,0,1.17-.78,2.21-2.05,2.66v.05c1.16.28,2.51,1.23,2.51,3.04,0,1.04-.41,1.84-1.04,2.42-.83.79-2.2,1.14-4.19,1.14-1.09,0-1.91-.08-2.43-.14v-11.94ZM440.13,175.69h1.44c1.64,0,2.61-.87,2.61-2.05,0-1.41-1.07-1.98-2.65-1.98-.73,0-1.14.05-1.4.11v3.91ZM440.13,181.49c.32.06.75.08,1.32.08,1.63,0,3.12-.6,3.12-2.36,0-1.65-1.43-2.34-3.14-2.34h-1.3v4.63Z"/><path class="cls-8" d="M456.23,178.25c0,3.22-2.24,4.64-4.33,4.64-2.36,0-4.19-1.72-4.19-4.49,0-2.91,1.92-4.62,4.32-4.62s4.19,1.82,4.19,4.47ZM449.32,178.35c0,1.91,1.09,3.35,2.64,3.35s2.65-1.42,2.65-3.4c0-1.47-.74-3.34-2.62-3.34s-2.67,1.73-2.67,3.38Z"/><path class="cls-8" d="M465.51,180.3c0,.91.03,1.69.07,2.38h-1.4l-.08-1.42h-.04c-.4.7-1.32,1.62-2.88,1.62-1.36,0-3-.76-3-3.82v-5.09h1.58v4.81c0,1.66.52,2.79,1.95,2.79,1.06,0,1.8-.74,2.1-1.45.08-.23.14-.51.14-.81v-5.33h1.58v6.32Z"/><path class="cls-8" d="M468.15,176.33c0-.91-.03-1.63-.07-2.35h1.4l.09,1.43h.04c.43-.82,1.44-1.63,2.88-1.63,1.2,0,3.07.72,3.07,3.71v5.19h-1.58v-5.02c0-1.41-.53-2.59-2.01-2.59-1.04,0-1.85.74-2.13,1.63-.07.19-.11.47-.11.73v5.25h-1.58v-6.36Z"/><path class="cls-8" d="M485.65,169.9v10.54c0,.77.03,1.65.07,2.25h-1.41l-.08-1.51h-.04c-.48.97-1.53,1.7-2.95,1.7-2.11,0-3.74-1.78-3.74-4.42-.01-2.91,1.79-4.68,3.91-4.68,1.34,0,2.24.63,2.63,1.32h.04v-5.2h1.57ZM484.08,177.52c0-.21-.02-.47-.07-.68-.25-1-1.1-1.82-2.29-1.82-1.64,0-2.62,1.44-2.62,3.35,0,1.77.88,3.24,2.59,3.24,1.06,0,2.02-.72,2.31-1.9.06-.21.08-.43.08-.68v-1.51Z"/><path class="cls-8" d="M493.12,182.69l-.14-1.1h-.05c-.48.68-1.42,1.3-2.66,1.3-1.76,0-2.66-1.25-2.66-2.5,0-2.11,1.87-3.27,5.23-3.24v-.19c0-.71-.2-2.02-1.98-2.01-.81,0-1.66.24-2.27.65l-.36-1.05c.72-.47,1.78-.76,2.87-.76,2.66,0,3.31,1.82,3.31,3.56v3.26c0,.74.03,1.49.13,2.08h-1.43ZM492.87,178.24c-1.71-.04-3.68.27-3.68,1.96,0,1.04.68,1.52,1.48,1.52,1.15,0,1.87-.72,2.12-1.46.05-.17.08-.35.08-.5v-1.51Z"/><path class="cls-8" d="M496.96,176.69c0-1.03-.03-1.9-.07-2.71h1.39l.06,1.71h.06c.41-1.17,1.37-1.91,2.42-1.91.17,0,.3.01.44.04v1.49c-.16-.03-.32-.05-.54-.05-1.12,0-1.91.84-2.12,2.03-.04.22-.06.48-.06.74v4.65h-1.58v-6Z"/><path class="cls-8" d="M504.69,171.52c0,.54-.38.98-1.01.98-.57,0-.96-.45-.96-.98,0-.54.4-.99.98-.99s.97.43.98.99ZM502.92,182.69v-8.71h1.58v8.71h-1.58Z"/><path class="cls-8" d="M508.02,178.62c.03,2.14,1.39,3.02,2.98,3.02,1.13,0,1.83-.2,2.41-.45l.28,1.12c-.55.25-1.52.56-2.91.56-2.68,0-4.28-1.78-4.28-4.39s1.55-4.7,4.1-4.7c2.84,0,3.58,2.49,3.58,4.1,0,.33-.02.57-.05.74h-6.11ZM512.65,177.48c.02-1-.41-2.56-2.18-2.56-1.62,0-2.3,1.46-2.43,2.56h4.62Z"/><path class="cls-8" d="M515.93,181.08c.48.3,1.31.62,2.1.62,1.16,0,1.69-.57,1.69-1.3s-.46-1.16-1.62-1.59c-1.57-.57-2.32-1.43-2.31-2.47,0-1.4,1.14-2.55,3.01-2.55.89,0,1.65.24,2.13.54l-.39,1.15c-.33-.21-.97-.51-1.79-.51-.93,0-1.44.54-1.44,1.2,0,.72.51,1.04,1.65,1.48,1.5.56,2.28,1.32,2.28,2.62,0,1.54-1.2,2.62-3.26,2.62-.95,0-1.83-.25-2.45-.61l.38-1.19Z"/><polyline class="cls-6" points="623.06 19.12 628.96 25.01 623.45 30.52"/><polyline class="cls-6" points="628.78 19.12 634.67 25.01 629.17 30.52"/><line class="cls-6" x1="645.84" y1="16.17" x2="645.84" y2="33.46"/><line class="cls-6" x1="657.01" y1="19.75" x2="673.69" y2="19.75"/><line class="cls-6" x1="657.01" y1="24.82" x2="673.69" y2="24.82"/><line class="cls-6" x1="657.01" y1="29.89" x2="673.69" y2="29.89"/><rect class="cls-6" x="608.41" y="52.35" width="70.28" height="35"/><rect class="cls-6" x="608.41" y="87.35" width="70.28" height="35"/><rect class="cls-6" x="608.41" y="122.35" width="70.28" height="35"/><rect class="cls-6" x="608.41" y="157.35" width="70.28" height="35"/><use width="16" height="16" transform="translate(620.78 61.85)" xlink:href="#selection"/><use width="16" height="16" transform="translate(620.78 96.85)" xlink:href="#selection"/><use width="16" height="16" transform="translate(620.78 131.85)" xlink:href="#selection"/><use width="16" height="16" transform="translate(620.78 166.85)" xlink:href="#selection"/><polygon class="cls-10" points="678.69 66.35 664.69 52.35 678.69 52.35 678.69 66.35"/><circle class="cls-1" cx="628.78" cy="181.73" r="30"/></g></svg>