<?xml version="1.0" encoding="UTF-8"?><svg xmlns="http://www.w3.org/2000/svg" viewBox="0 0 1080 863.57"><defs><style>.cls-1{stroke-width:9px;}.cls-1,.cls-2,.cls-3,.cls-4{fill:none;}.cls-1,.cls-4{stroke:#fff;}.cls-5{fill:#fff;}.cls-6{fill:#003280;}.cls-2{stroke-miterlimit:10;}.cls-2,.cls-3{stroke:#003280;}.cls-3{stroke-width:3px;}.cls-4{stroke-linejoin:round;stroke-width:10px;}</style></defs><g id="basic"><polygon class="cls-2" points="581.42 475.47 574.15 475.47 568.6 469.92 568.6 460.93 573.86 455.66 579.12 455.66 579.12 450.59 564.96 450.59 582.37 433.18 577.21 433.18 573.29 437.1 573.29 430.69 576.97 427.01 571.47 421.51 565.15 427.82 565.15 433.75 558.93 439.97 563.62 444.66 559.22 449.06 550.42 449.06 556.54 442.94 556.54 432.61 551.19 432.61 551.19 438.73 546.02 443.9 536.64 443.9 523.73 456.81 519.61 452.7 519.61 444.85 515.69 440.93 515.69 434.14 519.47 430.36 519.47 418.83 510.75 418.83 507.94 416.02 501.95 416.02 501.95 406.2 506.03 406.2 510.24 401.99 513.68 405.44 517.51 405.44 517.51 398.93 502.2 398.93 483.45 417.68 477.71 417.68 472.73 422.66 472.73 457.86 460.68 469.92 460.68 475.47 456.56 479.58 456.56 482.36 448.62 482.36 439.63 491.35 439.63 498.81 434.18 504.27 434.18 515.27 429.54 519.91 429.54 530.96 424.92 535.57 424.92 538.61 418.4 545.13 418.4 549.71 414.57 553.54 414.57 558.89 407.49 565.98 404.23 562.72 400.02 562.72 400.02 575.73 393.52 575.73 393.52 584.92 383.95 584.92 383.95 590.28 380.5 593.72 380.5 586.83 374 586.83 369.22 591.62 369.22 596.02 363 602.23 356.78 602.23 349.17 609.84 343.77 609.84 343.77 612.47 339.37 616.87 334.2 616.87 327.02 624.05 327.02 618.21 312.43 632.8 312.43 638.88 307.24 644.07 307.24 640.43 298.42 631.61 296.7 631.61 296.7 639.64 300.91 643.85 300.91 648.06 293.44 655.52 286.36 655.52 275.74 666.14 266.08 666.14 266.08 673.32 259.19 680.21 251.16 680.21 251.16 683.56 251.16 689.39 253.89 689.39 253.89 694.27 251.16 694.27 246.95 694.27 246.95 689.39 240.06 689.39 240.06 696.66 217.86 718.86 217.86 722.69 225.51 722.69 229.92 727.09 229.92 734.93 214.7 750.15 218.44 753.88 223.98 753.88 218.34 759.52 197.32 759.52 197.32 769.58 201.66 765.24 210.85 765.24 210.85 768.23 206.06 773.01 208.23 775.18 213.91 775.18 213.74 780.34 207.15 780.34 202.23 785.26 229.53 785.26 236.1 778.69 241.97 784.56 247.84 778.69 250.26 781.11 258.55 772.82 258.55 761.08 271.57 761.08 276.03 765.55 278.71 765.55 281.96 762.3 285.6 765.93 278.45 773.07 275.39 770.01 272.97 772.44 272.97 775.88 264.36 784.49 266.97 787.11 266.97 794.76 270.54 791.19 278.45 791.19 278.45 805.99 281.52 809.05 281.52 814.41 285.73 810.2 295.29 810.2 298.67 806.82 303.2 806.82 303.2 812.62 311.88 812.62 318.64 805.86 321.57 805.86 321.57 811.09 327.31 805.35 331.27 809.3 335.35 809.3 340.71 803.95 344.53 803.95 344.53 798.08 348.36 794.25 350.53 796.42 350.53 800.63 357.48 793.68 353.84 790.04 353.84 787.23 363.67 787.23 363.67 792.46 369.28 786.85 369.28 782.26 374.89 776.65 377.95 779.71 380.5 777.16 380.5 772.56 387.14 765.93 393.71 765.93 399.58 760.06 402.86 763.35 406.34 763.35 406.34 760.06 404.3 758.02 404.3 755.22 398.11 755.22 394.76 758.56 391.03 758.56 387.92 761.67 387.92 752.92 392.25 748.59 399.07 748.59 401.23 750.76 409.92 750.76 414.02 746.64 409.11 741.73 403.56 747.27 403.56 731.68 407.1 731.68 412.16 726.62 409.19 723.66 409.19 706.81 405.66 703.27 408.54 700.4 411.02 702.88 412.84 701.06 408.73 696.95 408.73 687.67 414.13 682.27 414.13 675.23 410.55 675.23 410.55 672.17 414.06 668.66 414.06 665.28 418.43 660.92 416.67 659.16 414.56 659.16 428.34 645.38 428.34 633.52 434.08 633.52 443.27 624.34 452.45 624.34 462.4 614.39 467.38 619.36 470.63 616.11 470.63 607.5 480.77 607.5 493.4 620.13 493.4 628.54 504.88 628.54 504.91 630.08 512.15 630.08 516.55 625.67 516.55 615.53 501.44 615.53 501.44 607.5 493.02 607.5 496.65 603.86 496.65 597.53 487.66 597.53 483.64 601.54 478.09 601.54 478.09 595.25 489.19 584.15 489.19 578.79 499.52 578.79 506.98 571.33 506.98 563.49 511.67 558.8 511.67 550.09 516.55 550.09 516.55 542.44 527.36 531.63 527.36 524.07 529.75 524.07 529.75 518.33 535.69 512.4 541.62 512.4 548.6 505.41 558.07 505.41 558.07 498.81 563.81 493.07 569.94 493.07 579.31 483.7 586.01 483.7 586.01 480.06 581.42 475.47"/><polygon class="cls-2" points="243.5 814.02 243.5 823.59 240.18 826.91 244.78 831.5 241.72 834.56 241.72 841.7 248.09 841.7 248.09 853.7 250.26 855.86 250.26 861.86 258.55 861.86 261.87 858.54 266.97 858.54 266.97 848.59 270.8 844.77 273.22 847.19 278.71 841.7 278.71 838.13 286.11 838.13 286.11 831.5 280.24 825.63 273.61 825.63 273.61 817.47 267.74 817.47 267.74 814.41 261.87 808.54 256.39 814.02 243.5 814.02"/><polygon class="cls-2" points="553.86 414.24 553.86 429.16 559.03 424 563.81 424 567.55 420.26 567.55 415.39 562.28 415.39 562.28 419.98 558.84 419.98 558.84 414.24 553.86 414.24"/><polygon class="cls-2" points="589.43 440.99 591.37 439.05 591.37 436.62 586.2 436.62 577.59 445.24 582.82 445.24 587.01 441.04 589.49 441.04 589.43 440.99"/><polygon class="cls-2" points="563.43 312.35 563.43 329.28 576.25 342.1 584.48 342.1 593.86 351.48 593.86 356.26 597.3 356.26 603.9 362.86 603.9 366.59 620.26 366.59 620.26 414.24 615.96 418.54 615.96 432.61 597.16 451.41 597.16 459.59 603.61 459.59 603.61 450.4 609.35 450.4 609.35 464.75 614.52 459.59 623.13 459.59 623.13 480.25 629.73 473.65 637.48 473.65 643.08 468.05 650.69 468.05 668.98 449.76 668.98 440.93 677.09 440.93 677.09 429.16 690.87 415.39 690.87 408.5 703.35 396.01 703.35 388.41 710.89 380.87 710.89 369.46 718.67 361.68 718.67 356.83 722.85 352.65 713.83 352.65 713.83 348.82 705.41 340.4 705.41 348.41 698.14 355.69 693.74 351.28 693.74 340.76 696.99 340.76 705.98 331.77 714.21 331.77 721.88 324.1 721.88 318.56 735.08 305.37 745.21 305.37 745.21 301.73 749.04 301.73 754.39 307.08 759.75 307.08 759.75 326.6 771.23 315.12 771.23 310.53 765.49 310.53 765.49 305.55 774.1 296.94 774.1 290.25 794.86 269.48 788.26 262.88 796.44 254.7 796.44 232.46 799.91 228.99 807.76 221.15 801.47 214.86 796.49 219.83 796.49 207.2 776.21 207.2 776.21 212.94 773.15 216 763.58 216 756.88 222.7 756.88 228.63 724.93 228.63 720.53 233.03 712.68 225.19 697.37 225.19 697.37 219.83 692.78 219.83 687.04 214.09 687.04 207.2 683.21 207.2 683.21 211.03 675.18 211.03 675.18 201.46 661.78 188.07 661.78 163.57 656.23 158.03 651.45 158.03 658.43 151.04 649.92 151.04 649.92 143.29 639.78 133.15 639.78 142.14 642.74 145.11 642.74 154.39 646.14 157.79 641.69 162.24 641.69 170.46 646.38 175.15 633.08 175.15 633.08 166.25 624.28 166.25 624.28 162.43 612.03 162.43 603.42 153.82 603.42 146.74 608.11 142.05 613.56 142.05 606.44 134.92 614.33 134.92 614.33 126.07 600.55 112.29 600.55 103.87 590.99 94.31 599.4 94.31 599.4 73.26 588.88 62.74 588.88 44.56 581.8 44.56 573.19 53.17 573.19 57.57 568.02 57.57 562.09 51.64 569.75 43.98 561.14 35.37 554.82 41.69 547.17 34.03 539.32 34.03 539.32 41.5 529.75 31.93 536.64 25.04 531.48 19.87 521.72 29.63 509.85 17.77 509.85 6.67 514.06 6.67 519.8 .93 489.19 .93 503.35 15.09 503.35 20.83 513.3 30.78 513.3 39.58 519.23 45.51 519.23 54.51 523.54 50.2 523.54 61.01 532.82 61.01 532.82 67.14 538.17 72.49 538.17 75.94 544.11 81.87 544.11 87.8 553.58 97.27 553.58 101.58 559.08 107.08 559.08 112.68 566.8 120.4 566.8 127.22 573.92 134.33 577.4 130.85 577.4 119.56 582.95 125.12 582.95 134.01 590.77 141.83 590.77 146.85 593.88 149.96 590.22 153.62 585.63 149.03 585.63 144.46 581.42 140.25 576.63 145.04 576.63 155.54 582.18 155.54 582.18 163.19 591.75 172.76 595.39 169.12 604.76 169.12 604.76 180.03 599.6 174.86 595.58 174.86 595.58 183.47 613.18 201.08 613.18 216.77 621.41 225 615.86 225 615.86 231.31 608.35 238.82 608.35 264.99 604.45 268.89 604.45 282.97 594.85 292.58 587.54 292.58 587.54 300.58 579.12 300.58 575.68 304.02 571.76 304.02 563.43 312.35"/><polygon class="cls-2" points="638.89 109.61 638.89 114.96 634.48 114.96 634.48 120.33 637.67 120.33 644.56 120.33 644.56 116.31 644.56 109.61 638.89 109.61"/><polygon class="cls-2" points="625.62 110.73 620.34 110.73 620.34 120.33 625.62 115.05 625.62 110.73"/><polygon class="cls-2" points="630.36 149.72 630.36 155.13 619.08 155.13 624.49 149.72 630.36 149.72"/><polygon class="cls-2" points="610.23 223.67 603.46 230.43 596.7 223.67 610.23 223.67"/></g><g id="labels"><path class="cls-4" d="M486.83,180.15h-4.72l-.62-4.05v-.05l-6.91.05-.62,4.05h-4.19l1.32-4.05,3.32-12.15.81-4.05h5.97l.81,4.05,3.51,12.15,1.32,4.05ZM480.4,172.35l-2.46-8.64-2.35,8.67,4.81-.03Z"/><path class="cls-4" d="M501.14,176.13l.27,4.02h-3.97l-.11-1.92c-1.01,1.49-2.48,2.24-4.4,2.24-1.28,0-2.28-.42-3-1.26-.72-.84-1.08-2.02-1.08-3.55v-7.67l-.27-4.05h4.32l-.27,4.05v6.94c0,.63.17,1.13.51,1.51.34.38.78.57,1.32.57,1.06,0,2.02-.66,2.89-1.97v-7.05l-.27-4.05h4.32l-.27,4.05v8.13Z"/><path class="cls-4" d="M505.81,178.46c-1.08-1.41-1.62-3.51-1.62-6.28s.56-4.82,1.69-6.32c1.12-1.49,2.79-2.24,5.01-2.24,1.22,0,2.17.09,2.85.28.67.19,1.33.53,1.96,1.01l-.59,3.38-.43.19c-.41-.41-.86-.71-1.35-.88-.49-.17-1.16-.26-2.03-.26-1.17,0-2,.37-2.48,1.12-.49.75-.73,1.98-.73,3.71,0,1.24.1,2.19.3,2.83s.55,1.11,1.07,1.38c.51.27,1.26.4,2.25.4.94,0,1.68-.09,2.24-.27.56-.18,1.05-.48,1.49-.89l.46.22-.84,3.32c-.7.56-1.33.93-1.88,1.12-.55.19-1.31.28-2.28.28-2.3,0-4-.71-5.08-2.12Z"/><path class="cls-4" d="M532.32,180.15h-4.94l-1.38-3.92-1.67-3.48-2.21,2.75v.59l.27,4.05h-4.32l.27-4.05v-13.64l-.27-3.92h4.32l-.27,3.92v8.42l2.27-3.02,2.21-3.92h5.21l-3.51,3.92-1.59,1.97,3.27,6.4,2.35,3.92Z"/><path class="cls-4" d="M534.19,176.1v-13.64l-.27-3.92h4.32l-.27,3.92v13.64l.27,4.05h-4.32l.27-4.05Z"/><path class="cls-4" d="M541.6,172.85c.5-.84,1.15-1.5,1.97-1.98.82-.49,1.71-.73,2.66-.73,1.66,0,2.94.24,3.86.73v-1.43c0-.68-.27-1.21-.82-1.59-.55-.38-1.32-.57-2.31-.57-1.06,0-2,.17-2.82.51-.82.34-1.44.86-1.88,1.54l-.3-.05.49-4c.61-.54,1.37-.96,2.28-1.26.91-.3,1.83-.45,2.77-.45,1.94,0,3.49.46,4.64,1.38s1.73,2.17,1.73,3.75v7.43l.27,4.02h-3.97l-.08-1.48c-.36.58-.92,1.04-1.69,1.39-.77.35-1.61.53-2.52.53-1.53,0-2.75-.44-3.66-1.32-.91-.88-1.36-2.09-1.36-3.62,0-1.03.25-1.96.74-2.79ZM545.22,176.82c.31.33.78.5,1.39.5.67,0,1.3-.13,1.9-.39.6-.26,1.13-.63,1.58-1.12v-1.84c-1.01-.49-2.14-.73-3.4-.73-.67,0-1.16.18-1.47.54-.31.36-.47.9-.47,1.62,0,.61.16,1.08.47,1.42Z"/><path class="cls-4" d="M565.94,176.1v-6.94c0-.59-.17-1.07-.5-1.42-.33-.35-.78-.53-1.34-.53-1.13,0-2.1.61-2.89,1.84v7.05l.27,4.05h-4.32l.27-4.05v-8.24l-.27-3.92h3.51l.54,1.97c.95-1.44,2.43-2.16,4.43-2.16,1.26,0,2.25.4,2.98,1.19.73.79,1.09,1.95,1.09,3.48v7.67l.27,4.05h-4.32l.27-4.05Z"/><path class="cls-4" d="M585.7,176.13l.27,4.02h-3.97l-.08-1.46c-.34.49-.85.89-1.53,1.2-.68.31-1.32.47-1.93.47-1.89,0-3.34-.72-4.36-2.15-1.02-1.43-1.53-3.5-1.53-6.2,0-2.86.47-4.98,1.42-6.35.94-1.37,2.34-2.05,4.2-2.05.74,0,1.43.08,2.08.24.65.16,1.2.39,1.65.67v-2.08l-.27-3.92h4.32l-.27,3.92v13.66ZM581.92,167.7c-.59-.23-1.48-.35-2.65-.35-.76,0-1.33.13-1.73.38-.4.25-.67.71-.84,1.36-.16.66-.24,1.63-.24,2.93s.08,2.2.23,2.86c.15.67.41,1.14.77,1.42.36.28.87.42,1.54.42.5,0,1.04-.08,1.61-.23.57-.15,1-.34,1.31-.55v-8.23Z"/><path class="cls-4" d="M515.42,601.22c-1.23-.73-2.13-1.87-2.7-3.42-.57-1.55-.85-3.59-.85-6.13,0-3.58.65-6.22,1.96-7.92,1.31-1.7,3.47-2.55,6.49-2.55,1.15,0,2.08.11,2.79.34.71.23,1.46.64,2.25,1.26l-.59,3.43-.54.24c-.47-.54-.99-.92-1.57-1.13-.58-.22-1.36-.32-2.35-.32-1.1,0-1.97.22-2.61.66-.64.44-1.1,1.14-1.38,2.09-.28.96-.42,2.26-.42,3.92,0,1.76.13,3.14.4,4.12.27.98.72,1.68,1.35,2.09.63.42,1.51.62,2.65.62s2.11-.12,2.86-.38c.76-.25,1.39-.65,1.89-1.19l.57.22-.81,3.16c-.65.68-1.34,1.19-2.07,1.51s-1.54.49-2.44.49c-2.03,0-3.67-.37-4.9-1.09Z"/><path class="cls-4" d="M536.71,597.83v-6.94c0-.59-.17-1.07-.5-1.42-.33-.35-.78-.53-1.34-.53-1.13,0-2.1.61-2.89,1.84v7.05l.27,4.05h-4.32l.27-4.05v-13.63l-.27-3.92h4.32l-.27,3.92v3.46c.95-1.44,2.43-2.16,4.43-2.16,1.26,0,2.25.4,2.98,1.19.73.79,1.09,1.95,1.09,3.48v7.67l.27,4.05h-4.32l.27-4.05Z"/><path class="cls-4" d="M553.96,585.87l-.62,3.32-.35.24c-.56-.36-1.36-.54-2.4-.54-.58,0-1.08.12-1.53.35-.44.23-.85.61-1.23,1.13v7.45l.27,4.05h-4.32l.27-4.05v-8.24l-.27-3.92h3.51l.46,1.7c.92-1.26,2.14-1.89,3.67-1.89,1.1,0,1.94.13,2.54.38Z"/><path class="cls-4" d="M556.13,583.62c-.48-.39-.72-.89-.72-1.5s.24-1.14.72-1.53c.48-.39,1.06-.58,1.74-.58s1.26.19,1.74.58.72.9.72,1.53-.24,1.11-.72,1.5c-.48.39-1.06.58-1.74.58s-1.27-.19-1.74-.58ZM555.96,597.83v-8.24l-.27-3.92h4.32l-.27,3.92v8.24l.27,4.05h-4.32l.27-4.05Z"/><path class="cls-4" d="M565.82,601.65c-.78-.33-1.57-.9-2.36-1.71l-.51-3.4.38-.11c.68.59,1.47,1.06,2.35,1.4s1.76.51,2.65.51,1.5-.08,1.85-.26.53-.47.53-.91c0-.4-.22-.73-.66-1-.44-.27-1.21-.57-2.31-.89-1.12-.32-1.99-.68-2.62-1.08-.63-.4-1.09-.89-1.38-1.5-.29-.6-.43-1.36-.43-2.28,0-1.64.49-2.9,1.47-3.78.98-.88,2.37-1.32,4.17-1.32,1.1,0,2.07.14,2.9.42.84.28,1.59.71,2.25,1.31l-.59,3.4-.4.11c-.29-.47-.81-.84-1.55-1.11-.75-.27-1.5-.41-2.25-.41-1.4,0-2.11.4-2.11,1.19,0,.45.19.8.58,1.05.39.25,1.14.53,2.25.84,1.58.43,2.74,1.03,3.47,1.8.73.77,1.09,1.8,1.09,3.09,0,1.66-.5,2.92-1.51,3.81-1.01.88-2.42,1.32-4.24,1.32-1.22,0-2.23-.17-3.01-.5Z"/><path class="cls-4" d="M576.99,586.76l1.73-1.08.81-3.38h2.97v3.38h4.27v3.65h-4.27v7.13c0,.63.14,1.12.42,1.46.28.34.69.51,1.23.51.58,0,1.1-.11,1.58-.32.48-.22.87-.51,1.17-.89l.57.27-.84,3.32c-.74.56-1.35.93-1.82,1.12-.48.19-1.06.28-1.74.28-1.04,0-1.88-.21-2.51-.63s-1.09-1.11-1.39-2.05c-.3-.95-.45-2.24-.45-3.87v-6.32h-1.73v-2.57Z"/><path class="cls-4" d="M590.87,600.2c-1.08-1.41-1.62-3.5-1.62-6.28s.56-4.82,1.69-6.32c1.12-1.49,2.79-2.24,5.01-2.24,1.22,0,2.17.09,2.85.28.67.19,1.33.53,1.96,1.01l-.59,3.38-.43.19c-.41-.41-.86-.71-1.35-.88-.49-.17-1.16-.26-2.03-.26-1.17,0-2,.37-2.48,1.12-.49.75-.73,1.99-.73,3.71,0,1.24.1,2.19.3,2.83.2.65.55,1.11,1.07,1.38.51.27,1.26.41,2.25.41.94,0,1.68-.09,2.24-.27.56-.18,1.05-.48,1.49-.89l.46.22-.84,3.32c-.7.56-1.33.93-1.88,1.12-.55.19-1.31.28-2.28.28-2.3,0-4-.71-5.08-2.12Z"/><path class="cls-4" d="M611.9,597.83v-6.94c0-.59-.17-1.07-.5-1.42-.33-.35-.78-.53-1.34-.53-1.13,0-2.1.61-2.89,1.84v7.05l.27,4.05h-4.32l.27-4.05v-13.63l-.27-3.92h4.32l-.27,3.92v3.46c.95-1.44,2.43-2.16,4.43-2.16,1.26,0,2.25.4,2.98,1.19.73.79,1.09,1.95,1.09,3.48v7.67l.27,4.05h-4.32l.27-4.05Z"/><path class="cls-4" d="M631.34,597.86l.27,4.02h-3.97l-.11-1.92c-1.01,1.49-2.48,2.24-4.4,2.24-1.28,0-2.28-.42-3-1.26-.72-.84-1.08-2.02-1.08-3.55v-7.67l-.27-4.05h4.32l-.27,4.05v6.94c0,.63.17,1.13.51,1.51.34.38.78.57,1.32.57,1.06,0,2.02-.66,2.89-1.97v-7.05l-.27-4.05h4.32l-.27,4.05v8.13Z"/><path class="cls-4" d="M645,585.87l-.62,3.32-.35.24c-.56-.36-1.36-.54-2.4-.54-.58,0-1.08.12-1.53.35-.44.23-.85.61-1.23,1.13v7.45l.27,4.05h-4.32l.27-4.05v-8.24l-.27-3.92h3.51l.46,1.7c.92-1.26,2.14-1.89,3.67-1.89,1.1,0,1.94.13,2.54.38Z"/><path class="cls-4" d="M647.84,600.2c-1.08-1.41-1.62-3.5-1.62-6.28s.56-4.82,1.69-6.32c1.12-1.49,2.79-2.24,5.01-2.24,1.22,0,2.17.09,2.85.28.67.19,1.33.53,1.96,1.01l-.59,3.38-.43.19c-.41-.41-.86-.71-1.35-.88-.49-.17-1.16-.26-2.03-.26-1.17,0-2,.37-2.48,1.12-.49.75-.73,1.99-.73,3.71,0,1.24.1,2.19.3,2.83.2.65.55,1.11,1.07,1.38.51.27,1.26.41,2.25.41.94,0,1.68-.09,2.24-.27.56-.18,1.05-.48,1.49-.89l.46.22-.84,3.32c-.7.56-1.33.93-1.88,1.12-.55.19-1.31.28-2.28.28-2.3,0-4-.71-5.08-2.12Z"/><path class="cls-4" d="M668.87,597.83v-6.94c0-.59-.17-1.07-.5-1.42-.33-.35-.78-.53-1.34-.53-1.13,0-2.1.61-2.89,1.84v7.05l.27,4.05h-4.32l.27-4.05v-13.63l-.27-3.92h4.32l-.27,3.92v3.46c.95-1.44,2.43-2.16,4.43-2.16,1.26,0,2.25.4,2.98,1.19.73.79,1.09,1.95,1.09,3.48v7.67l.27,4.05h-4.32l.27-4.05Z"/><path class="cls-4" d="M608.89,483.48l.08,4.05,1.86,12.77,3-16.82h4.78l2.86,17.01,1.94-12.96.08-4.05h4.35l-.92,4.05-2,12.26-.38,3.94h-6.35l-2.38-15.55-2.43,15.55h-6.1l-.41-4.05-2.02-12.15-.92-4.05h4.94Z"/><path class="cls-4" d="M644.72,500l-.59,3.73h-11.96l.27-4.05v-12.29l-.27-3.92h12.28l-.59,3.73h-7.53v4.24h6.86l-.59,3.73h-6.26v4.83h8.4Z"/><path class="cls-4" d="M662.35,500l-.59,3.73h-11.96l.27-4.05v-12.29l-.27-3.92h4.43l-.27,3.92v12.29l.03.32h8.37Z"/><path class="cls-4" d="M679.36,500l-.59,3.73h-11.96l.27-4.05v-12.29l-.27-3.92h4.43l-.27,3.92v12.29l.03.32h8.37Z"/><path class="cls-4" d="M684.09,499.68v-12.29l-.27-3.92h4.43l-.27,3.92v12.29l.27,4.05h-4.43l.27-4.05Z"/><path class="cls-4" d="M708.82,499.68l.27,4.05h-6.13l-5.16-15.98v11.93l.27,4.05h-3.89l.27-4.05v-12.29l-.27-3.92h6.16l5.13,15.9v-11.99l-.27-3.92h3.89l-.27,3.92v12.29Z"/><path class="cls-4" d="M716.39,485.6c1.31-1.7,3.47-2.55,6.49-2.55.97,0,1.96.17,2.96.5,1,.33,1.94.84,2.82,1.53l-.59,3.43-.54.24c-.49-.58-1.14-1.04-1.97-1.38-.83-.34-1.72-.51-2.67-.51-1.1,0-1.97.22-2.61.66-.64.44-1.1,1.14-1.38,2.09-.28.96-.42,2.26-.42,3.92,0,1.75.12,3.11.35,4.09.23.98.63,1.68,1.17,2.11.55.42,1.31.63,2.28.63,1.22,0,2.12-.35,2.67-1.05.56-.7.84-1.85.84-3.46h-3.89v-3.73h7.67v11.61h-2.16l-.68-2.02c-.47.72-1.14,1.31-2.02,1.77-.88.46-1.78.69-2.7.69-1.76,0-3.2-.37-4.31-1.11s-1.93-1.89-2.47-3.44-.81-3.59-.81-6.09c0-3.58.65-6.22,1.96-7.92Z"/><path class="cls-4" d="M748.08,487.31l-.3.08-2.43-.32h-2.48v12.61l.27,4.05h-4.43l.27-4.05v-12.61h-2.48l-2.43.32-.3-.08.59-3.83h13.12l.59,3.83Z"/><path class="cls-4" d="M753.83,501.45c-1.31-1.81-1.97-4.45-1.97-7.92s.65-6.04,1.96-7.82c1.31-1.77,3.28-2.66,5.93-2.66s4.62.89,5.93,2.66c1.31,1.77,1.96,4.38,1.96,7.82s-.66,6.12-1.97,7.92c-1.31,1.81-3.29,2.71-5.91,2.71s-4.6-.91-5.91-2.71ZM762.02,499.72c.55-.42.95-1.12,1.19-2.11.24-.98.36-2.34.36-4.09s-.12-3.01-.36-3.97c-.24-.95-.64-1.64-1.2-2.07-.56-.42-1.31-.63-2.27-.63s-1.71.21-2.27.63c-.56.42-.96,1.11-1.2,2.07s-.36,2.28-.36,3.97.12,3.11.36,4.09c.24.98.64,1.68,1.19,2.11.55.42,1.31.63,2.28.63s1.73-.21,2.28-.63Z"/><path class="cls-4" d="M787.61,499.68l.27,4.05h-6.13l-5.16-15.98v11.93l.27,4.05h-3.89l.27-4.05v-12.29l-.27-3.92h6.16l5.13,15.9v-11.99l-.27-3.92h3.89l-.27,3.92v12.29Z"/><path class="cls-4" d="M603.84,506.43v-1.35h185.65v1.35h-185.65Z"/><path class="cls-6" d="M486.83,180.15h-4.72l-.62-4.05v-.05l-6.91.05-.62,4.05h-4.19l1.32-4.05,3.32-12.15.81-4.05h5.97l.81,4.05,3.51,12.15,1.32,4.05ZM480.4,172.35l-2.46-8.64-2.35,8.67,4.81-.03Z"/><path class="cls-6" d="M501.14,176.13l.27,4.02h-3.97l-.11-1.92c-1.01,1.49-2.48,2.24-4.4,2.24-1.28,0-2.28-.42-3-1.26-.72-.84-1.08-2.02-1.08-3.55v-7.67l-.27-4.05h4.32l-.27,4.05v6.94c0,.63.17,1.13.51,1.51.34.38.78.57,1.32.57,1.06,0,2.02-.66,2.89-1.97v-7.05l-.27-4.05h4.32l-.27,4.05v8.13Z"/><path class="cls-6" d="M505.81,178.46c-1.08-1.41-1.62-3.51-1.62-6.28s.56-4.82,1.69-6.32c1.12-1.49,2.79-2.24,5.01-2.24,1.22,0,2.17.09,2.85.28.67.19,1.33.53,1.96,1.01l-.59,3.38-.43.19c-.41-.41-.86-.71-1.35-.88-.49-.17-1.16-.26-2.03-.26-1.17,0-2,.37-2.48,1.12-.49.75-.73,1.98-.73,3.71,0,1.24.1,2.19.3,2.83s.55,1.11,1.07,1.38c.51.27,1.26.4,2.25.4.94,0,1.68-.09,2.24-.27.56-.18,1.05-.48,1.49-.89l.46.22-.84,3.32c-.7.56-1.33.93-1.88,1.12-.55.19-1.31.28-2.28.28-2.3,0-4-.71-5.08-2.12Z"/><path class="cls-6" d="M532.32,180.15h-4.94l-1.38-3.92-1.67-3.48-2.21,2.75v.59l.27,4.05h-4.32l.27-4.05v-13.64l-.27-3.92h4.32l-.27,3.92v8.42l2.27-3.02,2.21-3.92h5.21l-3.51,3.92-1.59,1.97,3.27,6.4,2.35,3.92Z"/><path class="cls-6" d="M534.19,176.1v-13.64l-.27-3.92h4.32l-.27,3.92v13.64l.27,4.05h-4.32l.27-4.05Z"/><path class="cls-6" d="M541.6,172.85c.5-.84,1.15-1.5,1.97-1.98.82-.49,1.71-.73,2.66-.73,1.66,0,2.94.24,3.86.73v-1.43c0-.68-.27-1.21-.82-1.59-.55-.38-1.32-.57-2.31-.57-1.06,0-2,.17-2.82.51-.82.34-1.44.86-1.88,1.54l-.3-.05.49-4c.61-.54,1.37-.96,2.28-1.26.91-.3,1.83-.45,2.77-.45,1.94,0,3.49.46,4.64,1.38s1.73,2.17,1.73,3.75v7.43l.27,4.02h-3.97l-.08-1.48c-.36.58-.92,1.04-1.69,1.39-.77.35-1.61.53-2.52.53-1.53,0-2.75-.44-3.66-1.32-.91-.88-1.36-2.09-1.36-3.62,0-1.03.25-1.96.74-2.79ZM545.22,176.82c.31.33.78.5,1.39.5.67,0,1.3-.13,1.9-.39.6-.26,1.13-.63,1.58-1.12v-1.84c-1.01-.49-2.14-.73-3.4-.73-.67,0-1.16.18-1.47.54-.31.36-.47.9-.47,1.62,0,.61.16,1.08.47,1.42Z"/><path class="cls-6" d="M565.94,176.1v-6.94c0-.59-.17-1.07-.5-1.42-.33-.35-.78-.53-1.34-.53-1.13,0-2.1.61-2.89,1.84v7.05l.27,4.05h-4.32l.27-4.05v-8.24l-.27-3.92h3.51l.54,1.97c.95-1.44,2.43-2.16,4.43-2.16,1.26,0,2.25.4,2.98,1.19.73.79,1.09,1.95,1.09,3.48v7.67l.27,4.05h-4.32l.27-4.05Z"/><path class="cls-6" d="M585.7,176.13l.27,4.02h-3.97l-.08-1.46c-.34.49-.85.89-1.53,1.2-.68.31-1.32.47-1.93.47-1.89,0-3.34-.72-4.36-2.15-1.02-1.43-1.53-3.5-1.53-6.2,0-2.86.47-4.98,1.42-6.35.94-1.37,2.34-2.05,4.2-2.05.74,0,1.43.08,2.08.24.65.16,1.2.39,1.65.67v-2.08l-.27-3.92h4.32l-.27,3.92v13.66ZM581.92,167.7c-.59-.23-1.48-.35-2.65-.35-.76,0-1.33.13-1.73.38-.4.25-.67.71-.84,1.36-.16.66-.24,1.63-.24,2.93s.08,2.2.23,2.86c.15.67.41,1.14.77,1.42.36.28.87.42,1.54.42.5,0,1.04-.08,1.61-.23.57-.15,1-.34,1.31-.55v-8.23Z"/><path class="cls-6" d="M515.42,601.22c-1.23-.73-2.13-1.87-2.7-3.42-.57-1.55-.85-3.59-.85-6.13,0-3.58.65-6.22,1.96-7.92,1.31-1.7,3.47-2.55,6.49-2.55,1.15,0,2.08.11,2.79.34.71.23,1.46.64,2.25,1.26l-.59,3.43-.54.24c-.47-.54-.99-.92-1.57-1.13-.58-.22-1.36-.32-2.35-.32-1.1,0-1.97.22-2.61.66-.64.44-1.1,1.14-1.38,2.09-.28.96-.42,2.26-.42,3.92,0,1.76.13,3.14.4,4.12.27.98.72,1.68,1.35,2.09.63.42,1.51.62,2.65.62s2.11-.12,2.86-.38c.76-.25,1.39-.65,1.89-1.19l.57.22-.81,3.16c-.65.68-1.34,1.19-2.07,1.51s-1.54.49-2.44.49c-2.03,0-3.67-.37-4.9-1.09Z"/><path class="cls-6" d="M536.71,597.83v-6.94c0-.59-.17-1.07-.5-1.42-.33-.35-.78-.53-1.34-.53-1.13,0-2.1.61-2.89,1.84v7.05l.27,4.05h-4.32l.27-4.05v-13.63l-.27-3.92h4.32l-.27,3.92v3.46c.95-1.44,2.43-2.16,4.43-2.16,1.26,0,2.25.4,2.98,1.19.73.79,1.09,1.95,1.09,3.48v7.67l.27,4.05h-4.32l.27-4.05Z"/><path class="cls-6" d="M553.96,585.87l-.62,3.32-.35.24c-.56-.36-1.36-.54-2.4-.54-.58,0-1.08.12-1.53.35-.44.23-.85.61-1.23,1.13v7.45l.27,4.05h-4.32l.27-4.05v-8.24l-.27-3.92h3.51l.46,1.7c.92-1.26,2.14-1.89,3.67-1.89,1.1,0,1.94.13,2.54.38Z"/><path class="cls-6" d="M556.13,583.62c-.48-.39-.72-.89-.72-1.5s.24-1.14.72-1.53c.48-.39,1.06-.58,1.74-.58s1.26.19,1.74.58.72.9.72,1.53-.24,1.11-.72,1.5c-.48.39-1.06.58-1.74.58s-1.27-.19-1.74-.58ZM555.96,597.83v-8.24l-.27-3.92h4.32l-.27,3.92v8.24l.27,4.05h-4.32l.27-4.05Z"/><path class="cls-6" d="M565.82,601.65c-.78-.33-1.57-.9-2.36-1.71l-.51-3.4.38-.11c.68.59,1.47,1.06,2.35,1.4s1.76.51,2.65.51,1.5-.08,1.85-.26.53-.47.53-.91c0-.4-.22-.73-.66-1-.44-.27-1.21-.57-2.31-.89-1.12-.32-1.99-.68-2.62-1.08-.63-.4-1.09-.89-1.38-1.5-.29-.6-.43-1.36-.43-2.28,0-1.64.49-2.9,1.47-3.78.98-.88,2.37-1.32,4.17-1.32,1.1,0,2.07.14,2.9.42.84.28,1.59.71,2.25,1.31l-.59,3.4-.4.11c-.29-.47-.81-.84-1.55-1.11-.75-.27-1.5-.41-2.25-.41-1.4,0-2.11.4-2.11,1.19,0,.45.19.8.58,1.05.39.25,1.14.53,2.25.84,1.58.43,2.74,1.03,3.47,1.8.73.77,1.09,1.8,1.09,3.09,0,1.66-.5,2.92-1.51,3.81-1.01.88-2.42,1.32-4.24,1.32-1.22,0-2.23-.17-3.01-.5Z"/><path class="cls-6" d="M576.99,586.76l1.73-1.08.81-3.38h2.97v3.38h4.27v3.65h-4.27v7.13c0,.63.14,1.12.42,1.46.28.34.69.51,1.23.51.58,0,1.1-.11,1.58-.32.48-.22.87-.51,1.17-.89l.57.27-.84,3.32c-.74.56-1.35.93-1.82,1.12-.48.19-1.06.28-1.74.28-1.04,0-1.88-.21-2.51-.63s-1.09-1.11-1.39-2.05c-.3-.95-.45-2.24-.45-3.87v-6.32h-1.73v-2.57Z"/><path class="cls-6" d="M590.87,600.2c-1.08-1.41-1.62-3.5-1.62-6.28s.56-4.82,1.69-6.32c1.12-1.49,2.79-2.24,5.01-2.24,1.22,0,2.17.09,2.85.28.67.19,1.33.53,1.96,1.01l-.59,3.38-.43.19c-.41-.41-.86-.71-1.35-.88-.49-.17-1.16-.26-2.03-.26-1.17,0-2,.37-2.48,1.12-.49.75-.73,1.99-.73,3.71,0,1.24.1,2.19.3,2.83.2.65.55,1.11,1.07,1.38.51.27,1.26.41,2.25.41.94,0,1.68-.09,2.24-.27.56-.18,1.05-.48,1.49-.89l.46.22-.84,3.32c-.7.56-1.33.93-1.88,1.12-.55.19-1.31.28-2.28.28-2.3,0-4-.71-5.08-2.12Z"/><path class="cls-6" d="M611.9,597.83v-6.94c0-.59-.17-1.07-.5-1.42-.33-.35-.78-.53-1.34-.53-1.13,0-2.1.61-2.89,1.84v7.05l.27,4.05h-4.32l.27-4.05v-13.63l-.27-3.92h4.32l-.27,3.92v3.46c.95-1.44,2.43-2.16,4.43-2.16,1.26,0,2.25.4,2.98,1.19.73.79,1.09,1.95,1.09,3.48v7.67l.27,4.05h-4.32l.27-4.05Z"/><path class="cls-6" d="M631.34,597.86l.27,4.02h-3.97l-.11-1.92c-1.01,1.49-2.48,2.24-4.4,2.24-1.28,0-2.28-.42-3-1.26-.72-.84-1.08-2.02-1.08-3.55v-7.67l-.27-4.05h4.32l-.27,4.05v6.94c0,.63.17,1.13.51,1.51.34.38.78.57,1.32.57,1.06,0,2.02-.66,2.89-1.97v-7.05l-.27-4.05h4.32l-.27,4.05v8.13Z"/><path class="cls-6" d="M645,585.87l-.62,3.32-.35.24c-.56-.36-1.36-.54-2.4-.54-.58,0-1.08.12-1.53.35-.44.23-.85.61-1.23,1.13v7.45l.27,4.05h-4.32l.27-4.05v-8.24l-.27-3.92h3.51l.46,1.7c.92-1.26,2.14-1.89,3.67-1.89,1.1,0,1.94.13,2.54.38Z"/><path class="cls-6" d="M647.84,600.2c-1.08-1.41-1.62-3.5-1.62-6.28s.56-4.82,1.69-6.32c1.12-1.49,2.79-2.24,5.01-2.24,1.22,0,2.17.09,2.85.28.67.19,1.33.53,1.96,1.01l-.59,3.38-.43.19c-.41-.41-.86-.71-1.35-.88-.49-.17-1.16-.26-2.03-.26-1.17,0-2,.37-2.48,1.12-.49.75-.73,1.99-.73,3.71,0,1.24.1,2.19.3,2.83.2.65.55,1.11,1.07,1.38.51.27,1.26.41,2.25.41.94,0,1.68-.09,2.24-.27.56-.18,1.05-.48,1.49-.89l.46.22-.84,3.32c-.7.56-1.33.93-1.88,1.12-.55.19-1.31.28-2.28.28-2.3,0-4-.71-5.08-2.12Z"/><path class="cls-6" d="M668.87,597.83v-6.94c0-.59-.17-1.07-.5-1.42-.33-.35-.78-.53-1.34-.53-1.13,0-2.1.61-2.89,1.84v7.05l.27,4.05h-4.32l.27-4.05v-13.63l-.27-3.92h4.32l-.27,3.92v3.46c.95-1.44,2.43-2.16,4.43-2.16,1.26,0,2.25.4,2.98,1.19.73.79,1.09,1.95,1.09,3.48v7.67l.27,4.05h-4.32l.27-4.05Z"/><path class="cls-6" d="M608.89,483.48l.08,4.05,1.86,12.77,3-16.82h4.78l2.86,17.01,1.94-12.96.08-4.05h4.35l-.92,4.05-2,12.26-.38,3.94h-6.35l-2.38-15.55-2.43,15.55h-6.1l-.41-4.05-2.02-12.15-.92-4.05h4.94Z"/><path class="cls-6" d="M644.72,500l-.59,3.73h-11.96l.27-4.05v-12.29l-.27-3.92h12.28l-.59,3.73h-7.53v4.24h6.86l-.59,3.73h-6.26v4.83h8.4Z"/><path class="cls-6" d="M662.35,500l-.59,3.73h-11.96l.27-4.05v-12.29l-.27-3.92h4.43l-.27,3.92v12.29l.03.32h8.37Z"/><path class="cls-6" d="M679.36,500l-.59,3.73h-11.96l.27-4.05v-12.29l-.27-3.92h4.43l-.27,3.92v12.29l.03.32h8.37Z"/><path class="cls-6" d="M684.09,499.68v-12.29l-.27-3.92h4.43l-.27,3.92v12.29l.27,4.05h-4.43l.27-4.05Z"/><path class="cls-6" d="M708.82,499.68l.27,4.05h-6.13l-5.16-15.98v11.93l.27,4.05h-3.89l.27-4.05v-12.29l-.27-3.92h6.16l5.13,15.9v-11.99l-.27-3.92h3.89l-.27,3.92v12.29Z"/><path class="cls-6" d="M716.39,485.6c1.31-1.7,3.47-2.55,6.49-2.55.97,0,1.96.17,2.96.5,1,.33,1.94.84,2.82,1.53l-.59,3.43-.54.24c-.49-.58-1.14-1.04-1.97-1.38-.83-.34-1.72-.51-2.67-.51-1.1,0-1.97.22-2.61.66-.64.44-1.1,1.14-1.38,2.09-.28.96-.42,2.26-.42,3.92,0,1.75.12,3.11.35,4.09.23.98.63,1.68,1.17,2.11.55.42,1.31.63,2.28.63,1.22,0,2.12-.35,2.67-1.05.56-.7.84-1.85.84-3.46h-3.89v-3.73h7.67v11.61h-2.16l-.68-2.02c-.47.72-1.14,1.31-2.02,1.77-.88.46-1.78.69-2.7.69-1.76,0-3.2-.37-4.31-1.11s-1.93-1.89-2.47-3.44-.81-3.59-.81-6.09c0-3.58.65-6.22,1.96-7.92Z"/><path class="cls-6" d="M748.08,487.31l-.3.08-2.43-.32h-2.48v12.61l.27,4.05h-4.43l.27-4.05v-12.61h-2.48l-2.43.32-.3-.08.59-3.83h13.12l.59,3.83Z"/><path class="cls-6" d="M753.83,501.45c-1.31-1.81-1.97-4.45-1.97-7.92s.65-6.04,1.96-7.82c1.31-1.77,3.28-2.66,5.93-2.66s4.62.89,5.93,2.66c1.31,1.77,1.96,4.38,1.96,7.82s-.66,6.12-1.97,7.92c-1.31,1.81-3.29,2.71-5.91,2.71s-4.6-.91-5.91-2.71ZM762.02,499.72c.55-.42.95-1.12,1.19-2.11.24-.98.36-2.34.36-4.09s-.12-3.01-.36-3.97c-.24-.95-.64-1.64-1.2-2.07-.56-.42-1.31-.63-2.27-.63s-1.71.21-2.27.63c-.56.42-.96,1.11-1.2,2.07s-.36,2.28-.36,3.97.12,3.11.36,4.09c.24.98.64,1.68,1.19,2.11.55.42,1.31.63,2.28.63s1.73-.21,2.28-.63Z"/><path class="cls-6" d="M787.61,499.68l.27,4.05h-6.13l-5.16-15.98v11.93l.27,4.05h-3.89l.27-4.05v-12.29l-.27-3.92h6.16l5.13,15.9v-11.99l-.27-3.92h3.89l-.27,3.92v12.29Z"/><path class="cls-6" d="M603.84,506.43v-1.35h185.65v1.35h-185.65Z"/></g><g id="pois"><g id="Capital"><circle class="cls-1" cx="601.06" cy="454.11" r="4.78"/><circle class="cls-1" cx="601.06" cy="454.11" r="4.78"/><circle class="cls-1" cx="601.06" cy="454.11" r="4.78"/><circle class="cls-1" cx="601.06" cy="454.11" r="1.28"/></g><g id="Layer_10"><circle class="cls-1" cx="484.41" cy="601.88" r="4.78"/><circle class="cls-1" cx="601.64" cy="159.92" r="4.78"/><circle class="cls-1" cx="484.41" cy="601.88" r="4.78"/><circle class="cls-1" cx="601.64" cy="159.92" r="4.78"/><circle class="cls-1" cx="484.41" cy="601.88" r="4.78"/><circle class="cls-1" cx="601.64" cy="159.92" r="4.78"/></g><g id="Capital-2"><circle class="cls-5" cx="601.06" cy="454.11" r="4.78"/><circle class="cls-3" cx="601.06" cy="454.11" r="4.78"/><circle class="cls-6" cx="601.06" cy="454.11" r="1.28"/></g><g id="Layer_10-2"><circle class="cls-5" cx="484.41" cy="601.88" r="4.78"/><circle class="cls-5" cx="601.64" cy="159.92" r="4.78"/><circle class="cls-3" cx="484.41" cy="601.88" r="4.78"/><circle class="cls-3" cx="601.64" cy="159.92" r="4.78"/></g></g></svg>