<?xml version="1.0" encoding="UTF-8"?><svg id="UI" xmlns="http://www.w3.org/2000/svg" xmlns:xlink="http://www.w3.org/1999/xlink" viewBox="0 0 960 639.15"><defs><style>.cls-1,.cls-2,.cls-3,.cls-4,.cls-5,.cls-6,.cls-7,.cls-8,.cls-9,.cls-10,.cls-11,.cls-12,.cls-13,.cls-14,.cls-15,.cls-16{fill:none;}.cls-2{stroke:#1d1d1b;}.cls-3,.cls-17,.cls-18,.cls-19,.cls-4,.cls-20,.cls-21,.cls-5,.cls-6,.cls-7,.cls-8,.cls-22,.cls-23,.cls-10,.cls-11,.cls-13,.cls-14,.cls-15,.cls-16{stroke-miterlimit:10;}.cls-3,.cls-20,.cls-9,.cls-23,.cls-14,.cls-16{stroke:#b3b3b3;}.cls-24{fill:#e6e6e6;}.cls-25{fill:#3fa9f5;}.cls-17,.cls-21,.cls-26{fill:#fff;}.cls-17,.cls-7{stroke:#3fa9f5;}.cls-27{fill:#e6e6e6;}.cls-18,.cls-19,.cls-5,.cls-22{stroke:#1a1a1a;}.cls-18,.cls-20,.cls-23,.cls-28{fill:#4d4d4d;}.cls-19{fill:#1a1a1a;}.cls-4{stroke-dasharray:1 2;}.cls-4,.cls-6,.cls-13{stroke:#e6e6e6;}.cls-29{fill:#ccc;}.cls-20,.cls-9,.cls-16{stroke-width:.75px;}.cls-30{fill:#b3b3b3;}.cls-21,.cls-8{stroke:#000;}.cls-31{fill:#003280;}.cls-32{fill:#666;}.cls-22,.cls-33{fill:#333;}.cls-34{opacity:.5;}.cls-35{fill:#f7f7f7;}.cls-9{stroke-dasharray:3 2;}.cls-36{fill:#f5f5f5;}.cls-23{stroke-width:2.5px;}.cls-10{stroke-width:9px;}.cls-10,.cls-11,.cls-12{stroke:#003280;}.cls-11,.cls-12{stroke-width:8px;}.cls-13{stroke-width:1.25px;}.cls-14{stroke-width:2px;}.cls-15{stroke:#666;}</style><symbol id="appearance" viewBox="0 0 22.99 22.99"><circle class="cls-30" cx="11.49" cy="11.49" r="8.12"/><path class="cls-9" d="M11.5,22.61C5.36,22.61.38,17.63.38,11.49S5.36.38,11.5.38s11.12,4.99,11.12,11.12-4.99,11.12-11.12,11.12Z"/></symbol><symbol id="appearance-bottom-bar" viewBox="0 0 285.56 20.02"><rect class="cls-14" x="1" y="2" width="15.01" height="15.01"/><rect class="cls-30" x="34.94" y="3" width="13.01" height="13.01"/><path class="cls-28" d="M46.95,4v11.01h-11.01V4h11.01M48.95,2h-15.01v15.01h15.01V2h0Z"/><rect class="cls-3" x="33.94" y="2" width="15.01" height="15.01"/><use width="14.85" height="19.67" transform="translate(66.54 .35)" xlink:href="#fx-icon"/><use width="19" height="19" transform="translate(203.98)" xlink:href="#stop-icon"/><rect class="cls-3" x="238.19" y="1.72" width="15.62" height="15.62"/><use width="15.49" height="17.31" transform="translate(270.08 .18)" xlink:href="#trash-icon"/><line class="cls-3" x1="246" y1="6.57" x2="246" y2="12.48"/><line class="cls-3" x1="248.96" y1="9.53" x2="243.05" y2="9.53"/></symbol><symbol id="appearance-styles-nav" viewBox="0 0 49.94 111.88"><rect class="cls-18" x=".5" y="17.52" width="48.94" height="93.86"/><rect class="cls-33" x="4.97" y="27.81" width="40" height="31" rx="2" ry="2"/><rect class="cls-15" x="4.97" y="27.81" width="40" height="31" rx="2" ry="2"/><use width="22.99" height="22.99" transform="translate(13.48 31.81)" xlink:href="#appearance"/><rect class="cls-1" x="4.97" y="71.07" width="40" height="31"/><use width="23.75" height="24.62" transform="translate(13.1 74.7)" xlink:href="#styles"/><use width="27.88" height="3" transform="translate(11.03 21.59)" xlink:href="#drag-indicator"/><use width="49.94" height="18.02" xlink:href="#panel-top-bar"/></symbol><symbol id="corner" viewBox="0 0 11 11"><rect class="cls-17" x=".5" y=".5" width="10" height="10"/></symbol><symbol id="drag-indicator" viewBox="0 0 27.88 3"><line class="cls-18" x1=".5" x2=".5" y2="3"/><line class="cls-18" x1="3.49" x2="3.49" y2="3"/><line class="cls-18" x1="6.47" x2="6.47" y2="3"/><line class="cls-18" x1="9.46" x2="9.46" y2="3"/><line class="cls-18" x1="12.45" x2="12.45" y2="3"/><line class="cls-18" x1="15.44" x2="15.44" y2="3"/><line class="cls-18" x1="18.42" x2="18.42" y2="3"/><line class="cls-18" x1="21.41" x2="21.41" y2="3"/><line class="cls-18" x1="24.4" x2="24.4" y2="3"/><line class="cls-18" x1="27.38" x2="27.38" y2="3"/></symbol><symbol id="eye" viewBox="0 0 20.96 12.42"><path class="cls-29" d="M10.48,0C4.69,0,0,6.21,0,6.21c0,0,4.69,6.21,10.48,6.21s10.48-6.21,10.48-6.21c0,0-4.69-6.21-10.48-6.21ZM10.48,11.02c-2.66,0-4.81-2.16-4.81-4.81S7.82,1.39,10.48,1.39s4.81,2.16,4.81,4.81-2.16,4.81-4.81,4.81Z"/><circle class="cls-29" cx="10.48" cy="6.21" r="2.63"/></symbol><symbol id="fx-icon" viewBox="0 0 14.85 19.67"><path class="cls-24" d="M.72,15.07l1.43-7.54H.98l.23-1.17h1.16l.08-.46c.21-1.21.65-2.33,1.43-3.04.55-.5,1.31-.77,2.07-.77.6,0,.99.12,1.2.23l-.32,1.2c-.23-.11-.54-.17-.87-.17-1.19,0-1.76,1.16-2.02,2.6l-.08.42h1.94l-.23,1.17h-1.94l-1.43,7.54H.72Z"/><path class="cls-24" d="M7.84,6.36l.85,1.9c.25.56.41.99.58,1.39h.05c.33-.48.53-.79.95-1.32l1.61-1.97h1.72l-3.67,4.24,2.06,4.47h-1.63l-.88-1.97c-.3-.65-.42-.98-.63-1.55h-.05c-.26.42-.52.82-.89,1.33l-1.76,2.19h-1.73l3.82-4.48-2.02-4.22h1.62Z"/><line class="cls-13" x1=".12" y1="6.88" x2="8.03" y2="6.88"/><polygon class="cls-24" points="12.52 15.07 14.85 15.07 13.68 16.65 12.52 15.07"/></symbol><symbol id="opacity-default" viewBox="0 0 120.99 19.67"><path class="cls-24" d="M67.22,3.1c.96-.16,2.1-.26,3.33-.26,2.25,0,3.85.53,4.92,1.52,1.08.98,1.72,2.39,1.72,4.34s-.62,3.6-1.75,4.72c-1.15,1.13-3.02,1.75-5.37,1.75-1.12,0-2.05-.04-2.85-.14V3.1ZM68.79,13.83c.4.06.98.07,1.58.07,3.36,0,5.17-1.86,5.17-5.14.02-2.87-1.6-4.67-4.91-4.67-.81,0-1.42.08-1.84.16v9.59Z"/><path class="cls-24" d="M80.12,11c.03,2.14,1.39,3.02,2.98,3.02,1.13,0,1.83-.2,2.41-.45l.28,1.12c-.55.25-1.52.56-2.91.56-2.68,0-4.28-1.78-4.28-4.39s1.55-4.7,4.1-4.7c2.84,0,3.58,2.49,3.58,4.1,0,.33-.02.57-.05.74h-6.11ZM84.75,9.86c.02-1-.41-2.56-2.18-2.56-1.62,0-2.3,1.46-2.43,2.56h4.62Z"/><path class="cls-24" d="M88.4,15.07v-7.51h-1.22v-1.2h1.22v-.42c0-1.23.28-2.34,1.01-3.05.59-.57,1.39-.8,2.12-.8.57,0,1.05.12,1.35.26l-.21,1.22c-.24-.11-.55-.2-1.02-.2-1.34,0-1.69,1.19-1.69,2.53v.47h2.1v1.2h-2.1v7.51h-1.58Z"/><path class="cls-24" d="M98.33,15.07l-.14-1.1h-.05c-.48.68-1.42,1.3-2.66,1.3-1.76,0-2.66-1.25-2.66-2.5,0-2.11,1.87-3.27,5.23-3.24v-.19c0-.71-.2-2.02-1.98-2.01-.81,0-1.66.24-2.27.65l-.36-1.05c.72-.47,1.78-.76,2.87-.76,2.66,0,3.31,1.82,3.31,3.56v3.26c0,.74.03,1.49.13,2.08h-1.43ZM98.09,10.62c-1.71-.04-3.68.27-3.68,1.96,0,1.04.68,1.52,1.48,1.52,1.15,0,1.87-.72,2.12-1.46.05-.17.08-.35.08-.5v-1.51Z"/><path class="cls-24" d="M109.46,12.68c0,.91.03,1.69.07,2.38h-1.4l-.08-1.42h-.04c-.4.7-1.32,1.62-2.88,1.62-1.36,0-3-.76-3-3.82v-5.09h1.58v4.81c0,1.66.52,2.79,1.95,2.79,1.06,0,1.8-.74,2.1-1.45.08-.23.14-.51.14-.81v-5.33h1.58v6.32Z"/><path class="cls-24" d="M112.1,2.28h1.58v12.78h-1.58V2.28Z"/><path class="cls-24" d="M118.25,3.85v2.51h2.28v1.2h-2.28v4.69c0,1.08.31,1.7,1.2,1.7.41,0,.71-.05.92-.11l.07,1.2c-.31.12-.8.22-1.41.22-.73,0-1.33-.24-1.71-.67-.44-.48-.61-1.25-.61-2.27v-4.75h-1.35v-1.2h1.35v-2.1l1.55-.41Z"/><line class="cls-4" x1=".76" y1="18.58" x2="63.34" y2="18.58"/><path class="cls-35" d="M11.74,8.88c0,4.16-2.54,6.39-5.63,6.39S.66,12.77.66,9.1,3.04,2.73,6.28,2.73s5.47,2.54,5.47,6.14ZM2.31,9.07c0,2.6,1.41,4.92,3.88,4.92s3.89-2.29,3.89-5.04c0-2.42-1.26-4.94-3.87-4.94s-3.9,2.41-3.9,5.06Z"/><path class="cls-35" d="M13.75,9.19c0-1.11-.03-2.01-.07-2.84h1.42l.09,1.48h.04c.63-1.06,1.68-1.68,3.09-1.68,2.11,0,3.7,1.78,3.7,4.42,0,3.14-1.92,4.69-3.96,4.69-1.16,0-2.17-.51-2.68-1.37h-.04v4.74h-1.57v-9.44ZM15.33,11.52c0,.22.02.44.07.64.28,1.11,1.24,1.86,2.37,1.86,1.68,0,2.65-1.38,2.65-3.37,0-1.74-.91-3.23-2.59-3.23-1.08,0-2.1.76-2.4,1.95-.05.2-.1.44-.1.64v1.51Z"/><path class="cls-35" d="M28.83,15.07l-.14-1.1h-.05c-.48.68-1.42,1.3-2.66,1.3-1.76,0-2.66-1.25-2.66-2.5,0-2.11,1.87-3.27,5.23-3.24v-.19c0-.71-.2-2.02-1.98-2.01-.81,0-1.66.24-2.27.65l-.36-1.05c.72-.47,1.78-.76,2.87-.76,2.66,0,3.31,1.82,3.31,3.56v3.26c0,.74.03,1.49.13,2.08h-1.43ZM28.58,10.62c-1.71-.04-3.68.27-3.68,1.96,0,1.04.68,1.52,1.48,1.52,1.15,0,1.87-.72,2.12-1.46.06-.17.08-.35.08-.5v-1.51Z"/><path class="cls-35" d="M38.88,14.75c-.42.2-1.33.5-2.5.5-2.63,0-4.35-1.79-4.35-4.45s1.83-4.64,4.68-4.64c.93,0,1.77.24,2.2.46l-.35,1.22c-.39-.21-.98-.42-1.85-.42-1.99,0-3.08,1.49-3.07,3.3,0,2.02,1.3,3.26,3.03,3.26.89,0,1.49-.22,1.94-.42l.27,1.19Z"/><path class="cls-35" d="M42.51,3.9c0,.54-.38.98-1.01.98-.57,0-.96-.45-.96-.98,0-.54.41-.99.99-.99s.97.43.98.99ZM40.74,15.07V6.36h1.58v8.71h-1.58Z"/><path class="cls-35" d="M46.85,3.85v2.51h2.28v1.2h-2.28v4.69c0,1.08.31,1.7,1.2,1.7.41,0,.71-.05.92-.11l.07,1.2c-.31.12-.8.22-1.42.22-.73,0-1.33-.24-1.71-.67-.44-.48-.61-1.25-.61-2.27v-4.75h-1.35v-1.2h1.35v-2.1l1.55-.41Z"/><path class="cls-35" d="M51.64,6.36l1.9,5.15c.21.58.42,1.26.56,1.78h.04c.16-.51.35-1.18.56-1.81l1.72-5.11h1.68l-2.38,6.2c-1.13,2.99-1.9,4.52-2.98,5.46-.78.68-1.55.95-1.94,1.02l-.39-1.32c.4-.13.91-.37,1.39-.77.43-.35.96-.96,1.32-1.76.08-.17.12-.28.12-.38,0-.09-.03-.21-.11-.41l-3.21-8.03h1.72Z"/><path class="cls-35" d="M59.61,7.78c0-.66.44-1.14,1.07-1.14s1.06.47,1.06,1.14c0,.63-.42,1.12-1.07,1.12s-1.07-.49-1.06-1.12ZM59.61,14.14c0-.66.44-1.14,1.07-1.14s1.06.47,1.06,1.14c0,.63-.42,1.12-1.07,1.12s-1.07-.49-1.06-1.12Z"/></symbol><symbol id="panel-top-bar" viewBox="0 0 49.94 18.02"><path class="cls-22" d="M5.83.5h38.27c2.94,0,5.33,2.39,5.33,5.33v11.68H.5V5.83C.5,2.89,2.89.5,5.83.5Z"/><polyline class="cls-3" points="36.41 6.38 39.13 9.1 36.59 11.64"/><polyline class="cls-3" points="40.74 6.38 43.46 9.1 40.92 11.64"/><line class="cls-3" x1="5.54" y1="5.35" x2="12.54" y2="12.35"/><line class="cls-3" x1="12.54" y1="5.35" x2="5.54" y2="12.35"/></symbol><symbol id="stop-icon" viewBox="0 0 19 19"><circle class="cls-14" cx="9.5" cy="9.5" r="8.5"/><line class="cls-14" x1="3.6" y1="3.6" x2="15.4" y2="15.4"/></symbol><symbol id="styles" viewBox="0 0 23.75 24.62"><rect class="cls-16" x="3.38" y=".38" width="20" height="20"/><rect class="cls-23" x="3.38" y="17.38" width="6" height="6"/><rect class="cls-20" x=".38" y="14.38" width="6" height="6"/></symbol><symbol id="trash-icon" viewBox="0 0 15.49 17.31"><path class="cls-3" d="M1.57,2.88h12.34v12.43c0,.83-.67,1.51-1.51,1.51H3.08c-.83,0-1.51-.67-1.51-1.51V2.88h0Z"/><line class="cls-3" y1="2.88" x2="15.49" y2="2.88"/><line class="cls-3" x1="4.59" y1="4.89" x2="4.59" y2="14.79"/><line class="cls-3" x1="7.74" y1="4.89" x2="7.74" y2="14.79"/><line class="cls-3" x1="10.89" y1="4.89" x2="10.89" y2="14.79"/><path class="cls-3" d="M5.95.5h3.58c.75,0,1.36.61,1.36,1.36v1.02h-6.3v-1.02c0-.75.61-1.36,1.36-1.36Z"/></symbol></defs><g id="resources"><circle class="cls-5" cx="698.05" cy="174.43" r="87.1"/><circle class="cls-5" cx="823.43" cy="174.43" r="87.1"/><circle class="cls-12" cx="698.05" cy="174.43" r="87.1"/><circle class="cls-12" cx="823.43" cy="174.43" r="87.1"/><circle class="cls-26" cx="698.05" cy="174.43" r="87.1"/><circle class="cls-26" cx="823.43" cy="174.43" r="87.1"/><circle class="cls-11" cx="122.46" cy="174.43" r="87.1"/><circle class="cls-26" cx="122.46" cy="174.43" r="87.1"/><circle class="cls-10" cx="247.84" cy="174.43" r="87.1"/><circle class="cls-26" cx="247.84" cy="174.43" r="87.1"/><rect class="cls-7" x="35.36" y="87.33" width="299.58" height="174.2"/><rect class="cls-25" x="245.76" y="172.35" width="4.17" height="4.17"/><circle class="cls-7" cx="247.84" cy="174.43" r="87.1"/><use width="11" height="11" transform="translate(29.86 81.83)" xlink:href="#corner"/><use width="11" height="11" transform="translate(179.65 81.83)" xlink:href="#corner"/><use width="11" height="11" transform="translate(329.44 81.83)" xlink:href="#corner"/><use width="11" height="11" transform="translate(29.86 256.03)" xlink:href="#corner"/><use width="11" height="11" transform="translate(179.65 256.03)" xlink:href="#corner"/><use width="11" height="11" transform="translate(329.44 256.03)" xlink:href="#corner"/><circle class="cls-7" cx="122.46" cy="174.43" r="87.1"/><rect class="cls-25" x="120.37" y="172.35" width="4.17" height="4.17"/><rect class="cls-7" x="610.92" y="87.33" width="299.58" height="174.2"/><rect class="cls-25" x="821.32" y="172.35" width="4.17" height="4.17"/><circle class="cls-7" cx="823.4" cy="174.43" r="87.1"/><use width="11" height="11" transform="translate(605.42 81.83)" xlink:href="#corner"/><use width="11" height="11" transform="translate(755.21 81.83)" xlink:href="#corner"/><use width="11" height="11" transform="translate(905 81.83)" xlink:href="#corner"/><use width="11" height="11" transform="translate(605.42 256.03)" xlink:href="#corner"/><use width="11" height="11" transform="translate(755.21 256.03)" xlink:href="#corner"/><use width="11" height="11" transform="translate(905 256.03)" xlink:href="#corner"/><circle class="cls-7" cx="698.02" cy="174.43" r="87.1"/><rect class="cls-25" x="695.94" y="172.35" width="4.17" height="4.17"/><path class="cls-31" d="M62.75,31.71l-.3.08-2.43-.32h-2.48v12.61l.27,4.05h-4.43l.27-4.05v-12.61h-2.48l-2.43.32-.3-.08.59-3.83h13.12l.59,3.83Z"/><path class="cls-31" d="M86.18,31.92l-1.35,3.92-2.43,12.29h-6.05l-1.97-11.72-1.97,11.72h-6.05l-2.4-12.29-1.38-3.92h4.75l2.08,13.58,1.92-9.67.62-3.92h4.86l.59,3.92,1.94,9.69,2.08-13.61h4.75Z"/><path class="cls-31" d="M88.73,46.39c-1.11-1.44-1.66-3.57-1.66-6.4s.55-4.95,1.66-6.37c1.11-1.42,2.88-2.13,5.3-2.13s4.2.71,5.31,2.13c1.11,1.42,1.66,3.55,1.66,6.37s-.55,4.96-1.66,6.4c-1.11,1.44-2.88,2.16-5.31,2.16s-4.2-.72-5.3-2.16ZM95.95,44.41c.43-.28.73-.76.91-1.43.17-.67.26-1.66.26-2.96s-.08-2.28-.26-2.96c-.17-.67-.47-1.15-.91-1.43-.43-.28-1.07-.42-1.92-.42s-1.48.14-1.92.42c-.43.28-.73.76-.9,1.43s-.26,1.66-.26,2.96.08,2.28.26,2.96.47,1.15.9,1.43c.43.28,1.07.42,1.92.42s1.49-.14,1.92-.42Z"/><path class="cls-31" d="M109.82,29.86c-.48-.39-.72-.89-.72-1.5s.24-1.14.72-1.53c.48-.39,1.06-.58,1.74-.58s1.26.19,1.74.58c.48.39.72.9.72,1.53s-.24,1.11-.72,1.5c-.48.39-1.06.58-1.74.58s-1.26-.19-1.74-.58ZM109.64,44.07v-8.24l-.27-3.92h4.32l-.27,3.92v8.24l.27,4.05h-4.32l.27-4.05Z"/><path class="cls-31" d="M125.68,44.07v-6.94c0-.59-.17-1.07-.5-1.42-.33-.35-.78-.53-1.34-.53-1.13,0-2.1.61-2.89,1.84v7.05l.27,4.05h-4.32l.27-4.05v-8.24l-.27-3.92h3.51l.54,1.97c.95-1.44,2.43-2.16,4.43-2.16,1.26,0,2.25.4,2.98,1.19.73.79,1.09,1.95,1.09,3.48v7.67l.27,4.05h-4.32l.27-4.05Z"/><path class="cls-31" d="M145.44,44.1l.27,4.02h-3.97l-.08-1.46c-.34.49-.85.89-1.53,1.2-.67.32-1.32.47-1.93.47-1.89,0-3.34-.71-4.36-2.15-1.02-1.43-1.53-3.5-1.53-6.2,0-2.86.47-4.98,1.42-6.34.94-1.37,2.34-2.05,4.2-2.05.74,0,1.43.08,2.08.24s1.2.39,1.65.67v-2.08l-.27-3.92h4.32l-.27,3.92v13.66ZM141.66,35.67c-.59-.23-1.48-.35-2.65-.35-.76,0-1.33.13-1.73.38-.4.25-.68.71-.84,1.36-.16.66-.24,1.63-.24,2.93s.08,2.2.23,2.86c.15.67.41,1.14.77,1.42.36.28.87.42,1.54.42.5,0,1.04-.08,1.61-.23.57-.15,1-.34,1.31-.55v-8.24Z"/><path class="cls-31" d="M149.32,29.86c-.48-.39-.72-.89-.72-1.5s.24-1.14.72-1.53c.48-.39,1.06-.58,1.74-.58s1.26.19,1.74.58c.48.39.72.9.72,1.53s-.24,1.11-.72,1.5c-.48.39-1.06.58-1.74.58s-1.26-.19-1.74-.58ZM149.14,44.07v-8.24l-.27-3.92h4.32l-.27,3.92v8.24l.27,4.05h-4.32l.27-4.05Z"/><path class="cls-31" d="M169.75,31.92l-1.35,3.92-3.16,12.29h-5.81l-3.13-12.29-1.38-3.92h4.75l.59,3.92,2.05,9.48,2.05-9.48.62-3.92h4.75Z"/><path class="cls-31" d="M171.86,29.86c-.48-.39-.72-.89-.72-1.5s.24-1.14.72-1.53c.48-.39,1.06-.58,1.74-.58s1.26.19,1.74.58c.48.39.72.9.72,1.53s-.24,1.11-.72,1.5c-.48.39-1.06.58-1.74.58s-1.26-.19-1.74-.58ZM171.69,44.07v-8.24l-.27-3.92h4.32l-.27,3.92v8.24l.27,4.05h-4.32l.27-4.05Z"/><path class="cls-31" d="M191.64,44.1l.27,4.02h-3.97l-.08-1.46c-.34.49-.85.89-1.53,1.2-.67.32-1.32.47-1.93.47-1.89,0-3.34-.71-4.36-2.15-1.02-1.43-1.53-3.5-1.53-6.2,0-2.86.47-4.98,1.42-6.34.94-1.37,2.34-2.05,4.2-2.05.74,0,1.43.08,2.08.24s1.2.39,1.65.67v-2.08l-.27-3.92h4.32l-.27,3.92v13.66ZM187.86,35.67c-.59-.23-1.48-.35-2.65-.35-.76,0-1.33.13-1.73.38-.4.25-.68.71-.84,1.36-.16.66-.24,1.63-.24,2.93s.08,2.2.23,2.86c.15.67.41,1.14.77,1.42.36.28.87.42,1.54.42.5,0,1.04-.08,1.61-.23.57-.15,1-.34,1.31-.55v-8.24Z"/><path class="cls-31" d="M207.49,44.1l.27,4.02h-3.97l-.11-1.92c-1.01,1.49-2.47,2.24-4.4,2.24-1.28,0-2.28-.42-3-1.26-.72-.84-1.08-2.02-1.08-3.55v-7.67l-.27-4.05h4.32l-.27,4.05v6.94c0,.63.17,1.13.51,1.51.34.38.78.57,1.32.57,1.06,0,2.03-.66,2.89-1.97v-7.05l-.27-4.05h4.32l-.27,4.05v8.13Z"/><path class="cls-31" d="M211.12,40.82c.49-.84,1.15-1.5,1.97-1.98s1.71-.73,2.66-.73c1.66,0,2.94.24,3.86.73v-1.43c0-.68-.27-1.21-.82-1.59-.55-.38-1.32-.57-2.31-.57-1.06,0-2,.17-2.82.51-.82.34-1.45.86-1.88,1.54l-.3-.05.49-4c.61-.54,1.37-.96,2.28-1.26.91-.3,1.83-.45,2.77-.45,1.94,0,3.49.46,4.64,1.38s1.73,2.17,1.73,3.75v7.42l.27,4.02h-3.97l-.08-1.49c-.36.58-.92,1.04-1.69,1.39-.77.35-1.61.53-2.52.53-1.53,0-2.75-.44-3.66-1.32-.91-.88-1.36-2.09-1.36-3.62,0-1.03.25-1.96.74-2.79ZM214.74,44.79c.31.33.78.5,1.39.5.67,0,1.3-.13,1.9-.39.6-.26,1.13-.63,1.58-1.12v-1.84c-1.01-.49-2.14-.73-3.4-.73-.67,0-1.16.18-1.47.54-.32.36-.47.9-.47,1.62,0,.61.16,1.08.47,1.42Z"/><path class="cls-31" d="M226.96,44.07v-13.63l-.27-3.92h4.32l-.27,3.92v13.63l.27,4.05h-4.32l.27-4.05Z"/><path class="cls-31" d="M241.05,46.43c-1.08-1.41-1.62-3.5-1.62-6.28s.56-4.82,1.69-6.32,2.79-2.24,5.01-2.24c1.22,0,2.17.09,2.85.28.67.19,1.33.53,1.96,1.01l-.59,3.38-.43.19c-.42-.41-.86-.71-1.35-.88-.49-.17-1.16-.26-2.02-.26-1.17,0-2,.37-2.48,1.12-.49.75-.73,1.98-.73,3.71,0,1.24.1,2.19.3,2.83.2.65.55,1.11,1.07,1.38.51.27,1.26.41,2.25.41.94,0,1.68-.09,2.24-.27.56-.18,1.05-.48,1.49-.89l.46.22-.84,3.32c-.7.56-1.33.93-1.88,1.12-.55.19-1.31.28-2.28.28-2.3,0-4-.71-5.08-2.12Z"/><path class="cls-31" d="M253.7,29.86c-.48-.39-.72-.89-.72-1.5s.24-1.14.72-1.53c.48-.39,1.06-.58,1.74-.58s1.26.19,1.74.58c.48.39.72.9.72,1.53s-.24,1.11-.72,1.5c-.48.39-1.06.58-1.74.58s-1.26-.19-1.74-.58ZM253.53,44.07v-8.24l-.27-3.92h4.32l-.27,3.92v8.24l.27,4.05h-4.32l.27-4.05Z"/><path class="cls-31" d="M270.97,32.11l-.62,3.32-.35.24c-.56-.36-1.36-.54-2.4-.54-.58,0-1.08.12-1.53.35-.44.23-.85.61-1.23,1.13v7.45l.27,4.05h-4.32l.27-4.05v-8.24l-.27-3.92h3.51l.46,1.7c.92-1.26,2.14-1.89,3.67-1.89,1.1,0,1.94.13,2.54.38Z"/><path class="cls-31" d="M273.8,46.43c-1.08-1.41-1.62-3.5-1.62-6.28s.56-4.82,1.69-6.32,2.79-2.24,5.01-2.24c1.22,0,2.17.09,2.85.28.67.19,1.33.53,1.96,1.01l-.59,3.38-.43.19c-.42-.41-.86-.71-1.35-.88-.49-.17-1.16-.26-2.02-.26-1.17,0-2,.37-2.48,1.12-.49.75-.73,1.98-.73,3.71,0,1.24.1,2.19.3,2.83.2.65.55,1.11,1.07,1.38.51.27,1.26.41,2.25.41.94,0,1.68-.09,2.24-.27.56-.18,1.05-.48,1.49-.89l.46.22-.84,3.32c-.7.56-1.33.93-1.88,1.12-.55.19-1.31.28-2.28.28-2.3,0-4-.71-5.08-2.12Z"/><path class="cls-31" d="M286.33,44.07v-13.63l-.27-3.92h4.32l-.27,3.92v13.63l.27,4.05h-4.32l.27-4.05Z"/><path class="cls-31" d="M294.83,46.31c-1.12-1.42-1.67-3.53-1.67-6.32s.59-4.81,1.77-6.29c1.18-1.48,2.91-2.21,5.2-2.21s3.92.57,5.01,1.7c1.09,1.13,1.72,2.92,1.9,5.37l-.73,2.83h-9.21c.07.88.24,1.56.51,2.02.27.47.66.79,1.17.97s1.23.27,2.15.27c1.21,0,2.28-.11,3.23-.32s1.59-.49,1.93-.84l.46.24-.84,3.29c-.68.52-1.46.89-2.32,1.09s-1.95.31-3.27.31c-2.41,0-4.18-.71-5.29-2.13ZM303.2,38.56c0-1.13-.24-1.98-.73-2.52-.49-.55-1.23-.82-2.24-.82-1.06,0-1.83.25-2.31.74s-.76,1.36-.85,2.61h6.13Z"/><path class="cls-31" d="M312.15,47.89c-.78-.33-1.57-.9-2.36-1.71l-.51-3.4.38-.11c.68.59,1.47,1.06,2.35,1.4.88.34,1.76.51,2.65.51s1.5-.08,1.85-.26c.35-.17.53-.47.53-.9,0-.4-.22-.73-.66-1-.44-.27-1.21-.57-2.31-.89-1.12-.32-1.99-.68-2.62-1.08-.63-.4-1.09-.9-1.38-1.5-.29-.6-.43-1.36-.43-2.28,0-1.64.49-2.9,1.47-3.78.98-.88,2.37-1.32,4.17-1.32,1.1,0,2.07.14,2.9.42.84.28,1.59.72,2.25,1.31l-.59,3.4-.41.11c-.29-.47-.81-.84-1.55-1.11-.75-.27-1.5-.41-2.25-.41-1.4,0-2.11.4-2.11,1.19,0,.45.19.8.58,1.05s1.14.53,2.25.84c1.58.43,2.74,1.03,3.47,1.8.73.76,1.09,1.79,1.09,3.09,0,1.66-.5,2.93-1.51,3.81s-2.42,1.32-4.24,1.32c-1.22,0-2.23-.17-3.01-.5Z"/><path class="cls-31" d="M646.52,32.14l-.3.08-2.43-.32h-2.48v12.61l.27,4.05h-4.43l.27-4.05v-12.61h-2.48l-2.43.32-.3-.08.59-3.83h13.12l.59,3.83Z"/><path class="cls-31" d="M669.95,32.35l-1.35,3.92-2.43,12.29h-6.05l-1.97-11.72-1.97,11.72h-6.05l-2.4-12.29-1.38-3.92h4.75l2.08,13.58,1.92-9.67.62-3.92h4.86l.59,3.92,1.94,9.69,2.08-13.61h4.75Z"/><path class="cls-31" d="M672.51,46.83c-1.11-1.44-1.66-3.57-1.66-6.4s.55-4.95,1.66-6.37c1.11-1.42,2.88-2.13,5.3-2.13s4.2.71,5.31,2.13c1.11,1.42,1.66,3.55,1.66,6.37s-.55,4.96-1.66,6.4c-1.11,1.44-2.88,2.16-5.31,2.16s-4.2-.72-5.3-2.16ZM679.73,44.84c.43-.28.73-.76.91-1.43.17-.67.26-1.66.26-2.96s-.08-2.28-.26-2.96c-.17-.67-.47-1.15-.91-1.43-.43-.28-1.07-.42-1.92-.42s-1.48.14-1.92.42c-.43.28-.73.76-.9,1.43s-.26,1.66-.26,2.96.08,2.28.26,2.96.47,1.15.9,1.43c.43.28,1.07.42,1.92.42s1.49-.14,1.92-.42Z"/><path class="cls-31" d="M694.39,46.87c-1.08-1.41-1.62-3.5-1.62-6.28s.56-4.82,1.69-6.32,2.79-2.24,5.01-2.24c1.22,0,2.17.09,2.85.28.67.19,1.33.53,1.96,1.01l-.59,3.38-.43.19c-.42-.41-.86-.71-1.35-.88-.49-.17-1.16-.26-2.02-.26-1.17,0-2,.37-2.48,1.12-.49.75-.73,1.98-.73,3.71,0,1.24.1,2.19.3,2.83.2.65.55,1.11,1.07,1.38.51.27,1.26.41,2.25.41.94,0,1.68-.09,2.24-.27.56-.18,1.05-.48,1.49-.89l.46.22-.84,3.32c-.7.56-1.33.93-1.88,1.12-.55.19-1.31.28-2.28.28-2.3,0-4-.71-5.08-2.12Z"/><path class="cls-31" d="M707.04,30.29c-.48-.39-.72-.89-.72-1.5s.24-1.14.72-1.53c.48-.39,1.06-.58,1.74-.58s1.26.19,1.74.58c.48.39.72.9.72,1.53s-.24,1.11-.72,1.5c-.48.39-1.06.58-1.74.58s-1.26-.19-1.74-.58ZM706.86,44.5v-8.24l-.27-3.92h4.32l-.27,3.92v8.24l.27,4.05h-4.32l.27-4.05Z"/><path class="cls-31" d="M724.31,32.54l-.62,3.32-.35.24c-.56-.36-1.36-.54-2.4-.54-.58,0-1.08.12-1.53.35-.44.23-.85.61-1.23,1.13v7.45l.27,4.05h-4.32l.27-4.05v-8.24l-.27-3.92h3.51l.46,1.7c.92-1.26,2.14-1.89,3.67-1.89,1.1,0,1.94.13,2.54.38Z"/><path class="cls-31" d="M727.14,46.87c-1.08-1.41-1.62-3.5-1.62-6.28s.56-4.82,1.69-6.32,2.79-2.24,5.01-2.24c1.22,0,2.17.09,2.85.28.67.19,1.33.53,1.96,1.01l-.59,3.38-.43.19c-.42-.41-.86-.71-1.35-.88-.49-.17-1.16-.26-2.02-.26-1.17,0-2,.37-2.48,1.12-.49.75-.73,1.98-.73,3.71,0,1.24.1,2.19.3,2.83.2.65.55,1.11,1.07,1.38.51.27,1.26.41,2.25.41.94,0,1.68-.09,2.24-.27.56-.18,1.05-.48,1.49-.89l.46.22-.84,3.32c-.7.56-1.33.93-1.88,1.12-.55.19-1.31.28-2.28.28-2.3,0-4-.71-5.08-2.12Z"/><path class="cls-31" d="M739.67,44.5v-13.63l-.27-3.92h4.32l-.27,3.92v13.63l.27,4.05h-4.32l.27-4.05Z"/><path class="cls-31" d="M748.17,46.75c-1.12-1.42-1.67-3.53-1.67-6.32s.59-4.81,1.77-6.29c1.18-1.48,2.91-2.21,5.2-2.21s3.92.57,5.01,1.7c1.09,1.13,1.72,2.92,1.9,5.37l-.73,2.83h-9.21c.07.88.24,1.56.51,2.02.27.47.66.79,1.17.97s1.23.27,2.15.27c1.21,0,2.28-.11,3.23-.32s1.59-.49,1.93-.84l.46.24-.84,3.29c-.68.52-1.46.89-2.32,1.09s-1.95.31-3.27.31c-2.41,0-4.18-.71-5.29-2.13ZM756.54,39c0-1.13-.24-1.98-.73-2.52-.49-.55-1.23-.82-2.24-.82-1.06,0-1.83.25-2.31.74s-.76,1.36-.85,2.61h6.13Z"/><path class="cls-31" d="M765.49,48.32c-.78-.33-1.57-.9-2.36-1.71l-.51-3.4.38-.11c.68.59,1.47,1.06,2.35,1.4.88.34,1.76.51,2.65.51s1.5-.08,1.85-.26c.35-.17.53-.47.53-.9,0-.4-.22-.73-.66-1-.44-.27-1.21-.57-2.31-.89-1.12-.32-1.99-.68-2.62-1.08-.63-.4-1.09-.9-1.38-1.5-.29-.6-.43-1.36-.43-2.28,0-1.64.49-2.9,1.47-3.78.98-.88,2.37-1.32,4.17-1.32,1.1,0,2.07.14,2.9.42.84.28,1.59.72,2.25,1.31l-.59,3.4-.41.11c-.29-.47-.81-.84-1.55-1.11-.75-.27-1.5-.41-2.25-.41-1.4,0-2.11.4-2.11,1.19,0,.45.19.8.58,1.05s1.14.53,2.25.84c1.58.43,2.74,1.03,3.47,1.8.73.76,1.09,1.79,1.09,3.09,0,1.66-.5,2.93-1.51,3.81s-2.42,1.32-4.24,1.32c-1.22,0-2.23-.17-3.01-.5Z"/><path class="cls-31" d="M795.8,32.35l-.27,4.02v9.72c0,2.68-.79,4.72-2.36,6.1-1.58,1.39-3.75,2.08-6.52,2.08l-1.7-2.92.19-.22c1.19,0,2.29-.17,3.29-.5,1.01-.33,1.81-.81,2.42-1.44.6-.63.9-1.36.9-2.19v-.3c-.31.63-.82,1.13-1.54,1.5-.72.37-1.45.55-2.19.55-1.76,0-3.14-.72-4.13-2.16-.99-1.44-1.49-3.5-1.49-6.18,0-2.86.47-4.98,1.42-6.34.94-1.37,2.34-2.05,4.2-2.05.81,0,1.56.09,2.25.28.69.19,1.25.45,1.69.8l.13-.76h3.7ZM791.75,36.11c-.59-.23-1.48-.35-2.65-.35-.76,0-1.33.13-1.73.38-.4.25-.68.71-.84,1.36-.16.66-.24,1.63-.24,2.93s.08,2.2.23,2.86c.15.67.41,1.14.77,1.42.36.28.87.42,1.54.42.5,0,1.04-.08,1.61-.23.57-.15,1-.34,1.31-.55v-8.24Z"/><path class="cls-31" d="M809.19,32.54l-.62,3.32-.35.24c-.56-.36-1.36-.54-2.4-.54-.58,0-1.08.12-1.53.35-.44.23-.85.61-1.23,1.13v7.45l.27,4.05h-4.32l.27-4.05v-8.24l-.27-3.92h3.51l.46,1.7c.92-1.26,2.14-1.89,3.67-1.89,1.1,0,1.94.13,2.54.38Z"/><path class="cls-31" d="M812.07,46.83c-1.11-1.44-1.66-3.57-1.66-6.4s.55-4.95,1.66-6.37c1.11-1.42,2.88-2.13,5.3-2.13s4.2.71,5.31,2.13c1.11,1.42,1.66,3.55,1.66,6.37s-.55,4.96-1.66,6.4c-1.11,1.44-2.88,2.16-5.31,2.16s-4.2-.72-5.3-2.16ZM819.29,44.84c.43-.28.73-.76.91-1.43.17-.67.26-1.66.26-2.96s-.08-2.28-.26-2.96c-.17-.67-.47-1.15-.91-1.43-.43-.28-1.07-.42-1.92-.42s-1.48.14-1.92.42c-.43.28-.73.76-.9,1.43s-.26,1.66-.26,2.96.08,2.28.26,2.96.47,1.15.9,1.43c.43.28,1.07.42,1.92.42s1.49-.14,1.92-.42Z"/><path class="cls-31" d="M839.49,44.53l.27,4.02h-3.97l-.11-1.92c-1.01,1.49-2.47,2.24-4.4,2.24-1.28,0-2.28-.42-3-1.26-.72-.84-1.08-2.02-1.08-3.55v-7.67l-.27-4.05h4.32l-.27,4.05v6.94c0,.63.17,1.13.51,1.51.34.38.78.57,1.32.57,1.06,0,2.03-.66,2.89-1.97v-7.05l-.27-4.05h4.32l-.27,4.05v8.13Z"/><path class="cls-31" d="M854.94,34.08c.94,1.37,1.42,3.48,1.42,6.34,0,2.7-.51,4.77-1.53,6.2-1.02,1.43-2.47,2.15-4.36,2.15-.61,0-1.26-.16-1.94-.49-.68-.32-1.19-.73-1.51-1.22v2.83l.27,4.05h-4.32l.27-4.05v-13.53l-.27-4.02h3.7l.14.76c.43-.34.99-.61,1.69-.8.69-.19,1.44-.28,2.25-.28,1.85,0,3.25.68,4.2,2.05ZM851.47,44.71c.36-.28.62-.75.77-1.42.15-.67.23-1.62.23-2.86s-.08-2.27-.24-2.93c-.16-.66-.44-1.11-.84-1.36-.4-.25-.97-.38-1.73-.38-1.17,0-2.05.12-2.65.35v8.24c.31.22.74.4,1.31.55.57.15,1.1.23,1.61.23.67,0,1.18-.14,1.54-.42Z"/><path class="cls-31" d="M860.38,46.75c-1.12-1.42-1.67-3.53-1.67-6.32s.59-4.81,1.77-6.29c1.18-1.48,2.91-2.21,5.2-2.21s3.92.57,5.01,1.7c1.09,1.13,1.72,2.92,1.9,5.37l-.73,2.83h-9.21c.07.88.24,1.56.51,2.02.27.47.66.79,1.17.97s1.23.27,2.15.27c1.21,0,2.28-.11,3.23-.32s1.59-.49,1.93-.84l.46.24-.84,3.29c-.68.52-1.46.89-2.32,1.09s-1.95.31-3.27.31c-2.41,0-4.18-.71-5.29-2.13ZM868.75,39c0-1.13-.24-1.98-.73-2.52-.49-.55-1.23-.82-2.24-.82-1.06,0-1.83.25-2.31.74s-.76,1.36-.85,2.61h6.13Z"/><path class="cls-31" d="M887.79,44.53l.27,4.02h-3.97l-.08-1.46c-.34.49-.85.89-1.53,1.2-.67.32-1.32.47-1.93.47-1.89,0-3.34-.71-4.36-2.15-1.02-1.43-1.53-3.5-1.53-6.2,0-2.86.47-4.98,1.42-6.34.94-1.37,2.34-2.05,4.2-2.05.74,0,1.43.08,2.08.24s1.2.39,1.65.67v-2.08l-.27-3.92h4.32l-.27,3.92v13.66ZM884.01,36.11c-.59-.23-1.48-.35-2.65-.35-.76,0-1.33.13-1.73.38-.4.25-.68.71-.84,1.36-.16.66-.24,1.63-.24,2.93s.08,2.2.23,2.86c.15.67.41,1.14.77,1.42.36.28.87.42,1.54.42.5,0,1.04-.08,1.61-.23.57-.15,1-.34,1.31-.55v-8.24Z"/></g><g id="actions"><rect class="cls-22" x="631.94" y="298.45" width="328.06" height="37.41"/><polygon class="cls-28" points="741.16 335.87 741.16 298.45 631.94 298.45 631.94 335.87 631.94 634.17 960 634.17 960 335.87 741.16 335.87"/><polygon class="cls-5" points="741.16 335.87 741.16 298.45 631.94 298.45 631.94 335.87 631.94 634.17 960 634.17 960 335.87 741.16 335.87"/><line class="cls-21" x1="674.67" y1="379.69" x2="674.67" y2="519.69"/><path class="cls-27" d="M643.37,319.7l-1.04,3.43h-2.29l3.89-12.14h2.82l3.94,12.14h-2.38l-1.1-3.43h-3.86ZM646.86,318.02l-.96-2.99c-.23-.75-.43-1.58-.62-2.28h-.04c-.18.71-.36,1.55-.58,2.27l-.94,3h3.13Z"/><path class="cls-27" d="M652.22,317.27c0-1.14-.03-2.08-.07-2.91h1.95l.11,1.35h.04c.64-.99,1.67-1.54,3-1.54,2.01,0,3.68,1.72,3.68,4.46,0,3.18-1.99,4.71-3.99,4.71-1.1,0-2.02-.46-2.46-1.17h-.04v4.54h-2.22v-9.42ZM654.43,319.46c0,.21.02.42.06.6.23.9,1.01,1.55,1.95,1.55,1.41,0,2.23-1.17,2.23-2.89,0-1.55-.75-2.81-2.18-2.81-.91,0-1.75.67-1.98,1.64-.05.18-.08.37-.08.56v1.35Z"/><path class="cls-27" d="M662.75,317.27c0-1.14-.03-2.08-.07-2.91h1.95l.11,1.35h.04c.64-.99,1.66-1.54,3-1.54,2.01,0,3.68,1.72,3.68,4.46,0,3.18-1.99,4.71-3.99,4.71-1.1,0-2.02-.46-2.46-1.17h-.04v4.54h-2.21v-9.42ZM664.96,319.46c0,.21.02.42.06.6.23.9,1.01,1.55,1.95,1.55,1.41,0,2.23-1.17,2.23-2.89,0-1.55-.75-2.81-2.18-2.81-.91,0-1.75.67-1.98,1.64-.05.18-.08.37-.08.56v1.35Z"/><path class="cls-27" d="M674.87,319.36c.06,1.59,1.29,2.28,2.71,2.28,1.02,0,1.75-.16,2.42-.41l.33,1.53c-.75.32-1.79.56-3.06.56-2.85,0-4.51-1.76-4.51-4.44,0-2.42,1.47-4.71,4.29-4.71s3.78,2.34,3.78,4.26c0,.41-.04.74-.08.93h-5.86ZM678.73,317.81c0-.81-.34-2.14-1.83-2.14-1.37,0-1.93,1.24-2.03,2.14h3.86Z"/><path class="cls-27" d="M687.53,323.13l-.15-.98h-.05c-.53.69-1.45,1.17-2.58,1.17-1.78,0-2.76-1.27-2.76-2.61,0-2.21,1.97-3.33,5.2-3.32v-.14c0-.58-.23-1.53-1.78-1.53-.86,0-1.76.28-2.36.65l-.44-1.44c.66-.4,1.8-.78,3.18-.78,2.81,0,3.61,1.77,3.61,3.7v3.16c0,.8.04,1.57.14,2.11h-2ZM687.24,318.83c-1.56-.02-3.06.31-3.06,1.64,0,.86.56,1.26,1.26,1.26.88,0,1.52-.57,1.73-1.21.05-.15.06-.33.06-.48v-1.21Z"/><path class="cls-27" d="M691.74,317.18c0-1.17-.02-2.04-.07-2.82h1.92l.08,1.67h.06c.43-1.24,1.45-1.86,2.4-1.86.22,0,.34,0,.52.05v2.09c-.19-.04-.38-.06-.65-.06-1.06,0-1.79.67-1.99,1.68-.04.2-.06.43-.06.67v4.55h-2.22v-5.95Z"/><path class="cls-27" d="M702.92,323.13l-.15-.98h-.05c-.53.69-1.45,1.17-2.58,1.17-1.78,0-2.76-1.27-2.76-2.61,0-2.21,1.97-3.33,5.2-3.32v-.14c0-.58-.23-1.53-1.78-1.53-.86,0-1.76.28-2.36.65l-.44-1.44c.66-.4,1.8-.78,3.18-.78,2.81,0,3.61,1.77,3.61,3.7v3.16c0,.8.04,1.57.14,2.11h-2ZM702.63,318.83c-1.56-.02-3.06.31-3.06,1.64,0,.86.56,1.26,1.26,1.26.88,0,1.52-.57,1.73-1.21.05-.15.06-.33.06-.48v-1.21Z"/><path class="cls-27" d="M707.14,316.97c0-1.01-.03-1.85-.07-2.61h1.94l.11,1.32h.05c.39-.68,1.34-1.51,2.79-1.51,1.53,0,3.12.98,3.12,3.76v5.21h-2.22v-4.95c0-1.26-.46-2.22-1.67-2.22-.88,0-1.49.62-1.72,1.3-.07.18-.1.45-.1.7v5.16h-2.22v-6.16Z"/><path class="cls-27" d="M723.86,322.86c-.46.22-1.37.45-2.47.45-2.75,0-4.52-1.76-4.52-4.48s1.79-4.67,4.88-4.67c.82,0,1.63.18,2.14.4l-.39,1.67c-.36-.17-.89-.34-1.68-.34-1.69,0-2.69,1.24-2.68,2.84,0,1.8,1.18,2.83,2.69,2.83.76,0,1.31-.17,1.74-.35l.3,1.65Z"/><path class="cls-27" d="M726.91,319.36c.06,1.59,1.29,2.28,2.71,2.28,1.02,0,1.75-.16,2.42-.41l.33,1.53c-.75.32-1.79.56-3.06.56-2.85,0-4.51-1.76-4.51-4.44,0-2.42,1.47-4.71,4.29-4.71s3.78,2.34,3.78,4.26c0,.41-.04.74-.08.93h-5.86ZM730.77,317.81c0-.81-.34-2.14-1.83-2.14-1.36,0-1.93,1.24-2.03,2.14h3.86Z"/><path class="cls-32" d="M764.14,322.57c-.78.28-2.29.67-3.91.67-2.05,0-3.61-.51-4.75-1.62-1.08-1.03-1.71-2.63-1.7-4.46.01-3.85,2.75-6.3,6.76-6.3,1.49,0,2.66.3,3.22.57l-.49,1.78c-.66-.29-1.47-.52-2.76-.52-2.58,0-4.41,1.53-4.41,4.35s1.7,4.39,4.21,4.39c.8,0,1.39-.1,1.67-.24v-3.03h-2.14v-1.74h4.29v6.14Z"/><path class="cls-32" d="M766.37,317.18c0-1.17-.02-2.04-.07-2.82h1.92l.08,1.67h.06c.43-1.24,1.45-1.86,2.4-1.86.22,0,.34,0,.52.05v2.09c-.19-.04-.38-.06-.65-.06-1.06,0-1.79.67-1.99,1.68-.04.2-.06.43-.06.67v4.55h-2.22v-5.95Z"/><path class="cls-32" d="M777.55,323.13l-.15-.98h-.05c-.53.69-1.45,1.17-2.58,1.17-1.78,0-2.76-1.27-2.76-2.61,0-2.21,1.97-3.33,5.2-3.32v-.14c0-.58-.23-1.53-1.78-1.53-.86,0-1.76.28-2.36.65l-.44-1.44c.66-.4,1.8-.78,3.18-.78,2.81,0,3.61,1.77,3.61,3.7v3.16c0,.8.04,1.57.14,2.11h-2ZM777.25,318.83c-1.56-.02-3.06.31-3.06,1.64,0,.86.56,1.26,1.26,1.26.88,0,1.52-.57,1.73-1.21.05-.15.06-.33.06-.48v-1.21Z"/><path class="cls-32" d="M781.76,317.27c0-1.14-.03-2.08-.07-2.91h1.95l.11,1.35h.04c.64-.99,1.67-1.54,3.01-1.54,2.01,0,3.68,1.72,3.68,4.46,0,3.18-1.99,4.71-3.99,4.71-1.1,0-2.02-.46-2.46-1.17h-.04v4.54h-2.22v-9.42ZM783.97,319.46c0,.21.02.42.06.6.22.9,1,1.55,1.95,1.55,1.41,0,2.23-1.17,2.23-2.89,0-1.55-.75-2.81-2.18-2.81-.91,0-1.75.67-1.98,1.64-.05.18-.08.37-.08.56v1.35Z"/><path class="cls-32" d="M792.29,310.34h2.22v5.21h.04c.28-.41.65-.75,1.1-1,.43-.25.96-.39,1.51-.39,1.49,0,3.06.99,3.06,3.8v5.16h-2.22v-4.92c0-1.27-.46-2.24-1.68-2.24-.87,0-1.47.58-1.72,1.24-.08.19-.1.43-.1.67v5.24h-2.22v-12.78Z"/><path class="cls-32" d="M804.93,311.91c0,.66-.48,1.2-1.26,1.2-.73,0-1.22-.53-1.21-1.2,0-.68.5-1.2,1.24-1.2s1.23.52,1.24,1.2ZM802.58,323.13v-8.77h2.22v8.77h-2.22Z"/><path class="cls-32" d="M813.62,322.86c-.46.22-1.37.45-2.47.45-2.75,0-4.52-1.76-4.52-4.48s1.79-4.67,4.88-4.67c.82,0,1.63.18,2.14.4l-.39,1.67c-.36-.17-.89-.34-1.68-.34-1.69,0-2.69,1.24-2.68,2.84,0,1.8,1.18,2.83,2.69,2.83.76,0,1.31-.17,1.74-.35l.3,1.65Z"/><path class="cls-32" d="M819.03,320.71c.71.41,1.8.77,2.93.77,1.42,0,2.21-.66,2.21-1.66,0-.92-.62-1.46-2.15-2.01-2-.71-3.29-1.79-3.29-3.53,0-1.99,1.66-3.48,4.29-3.48,1.32,0,2.28.28,2.91.6l-.53,1.79c-.44-.23-1.29-.58-2.42-.58-1.41,0-2,.75-2,1.46,0,.93.7,1.37,2.32,1.99,2.11.8,3.12,1.86,3.12,3.61,0,1.95-1.47,3.65-4.6,3.65-1.28,0-2.62-.37-3.28-.77l.49-1.84Z"/><path class="cls-32" d="M830.81,311.85v2.51h2.11v1.65h-2.11v3.87c0,1.07.29,1.62,1.13,1.62.38,0,.66-.04.86-.1l.04,1.69c-.33.12-.91.23-1.61.23-.82,0-1.49-.28-1.91-.72-.48-.5-.69-1.31-.69-2.46v-4.12h-1.25v-1.65h1.25v-1.99l2.17-.53Z"/><path class="cls-32" d="M836.1,314.36l1.58,4.7c.17.54.36,1.21.49,1.7h.05c.14-.49.3-1.15.46-1.72l1.37-4.68h2.36l-2.2,5.98c-1.2,3.27-2.02,4.73-3.05,5.64-.87.76-1.77,1.05-2.33,1.12l-.5-1.87c.37-.09.83-.29,1.28-.61.42-.28.91-.79,1.22-1.4.09-.15.14-.28.14-.39,0-.1-.02-.23-.12-.43l-3.22-8.05h2.44Z"/><path class="cls-32" d="M843.71,310.34h2.22v12.78h-2.22v-12.78Z"/><path class="cls-32" d="M849.9,319.36c.06,1.59,1.29,2.28,2.71,2.28,1.02,0,1.75-.16,2.42-.41l.33,1.53c-.75.32-1.79.56-3.06.56-2.85,0-4.51-1.76-4.51-4.44,0-2.42,1.47-4.71,4.29-4.71s3.78,2.34,3.78,4.26c0,.41-.04.74-.08.93h-5.86ZM853.75,317.81c0-.81-.34-2.14-1.83-2.14-1.37,0-1.93,1.24-2.03,2.14h3.86Z"/><path class="cls-32" d="M857.52,321.09c.49.3,1.44.64,2.24.64.97,0,1.41-.41,1.41-.98s-.36-.9-1.44-1.28c-1.71-.59-2.43-1.52-2.42-2.56,0-1.54,1.28-2.74,3.33-2.74.97,0,1.81.24,2.32.52l-.44,1.56c-.37-.21-1.08-.5-1.85-.5s-1.23.39-1.23.93.42.82,1.53,1.23c1.6.56,2.33,1.38,2.34,2.67,0,1.6-1.25,2.75-3.56,2.75-1.06,0-2.03-.25-2.67-.61l.45-1.61Z"/><rect class="cls-19" x="631.94" y="293.13" width="328.06" height="5.32"/><path class="cls-24" d="M697.56,369.48c-.78.28-2.29.67-3.91.67-2.05,0-3.61-.51-4.76-1.62-1.08-1.03-1.71-2.63-1.7-4.46,0-3.85,2.75-6.3,6.76-6.3,1.49,0,2.66.3,3.22.57l-.49,1.78c-.66-.29-1.47-.52-2.76-.52-2.58,0-4.41,1.53-4.41,4.35s1.7,4.39,4.21,4.39c.8,0,1.39-.1,1.68-.24v-3.03h-2.14v-1.74h4.29v6.14Z"/><path class="cls-24" d="M699.79,364.08c0-1.17-.02-2.04-.07-2.82h1.92l.08,1.67h.06c.43-1.24,1.45-1.86,2.4-1.86.22,0,.34,0,.52.05v2.09c-.19-.04-.38-.06-.65-.06-1.06,0-1.79.67-1.99,1.68-.04.2-.06.43-.06.67v4.55h-2.22v-5.95Z"/><path class="cls-24" d="M714.36,365.56c0,3.22-2.26,4.67-4.5,4.67-2.47,0-4.39-1.71-4.39-4.52s1.89-4.65,4.54-4.65,4.35,1.84,4.35,4.5ZM707.75,365.66c0,1.69.84,2.96,2.18,2.96s2.15-1.23,2.15-2.99c0-1.38-.61-2.95-2.14-2.95s-2.19,1.52-2.19,2.98Z"/><path class="cls-24" d="M724.03,367.4c0,1.04.03,1.91.07,2.63h-1.94l-.11-1.33h-.05c-.37.62-1.24,1.52-2.81,1.52s-3.05-.96-3.05-3.82v-5.14h2.22v4.77c0,1.46.46,2.39,1.63,2.39.89,0,1.46-.62,1.69-1.18.08-.19.12-.43.12-.68v-5.29h2.22v6.14Z"/><path class="cls-24" d="M726.43,364.17c0-1.14-.03-2.08-.07-2.91h1.95l.11,1.35h.04c.64-.99,1.67-1.54,3-1.54,2.01,0,3.68,1.72,3.68,4.46,0,3.18-1.99,4.71-3.99,4.71-1.1,0-2.02-.46-2.46-1.17h-.04v4.54h-2.22v-9.42ZM728.64,366.36c0,.21.02.42.06.6.23.9,1.01,1.55,1.95,1.55,1.41,0,2.23-1.17,2.23-2.89,0-1.55-.75-2.81-2.18-2.81-.91,0-1.75.67-1.98,1.64-.05.18-.08.37-.08.56v1.35Z"/><path class="cls-24" d="M717.91,393.09h6.54v1.31h-4.96v4.04h4.58v1.3h-4.58v5.49h-1.58v-12.14Z"/><path class="cls-24" d="M727.94,394.06c0,.54-.38.98-1.01.98-.57,0-.96-.45-.96-.98,0-.54.4-.99.98-.99s.97.43.98.99ZM726.17,405.23v-8.71h1.58v8.71h-1.58Z"/><path class="cls-24" d="M730.38,392.44h1.58v12.78h-1.58v-12.78Z"/><path class="cls-24" d="M734.63,392.44h1.58v12.78h-1.58v-12.78Z"/><path class="cls-24" d="M738.5,397.95c0-.66.44-1.14,1.07-1.14s1.06.47,1.06,1.14c0,.63-.42,1.12-1.07,1.12s-1.07-.49-1.06-1.12ZM738.5,404.3c0-.66.44-1.14,1.07-1.14s1.06.47,1.06,1.14c0,.63-.42,1.12-1.07,1.12s-1.07-.49-1.06-1.12Z"/><rect class="cls-15" x="639.67" y="414.69" width="312.61" height="35"/><rect class="cls-15" x="639.67" y="449.69" width="312.61" height="35"/><rect class="cls-15" x="639.67" y="484.69" width="312.61" height="35"/><rect class="cls-15" x="639.67" y="519.69" width="312.61" height="35"/><rect class="cls-15" x="639.67" y="554.69" width="312.61" height="35"/><use width="20.96" height="12.42" transform="translate(646.68 460.98)" xlink:href="#eye"/><use class="cls-34" width="20.96" height="12.42" transform="translate(646.68 565.98)" xlink:href="#eye"/><use width="20.96" height="12.42" transform="translate(646.68 392.21)" xlink:href="#eye"/><use class="cls-34" width="20.96" height="12.42" transform="translate(646.68 425.98)" xlink:href="#eye"/><use class="cls-34" width="20.96" height="12.42" transform="translate(646.68 496.33)" xlink:href="#eye"/><polyline class="cls-6" points="699.85 463.04 693.95 468.93 688.45 463.43"/><polyline class="cls-6" points="699.85 395.48 693.95 401.37 688.45 395.86"/><rect class="cls-18" x="631.94" y="626.96" width="328.06" height="7.21"/><line class="cls-5" x1="878.34" y1="298.45" x2="878.34" y2="335.87"/><rect class="cls-15" x="639.67" y="344.69" width="312.61" height="35"/><rect class="cls-15" x="639.67" y="379.69" width="312.61" height="35"/><path class="cls-36" d="M717.71,470.73c.7.44,1.72.79,2.8.79,1.6,0,2.54-.84,2.54-2.07,0-1.12-.66-1.79-2.29-2.4-1.98-.7-3.21-1.74-3.21-3.44,0-1.89,1.57-3.29,3.93-3.29,1.23,0,2.15.29,2.68.59l-.44,1.29c-.39-.23-1.2-.58-2.29-.58-1.67,0-2.3.99-2.3,1.81,0,1.13.74,1.68,2.41,2.33,2.06.81,3.1,1.79,3.1,3.57s-1.37,3.5-4.25,3.5c-1.17,0-2.45-.35-3.1-.79l.41-1.31Z"/><path class="cls-36" d="M728.59,461.43v2.51h2.28v1.2h-2.28v4.69c0,1.08.31,1.7,1.2,1.7.41,0,.71-.05.92-.12l.07,1.2c-.31.12-.8.22-1.41.22-.73,0-1.33-.24-1.71-.67-.44-.48-.62-1.25-.62-2.27v-4.75h-1.35v-1.2h1.35v-2.1l1.55-.41Z"/><path class="cls-36" d="M732.64,466.65c0-1.03-.03-1.9-.07-2.71h1.39l.06,1.71h.06c.41-1.17,1.37-1.91,2.43-1.91.17,0,.29.01.44.04v1.49c-.16-.03-.32-.05-.54-.05-1.12,0-1.91.84-2.12,2.03-.04.22-.06.48-.06.74v4.65h-1.58v-6Z"/><path class="cls-36" d="M746.23,468.21c0,3.22-2.24,4.64-4.33,4.64-2.36,0-4.19-1.72-4.19-4.49,0-2.91,1.92-4.62,4.32-4.62s4.19,1.82,4.19,4.47ZM739.33,468.31c0,1.91,1.09,3.35,2.64,3.35s2.65-1.42,2.65-3.4c0-1.47-.74-3.34-2.62-3.34s-2.67,1.73-2.67,3.38Z"/><path class="cls-36" d="M749.81,467.93h.04c.21-.31.51-.69.76-.99l2.57-3h1.9l-3.36,3.58,3.83,5.13h-1.93l-3-4.19-.81.91v3.28h-1.57v-12.78h1.57v8.07Z"/><path class="cls-36" d="M757.58,468.57c.03,2.14,1.39,3.02,2.98,3.02,1.13,0,1.83-.2,2.41-.45l.28,1.12c-.55.25-1.52.55-2.9.55-2.68,0-4.29-1.78-4.29-4.39s1.55-4.7,4.1-4.7c2.84,0,3.58,2.49,3.58,4.1,0,.33-.02.57-.05.74h-6.11ZM762.22,467.44c.02-1-.41-2.56-2.19-2.56-1.62,0-2.3,1.46-2.43,2.56h4.62Z"/><path class="cls-36" d="M765.34,465.36c0-.66.44-1.14,1.07-1.14s1.06.47,1.06,1.14c0,.63-.42,1.12-1.07,1.12s-1.07-.49-1.06-1.12ZM765.34,471.72c0-.66.44-1.14,1.07-1.14s1.06.47,1.06,1.14c0,.63-.42,1.12-1.07,1.12s-1.07-.49-1.06-1.12Z"/><path class="cls-24" d="M726.4,543.33c-.57.29-1.73.58-3.21.58-3.42,0-5.98-2.16-5.98-6.15s2.57-6.37,6.33-6.37c1.5,0,2.47.32,2.88.53l-.39,1.28c-.59-.28-1.43-.5-2.44-.5-2.85,0-4.73,1.82-4.73,5.01,0,2.97,1.71,4.87,4.65,4.87.96,0,1.93-.19,2.57-.5l.32,1.25Z"/><path class="cls-24" d="M735.99,539.29c0,3.22-2.24,4.64-4.33,4.64-2.36,0-4.19-1.72-4.19-4.49,0-2.91,1.92-4.62,4.32-4.62s4.19,1.82,4.19,4.47ZM729.09,539.39c0,1.91,1.09,3.35,2.64,3.35s2.65-1.42,2.65-3.4c0-1.47-.74-3.34-2.62-3.34s-2.67,1.73-2.67,3.38Z"/><path class="cls-24" d="M737.99,537.37c0-.91-.03-1.63-.07-2.35h1.4l.09,1.43h.04c.43-.82,1.44-1.63,2.88-1.63,1.2,0,3.07.72,3.07,3.71v5.2h-1.58v-5.02c0-1.41-.53-2.59-2.01-2.59-1.04,0-1.85.74-2.13,1.62-.07.19-.11.47-.11.73v5.25h-1.57v-6.36Z"/><path class="cls-24" d="M749.81,532.51v2.51h2.28v1.2h-2.28v4.69c0,1.08.31,1.7,1.2,1.7.41,0,.71-.05.92-.12l.07,1.2c-.31.12-.8.22-1.42.22-.73,0-1.33-.24-1.71-.67-.44-.48-.61-1.25-.61-2.27v-4.75h-1.35v-1.2h1.35v-2.1l1.55-.41Z"/><path class="cls-24" d="M754.65,539.66c.03,2.14,1.39,3.02,2.98,3.02,1.13,0,1.83-.2,2.41-.45l.28,1.12c-.55.25-1.52.55-2.91.55-2.68,0-4.28-1.78-4.28-4.39s1.55-4.7,4.1-4.7c2.84,0,3.58,2.49,3.58,4.1,0,.33-.02.57-.05.74h-6.11ZM759.28,538.52c.02-1-.41-2.56-2.18-2.56-1.62,0-2.3,1.46-2.43,2.56h4.62Z"/><path class="cls-24" d="M762.78,537.37c0-.91-.03-1.63-.07-2.35h1.4l.09,1.43h.04c.43-.82,1.44-1.63,2.88-1.63,1.2,0,3.07.72,3.07,3.71v5.2h-1.58v-5.02c0-1.41-.53-2.59-2.01-2.59-1.04,0-1.85.74-2.13,1.62-.06.19-.11.47-.11.73v5.25h-1.58v-6.36Z"/><path class="cls-24" d="M774.6,532.51v2.51h2.28v1.2h-2.28v4.69c0,1.08.31,1.7,1.2,1.7.41,0,.71-.05.92-.12l.07,1.2c-.31.12-.8.22-1.41.22-.73,0-1.33-.24-1.71-.67-.44-.48-.61-1.25-.61-2.27v-4.75h-1.35v-1.2h1.35v-2.1l1.55-.41Z"/><path class="cls-24" d="M778.43,542.11c.48.3,1.31.62,2.1.62,1.16,0,1.69-.57,1.69-1.3s-.46-1.16-1.62-1.59c-1.57-.57-2.32-1.43-2.31-2.47,0-1.4,1.14-2.55,3.01-2.55.88,0,1.65.24,2.13.54l-.39,1.15c-.33-.21-.97-.51-1.79-.51-.93,0-1.44.54-1.44,1.2,0,.72.51,1.04,1.65,1.48,1.5.56,2.28,1.32,2.28,2.62,0,1.54-1.2,2.62-3.26,2.62-.95,0-1.83-.25-2.45-.61l.38-1.19Z"/><line class="cls-4" x1="717.31" y1="476.15" x2="769.89" y2="476.15"/><use width="120.99" height="19.67" transform="translate(749.78 492.03)" xlink:href="#opacity-default"/><use width="120.99" height="19.67" transform="translate(749.78 424.31)" xlink:href="#opacity-default"/><use width="120.99" height="19.67" transform="translate(716.55 562.35)" xlink:href="#opacity-default"/><use width="27.88" height="3" transform="translate(782.03 626.96)" xlink:href="#drag-indicator"/><use width="49.94" height="111.88" transform="translate(582.5 275.61)" xlink:href="#appearance-styles-nav"/><polyline class="cls-15" points="908.26 322.86 902.37 316.96 907.87 311.46"/><polyline class="cls-15" points="902.54 322.86 896.65 316.96 902.16 311.46"/><line class="cls-15" x1="919.43" y1="308.51" x2="919.43" y2="325.81"/><line class="cls-15" x1="930.6" y1="312.09" x2="947.28" y2="312.09"/><line class="cls-15" x1="930.6" y1="317.16" x2="947.28" y2="317.16"/><line class="cls-15" x1="930.6" y1="322.23" x2="947.28" y2="322.23"/><use width="285.56" height="20.02" transform="translate(650.01 602.54)" xlink:href="#appearance-bottom-bar"/><rect class="cls-31" x="786.69" y="386.69" width="21" height="21"/><path class="cls-26" d="M805.69,388.69v17h-17v-17h17M809.69,384.69h-25v25h25v-25h0Z"/><rect class="cls-2" x="784.69" y="384.69" width="25" height="25"/><rect class="cls-2" x="786.69" y="386.69" width="21" height="21"/><rect class="cls-26" x="786.69" y="456.69" width="21" height="21"/><path class="cls-26" d="M805.69,458.69v17h-17v-17h17M809.69,454.69h-25v25h25v-25h0Z"/><rect class="cls-2" x="784.69" y="454.69" width="25" height="25"/><rect class="cls-2" x="786.69" y="456.69" width="21" height="21"/><path class="cls-36" d="M832.75,469.68c0-1.47.88-2.52,2.31-3.15v-.05c-1.31-.6-1.87-1.61-1.87-2.62,0-1.85,1.57-3.11,3.64-3.11,2.26,0,3.4,1.42,3.4,2.88,0,1-.5,2.06-1.92,2.74v.06c1.45.57,2.35,1.61,2.35,3.02,0,2.04-1.74,3.41-3.99,3.41-2.43,0-3.91-1.46-3.91-3.16ZM839.05,469.6c0-1.41-.99-2.1-2.57-2.55-1.36.39-2.11,1.3-2.11,2.41-.05,1.18.85,2.22,2.34,2.22s2.34-.88,2.34-2.09ZM834.7,463.74c0,1.17.88,1.81,2.23,2.16,1-.33,1.78-1.06,1.78-2.13,0-.92-.56-1.9-1.98-1.9-1.31,0-2.02.87-2.02,1.86Z"/><path class="cls-36" d="M842.63,466.77c0-1.11-.03-2.01-.07-2.84h1.42l.09,1.48h.04c.63-1.06,1.68-1.68,3.09-1.68,2.11,0,3.7,1.78,3.7,4.42,0,3.14-1.92,4.68-3.96,4.68-1.16,0-2.17-.51-2.68-1.37h-.04v4.74h-1.57v-9.44ZM844.2,469.1c0,.22.02.44.07.64.28,1.11,1.24,1.86,2.37,1.86,1.68,0,2.65-1.38,2.65-3.37,0-1.74-.91-3.23-2.59-3.23-1.08,0-2.1.76-2.4,1.95-.05.2-.1.44-.1.64v1.51Z"/><path class="cls-36" d="M854.77,461.43v2.51h2.28v1.2h-2.28v4.69c0,1.08.31,1.7,1.2,1.7.41,0,.71-.05.92-.11l.07,1.2c-.31.12-.8.22-1.42.22-.73,0-1.33-.24-1.71-.67-.44-.48-.62-1.25-.62-2.27v-4.75h-1.35v-1.2h1.35v-2.1l1.55-.41Z"/><line class="cls-21" x1="674.67" y1="554.69" x2="674.67" y2="589.69"/><rect class="cls-26" x="645.19" y="349.69" width="25" height="25"/><rect class="cls-8" x="645.19" y="349.69" width="25" height="25"/><rect class="cls-31" x="648.19" y="352.69" width="19" height="19"/><path class="cls-31" d="M624.98,540.42l-7.16,7.18-2.11-2.89,3.24-2.48h-10.4l-4.05.27v-4.16l4.05.27h10.4l-3.24-2.48,2.11-2.89,7.16,7.18Z"/><rect class="cls-22" x="46.66" y="298.45" width="328.06" height="37.41"/><polygon class="cls-28" points="155.88 335.87 155.88 298.45 46.66 298.45 46.66 335.87 46.66 594.14 374.72 594.14 374.72 335.87 155.88 335.87"/><polygon class="cls-5" points="155.88 335.87 155.88 298.45 46.66 298.45 46.66 335.87 46.66 594.14 374.72 594.14 374.72 335.87 155.88 335.87"/><line class="cls-21" x1="89.38" y1="379.69" x2="89.38" y2="554.69"/><path class="cls-27" d="M58.08,319.7l-1.04,3.43h-2.29l3.89-12.14h2.82l3.94,12.14h-2.38l-1.1-3.43h-3.86ZM61.57,318.02l-.96-2.99c-.23-.75-.43-1.58-.62-2.28h-.04c-.18.71-.36,1.55-.58,2.27l-.94,3h3.13Z"/><path class="cls-27" d="M66.93,317.27c0-1.14-.03-2.08-.07-2.91h1.95l.11,1.35h.04c.64-.99,1.66-1.54,3-1.54,2.01,0,3.68,1.72,3.68,4.46,0,3.18-1.99,4.71-3.99,4.71-1.1,0-2.02-.46-2.46-1.17h-.04v4.54h-2.21v-9.42ZM69.15,319.46c0,.21.02.42.06.6.23.9,1.01,1.55,1.95,1.55,1.41,0,2.23-1.17,2.23-2.89,0-1.55-.75-2.81-2.18-2.81-.91,0-1.75.67-1.98,1.64-.05.18-.08.37-.08.56v1.35Z"/><path class="cls-27" d="M77.46,317.27c0-1.14-.03-2.08-.07-2.91h1.95l.11,1.35h.04c.64-.99,1.67-1.54,3-1.54,2.01,0,3.68,1.72,3.68,4.46,0,3.18-1.99,4.71-3.99,4.71-1.1,0-2.02-.46-2.46-1.17h-.04v4.54h-2.21v-9.42ZM79.68,319.46c0,.21.02.42.06.6.23.9,1,1.55,1.95,1.55,1.41,0,2.23-1.17,2.23-2.89,0-1.55-.75-2.81-2.18-2.81-.91,0-1.75.67-1.98,1.64-.04.18-.08.37-.08.56v1.35Z"/><path class="cls-27" d="M89.59,319.36c.06,1.59,1.29,2.28,2.71,2.28,1.02,0,1.75-.16,2.42-.41l.33,1.53c-.75.32-1.79.56-3.06.56-2.85,0-4.51-1.76-4.51-4.44,0-2.42,1.47-4.71,4.29-4.71s3.78,2.34,3.78,4.26c0,.41-.04.74-.08.93h-5.86ZM93.44,317.81c0-.81-.34-2.14-1.83-2.14-1.36,0-1.93,1.24-2.03,2.14h3.86Z"/><path class="cls-27" d="M102.25,323.13l-.15-.98h-.05c-.53.69-1.45,1.17-2.58,1.17-1.78,0-2.76-1.27-2.76-2.61,0-2.21,1.97-3.33,5.2-3.32v-.14c0-.58-.23-1.53-1.78-1.53-.86,0-1.76.28-2.36.65l-.44-1.44c.66-.4,1.8-.78,3.18-.78,2.81,0,3.61,1.77,3.61,3.7v3.16c0,.8.04,1.57.14,2.11h-2ZM101.95,318.83c-1.56-.02-3.06.31-3.06,1.64,0,.86.56,1.26,1.26,1.26.88,0,1.52-.57,1.73-1.21.05-.15.06-.33.06-.48v-1.21Z"/><path class="cls-27" d="M106.46,317.18c0-1.17-.03-2.04-.07-2.82h1.92l.08,1.67h.06c.43-1.24,1.45-1.86,2.4-1.86.22,0,.34,0,.52.05v2.09c-.19-.04-.38-.06-.65-.06-1.06,0-1.79.67-1.99,1.68-.04.2-.06.43-.06.67v4.55h-2.22v-5.95Z"/><path class="cls-27" d="M117.64,323.13l-.15-.98h-.05c-.53.69-1.45,1.17-2.58,1.17-1.78,0-2.76-1.27-2.76-2.61,0-2.21,1.97-3.33,5.2-3.32v-.14c0-.58-.23-1.53-1.78-1.53-.86,0-1.76.28-2.36.65l-.44-1.44c.66-.4,1.8-.78,3.18-.78,2.81,0,3.61,1.77,3.61,3.7v3.16c0,.8.04,1.57.14,2.11h-2ZM117.34,318.83c-1.56-.02-3.06.31-3.06,1.64,0,.86.56,1.26,1.26,1.26.88,0,1.52-.57,1.73-1.21.05-.15.06-.33.06-.48v-1.21Z"/><path class="cls-27" d="M121.85,316.97c0-1.01-.03-1.85-.07-2.61h1.94l.11,1.32h.05c.39-.68,1.34-1.51,2.79-1.51,1.53,0,3.12.98,3.12,3.76v5.21h-2.22v-4.95c0-1.26-.46-2.22-1.67-2.22-.88,0-1.49.62-1.72,1.3-.07.18-.1.45-.1.7v5.16h-2.22v-6.16Z"/><path class="cls-27" d="M138.58,322.86c-.46.22-1.38.45-2.47.45-2.75,0-4.52-1.76-4.52-4.48s1.79-4.67,4.88-4.67c.82,0,1.63.18,2.14.4l-.39,1.67c-.36-.17-.89-.34-1.68-.34-1.69,0-2.69,1.24-2.68,2.84,0,1.8,1.18,2.83,2.69,2.83.76,0,1.31-.17,1.74-.35l.3,1.65Z"/><path class="cls-27" d="M141.63,319.36c.06,1.59,1.29,2.28,2.71,2.28,1.02,0,1.75-.16,2.42-.41l.33,1.53c-.75.32-1.79.56-3.06.56-2.85,0-4.51-1.76-4.51-4.44,0-2.42,1.47-4.71,4.29-4.71s3.78,2.34,3.78,4.26c0,.41-.04.74-.08.93h-5.86ZM145.48,317.81c0-.81-.34-2.14-1.83-2.14-1.36,0-1.93,1.24-2.03,2.14h3.86Z"/><path class="cls-32" d="M178.85,322.57c-.78.28-2.29.67-3.91.67-2.05,0-3.61-.51-4.76-1.62-1.08-1.03-1.71-2.63-1.7-4.46,0-3.85,2.75-6.3,6.76-6.3,1.49,0,2.66.3,3.22.57l-.49,1.78c-.66-.29-1.47-.52-2.76-.52-2.58,0-4.41,1.53-4.41,4.35s1.7,4.39,4.21,4.39c.8,0,1.39-.1,1.68-.24v-3.03h-2.14v-1.74h4.29v6.14Z"/><path class="cls-32" d="M181.08,317.18c0-1.17-.02-2.04-.07-2.82h1.92l.08,1.67h.06c.43-1.24,1.45-1.86,2.4-1.86.22,0,.34,0,.52.05v2.09c-.19-.04-.38-.06-.65-.06-1.06,0-1.79.67-1.99,1.68-.04.2-.06.43-.06.67v4.55h-2.22v-5.95Z"/><path class="cls-32" d="M192.26,323.13l-.15-.98h-.05c-.53.69-1.45,1.17-2.58,1.17-1.78,0-2.76-1.27-2.76-2.61,0-2.21,1.97-3.33,5.2-3.32v-.14c0-.58-.23-1.53-1.78-1.53-.86,0-1.76.28-2.36.65l-.44-1.44c.66-.4,1.8-.78,3.18-.78,2.81,0,3.61,1.77,3.61,3.7v3.16c0,.8.04,1.57.14,2.11h-2ZM191.97,318.83c-1.56-.02-3.06.31-3.06,1.64,0,.86.56,1.26,1.26,1.26.88,0,1.52-.57,1.73-1.21.05-.15.06-.33.06-.48v-1.21Z"/><path class="cls-32" d="M196.47,317.27c0-1.14-.03-2.08-.07-2.91h1.95l.11,1.35h.04c.64-.99,1.67-1.54,3-1.54,2.01,0,3.68,1.72,3.68,4.46,0,3.18-1.99,4.71-3.99,4.71-1.1,0-2.02-.46-2.46-1.17h-.04v4.54h-2.22v-9.42ZM198.69,319.46c0,.21.02.42.06.6.23.9,1.01,1.55,1.95,1.55,1.41,0,2.23-1.17,2.23-2.89,0-1.55-.75-2.81-2.18-2.81-.91,0-1.75.67-1.98,1.64-.05.18-.08.37-.08.56v1.35Z"/><path class="cls-32" d="M207,310.34h2.22v5.21h.04c.28-.41.65-.75,1.1-1,.43-.25.96-.39,1.51-.39,1.49,0,3.06.99,3.06,3.8v5.16h-2.22v-4.92c0-1.27-.46-2.24-1.68-2.24-.87,0-1.47.58-1.72,1.24-.08.19-.1.43-.1.67v5.24h-2.22v-12.78Z"/><path class="cls-32" d="M219.65,311.91c0,.66-.48,1.2-1.26,1.2-.73,0-1.22-.53-1.21-1.2,0-.68.5-1.2,1.24-1.2s1.23.52,1.24,1.2ZM217.3,323.13v-8.77h2.22v8.77h-2.22Z"/><path class="cls-32" d="M228.34,322.86c-.46.22-1.37.45-2.47.45-2.75,0-4.52-1.76-4.52-4.48s1.79-4.67,4.88-4.67c.82,0,1.63.18,2.14.4l-.39,1.67c-.36-.17-.89-.34-1.68-.34-1.69,0-2.69,1.24-2.68,2.84,0,1.8,1.18,2.83,2.69,2.83.76,0,1.31-.17,1.74-.35l.3,1.65Z"/><path class="cls-32" d="M233.75,320.71c.71.41,1.8.77,2.93.77,1.42,0,2.21-.66,2.21-1.66,0-.92-.61-1.46-2.15-2.01-2-.71-3.29-1.79-3.29-3.53,0-1.99,1.66-3.48,4.29-3.48,1.32,0,2.28.28,2.91.6l-.53,1.79c-.44-.23-1.28-.58-2.42-.58-1.41,0-2,.75-2,1.46,0,.93.7,1.37,2.32,1.99,2.11.8,3.12,1.86,3.12,3.61,0,1.95-1.47,3.65-4.6,3.65-1.28,0-2.62-.37-3.28-.77l.49-1.84Z"/><path class="cls-32" d="M245.52,311.85v2.51h2.11v1.65h-2.11v3.87c0,1.07.29,1.62,1.13,1.62.38,0,.66-.04.86-.1l.04,1.69c-.33.12-.91.23-1.61.23-.82,0-1.49-.28-1.91-.72-.48-.5-.69-1.31-.69-2.46v-4.12h-1.25v-1.65h1.25v-1.99l2.17-.53Z"/><path class="cls-32" d="M250.81,314.36l1.58,4.7c.17.54.36,1.21.49,1.7h.05c.14-.49.3-1.15.46-1.72l1.37-4.68h2.36l-2.2,5.98c-1.2,3.27-2.02,4.73-3.05,5.64-.87.76-1.77,1.05-2.32,1.12l-.5-1.87c.37-.09.83-.29,1.28-.61.42-.28.91-.79,1.22-1.4.09-.15.14-.28.14-.39,0-.1-.02-.23-.12-.43l-3.22-8.05h2.44Z"/><path class="cls-32" d="M258.43,310.34h2.22v12.78h-2.22v-12.78Z"/><path class="cls-32" d="M264.61,319.36c.06,1.59,1.29,2.28,2.71,2.28,1.02,0,1.75-.16,2.42-.41l.33,1.53c-.75.32-1.79.56-3.06.56-2.85,0-4.51-1.76-4.51-4.44,0-2.42,1.47-4.71,4.29-4.71s3.78,2.34,3.78,4.26c0,.41-.04.74-.08.93h-5.86ZM268.47,317.81c0-.81-.34-2.14-1.83-2.14-1.36,0-1.93,1.24-2.03,2.14h3.86Z"/><path class="cls-32" d="M272.24,321.09c.49.3,1.44.64,2.24.64.97,0,1.41-.41,1.41-.98s-.36-.9-1.44-1.28c-1.72-.59-2.43-1.52-2.42-2.56,0-1.54,1.28-2.74,3.33-2.74.97,0,1.81.24,2.32.52l-.44,1.56c-.37-.21-1.08-.5-1.85-.5s-1.23.39-1.23.93.42.82,1.53,1.23c1.59.56,2.33,1.38,2.34,2.67,0,1.6-1.25,2.75-3.56,2.75-1.06,0-2.03-.25-2.67-.61l.45-1.61Z"/><rect class="cls-19" x="46.66" y="293.13" width="328.06" height="5.32"/><path class="cls-24" d="M102.54,358.05c.8-.14,1.9-.25,3.39-.25,1.62,0,2.8.34,3.57.99.72.59,1.19,1.55,1.19,2.69s-.36,2.1-1.03,2.75c-.89.88-2.26,1.31-3.84,1.31-.41,0-.79-.02-1.08-.09v4.58h-2.2v-11.98ZM104.74,363.71c.28.07.63.1,1.09.1,1.66,0,2.67-.83,2.67-2.25,0-1.34-.94-2.06-2.47-2.06-.61,0-1.05.05-1.28.11v4.1Z"/><path class="cls-24" d="M117.08,370.03l-.15-.98h-.05c-.53.69-1.45,1.17-2.58,1.17-1.78,0-2.76-1.27-2.76-2.61,0-2.21,1.97-3.33,5.2-3.32v-.14c0-.58-.23-1.53-1.78-1.53-.86,0-1.76.28-2.36.65l-.44-1.44c.66-.4,1.8-.78,3.18-.78,2.81,0,3.61,1.77,3.61,3.7v3.16c0,.8.04,1.57.14,2.11h-2ZM116.78,365.74c-1.56-.02-3.06.31-3.06,1.64,0,.86.56,1.26,1.26,1.26.88,0,1.52-.57,1.73-1.21.05-.15.06-.33.06-.48v-1.21Z"/><path class="cls-24" d="M123.72,358.75v2.51h2.11v1.65h-2.11v3.87c0,1.07.29,1.62,1.13,1.62.38,0,.66-.04.86-.1l.04,1.69c-.33.12-.91.23-1.61.23-.81,0-1.49-.28-1.9-.72-.48-.5-.69-1.31-.69-2.46v-4.12h-1.25v-1.65h1.25v-1.99l2.17-.53Z"/><path class="cls-24" d="M127.5,357.25h2.22v5.21h.04c.28-.41.65-.75,1.1-1,.43-.25.96-.39,1.51-.39,1.49,0,3.06.99,3.06,3.8v5.16h-2.22v-4.92c0-1.27-.46-2.24-1.68-2.24-.87,0-1.47.58-1.72,1.24-.07.19-.1.43-.1.67v5.24h-2.22v-12.78Z"/><path class="cls-24" d="M132.63,393.09h6.54v1.31h-4.96v4.04h4.58v1.3h-4.58v5.49h-1.58v-12.14Z"/><path class="cls-24" d="M142.65,394.06c0,.54-.38.98-1.01.98-.57,0-.96-.45-.96-.98,0-.54.4-.99.98-.99s.97.43.98.99ZM140.88,405.23v-8.71h1.58v8.71h-1.58Z"/><path class="cls-24" d="M145.09,392.44h1.58v12.78h-1.58v-12.78Z"/><path class="cls-24" d="M149.34,392.44h1.58v12.78h-1.58v-12.78Z"/><path class="cls-24" d="M153.22,397.95c0-.66.44-1.14,1.07-1.14s1.06.47,1.06,1.14c0,.63-.42,1.12-1.07,1.12s-1.07-.49-1.06-1.12ZM153.22,404.3c0-.66.44-1.14,1.07-1.14s1.06.47,1.06,1.14c0,.63-.42,1.12-1.07,1.12s-1.07-.49-1.06-1.12Z"/><rect class="cls-15" x="54.38" y="414.69" width="312.61" height="35"/><rect class="cls-15" x="54.38" y="449.69" width="312.61" height="35"/><rect class="cls-15" x="54.38" y="484.69" width="312.61" height="35"/><rect class="cls-15" x="54.38" y="519.69" width="312.61" height="35"/><use width="20.96" height="12.42" transform="translate(61.4 460.98)" xlink:href="#eye"/><use class="cls-34" width="20.96" height="12.42" transform="translate(61.4 531.31)" xlink:href="#eye"/><use width="20.96" height="12.42" transform="translate(61.4 392.21)" xlink:href="#eye"/><use class="cls-34" width="20.96" height="12.42" transform="translate(61.4 425.98)" xlink:href="#eye"/><use class="cls-34" width="20.96" height="12.42" transform="translate(61.4 496.33)" xlink:href="#eye"/><polyline class="cls-6" points="114.56 463.04 108.67 468.93 103.16 463.43"/><polyline class="cls-6" points="114.56 395.48 108.67 401.37 103.16 395.86"/><rect class="cls-18" x="46.66" y="586.93" width="328.06" height="7.21"/><line class="cls-5" x1="293.06" y1="298.45" x2="293.06" y2="335.87"/><rect class="cls-15" x="54.38" y="344.69" width="312.61" height="35"/><rect class="cls-15" x="54.38" y="379.69" width="312.61" height="35"/><path class="cls-36" d="M132.43,470.73c.7.44,1.72.79,2.8.79,1.6,0,2.55-.84,2.55-2.07,0-1.12-.66-1.79-2.3-2.4-1.98-.7-3.21-1.74-3.21-3.44,0-1.89,1.57-3.29,3.93-3.29,1.23,0,2.15.29,2.68.59l-.44,1.29c-.39-.23-1.2-.58-2.29-.58-1.67,0-2.3.99-2.3,1.81,0,1.13.74,1.68,2.41,2.33,2.06.81,3.09,1.79,3.09,3.57s-1.37,3.5-4.25,3.5c-1.17,0-2.45-.35-3.1-.79l.41-1.31Z"/><path class="cls-36" d="M143.3,461.43v2.51h2.28v1.2h-2.28v4.69c0,1.08.31,1.7,1.2,1.7.41,0,.71-.05.92-.12l.07,1.2c-.31.12-.8.22-1.41.22-.73,0-1.33-.24-1.71-.67-.44-.48-.61-1.25-.61-2.27v-4.75h-1.35v-1.2h1.35v-2.1l1.55-.41Z"/><path class="cls-36" d="M147.36,466.65c0-1.03-.03-1.9-.07-2.71h1.39l.06,1.71h.06c.41-1.17,1.37-1.91,2.42-1.91.17,0,.3.01.44.04v1.49c-.16-.03-.32-.05-.54-.05-1.12,0-1.91.84-2.12,2.03-.04.22-.06.48-.06.74v4.65h-1.58v-6Z"/><path class="cls-36" d="M160.95,468.21c0,3.22-2.24,4.64-4.33,4.64-2.36,0-4.19-1.72-4.19-4.49,0-2.91,1.92-4.62,4.32-4.62s4.19,1.82,4.19,4.47ZM154.04,468.31c0,1.91,1.09,3.35,2.64,3.35s2.65-1.42,2.65-3.4c0-1.47-.74-3.34-2.62-3.34s-2.67,1.73-2.67,3.38Z"/><path class="cls-36" d="M164.52,467.93h.04c.21-.31.51-.69.76-.99l2.57-3h1.9l-3.36,3.58,3.83,5.13h-1.93l-3-4.19-.81.91v3.28h-1.57v-12.78h1.57v8.07Z"/><path class="cls-36" d="M172.3,468.57c.03,2.14,1.39,3.02,2.98,3.02,1.13,0,1.83-.2,2.41-.45l.28,1.12c-.55.25-1.52.55-2.91.55-2.68,0-4.28-1.78-4.28-4.39s1.55-4.7,4.1-4.7c2.84,0,3.58,2.49,3.58,4.1,0,.33-.02.57-.05.74h-6.11ZM176.93,467.44c.02-1-.41-2.56-2.18-2.56-1.62,0-2.3,1.46-2.43,2.56h4.62Z"/><path class="cls-36" d="M180.06,465.36c0-.66.44-1.14,1.07-1.14s1.06.47,1.06,1.14c0,.63-.42,1.12-1.07,1.12s-1.07-.49-1.06-1.12ZM180.06,471.72c0-.66.44-1.14,1.07-1.14s1.06.47,1.06,1.14c0,.63-.42,1.12-1.07,1.12s-1.07-.49-1.06-1.12Z"/><line class="cls-4" x1="132.02" y1="476.15" x2="184.61" y2="476.15"/><use width="120.99" height="19.67" transform="translate(164.5 492.03)" xlink:href="#opacity-default"/><use width="120.99" height="19.67" transform="translate(164.5 424.31)" xlink:href="#opacity-default"/><use width="120.99" height="19.67" transform="translate(131.27 526.69)" xlink:href="#opacity-default"/><use width="27.88" height="3" transform="translate(196.74 586.93)" xlink:href="#drag-indicator"/><use width="49.94" height="111.88" transform="translate(-2.79 275.61)" xlink:href="#appearance-styles-nav"/><polyline class="cls-15" points="322.98 322.86 317.08 316.96 322.59 311.46"/><polyline class="cls-15" points="317.26 322.86 311.37 316.96 316.87 311.46"/><line class="cls-15" x1="334.15" y1="308.51" x2="334.15" y2="325.81"/><line class="cls-15" x1="345.32" y1="312.09" x2="361.99" y2="312.09"/><line class="cls-15" x1="345.32" y1="317.16" x2="361.99" y2="317.16"/><line class="cls-15" x1="345.32" y1="322.23" x2="361.99" y2="322.23"/><use width="285.56" height="20.02" transform="translate(64.73 562.52)" xlink:href="#appearance-bottom-bar"/><rect class="cls-31" x="201.41" y="386.69" width="21" height="21"/><path class="cls-26" d="M220.41,388.69v17h-17v-17h17M224.41,384.69h-25v25h25v-25h0Z"/><rect class="cls-2" x="199.41" y="384.69" width="25" height="25"/><rect class="cls-2" x="201.41" y="386.69" width="21" height="21"/><rect class="cls-26" x="201.41" y="456.69" width="21" height="21"/><path class="cls-26" d="M220.41,458.69v17h-17v-17h17M224.41,454.69h-25v25h25v-25h0Z"/><rect class="cls-2" x="199.41" y="454.69" width="25" height="25"/><rect class="cls-2" x="201.41" y="456.69" width="21" height="21"/><path class="cls-36" d="M247.47,469.87c0-1.47.88-2.52,2.31-3.14v-.05c-1.31-.6-1.88-1.61-1.88-2.62,0-1.84,1.57-3.11,3.64-3.11,2.26,0,3.4,1.42,3.4,2.88,0,1-.49,2.06-1.92,2.73v.06c1.45.57,2.35,1.61,2.35,3.02,0,2.04-1.74,3.41-3.99,3.41-2.44,0-3.91-1.46-3.91-3.17ZM253.76,469.79c0-1.41-.99-2.1-2.57-2.55-1.36.39-2.11,1.3-2.11,2.41-.05,1.18.85,2.22,2.34,2.22s2.34-.88,2.34-2.09ZM249.41,463.94c0,1.17.88,1.81,2.23,2.16,1-.33,1.78-1.06,1.78-2.13,0-.92-.56-1.9-1.98-1.9-1.31,0-2.02.87-2.02,1.86Z"/><path class="cls-36" d="M257.34,466.97c0-1.11-.03-2.01-.07-2.84h1.42l.09,1.48h.04c.63-1.06,1.68-1.68,3.09-1.68,2.11,0,3.7,1.78,3.7,4.42,0,3.14-1.92,4.69-3.96,4.69-1.17,0-2.17-.51-2.68-1.37h-.04v4.74h-1.57v-9.44ZM258.92,469.3c0,.22.02.44.07.64.28,1.11,1.24,1.86,2.37,1.86,1.68,0,2.65-1.38,2.65-3.37,0-1.74-.91-3.23-2.59-3.23-1.08,0-2.1.76-2.4,1.95-.05.2-.1.43-.1.64v1.51Z"/><path class="cls-36" d="M269.49,461.63v2.51h2.28v1.2h-2.28v4.69c0,1.08.31,1.7,1.2,1.7.41,0,.71-.05.92-.12l.07,1.2c-.31.12-.8.22-1.41.22-.73,0-1.33-.24-1.71-.67-.44-.48-.62-1.25-.62-2.27v-4.75h-1.35v-1.2h1.35v-2.1l1.55-.41Z"/><rect class="cls-26" x="59.91" y="349.69" width="25" height="25"/><rect class="cls-8" x="59.91" y="349.69" width="25" height="25"/><rect class="cls-31" x="62.91" y="352.69" width="19" height="19"/></g></svg>